%TF.GenerationSoftware,KiCad,Pcbnew,8.0.3*%
%TF.CreationDate,2025-02-16T14:56:23+13:00*%
%TF.ProjectId,Power-stage-rounded,506f7765-722d-4737-9461-67652d726f75,rev?*%
%TF.SameCoordinates,Original*%
%TF.FileFunction,Legend,Top*%
%TF.FilePolarity,Positive*%
%FSLAX46Y46*%
G04 Gerber Fmt 4.6, Leading zero omitted, Abs format (unit mm)*
G04 Created by KiCad (PCBNEW 8.0.3) date 2025-02-16 14:56:23*
%MOMM*%
%LPD*%
G01*
G04 APERTURE LIST*
%ADD10C,0.200000*%
%ADD11C,0.500000*%
%ADD12C,0.150000*%
%ADD13C,0.120000*%
G04 APERTURE END LIST*
D10*
X115243482Y-77614838D02*
X115148244Y-77567219D01*
X115148244Y-77567219D02*
X115005387Y-77567219D01*
X115005387Y-77567219D02*
X114862530Y-77614838D01*
X114862530Y-77614838D02*
X114767292Y-77710076D01*
X114767292Y-77710076D02*
X114719673Y-77805314D01*
X114719673Y-77805314D02*
X114672054Y-77995790D01*
X114672054Y-77995790D02*
X114672054Y-78138647D01*
X114672054Y-78138647D02*
X114719673Y-78329123D01*
X114719673Y-78329123D02*
X114767292Y-78424361D01*
X114767292Y-78424361D02*
X114862530Y-78519600D01*
X114862530Y-78519600D02*
X115005387Y-78567219D01*
X115005387Y-78567219D02*
X115100625Y-78567219D01*
X115100625Y-78567219D02*
X115243482Y-78519600D01*
X115243482Y-78519600D02*
X115291101Y-78471980D01*
X115291101Y-78471980D02*
X115291101Y-78138647D01*
X115291101Y-78138647D02*
X115100625Y-78138647D01*
X115719673Y-78567219D02*
X115719673Y-77567219D01*
X115719673Y-77567219D02*
X116291101Y-78567219D01*
X116291101Y-78567219D02*
X116291101Y-77567219D01*
X116767292Y-78567219D02*
X116767292Y-77567219D01*
X116767292Y-77567219D02*
X117005387Y-77567219D01*
X117005387Y-77567219D02*
X117148244Y-77614838D01*
X117148244Y-77614838D02*
X117243482Y-77710076D01*
X117243482Y-77710076D02*
X117291101Y-77805314D01*
X117291101Y-77805314D02*
X117338720Y-77995790D01*
X117338720Y-77995790D02*
X117338720Y-78138647D01*
X117338720Y-78138647D02*
X117291101Y-78329123D01*
X117291101Y-78329123D02*
X117243482Y-78424361D01*
X117243482Y-78424361D02*
X117148244Y-78519600D01*
X117148244Y-78519600D02*
X117005387Y-78567219D01*
X117005387Y-78567219D02*
X116767292Y-78567219D01*
X115243482Y-82814838D02*
X115148244Y-82767219D01*
X115148244Y-82767219D02*
X115005387Y-82767219D01*
X115005387Y-82767219D02*
X114862530Y-82814838D01*
X114862530Y-82814838D02*
X114767292Y-82910076D01*
X114767292Y-82910076D02*
X114719673Y-83005314D01*
X114719673Y-83005314D02*
X114672054Y-83195790D01*
X114672054Y-83195790D02*
X114672054Y-83338647D01*
X114672054Y-83338647D02*
X114719673Y-83529123D01*
X114719673Y-83529123D02*
X114767292Y-83624361D01*
X114767292Y-83624361D02*
X114862530Y-83719600D01*
X114862530Y-83719600D02*
X115005387Y-83767219D01*
X115005387Y-83767219D02*
X115100625Y-83767219D01*
X115100625Y-83767219D02*
X115243482Y-83719600D01*
X115243482Y-83719600D02*
X115291101Y-83671980D01*
X115291101Y-83671980D02*
X115291101Y-83338647D01*
X115291101Y-83338647D02*
X115100625Y-83338647D01*
X115719673Y-83767219D02*
X115719673Y-82767219D01*
X115719673Y-82767219D02*
X116291101Y-83767219D01*
X116291101Y-83767219D02*
X116291101Y-82767219D01*
X116767292Y-83767219D02*
X116767292Y-82767219D01*
X116767292Y-82767219D02*
X117005387Y-82767219D01*
X117005387Y-82767219D02*
X117148244Y-82814838D01*
X117148244Y-82814838D02*
X117243482Y-82910076D01*
X117243482Y-82910076D02*
X117291101Y-83005314D01*
X117291101Y-83005314D02*
X117338720Y-83195790D01*
X117338720Y-83195790D02*
X117338720Y-83338647D01*
X117338720Y-83338647D02*
X117291101Y-83529123D01*
X117291101Y-83529123D02*
X117243482Y-83624361D01*
X117243482Y-83624361D02*
X117148244Y-83719600D01*
X117148244Y-83719600D02*
X117005387Y-83767219D01*
X117005387Y-83767219D02*
X116767292Y-83767219D01*
X115243482Y-90414838D02*
X115148244Y-90367219D01*
X115148244Y-90367219D02*
X115005387Y-90367219D01*
X115005387Y-90367219D02*
X114862530Y-90414838D01*
X114862530Y-90414838D02*
X114767292Y-90510076D01*
X114767292Y-90510076D02*
X114719673Y-90605314D01*
X114719673Y-90605314D02*
X114672054Y-90795790D01*
X114672054Y-90795790D02*
X114672054Y-90938647D01*
X114672054Y-90938647D02*
X114719673Y-91129123D01*
X114719673Y-91129123D02*
X114767292Y-91224361D01*
X114767292Y-91224361D02*
X114862530Y-91319600D01*
X114862530Y-91319600D02*
X115005387Y-91367219D01*
X115005387Y-91367219D02*
X115100625Y-91367219D01*
X115100625Y-91367219D02*
X115243482Y-91319600D01*
X115243482Y-91319600D02*
X115291101Y-91271980D01*
X115291101Y-91271980D02*
X115291101Y-90938647D01*
X115291101Y-90938647D02*
X115100625Y-90938647D01*
X115719673Y-91367219D02*
X115719673Y-90367219D01*
X115719673Y-90367219D02*
X116291101Y-91367219D01*
X116291101Y-91367219D02*
X116291101Y-90367219D01*
X116767292Y-91367219D02*
X116767292Y-90367219D01*
X116767292Y-90367219D02*
X117005387Y-90367219D01*
X117005387Y-90367219D02*
X117148244Y-90414838D01*
X117148244Y-90414838D02*
X117243482Y-90510076D01*
X117243482Y-90510076D02*
X117291101Y-90605314D01*
X117291101Y-90605314D02*
X117338720Y-90795790D01*
X117338720Y-90795790D02*
X117338720Y-90938647D01*
X117338720Y-90938647D02*
X117291101Y-91129123D01*
X117291101Y-91129123D02*
X117243482Y-91224361D01*
X117243482Y-91224361D02*
X117148244Y-91319600D01*
X117148244Y-91319600D02*
X117005387Y-91367219D01*
X117005387Y-91367219D02*
X116767292Y-91367219D01*
X115243482Y-95414838D02*
X115148244Y-95367219D01*
X115148244Y-95367219D02*
X115005387Y-95367219D01*
X115005387Y-95367219D02*
X114862530Y-95414838D01*
X114862530Y-95414838D02*
X114767292Y-95510076D01*
X114767292Y-95510076D02*
X114719673Y-95605314D01*
X114719673Y-95605314D02*
X114672054Y-95795790D01*
X114672054Y-95795790D02*
X114672054Y-95938647D01*
X114672054Y-95938647D02*
X114719673Y-96129123D01*
X114719673Y-96129123D02*
X114767292Y-96224361D01*
X114767292Y-96224361D02*
X114862530Y-96319600D01*
X114862530Y-96319600D02*
X115005387Y-96367219D01*
X115005387Y-96367219D02*
X115100625Y-96367219D01*
X115100625Y-96367219D02*
X115243482Y-96319600D01*
X115243482Y-96319600D02*
X115291101Y-96271980D01*
X115291101Y-96271980D02*
X115291101Y-95938647D01*
X115291101Y-95938647D02*
X115100625Y-95938647D01*
X115719673Y-96367219D02*
X115719673Y-95367219D01*
X115719673Y-95367219D02*
X116291101Y-96367219D01*
X116291101Y-96367219D02*
X116291101Y-95367219D01*
X116767292Y-96367219D02*
X116767292Y-95367219D01*
X116767292Y-95367219D02*
X117005387Y-95367219D01*
X117005387Y-95367219D02*
X117148244Y-95414838D01*
X117148244Y-95414838D02*
X117243482Y-95510076D01*
X117243482Y-95510076D02*
X117291101Y-95605314D01*
X117291101Y-95605314D02*
X117338720Y-95795790D01*
X117338720Y-95795790D02*
X117338720Y-95938647D01*
X117338720Y-95938647D02*
X117291101Y-96129123D01*
X117291101Y-96129123D02*
X117243482Y-96224361D01*
X117243482Y-96224361D02*
X117148244Y-96319600D01*
X117148244Y-96319600D02*
X117005387Y-96367219D01*
X117005387Y-96367219D02*
X116767292Y-96367219D01*
X107743482Y-86067219D02*
X107172054Y-86067219D01*
X107457768Y-86067219D02*
X107457768Y-85067219D01*
X107457768Y-85067219D02*
X107362530Y-85210076D01*
X107362530Y-85210076D02*
X107267292Y-85305314D01*
X107267292Y-85305314D02*
X107172054Y-85352933D01*
X108124435Y-85162457D02*
X108172054Y-85114838D01*
X108172054Y-85114838D02*
X108267292Y-85067219D01*
X108267292Y-85067219D02*
X108505387Y-85067219D01*
X108505387Y-85067219D02*
X108600625Y-85114838D01*
X108600625Y-85114838D02*
X108648244Y-85162457D01*
X108648244Y-85162457D02*
X108695863Y-85257695D01*
X108695863Y-85257695D02*
X108695863Y-85352933D01*
X108695863Y-85352933D02*
X108648244Y-85495790D01*
X108648244Y-85495790D02*
X108076816Y-86067219D01*
X108076816Y-86067219D02*
X108695863Y-86067219D01*
X108981578Y-85067219D02*
X109314911Y-86067219D01*
X109314911Y-86067219D02*
X109648244Y-85067219D01*
X107695863Y-87867219D02*
X107219673Y-87867219D01*
X107219673Y-87867219D02*
X107172054Y-88343409D01*
X107172054Y-88343409D02*
X107219673Y-88295790D01*
X107219673Y-88295790D02*
X107314911Y-88248171D01*
X107314911Y-88248171D02*
X107553006Y-88248171D01*
X107553006Y-88248171D02*
X107648244Y-88295790D01*
X107648244Y-88295790D02*
X107695863Y-88343409D01*
X107695863Y-88343409D02*
X107743482Y-88438647D01*
X107743482Y-88438647D02*
X107743482Y-88676742D01*
X107743482Y-88676742D02*
X107695863Y-88771980D01*
X107695863Y-88771980D02*
X107648244Y-88819600D01*
X107648244Y-88819600D02*
X107553006Y-88867219D01*
X107553006Y-88867219D02*
X107314911Y-88867219D01*
X107314911Y-88867219D02*
X107219673Y-88819600D01*
X107219673Y-88819600D02*
X107172054Y-88771980D01*
X108029197Y-87867219D02*
X108362530Y-88867219D01*
X108362530Y-88867219D02*
X108695863Y-87867219D01*
X107172054Y-75919600D02*
X107314911Y-75967219D01*
X107314911Y-75967219D02*
X107553006Y-75967219D01*
X107553006Y-75967219D02*
X107648244Y-75919600D01*
X107648244Y-75919600D02*
X107695863Y-75871980D01*
X107695863Y-75871980D02*
X107743482Y-75776742D01*
X107743482Y-75776742D02*
X107743482Y-75681504D01*
X107743482Y-75681504D02*
X107695863Y-75586266D01*
X107695863Y-75586266D02*
X107648244Y-75538647D01*
X107648244Y-75538647D02*
X107553006Y-75491028D01*
X107553006Y-75491028D02*
X107362530Y-75443409D01*
X107362530Y-75443409D02*
X107267292Y-75395790D01*
X107267292Y-75395790D02*
X107219673Y-75348171D01*
X107219673Y-75348171D02*
X107172054Y-75252933D01*
X107172054Y-75252933D02*
X107172054Y-75157695D01*
X107172054Y-75157695D02*
X107219673Y-75062457D01*
X107219673Y-75062457D02*
X107267292Y-75014838D01*
X107267292Y-75014838D02*
X107362530Y-74967219D01*
X107362530Y-74967219D02*
X107600625Y-74967219D01*
X107600625Y-74967219D02*
X107743482Y-75014838D01*
X108076816Y-74967219D02*
X108314911Y-75967219D01*
X108314911Y-75967219D02*
X108505387Y-75252933D01*
X108505387Y-75252933D02*
X108695863Y-75967219D01*
X108695863Y-75967219D02*
X108933959Y-74967219D01*
X109838720Y-75967219D02*
X109267292Y-75967219D01*
X109553006Y-75967219D02*
X109553006Y-74967219D01*
X109553006Y-74967219D02*
X109457768Y-75110076D01*
X109457768Y-75110076D02*
X109362530Y-75205314D01*
X109362530Y-75205314D02*
X109267292Y-75252933D01*
X107172054Y-81019600D02*
X107314911Y-81067219D01*
X107314911Y-81067219D02*
X107553006Y-81067219D01*
X107553006Y-81067219D02*
X107648244Y-81019600D01*
X107648244Y-81019600D02*
X107695863Y-80971980D01*
X107695863Y-80971980D02*
X107743482Y-80876742D01*
X107743482Y-80876742D02*
X107743482Y-80781504D01*
X107743482Y-80781504D02*
X107695863Y-80686266D01*
X107695863Y-80686266D02*
X107648244Y-80638647D01*
X107648244Y-80638647D02*
X107553006Y-80591028D01*
X107553006Y-80591028D02*
X107362530Y-80543409D01*
X107362530Y-80543409D02*
X107267292Y-80495790D01*
X107267292Y-80495790D02*
X107219673Y-80448171D01*
X107219673Y-80448171D02*
X107172054Y-80352933D01*
X107172054Y-80352933D02*
X107172054Y-80257695D01*
X107172054Y-80257695D02*
X107219673Y-80162457D01*
X107219673Y-80162457D02*
X107267292Y-80114838D01*
X107267292Y-80114838D02*
X107362530Y-80067219D01*
X107362530Y-80067219D02*
X107600625Y-80067219D01*
X107600625Y-80067219D02*
X107743482Y-80114838D01*
X108076816Y-80067219D02*
X108314911Y-81067219D01*
X108314911Y-81067219D02*
X108505387Y-80352933D01*
X108505387Y-80352933D02*
X108695863Y-81067219D01*
X108695863Y-81067219D02*
X108933959Y-80067219D01*
X109267292Y-80162457D02*
X109314911Y-80114838D01*
X109314911Y-80114838D02*
X109410149Y-80067219D01*
X109410149Y-80067219D02*
X109648244Y-80067219D01*
X109648244Y-80067219D02*
X109743482Y-80114838D01*
X109743482Y-80114838D02*
X109791101Y-80162457D01*
X109791101Y-80162457D02*
X109838720Y-80257695D01*
X109838720Y-80257695D02*
X109838720Y-80352933D01*
X109838720Y-80352933D02*
X109791101Y-80495790D01*
X109791101Y-80495790D02*
X109219673Y-81067219D01*
X109219673Y-81067219D02*
X109838720Y-81067219D01*
X107172054Y-98919600D02*
X107314911Y-98967219D01*
X107314911Y-98967219D02*
X107553006Y-98967219D01*
X107553006Y-98967219D02*
X107648244Y-98919600D01*
X107648244Y-98919600D02*
X107695863Y-98871980D01*
X107695863Y-98871980D02*
X107743482Y-98776742D01*
X107743482Y-98776742D02*
X107743482Y-98681504D01*
X107743482Y-98681504D02*
X107695863Y-98586266D01*
X107695863Y-98586266D02*
X107648244Y-98538647D01*
X107648244Y-98538647D02*
X107553006Y-98491028D01*
X107553006Y-98491028D02*
X107362530Y-98443409D01*
X107362530Y-98443409D02*
X107267292Y-98395790D01*
X107267292Y-98395790D02*
X107219673Y-98348171D01*
X107219673Y-98348171D02*
X107172054Y-98252933D01*
X107172054Y-98252933D02*
X107172054Y-98157695D01*
X107172054Y-98157695D02*
X107219673Y-98062457D01*
X107219673Y-98062457D02*
X107267292Y-98014838D01*
X107267292Y-98014838D02*
X107362530Y-97967219D01*
X107362530Y-97967219D02*
X107600625Y-97967219D01*
X107600625Y-97967219D02*
X107743482Y-98014838D01*
X108076816Y-97967219D02*
X108314911Y-98967219D01*
X108314911Y-98967219D02*
X108505387Y-98252933D01*
X108505387Y-98252933D02*
X108695863Y-98967219D01*
X108695863Y-98967219D02*
X108933959Y-97967219D01*
X109743482Y-98300552D02*
X109743482Y-98967219D01*
X109505387Y-97919600D02*
X109267292Y-98633885D01*
X109267292Y-98633885D02*
X109886339Y-98633885D01*
X107172054Y-93919600D02*
X107314911Y-93967219D01*
X107314911Y-93967219D02*
X107553006Y-93967219D01*
X107553006Y-93967219D02*
X107648244Y-93919600D01*
X107648244Y-93919600D02*
X107695863Y-93871980D01*
X107695863Y-93871980D02*
X107743482Y-93776742D01*
X107743482Y-93776742D02*
X107743482Y-93681504D01*
X107743482Y-93681504D02*
X107695863Y-93586266D01*
X107695863Y-93586266D02*
X107648244Y-93538647D01*
X107648244Y-93538647D02*
X107553006Y-93491028D01*
X107553006Y-93491028D02*
X107362530Y-93443409D01*
X107362530Y-93443409D02*
X107267292Y-93395790D01*
X107267292Y-93395790D02*
X107219673Y-93348171D01*
X107219673Y-93348171D02*
X107172054Y-93252933D01*
X107172054Y-93252933D02*
X107172054Y-93157695D01*
X107172054Y-93157695D02*
X107219673Y-93062457D01*
X107219673Y-93062457D02*
X107267292Y-93014838D01*
X107267292Y-93014838D02*
X107362530Y-92967219D01*
X107362530Y-92967219D02*
X107600625Y-92967219D01*
X107600625Y-92967219D02*
X107743482Y-93014838D01*
X108076816Y-92967219D02*
X108314911Y-93967219D01*
X108314911Y-93967219D02*
X108505387Y-93252933D01*
X108505387Y-93252933D02*
X108695863Y-93967219D01*
X108695863Y-93967219D02*
X108933959Y-92967219D01*
X109219673Y-92967219D02*
X109838720Y-92967219D01*
X109838720Y-92967219D02*
X109505387Y-93348171D01*
X109505387Y-93348171D02*
X109648244Y-93348171D01*
X109648244Y-93348171D02*
X109743482Y-93395790D01*
X109743482Y-93395790D02*
X109791101Y-93443409D01*
X109791101Y-93443409D02*
X109838720Y-93538647D01*
X109838720Y-93538647D02*
X109838720Y-93776742D01*
X109838720Y-93776742D02*
X109791101Y-93871980D01*
X109791101Y-93871980D02*
X109743482Y-93919600D01*
X109743482Y-93919600D02*
X109648244Y-93967219D01*
X109648244Y-93967219D02*
X109362530Y-93967219D01*
X109362530Y-93967219D02*
X109267292Y-93919600D01*
X109267292Y-93919600D02*
X109219673Y-93871980D01*
X108131504Y-128677945D02*
X108131504Y-128201755D01*
X108417219Y-128773183D02*
X107417219Y-128439850D01*
X107417219Y-128439850D02*
X108417219Y-128106517D01*
X107417219Y-127773183D02*
X108226742Y-127773183D01*
X108226742Y-127773183D02*
X108321980Y-127725564D01*
X108321980Y-127725564D02*
X108369600Y-127677945D01*
X108369600Y-127677945D02*
X108417219Y-127582707D01*
X108417219Y-127582707D02*
X108417219Y-127392231D01*
X108417219Y-127392231D02*
X108369600Y-127296993D01*
X108369600Y-127296993D02*
X108321980Y-127249374D01*
X108321980Y-127249374D02*
X108226742Y-127201755D01*
X108226742Y-127201755D02*
X107417219Y-127201755D01*
X107417219Y-126820802D02*
X108417219Y-126154136D01*
X107417219Y-126154136D02*
X108417219Y-126820802D01*
X108417219Y-125011278D02*
X107417219Y-125011278D01*
X107417219Y-125011278D02*
X107417219Y-124630326D01*
X107417219Y-124630326D02*
X107464838Y-124535088D01*
X107464838Y-124535088D02*
X107512457Y-124487469D01*
X107512457Y-124487469D02*
X107607695Y-124439850D01*
X107607695Y-124439850D02*
X107750552Y-124439850D01*
X107750552Y-124439850D02*
X107845790Y-124487469D01*
X107845790Y-124487469D02*
X107893409Y-124535088D01*
X107893409Y-124535088D02*
X107941028Y-124630326D01*
X107941028Y-124630326D02*
X107941028Y-125011278D01*
X107417219Y-124106516D02*
X108417219Y-123868421D01*
X108417219Y-123868421D02*
X107702933Y-123677945D01*
X107702933Y-123677945D02*
X108417219Y-123487469D01*
X108417219Y-123487469D02*
X107417219Y-123249374D01*
X108417219Y-122296993D02*
X107941028Y-122630326D01*
X108417219Y-122868421D02*
X107417219Y-122868421D01*
X107417219Y-122868421D02*
X107417219Y-122487469D01*
X107417219Y-122487469D02*
X107464838Y-122392231D01*
X107464838Y-122392231D02*
X107512457Y-122344612D01*
X107512457Y-122344612D02*
X107607695Y-122296993D01*
X107607695Y-122296993D02*
X107750552Y-122296993D01*
X107750552Y-122296993D02*
X107845790Y-122344612D01*
X107845790Y-122344612D02*
X107893409Y-122392231D01*
X107893409Y-122392231D02*
X107941028Y-122487469D01*
X107941028Y-122487469D02*
X107941028Y-122868421D01*
D11*
X162050000Y-104100000D02*
X163550000Y-104100000D01*
X166950000Y-104100000D02*
G75*
G02*
X170350000Y-104100000I1700000J0D01*
G01*
X163550000Y-104100000D02*
G75*
G02*
X166950000Y-104100000I1700000J0D01*
G01*
X173750000Y-104100000D02*
G75*
G02*
X177150000Y-104100000I1700000J0D01*
G01*
X170350000Y-104100000D02*
G75*
G02*
X173750000Y-104100000I1700000J0D01*
G01*
X177150000Y-104100000D02*
X178650000Y-104100000D01*
D10*
X198019673Y-77867219D02*
X198019673Y-76867219D01*
X198019673Y-76867219D02*
X198591101Y-77867219D01*
X198591101Y-77867219D02*
X198591101Y-76867219D01*
X199448244Y-77819600D02*
X199353006Y-77867219D01*
X199353006Y-77867219D02*
X199162530Y-77867219D01*
X199162530Y-77867219D02*
X199067292Y-77819600D01*
X199067292Y-77819600D02*
X199019673Y-77724361D01*
X199019673Y-77724361D02*
X199019673Y-77343409D01*
X199019673Y-77343409D02*
X199067292Y-77248171D01*
X199067292Y-77248171D02*
X199162530Y-77200552D01*
X199162530Y-77200552D02*
X199353006Y-77200552D01*
X199353006Y-77200552D02*
X199448244Y-77248171D01*
X199448244Y-77248171D02*
X199495863Y-77343409D01*
X199495863Y-77343409D02*
X199495863Y-77438647D01*
X199495863Y-77438647D02*
X199019673Y-77533885D01*
X200353006Y-77200552D02*
X200353006Y-77867219D01*
X199924435Y-77200552D02*
X199924435Y-77724361D01*
X199924435Y-77724361D02*
X199972054Y-77819600D01*
X199972054Y-77819600D02*
X200067292Y-77867219D01*
X200067292Y-77867219D02*
X200210149Y-77867219D01*
X200210149Y-77867219D02*
X200305387Y-77819600D01*
X200305387Y-77819600D02*
X200353006Y-77771980D01*
X200686340Y-77200552D02*
X201067292Y-77200552D01*
X200829197Y-76867219D02*
X200829197Y-77724361D01*
X200829197Y-77724361D02*
X200876816Y-77819600D01*
X200876816Y-77819600D02*
X200972054Y-77867219D01*
X200972054Y-77867219D02*
X201067292Y-77867219D01*
X201400626Y-77867219D02*
X201400626Y-77200552D01*
X201400626Y-77391028D02*
X201448245Y-77295790D01*
X201448245Y-77295790D02*
X201495864Y-77248171D01*
X201495864Y-77248171D02*
X201591102Y-77200552D01*
X201591102Y-77200552D02*
X201686340Y-77200552D01*
X202448245Y-77867219D02*
X202448245Y-77343409D01*
X202448245Y-77343409D02*
X202400626Y-77248171D01*
X202400626Y-77248171D02*
X202305388Y-77200552D01*
X202305388Y-77200552D02*
X202114912Y-77200552D01*
X202114912Y-77200552D02*
X202019674Y-77248171D01*
X202448245Y-77819600D02*
X202353007Y-77867219D01*
X202353007Y-77867219D02*
X202114912Y-77867219D01*
X202114912Y-77867219D02*
X202019674Y-77819600D01*
X202019674Y-77819600D02*
X201972055Y-77724361D01*
X201972055Y-77724361D02*
X201972055Y-77629123D01*
X201972055Y-77629123D02*
X202019674Y-77533885D01*
X202019674Y-77533885D02*
X202114912Y-77486266D01*
X202114912Y-77486266D02*
X202353007Y-77486266D01*
X202353007Y-77486266D02*
X202448245Y-77438647D01*
X203067293Y-77867219D02*
X202972055Y-77819600D01*
X202972055Y-77819600D02*
X202924436Y-77724361D01*
X202924436Y-77724361D02*
X202924436Y-76867219D01*
X137072054Y-137061616D02*
X137548244Y-137061616D01*
X136976816Y-137347331D02*
X137310149Y-136347331D01*
X137310149Y-136347331D02*
X137643482Y-137347331D01*
X138548244Y-137252092D02*
X138500625Y-137299712D01*
X138500625Y-137299712D02*
X138357768Y-137347331D01*
X138357768Y-137347331D02*
X138262530Y-137347331D01*
X138262530Y-137347331D02*
X138119673Y-137299712D01*
X138119673Y-137299712D02*
X138024435Y-137204473D01*
X138024435Y-137204473D02*
X137976816Y-137109235D01*
X137976816Y-137109235D02*
X137929197Y-136918759D01*
X137929197Y-136918759D02*
X137929197Y-136775902D01*
X137929197Y-136775902D02*
X137976816Y-136585426D01*
X137976816Y-136585426D02*
X138024435Y-136490188D01*
X138024435Y-136490188D02*
X138119673Y-136394950D01*
X138119673Y-136394950D02*
X138262530Y-136347331D01*
X138262530Y-136347331D02*
X138357768Y-136347331D01*
X138357768Y-136347331D02*
X138500625Y-136394950D01*
X138500625Y-136394950D02*
X138548244Y-136442569D01*
X139691102Y-137061616D02*
X140167292Y-137061616D01*
X139595864Y-137347331D02*
X139929197Y-136347331D01*
X139929197Y-136347331D02*
X140262530Y-137347331D01*
X141167292Y-137252092D02*
X141119673Y-137299712D01*
X141119673Y-137299712D02*
X140976816Y-137347331D01*
X140976816Y-137347331D02*
X140881578Y-137347331D01*
X140881578Y-137347331D02*
X140738721Y-137299712D01*
X140738721Y-137299712D02*
X140643483Y-137204473D01*
X140643483Y-137204473D02*
X140595864Y-137109235D01*
X140595864Y-137109235D02*
X140548245Y-136918759D01*
X140548245Y-136918759D02*
X140548245Y-136775902D01*
X140548245Y-136775902D02*
X140595864Y-136585426D01*
X140595864Y-136585426D02*
X140643483Y-136490188D01*
X140643483Y-136490188D02*
X140738721Y-136394950D01*
X140738721Y-136394950D02*
X140881578Y-136347331D01*
X140881578Y-136347331D02*
X140976816Y-136347331D01*
X140976816Y-136347331D02*
X141119673Y-136394950D01*
X141119673Y-136394950D02*
X141167292Y-136442569D01*
X142691102Y-136823521D02*
X142833959Y-136871140D01*
X142833959Y-136871140D02*
X142881578Y-136918759D01*
X142881578Y-136918759D02*
X142929197Y-137013997D01*
X142929197Y-137013997D02*
X142929197Y-137156854D01*
X142929197Y-137156854D02*
X142881578Y-137252092D01*
X142881578Y-137252092D02*
X142833959Y-137299712D01*
X142833959Y-137299712D02*
X142738721Y-137347331D01*
X142738721Y-137347331D02*
X142357769Y-137347331D01*
X142357769Y-137347331D02*
X142357769Y-136347331D01*
X142357769Y-136347331D02*
X142691102Y-136347331D01*
X142691102Y-136347331D02*
X142786340Y-136394950D01*
X142786340Y-136394950D02*
X142833959Y-136442569D01*
X142833959Y-136442569D02*
X142881578Y-136537807D01*
X142881578Y-136537807D02*
X142881578Y-136633045D01*
X142881578Y-136633045D02*
X142833959Y-136728283D01*
X142833959Y-136728283D02*
X142786340Y-136775902D01*
X142786340Y-136775902D02*
X142691102Y-136823521D01*
X142691102Y-136823521D02*
X142357769Y-136823521D01*
X143786340Y-136680664D02*
X143786340Y-137347331D01*
X143357769Y-136680664D02*
X143357769Y-137204473D01*
X143357769Y-137204473D02*
X143405388Y-137299712D01*
X143405388Y-137299712D02*
X143500626Y-137347331D01*
X143500626Y-137347331D02*
X143643483Y-137347331D01*
X143643483Y-137347331D02*
X143738721Y-137299712D01*
X143738721Y-137299712D02*
X143786340Y-137252092D01*
X144691102Y-137299712D02*
X144595864Y-137347331D01*
X144595864Y-137347331D02*
X144405388Y-137347331D01*
X144405388Y-137347331D02*
X144310150Y-137299712D01*
X144310150Y-137299712D02*
X144262531Y-137252092D01*
X144262531Y-137252092D02*
X144214912Y-137156854D01*
X144214912Y-137156854D02*
X144214912Y-136871140D01*
X144214912Y-136871140D02*
X144262531Y-136775902D01*
X144262531Y-136775902D02*
X144310150Y-136728283D01*
X144310150Y-136728283D02*
X144405388Y-136680664D01*
X144405388Y-136680664D02*
X144595864Y-136680664D01*
X144595864Y-136680664D02*
X144691102Y-136728283D01*
X145119674Y-137347331D02*
X145119674Y-136347331D01*
X145214912Y-136966378D02*
X145500626Y-137347331D01*
X145500626Y-136680664D02*
X145119674Y-137061616D01*
X137119673Y-138957275D02*
X137119673Y-137957275D01*
X137119673Y-137957275D02*
X137500625Y-137957275D01*
X137500625Y-137957275D02*
X137595863Y-138004894D01*
X137595863Y-138004894D02*
X137643482Y-138052513D01*
X137643482Y-138052513D02*
X137691101Y-138147751D01*
X137691101Y-138147751D02*
X137691101Y-138290608D01*
X137691101Y-138290608D02*
X137643482Y-138385846D01*
X137643482Y-138385846D02*
X137595863Y-138433465D01*
X137595863Y-138433465D02*
X137500625Y-138481084D01*
X137500625Y-138481084D02*
X137119673Y-138481084D01*
X138262530Y-138957275D02*
X138167292Y-138909656D01*
X138167292Y-138909656D02*
X138119673Y-138862036D01*
X138119673Y-138862036D02*
X138072054Y-138766798D01*
X138072054Y-138766798D02*
X138072054Y-138481084D01*
X138072054Y-138481084D02*
X138119673Y-138385846D01*
X138119673Y-138385846D02*
X138167292Y-138338227D01*
X138167292Y-138338227D02*
X138262530Y-138290608D01*
X138262530Y-138290608D02*
X138405387Y-138290608D01*
X138405387Y-138290608D02*
X138500625Y-138338227D01*
X138500625Y-138338227D02*
X138548244Y-138385846D01*
X138548244Y-138385846D02*
X138595863Y-138481084D01*
X138595863Y-138481084D02*
X138595863Y-138766798D01*
X138595863Y-138766798D02*
X138548244Y-138862036D01*
X138548244Y-138862036D02*
X138500625Y-138909656D01*
X138500625Y-138909656D02*
X138405387Y-138957275D01*
X138405387Y-138957275D02*
X138262530Y-138957275D01*
X138929197Y-138290608D02*
X139119673Y-138957275D01*
X139119673Y-138957275D02*
X139310149Y-138481084D01*
X139310149Y-138481084D02*
X139500625Y-138957275D01*
X139500625Y-138957275D02*
X139691101Y-138290608D01*
X140453006Y-138909656D02*
X140357768Y-138957275D01*
X140357768Y-138957275D02*
X140167292Y-138957275D01*
X140167292Y-138957275D02*
X140072054Y-138909656D01*
X140072054Y-138909656D02*
X140024435Y-138814417D01*
X140024435Y-138814417D02*
X140024435Y-138433465D01*
X140024435Y-138433465D02*
X140072054Y-138338227D01*
X140072054Y-138338227D02*
X140167292Y-138290608D01*
X140167292Y-138290608D02*
X140357768Y-138290608D01*
X140357768Y-138290608D02*
X140453006Y-138338227D01*
X140453006Y-138338227D02*
X140500625Y-138433465D01*
X140500625Y-138433465D02*
X140500625Y-138528703D01*
X140500625Y-138528703D02*
X140024435Y-138623941D01*
X140929197Y-138957275D02*
X140929197Y-138290608D01*
X140929197Y-138481084D02*
X140976816Y-138385846D01*
X140976816Y-138385846D02*
X141024435Y-138338227D01*
X141024435Y-138338227D02*
X141119673Y-138290608D01*
X141119673Y-138290608D02*
X141214911Y-138290608D01*
X142262531Y-138909656D02*
X142405388Y-138957275D01*
X142405388Y-138957275D02*
X142643483Y-138957275D01*
X142643483Y-138957275D02*
X142738721Y-138909656D01*
X142738721Y-138909656D02*
X142786340Y-138862036D01*
X142786340Y-138862036D02*
X142833959Y-138766798D01*
X142833959Y-138766798D02*
X142833959Y-138671560D01*
X142833959Y-138671560D02*
X142786340Y-138576322D01*
X142786340Y-138576322D02*
X142738721Y-138528703D01*
X142738721Y-138528703D02*
X142643483Y-138481084D01*
X142643483Y-138481084D02*
X142453007Y-138433465D01*
X142453007Y-138433465D02*
X142357769Y-138385846D01*
X142357769Y-138385846D02*
X142310150Y-138338227D01*
X142310150Y-138338227D02*
X142262531Y-138242989D01*
X142262531Y-138242989D02*
X142262531Y-138147751D01*
X142262531Y-138147751D02*
X142310150Y-138052513D01*
X142310150Y-138052513D02*
X142357769Y-138004894D01*
X142357769Y-138004894D02*
X142453007Y-137957275D01*
X142453007Y-137957275D02*
X142691102Y-137957275D01*
X142691102Y-137957275D02*
X142833959Y-138004894D01*
X143119674Y-138290608D02*
X143500626Y-138290608D01*
X143262531Y-137957275D02*
X143262531Y-138814417D01*
X143262531Y-138814417D02*
X143310150Y-138909656D01*
X143310150Y-138909656D02*
X143405388Y-138957275D01*
X143405388Y-138957275D02*
X143500626Y-138957275D01*
X144262531Y-138957275D02*
X144262531Y-138433465D01*
X144262531Y-138433465D02*
X144214912Y-138338227D01*
X144214912Y-138338227D02*
X144119674Y-138290608D01*
X144119674Y-138290608D02*
X143929198Y-138290608D01*
X143929198Y-138290608D02*
X143833960Y-138338227D01*
X144262531Y-138909656D02*
X144167293Y-138957275D01*
X144167293Y-138957275D02*
X143929198Y-138957275D01*
X143929198Y-138957275D02*
X143833960Y-138909656D01*
X143833960Y-138909656D02*
X143786341Y-138814417D01*
X143786341Y-138814417D02*
X143786341Y-138719179D01*
X143786341Y-138719179D02*
X143833960Y-138623941D01*
X143833960Y-138623941D02*
X143929198Y-138576322D01*
X143929198Y-138576322D02*
X144167293Y-138576322D01*
X144167293Y-138576322D02*
X144262531Y-138528703D01*
X145167293Y-138290608D02*
X145167293Y-139100132D01*
X145167293Y-139100132D02*
X145119674Y-139195370D01*
X145119674Y-139195370D02*
X145072055Y-139242989D01*
X145072055Y-139242989D02*
X144976817Y-139290608D01*
X144976817Y-139290608D02*
X144833960Y-139290608D01*
X144833960Y-139290608D02*
X144738722Y-139242989D01*
X145167293Y-138909656D02*
X145072055Y-138957275D01*
X145072055Y-138957275D02*
X144881579Y-138957275D01*
X144881579Y-138957275D02*
X144786341Y-138909656D01*
X144786341Y-138909656D02*
X144738722Y-138862036D01*
X144738722Y-138862036D02*
X144691103Y-138766798D01*
X144691103Y-138766798D02*
X144691103Y-138481084D01*
X144691103Y-138481084D02*
X144738722Y-138385846D01*
X144738722Y-138385846D02*
X144786341Y-138338227D01*
X144786341Y-138338227D02*
X144881579Y-138290608D01*
X144881579Y-138290608D02*
X145072055Y-138290608D01*
X145072055Y-138290608D02*
X145167293Y-138338227D01*
X146024436Y-138909656D02*
X145929198Y-138957275D01*
X145929198Y-138957275D02*
X145738722Y-138957275D01*
X145738722Y-138957275D02*
X145643484Y-138909656D01*
X145643484Y-138909656D02*
X145595865Y-138814417D01*
X145595865Y-138814417D02*
X145595865Y-138433465D01*
X145595865Y-138433465D02*
X145643484Y-138338227D01*
X145643484Y-138338227D02*
X145738722Y-138290608D01*
X145738722Y-138290608D02*
X145929198Y-138290608D01*
X145929198Y-138290608D02*
X146024436Y-138338227D01*
X146024436Y-138338227D02*
X146072055Y-138433465D01*
X146072055Y-138433465D02*
X146072055Y-138528703D01*
X146072055Y-138528703D02*
X145595865Y-138623941D01*
X147119675Y-137957275D02*
X147453008Y-138957275D01*
X147453008Y-138957275D02*
X147786341Y-137957275D01*
X148643484Y-138957275D02*
X148072056Y-138957275D01*
X148357770Y-138957275D02*
X148357770Y-137957275D01*
X148357770Y-137957275D02*
X148262532Y-138100132D01*
X148262532Y-138100132D02*
X148167294Y-138195370D01*
X148167294Y-138195370D02*
X148072056Y-138242989D01*
X137119673Y-140567219D02*
X137119673Y-139567219D01*
X137691101Y-140567219D02*
X137262530Y-139995790D01*
X137691101Y-139567219D02*
X137119673Y-140138647D01*
X138500625Y-140519600D02*
X138405387Y-140567219D01*
X138405387Y-140567219D02*
X138214911Y-140567219D01*
X138214911Y-140567219D02*
X138119673Y-140519600D01*
X138119673Y-140519600D02*
X138072054Y-140424361D01*
X138072054Y-140424361D02*
X138072054Y-140043409D01*
X138072054Y-140043409D02*
X138119673Y-139948171D01*
X138119673Y-139948171D02*
X138214911Y-139900552D01*
X138214911Y-139900552D02*
X138405387Y-139900552D01*
X138405387Y-139900552D02*
X138500625Y-139948171D01*
X138500625Y-139948171D02*
X138548244Y-140043409D01*
X138548244Y-140043409D02*
X138548244Y-140138647D01*
X138548244Y-140138647D02*
X138072054Y-140233885D01*
X138976816Y-140567219D02*
X138976816Y-139900552D01*
X138976816Y-139567219D02*
X138929197Y-139614838D01*
X138929197Y-139614838D02*
X138976816Y-139662457D01*
X138976816Y-139662457D02*
X139024435Y-139614838D01*
X139024435Y-139614838D02*
X138976816Y-139567219D01*
X138976816Y-139567219D02*
X138976816Y-139662457D01*
X140786339Y-140471980D02*
X140738720Y-140519600D01*
X140738720Y-140519600D02*
X140595863Y-140567219D01*
X140595863Y-140567219D02*
X140500625Y-140567219D01*
X140500625Y-140567219D02*
X140357768Y-140519600D01*
X140357768Y-140519600D02*
X140262530Y-140424361D01*
X140262530Y-140424361D02*
X140214911Y-140329123D01*
X140214911Y-140329123D02*
X140167292Y-140138647D01*
X140167292Y-140138647D02*
X140167292Y-139995790D01*
X140167292Y-139995790D02*
X140214911Y-139805314D01*
X140214911Y-139805314D02*
X140262530Y-139710076D01*
X140262530Y-139710076D02*
X140357768Y-139614838D01*
X140357768Y-139614838D02*
X140500625Y-139567219D01*
X140500625Y-139567219D02*
X140595863Y-139567219D01*
X140595863Y-139567219D02*
X140738720Y-139614838D01*
X140738720Y-139614838D02*
X140786339Y-139662457D01*
X141643482Y-140567219D02*
X141643482Y-140043409D01*
X141643482Y-140043409D02*
X141595863Y-139948171D01*
X141595863Y-139948171D02*
X141500625Y-139900552D01*
X141500625Y-139900552D02*
X141310149Y-139900552D01*
X141310149Y-139900552D02*
X141214911Y-139948171D01*
X141643482Y-140519600D02*
X141548244Y-140567219D01*
X141548244Y-140567219D02*
X141310149Y-140567219D01*
X141310149Y-140567219D02*
X141214911Y-140519600D01*
X141214911Y-140519600D02*
X141167292Y-140424361D01*
X141167292Y-140424361D02*
X141167292Y-140329123D01*
X141167292Y-140329123D02*
X141214911Y-140233885D01*
X141214911Y-140233885D02*
X141310149Y-140186266D01*
X141310149Y-140186266D02*
X141548244Y-140186266D01*
X141548244Y-140186266D02*
X141643482Y-140138647D01*
X142119673Y-140567219D02*
X142119673Y-139900552D01*
X142119673Y-140091028D02*
X142167292Y-139995790D01*
X142167292Y-139995790D02*
X142214911Y-139948171D01*
X142214911Y-139948171D02*
X142310149Y-139900552D01*
X142310149Y-139900552D02*
X142405387Y-139900552D01*
X143167292Y-140567219D02*
X143167292Y-139567219D01*
X143167292Y-140519600D02*
X143072054Y-140567219D01*
X143072054Y-140567219D02*
X142881578Y-140567219D01*
X142881578Y-140567219D02*
X142786340Y-140519600D01*
X142786340Y-140519600D02*
X142738721Y-140471980D01*
X142738721Y-140471980D02*
X142691102Y-140376742D01*
X142691102Y-140376742D02*
X142691102Y-140091028D01*
X142691102Y-140091028D02*
X142738721Y-139995790D01*
X142738721Y-139995790D02*
X142786340Y-139948171D01*
X142786340Y-139948171D02*
X142881578Y-139900552D01*
X142881578Y-139900552D02*
X143072054Y-139900552D01*
X143072054Y-139900552D02*
X143167292Y-139948171D01*
X144024435Y-140519600D02*
X143929197Y-140567219D01*
X143929197Y-140567219D02*
X143738721Y-140567219D01*
X143738721Y-140567219D02*
X143643483Y-140519600D01*
X143643483Y-140519600D02*
X143595864Y-140424361D01*
X143595864Y-140424361D02*
X143595864Y-140043409D01*
X143595864Y-140043409D02*
X143643483Y-139948171D01*
X143643483Y-139948171D02*
X143738721Y-139900552D01*
X143738721Y-139900552D02*
X143929197Y-139900552D01*
X143929197Y-139900552D02*
X144024435Y-139948171D01*
X144024435Y-139948171D02*
X144072054Y-140043409D01*
X144072054Y-140043409D02*
X144072054Y-140138647D01*
X144072054Y-140138647D02*
X143595864Y-140233885D01*
X144500626Y-139900552D02*
X144500626Y-140567219D01*
X144500626Y-139995790D02*
X144548245Y-139948171D01*
X144548245Y-139948171D02*
X144643483Y-139900552D01*
X144643483Y-139900552D02*
X144786340Y-139900552D01*
X144786340Y-139900552D02*
X144881578Y-139948171D01*
X144881578Y-139948171D02*
X144929197Y-140043409D01*
X144929197Y-140043409D02*
X144929197Y-140567219D01*
X199210149Y-91367219D02*
X199400625Y-91367219D01*
X199400625Y-91367219D02*
X199495863Y-91414838D01*
X199495863Y-91414838D02*
X199591101Y-91510076D01*
X199591101Y-91510076D02*
X199638720Y-91700552D01*
X199638720Y-91700552D02*
X199638720Y-92033885D01*
X199638720Y-92033885D02*
X199591101Y-92224361D01*
X199591101Y-92224361D02*
X199495863Y-92319600D01*
X199495863Y-92319600D02*
X199400625Y-92367219D01*
X199400625Y-92367219D02*
X199210149Y-92367219D01*
X199210149Y-92367219D02*
X199114911Y-92319600D01*
X199114911Y-92319600D02*
X199019673Y-92224361D01*
X199019673Y-92224361D02*
X198972054Y-92033885D01*
X198972054Y-92033885D02*
X198972054Y-91700552D01*
X198972054Y-91700552D02*
X199019673Y-91510076D01*
X199019673Y-91510076D02*
X199114911Y-91414838D01*
X199114911Y-91414838D02*
X199210149Y-91367219D01*
X200067292Y-91367219D02*
X200067292Y-92176742D01*
X200067292Y-92176742D02*
X200114911Y-92271980D01*
X200114911Y-92271980D02*
X200162530Y-92319600D01*
X200162530Y-92319600D02*
X200257768Y-92367219D01*
X200257768Y-92367219D02*
X200448244Y-92367219D01*
X200448244Y-92367219D02*
X200543482Y-92319600D01*
X200543482Y-92319600D02*
X200591101Y-92271980D01*
X200591101Y-92271980D02*
X200638720Y-92176742D01*
X200638720Y-92176742D02*
X200638720Y-91367219D01*
X200972054Y-91367219D02*
X201543482Y-91367219D01*
X201257768Y-92367219D02*
X201257768Y-91367219D01*
X198495863Y-63367219D02*
X198019673Y-63367219D01*
X198019673Y-63367219D02*
X198019673Y-62367219D01*
X198829197Y-63367219D02*
X198829197Y-62700552D01*
X198829197Y-62367219D02*
X198781578Y-62414838D01*
X198781578Y-62414838D02*
X198829197Y-62462457D01*
X198829197Y-62462457D02*
X198876816Y-62414838D01*
X198876816Y-62414838D02*
X198829197Y-62367219D01*
X198829197Y-62367219D02*
X198829197Y-62462457D01*
X199305387Y-62700552D02*
X199305387Y-63367219D01*
X199305387Y-62795790D02*
X199353006Y-62748171D01*
X199353006Y-62748171D02*
X199448244Y-62700552D01*
X199448244Y-62700552D02*
X199591101Y-62700552D01*
X199591101Y-62700552D02*
X199686339Y-62748171D01*
X199686339Y-62748171D02*
X199733958Y-62843409D01*
X199733958Y-62843409D02*
X199733958Y-63367219D01*
X200591101Y-63319600D02*
X200495863Y-63367219D01*
X200495863Y-63367219D02*
X200305387Y-63367219D01*
X200305387Y-63367219D02*
X200210149Y-63319600D01*
X200210149Y-63319600D02*
X200162530Y-63224361D01*
X200162530Y-63224361D02*
X200162530Y-62843409D01*
X200162530Y-62843409D02*
X200210149Y-62748171D01*
X200210149Y-62748171D02*
X200305387Y-62700552D01*
X200305387Y-62700552D02*
X200495863Y-62700552D01*
X200495863Y-62700552D02*
X200591101Y-62748171D01*
X200591101Y-62748171D02*
X200638720Y-62843409D01*
X200638720Y-62843409D02*
X200638720Y-62938647D01*
X200638720Y-62938647D02*
X200162530Y-63033885D01*
X201829197Y-63367219D02*
X201829197Y-62367219D01*
X202305387Y-62700552D02*
X202305387Y-63367219D01*
X202305387Y-62795790D02*
X202353006Y-62748171D01*
X202353006Y-62748171D02*
X202448244Y-62700552D01*
X202448244Y-62700552D02*
X202591101Y-62700552D01*
X202591101Y-62700552D02*
X202686339Y-62748171D01*
X202686339Y-62748171D02*
X202733958Y-62843409D01*
X202733958Y-62843409D02*
X202733958Y-63367219D01*
D12*
X113602438Y-49061904D02*
X113554819Y-49157142D01*
X113554819Y-49157142D02*
X113554819Y-49299999D01*
X113554819Y-49299999D02*
X113602438Y-49442856D01*
X113602438Y-49442856D02*
X113697676Y-49538094D01*
X113697676Y-49538094D02*
X113792914Y-49585713D01*
X113792914Y-49585713D02*
X113983390Y-49633332D01*
X113983390Y-49633332D02*
X114126247Y-49633332D01*
X114126247Y-49633332D02*
X114316723Y-49585713D01*
X114316723Y-49585713D02*
X114411961Y-49538094D01*
X114411961Y-49538094D02*
X114507200Y-49442856D01*
X114507200Y-49442856D02*
X114554819Y-49299999D01*
X114554819Y-49299999D02*
X114554819Y-49204761D01*
X114554819Y-49204761D02*
X114507200Y-49061904D01*
X114507200Y-49061904D02*
X114459580Y-49014285D01*
X114459580Y-49014285D02*
X114126247Y-49014285D01*
X114126247Y-49014285D02*
X114126247Y-49204761D01*
X114554819Y-48585713D02*
X113554819Y-48585713D01*
X113554819Y-48585713D02*
X114554819Y-48014285D01*
X114554819Y-48014285D02*
X113554819Y-48014285D01*
X114554819Y-47538094D02*
X113554819Y-47538094D01*
X113554819Y-47538094D02*
X113554819Y-47299999D01*
X113554819Y-47299999D02*
X113602438Y-47157142D01*
X113602438Y-47157142D02*
X113697676Y-47061904D01*
X113697676Y-47061904D02*
X113792914Y-47014285D01*
X113792914Y-47014285D02*
X113983390Y-46966666D01*
X113983390Y-46966666D02*
X114126247Y-46966666D01*
X114126247Y-46966666D02*
X114316723Y-47014285D01*
X114316723Y-47014285D02*
X114411961Y-47061904D01*
X114411961Y-47061904D02*
X114507200Y-47157142D01*
X114507200Y-47157142D02*
X114554819Y-47299999D01*
X114554819Y-47299999D02*
X114554819Y-47538094D01*
X121169257Y-100045125D02*
X121236600Y-100179812D01*
X121236600Y-100179812D02*
X121404959Y-100348170D01*
X121404959Y-100348170D02*
X121505974Y-100381842D01*
X121505974Y-100381842D02*
X121573318Y-100381842D01*
X121573318Y-100381842D02*
X121674333Y-100348170D01*
X121674333Y-100348170D02*
X121741677Y-100280827D01*
X121741677Y-100280827D02*
X121775348Y-100179812D01*
X121775348Y-100179812D02*
X121775348Y-100112468D01*
X121775348Y-100112468D02*
X121741677Y-100011453D01*
X121741677Y-100011453D02*
X121640661Y-99843094D01*
X121640661Y-99843094D02*
X121606990Y-99742079D01*
X121606990Y-99742079D02*
X121606990Y-99674735D01*
X121606990Y-99674735D02*
X121640661Y-99573720D01*
X121640661Y-99573720D02*
X121708005Y-99506377D01*
X121708005Y-99506377D02*
X121809020Y-99472705D01*
X121809020Y-99472705D02*
X121876364Y-99472705D01*
X121876364Y-99472705D02*
X121977379Y-99506377D01*
X121977379Y-99506377D02*
X122145738Y-99674735D01*
X122145738Y-99674735D02*
X122213081Y-99809422D01*
X122482455Y-100011453D02*
X121943707Y-100886919D01*
X121943707Y-100886919D02*
X122583471Y-100516529D01*
X122583471Y-100516529D02*
X122213081Y-101156293D01*
X122213081Y-101156293D02*
X123088547Y-100617545D01*
X123290577Y-100819575D02*
X123728310Y-101257308D01*
X123728310Y-101257308D02*
X123223234Y-101290979D01*
X123223234Y-101290979D02*
X123324249Y-101391995D01*
X123324249Y-101391995D02*
X123357921Y-101493010D01*
X123357921Y-101493010D02*
X123357921Y-101560353D01*
X123357921Y-101560353D02*
X123324249Y-101661369D01*
X123324249Y-101661369D02*
X123155890Y-101829727D01*
X123155890Y-101829727D02*
X123054875Y-101863399D01*
X123054875Y-101863399D02*
X122987531Y-101863399D01*
X122987531Y-101863399D02*
X122886516Y-101829727D01*
X122886516Y-101829727D02*
X122684486Y-101627697D01*
X122684486Y-101627697D02*
X122650814Y-101526682D01*
X122650814Y-101526682D02*
X122650814Y-101459338D01*
X113169257Y-103245125D02*
X113236600Y-103379812D01*
X113236600Y-103379812D02*
X113404959Y-103548170D01*
X113404959Y-103548170D02*
X113505974Y-103581842D01*
X113505974Y-103581842D02*
X113573318Y-103581842D01*
X113573318Y-103581842D02*
X113674333Y-103548170D01*
X113674333Y-103548170D02*
X113741677Y-103480827D01*
X113741677Y-103480827D02*
X113775348Y-103379812D01*
X113775348Y-103379812D02*
X113775348Y-103312468D01*
X113775348Y-103312468D02*
X113741677Y-103211453D01*
X113741677Y-103211453D02*
X113640661Y-103043094D01*
X113640661Y-103043094D02*
X113606990Y-102942079D01*
X113606990Y-102942079D02*
X113606990Y-102874735D01*
X113606990Y-102874735D02*
X113640661Y-102773720D01*
X113640661Y-102773720D02*
X113708005Y-102706377D01*
X113708005Y-102706377D02*
X113809020Y-102672705D01*
X113809020Y-102672705D02*
X113876364Y-102672705D01*
X113876364Y-102672705D02*
X113977379Y-102706377D01*
X113977379Y-102706377D02*
X114145738Y-102874735D01*
X114145738Y-102874735D02*
X114213081Y-103009422D01*
X114482455Y-103211453D02*
X113943707Y-104086919D01*
X113943707Y-104086919D02*
X114583471Y-103716529D01*
X114583471Y-103716529D02*
X114213081Y-104356293D01*
X114213081Y-104356293D02*
X115088547Y-103817545D01*
X115425264Y-104625666D02*
X114953860Y-105097071D01*
X115526279Y-104187934D02*
X114852844Y-104524651D01*
X114852844Y-104524651D02*
X115290577Y-104962384D01*
X118157200Y-73233332D02*
X118204819Y-73090475D01*
X118204819Y-73090475D02*
X118204819Y-72852380D01*
X118204819Y-72852380D02*
X118157200Y-72757142D01*
X118157200Y-72757142D02*
X118109580Y-72709523D01*
X118109580Y-72709523D02*
X118014342Y-72661904D01*
X118014342Y-72661904D02*
X117919104Y-72661904D01*
X117919104Y-72661904D02*
X117823866Y-72709523D01*
X117823866Y-72709523D02*
X117776247Y-72757142D01*
X117776247Y-72757142D02*
X117728628Y-72852380D01*
X117728628Y-72852380D02*
X117681009Y-73042856D01*
X117681009Y-73042856D02*
X117633390Y-73138094D01*
X117633390Y-73138094D02*
X117585771Y-73185713D01*
X117585771Y-73185713D02*
X117490533Y-73233332D01*
X117490533Y-73233332D02*
X117395295Y-73233332D01*
X117395295Y-73233332D02*
X117300057Y-73185713D01*
X117300057Y-73185713D02*
X117252438Y-73138094D01*
X117252438Y-73138094D02*
X117204819Y-73042856D01*
X117204819Y-73042856D02*
X117204819Y-72804761D01*
X117204819Y-72804761D02*
X117252438Y-72661904D01*
X117204819Y-72328570D02*
X118204819Y-72090475D01*
X118204819Y-72090475D02*
X117490533Y-71899999D01*
X117490533Y-71899999D02*
X118204819Y-71709523D01*
X118204819Y-71709523D02*
X117204819Y-71471428D01*
X117300057Y-71138094D02*
X117252438Y-71090475D01*
X117252438Y-71090475D02*
X117204819Y-70995237D01*
X117204819Y-70995237D02*
X117204819Y-70757142D01*
X117204819Y-70757142D02*
X117252438Y-70661904D01*
X117252438Y-70661904D02*
X117300057Y-70614285D01*
X117300057Y-70614285D02*
X117395295Y-70566666D01*
X117395295Y-70566666D02*
X117490533Y-70566666D01*
X117490533Y-70566666D02*
X117633390Y-70614285D01*
X117633390Y-70614285D02*
X118204819Y-71185713D01*
X118204819Y-71185713D02*
X118204819Y-70566666D01*
X110407200Y-68933332D02*
X110454819Y-68790475D01*
X110454819Y-68790475D02*
X110454819Y-68552380D01*
X110454819Y-68552380D02*
X110407200Y-68457142D01*
X110407200Y-68457142D02*
X110359580Y-68409523D01*
X110359580Y-68409523D02*
X110264342Y-68361904D01*
X110264342Y-68361904D02*
X110169104Y-68361904D01*
X110169104Y-68361904D02*
X110073866Y-68409523D01*
X110073866Y-68409523D02*
X110026247Y-68457142D01*
X110026247Y-68457142D02*
X109978628Y-68552380D01*
X109978628Y-68552380D02*
X109931009Y-68742856D01*
X109931009Y-68742856D02*
X109883390Y-68838094D01*
X109883390Y-68838094D02*
X109835771Y-68885713D01*
X109835771Y-68885713D02*
X109740533Y-68933332D01*
X109740533Y-68933332D02*
X109645295Y-68933332D01*
X109645295Y-68933332D02*
X109550057Y-68885713D01*
X109550057Y-68885713D02*
X109502438Y-68838094D01*
X109502438Y-68838094D02*
X109454819Y-68742856D01*
X109454819Y-68742856D02*
X109454819Y-68504761D01*
X109454819Y-68504761D02*
X109502438Y-68361904D01*
X109454819Y-68028570D02*
X110454819Y-67790475D01*
X110454819Y-67790475D02*
X109740533Y-67599999D01*
X109740533Y-67599999D02*
X110454819Y-67409523D01*
X110454819Y-67409523D02*
X109454819Y-67171428D01*
X110454819Y-66266666D02*
X110454819Y-66838094D01*
X110454819Y-66552380D02*
X109454819Y-66552380D01*
X109454819Y-66552380D02*
X109597676Y-66647618D01*
X109597676Y-66647618D02*
X109692914Y-66742856D01*
X109692914Y-66742856D02*
X109740533Y-66838094D01*
X122609523Y-77754819D02*
X122133333Y-77754819D01*
X122133333Y-77754819D02*
X122085714Y-78231009D01*
X122085714Y-78231009D02*
X122133333Y-78183390D01*
X122133333Y-78183390D02*
X122228571Y-78135771D01*
X122228571Y-78135771D02*
X122466666Y-78135771D01*
X122466666Y-78135771D02*
X122561904Y-78183390D01*
X122561904Y-78183390D02*
X122609523Y-78231009D01*
X122609523Y-78231009D02*
X122657142Y-78326247D01*
X122657142Y-78326247D02*
X122657142Y-78564342D01*
X122657142Y-78564342D02*
X122609523Y-78659580D01*
X122609523Y-78659580D02*
X122561904Y-78707200D01*
X122561904Y-78707200D02*
X122466666Y-78754819D01*
X122466666Y-78754819D02*
X122228571Y-78754819D01*
X122228571Y-78754819D02*
X122133333Y-78707200D01*
X122133333Y-78707200D02*
X122085714Y-78659580D01*
X122942857Y-77754819D02*
X123276190Y-78754819D01*
X123276190Y-78754819D02*
X123609523Y-77754819D01*
X127980952Y-140604819D02*
X127980952Y-139604819D01*
X128409523Y-140557200D02*
X128552380Y-140604819D01*
X128552380Y-140604819D02*
X128790475Y-140604819D01*
X128790475Y-140604819D02*
X128885713Y-140557200D01*
X128885713Y-140557200D02*
X128933332Y-140509580D01*
X128933332Y-140509580D02*
X128980951Y-140414342D01*
X128980951Y-140414342D02*
X128980951Y-140319104D01*
X128980951Y-140319104D02*
X128933332Y-140223866D01*
X128933332Y-140223866D02*
X128885713Y-140176247D01*
X128885713Y-140176247D02*
X128790475Y-140128628D01*
X128790475Y-140128628D02*
X128599999Y-140081009D01*
X128599999Y-140081009D02*
X128504761Y-140033390D01*
X128504761Y-140033390D02*
X128457142Y-139985771D01*
X128457142Y-139985771D02*
X128409523Y-139890533D01*
X128409523Y-139890533D02*
X128409523Y-139795295D01*
X128409523Y-139795295D02*
X128457142Y-139700057D01*
X128457142Y-139700057D02*
X128504761Y-139652438D01*
X128504761Y-139652438D02*
X128599999Y-139604819D01*
X128599999Y-139604819D02*
X128838094Y-139604819D01*
X128838094Y-139604819D02*
X128980951Y-139652438D01*
X129599999Y-139604819D02*
X129790475Y-139604819D01*
X129790475Y-139604819D02*
X129885713Y-139652438D01*
X129885713Y-139652438D02*
X129980951Y-139747676D01*
X129980951Y-139747676D02*
X130028570Y-139938152D01*
X130028570Y-139938152D02*
X130028570Y-140271485D01*
X130028570Y-140271485D02*
X129980951Y-140461961D01*
X129980951Y-140461961D02*
X129885713Y-140557200D01*
X129885713Y-140557200D02*
X129790475Y-140604819D01*
X129790475Y-140604819D02*
X129599999Y-140604819D01*
X129599999Y-140604819D02*
X129504761Y-140557200D01*
X129504761Y-140557200D02*
X129409523Y-140461961D01*
X129409523Y-140461961D02*
X129361904Y-140271485D01*
X129361904Y-140271485D02*
X129361904Y-139938152D01*
X129361904Y-139938152D02*
X129409523Y-139747676D01*
X129409523Y-139747676D02*
X129504761Y-139652438D01*
X129504761Y-139652438D02*
X129599999Y-139604819D01*
X130219047Y-140700057D02*
X130980951Y-140700057D01*
X131742856Y-140604819D02*
X131171428Y-140604819D01*
X131457142Y-140604819D02*
X131457142Y-139604819D01*
X131457142Y-139604819D02*
X131361904Y-139747676D01*
X131361904Y-139747676D02*
X131266666Y-139842914D01*
X131266666Y-139842914D02*
X131171428Y-139890533D01*
X132123809Y-139700057D02*
X132171428Y-139652438D01*
X132171428Y-139652438D02*
X132266666Y-139604819D01*
X132266666Y-139604819D02*
X132504761Y-139604819D01*
X132504761Y-139604819D02*
X132599999Y-139652438D01*
X132599999Y-139652438D02*
X132647618Y-139700057D01*
X132647618Y-139700057D02*
X132695237Y-139795295D01*
X132695237Y-139795295D02*
X132695237Y-139890533D01*
X132695237Y-139890533D02*
X132647618Y-140033390D01*
X132647618Y-140033390D02*
X132076190Y-140604819D01*
X132076190Y-140604819D02*
X132695237Y-140604819D01*
X132980952Y-139604819D02*
X133314285Y-140604819D01*
X133314285Y-140604819D02*
X133647618Y-139604819D01*
X133742857Y-140700057D02*
X134504761Y-140700057D01*
X134695238Y-139700057D02*
X134742857Y-139652438D01*
X134742857Y-139652438D02*
X134838095Y-139604819D01*
X134838095Y-139604819D02*
X135076190Y-139604819D01*
X135076190Y-139604819D02*
X135171428Y-139652438D01*
X135171428Y-139652438D02*
X135219047Y-139700057D01*
X135219047Y-139700057D02*
X135266666Y-139795295D01*
X135266666Y-139795295D02*
X135266666Y-139890533D01*
X135266666Y-139890533D02*
X135219047Y-140033390D01*
X135219047Y-140033390D02*
X134647619Y-140604819D01*
X134647619Y-140604819D02*
X135266666Y-140604819D01*
X134280952Y-47454819D02*
X134280952Y-46454819D01*
X134709523Y-47407200D02*
X134852380Y-47454819D01*
X134852380Y-47454819D02*
X135090475Y-47454819D01*
X135090475Y-47454819D02*
X135185713Y-47407200D01*
X135185713Y-47407200D02*
X135233332Y-47359580D01*
X135233332Y-47359580D02*
X135280951Y-47264342D01*
X135280951Y-47264342D02*
X135280951Y-47169104D01*
X135280951Y-47169104D02*
X135233332Y-47073866D01*
X135233332Y-47073866D02*
X135185713Y-47026247D01*
X135185713Y-47026247D02*
X135090475Y-46978628D01*
X135090475Y-46978628D02*
X134899999Y-46931009D01*
X134899999Y-46931009D02*
X134804761Y-46883390D01*
X134804761Y-46883390D02*
X134757142Y-46835771D01*
X134757142Y-46835771D02*
X134709523Y-46740533D01*
X134709523Y-46740533D02*
X134709523Y-46645295D01*
X134709523Y-46645295D02*
X134757142Y-46550057D01*
X134757142Y-46550057D02*
X134804761Y-46502438D01*
X134804761Y-46502438D02*
X134899999Y-46454819D01*
X134899999Y-46454819D02*
X135138094Y-46454819D01*
X135138094Y-46454819D02*
X135280951Y-46502438D01*
X135899999Y-46454819D02*
X136090475Y-46454819D01*
X136090475Y-46454819D02*
X136185713Y-46502438D01*
X136185713Y-46502438D02*
X136280951Y-46597676D01*
X136280951Y-46597676D02*
X136328570Y-46788152D01*
X136328570Y-46788152D02*
X136328570Y-47121485D01*
X136328570Y-47121485D02*
X136280951Y-47311961D01*
X136280951Y-47311961D02*
X136185713Y-47407200D01*
X136185713Y-47407200D02*
X136090475Y-47454819D01*
X136090475Y-47454819D02*
X135899999Y-47454819D01*
X135899999Y-47454819D02*
X135804761Y-47407200D01*
X135804761Y-47407200D02*
X135709523Y-47311961D01*
X135709523Y-47311961D02*
X135661904Y-47121485D01*
X135661904Y-47121485D02*
X135661904Y-46788152D01*
X135661904Y-46788152D02*
X135709523Y-46597676D01*
X135709523Y-46597676D02*
X135804761Y-46502438D01*
X135804761Y-46502438D02*
X135899999Y-46454819D01*
X136519047Y-47550057D02*
X137280951Y-47550057D01*
X138042856Y-47454819D02*
X137471428Y-47454819D01*
X137757142Y-47454819D02*
X137757142Y-46454819D01*
X137757142Y-46454819D02*
X137661904Y-46597676D01*
X137661904Y-46597676D02*
X137566666Y-46692914D01*
X137566666Y-46692914D02*
X137471428Y-46740533D01*
X138423809Y-46550057D02*
X138471428Y-46502438D01*
X138471428Y-46502438D02*
X138566666Y-46454819D01*
X138566666Y-46454819D02*
X138804761Y-46454819D01*
X138804761Y-46454819D02*
X138899999Y-46502438D01*
X138899999Y-46502438D02*
X138947618Y-46550057D01*
X138947618Y-46550057D02*
X138995237Y-46645295D01*
X138995237Y-46645295D02*
X138995237Y-46740533D01*
X138995237Y-46740533D02*
X138947618Y-46883390D01*
X138947618Y-46883390D02*
X138376190Y-47454819D01*
X138376190Y-47454819D02*
X138995237Y-47454819D01*
X139280952Y-46454819D02*
X139614285Y-47454819D01*
X139614285Y-47454819D02*
X139947618Y-46454819D01*
X140042857Y-47550057D02*
X140804761Y-47550057D01*
X141566666Y-47454819D02*
X140995238Y-47454819D01*
X141280952Y-47454819D02*
X141280952Y-46454819D01*
X141280952Y-46454819D02*
X141185714Y-46597676D01*
X141185714Y-46597676D02*
X141090476Y-46692914D01*
X141090476Y-46692914D02*
X140995238Y-46740533D01*
X116057142Y-111359580D02*
X116009523Y-111407200D01*
X116009523Y-111407200D02*
X115866666Y-111454819D01*
X115866666Y-111454819D02*
X115771428Y-111454819D01*
X115771428Y-111454819D02*
X115628571Y-111407200D01*
X115628571Y-111407200D02*
X115533333Y-111311961D01*
X115533333Y-111311961D02*
X115485714Y-111216723D01*
X115485714Y-111216723D02*
X115438095Y-111026247D01*
X115438095Y-111026247D02*
X115438095Y-110883390D01*
X115438095Y-110883390D02*
X115485714Y-110692914D01*
X115485714Y-110692914D02*
X115533333Y-110597676D01*
X115533333Y-110597676D02*
X115628571Y-110502438D01*
X115628571Y-110502438D02*
X115771428Y-110454819D01*
X115771428Y-110454819D02*
X115866666Y-110454819D01*
X115866666Y-110454819D02*
X116009523Y-110502438D01*
X116009523Y-110502438D02*
X116057142Y-110550057D01*
X116390476Y-110454819D02*
X117009523Y-110454819D01*
X117009523Y-110454819D02*
X116676190Y-110835771D01*
X116676190Y-110835771D02*
X116819047Y-110835771D01*
X116819047Y-110835771D02*
X116914285Y-110883390D01*
X116914285Y-110883390D02*
X116961904Y-110931009D01*
X116961904Y-110931009D02*
X117009523Y-111026247D01*
X117009523Y-111026247D02*
X117009523Y-111264342D01*
X117009523Y-111264342D02*
X116961904Y-111359580D01*
X116961904Y-111359580D02*
X116914285Y-111407200D01*
X116914285Y-111407200D02*
X116819047Y-111454819D01*
X116819047Y-111454819D02*
X116533333Y-111454819D01*
X116533333Y-111454819D02*
X116438095Y-111407200D01*
X116438095Y-111407200D02*
X116390476Y-111359580D01*
X117914285Y-110454819D02*
X117438095Y-110454819D01*
X117438095Y-110454819D02*
X117390476Y-110931009D01*
X117390476Y-110931009D02*
X117438095Y-110883390D01*
X117438095Y-110883390D02*
X117533333Y-110835771D01*
X117533333Y-110835771D02*
X117771428Y-110835771D01*
X117771428Y-110835771D02*
X117866666Y-110883390D01*
X117866666Y-110883390D02*
X117914285Y-110931009D01*
X117914285Y-110931009D02*
X117961904Y-111026247D01*
X117961904Y-111026247D02*
X117961904Y-111264342D01*
X117961904Y-111264342D02*
X117914285Y-111359580D01*
X117914285Y-111359580D02*
X117866666Y-111407200D01*
X117866666Y-111407200D02*
X117771428Y-111454819D01*
X117771428Y-111454819D02*
X117533333Y-111454819D01*
X117533333Y-111454819D02*
X117438095Y-111407200D01*
X117438095Y-111407200D02*
X117390476Y-111359580D01*
X111816666Y-72744819D02*
X111816666Y-73459104D01*
X111816666Y-73459104D02*
X111769047Y-73601961D01*
X111769047Y-73601961D02*
X111673809Y-73697200D01*
X111673809Y-73697200D02*
X111530952Y-73744819D01*
X111530952Y-73744819D02*
X111435714Y-73744819D01*
X112721428Y-73078152D02*
X112721428Y-73744819D01*
X112483333Y-72697200D02*
X112245238Y-73411485D01*
X112245238Y-73411485D02*
X112864285Y-73411485D01*
X110416666Y-140754819D02*
X110416666Y-141469104D01*
X110416666Y-141469104D02*
X110369047Y-141611961D01*
X110369047Y-141611961D02*
X110273809Y-141707200D01*
X110273809Y-141707200D02*
X110130952Y-141754819D01*
X110130952Y-141754819D02*
X110035714Y-141754819D01*
X111369047Y-140754819D02*
X110892857Y-140754819D01*
X110892857Y-140754819D02*
X110845238Y-141231009D01*
X110845238Y-141231009D02*
X110892857Y-141183390D01*
X110892857Y-141183390D02*
X110988095Y-141135771D01*
X110988095Y-141135771D02*
X111226190Y-141135771D01*
X111226190Y-141135771D02*
X111321428Y-141183390D01*
X111321428Y-141183390D02*
X111369047Y-141231009D01*
X111369047Y-141231009D02*
X111416666Y-141326247D01*
X111416666Y-141326247D02*
X111416666Y-141564342D01*
X111416666Y-141564342D02*
X111369047Y-141659580D01*
X111369047Y-141659580D02*
X111321428Y-141707200D01*
X111321428Y-141707200D02*
X111226190Y-141754819D01*
X111226190Y-141754819D02*
X110988095Y-141754819D01*
X110988095Y-141754819D02*
X110892857Y-141707200D01*
X110892857Y-141707200D02*
X110845238Y-141659580D01*
X111704819Y-120542857D02*
X111228628Y-120876190D01*
X111704819Y-121114285D02*
X110704819Y-121114285D01*
X110704819Y-121114285D02*
X110704819Y-120733333D01*
X110704819Y-120733333D02*
X110752438Y-120638095D01*
X110752438Y-120638095D02*
X110800057Y-120590476D01*
X110800057Y-120590476D02*
X110895295Y-120542857D01*
X110895295Y-120542857D02*
X111038152Y-120542857D01*
X111038152Y-120542857D02*
X111133390Y-120590476D01*
X111133390Y-120590476D02*
X111181009Y-120638095D01*
X111181009Y-120638095D02*
X111228628Y-120733333D01*
X111228628Y-120733333D02*
X111228628Y-121114285D01*
X111704819Y-119590476D02*
X111704819Y-120161904D01*
X111704819Y-119876190D02*
X110704819Y-119876190D01*
X110704819Y-119876190D02*
X110847676Y-119971428D01*
X110847676Y-119971428D02*
X110942914Y-120066666D01*
X110942914Y-120066666D02*
X110990533Y-120161904D01*
X110704819Y-119257142D02*
X110704819Y-118638095D01*
X110704819Y-118638095D02*
X111085771Y-118971428D01*
X111085771Y-118971428D02*
X111085771Y-118828571D01*
X111085771Y-118828571D02*
X111133390Y-118733333D01*
X111133390Y-118733333D02*
X111181009Y-118685714D01*
X111181009Y-118685714D02*
X111276247Y-118638095D01*
X111276247Y-118638095D02*
X111514342Y-118638095D01*
X111514342Y-118638095D02*
X111609580Y-118685714D01*
X111609580Y-118685714D02*
X111657200Y-118733333D01*
X111657200Y-118733333D02*
X111704819Y-118828571D01*
X111704819Y-118828571D02*
X111704819Y-119114285D01*
X111704819Y-119114285D02*
X111657200Y-119209523D01*
X111657200Y-119209523D02*
X111609580Y-119257142D01*
X123904819Y-91461904D02*
X124714342Y-91461904D01*
X124714342Y-91461904D02*
X124809580Y-91414285D01*
X124809580Y-91414285D02*
X124857200Y-91366666D01*
X124857200Y-91366666D02*
X124904819Y-91271428D01*
X124904819Y-91271428D02*
X124904819Y-91080952D01*
X124904819Y-91080952D02*
X124857200Y-90985714D01*
X124857200Y-90985714D02*
X124809580Y-90938095D01*
X124809580Y-90938095D02*
X124714342Y-90890476D01*
X124714342Y-90890476D02*
X123904819Y-90890476D01*
X123904819Y-89938095D02*
X123904819Y-90414285D01*
X123904819Y-90414285D02*
X124381009Y-90461904D01*
X124381009Y-90461904D02*
X124333390Y-90414285D01*
X124333390Y-90414285D02*
X124285771Y-90319047D01*
X124285771Y-90319047D02*
X124285771Y-90080952D01*
X124285771Y-90080952D02*
X124333390Y-89985714D01*
X124333390Y-89985714D02*
X124381009Y-89938095D01*
X124381009Y-89938095D02*
X124476247Y-89890476D01*
X124476247Y-89890476D02*
X124714342Y-89890476D01*
X124714342Y-89890476D02*
X124809580Y-89938095D01*
X124809580Y-89938095D02*
X124857200Y-89985714D01*
X124857200Y-89985714D02*
X124904819Y-90080952D01*
X124904819Y-90080952D02*
X124904819Y-90319047D01*
X124904819Y-90319047D02*
X124857200Y-90414285D01*
X124857200Y-90414285D02*
X124809580Y-90461904D01*
X136859580Y-118442857D02*
X136907200Y-118490476D01*
X136907200Y-118490476D02*
X136954819Y-118633333D01*
X136954819Y-118633333D02*
X136954819Y-118728571D01*
X136954819Y-118728571D02*
X136907200Y-118871428D01*
X136907200Y-118871428D02*
X136811961Y-118966666D01*
X136811961Y-118966666D02*
X136716723Y-119014285D01*
X136716723Y-119014285D02*
X136526247Y-119061904D01*
X136526247Y-119061904D02*
X136383390Y-119061904D01*
X136383390Y-119061904D02*
X136192914Y-119014285D01*
X136192914Y-119014285D02*
X136097676Y-118966666D01*
X136097676Y-118966666D02*
X136002438Y-118871428D01*
X136002438Y-118871428D02*
X135954819Y-118728571D01*
X135954819Y-118728571D02*
X135954819Y-118633333D01*
X135954819Y-118633333D02*
X136002438Y-118490476D01*
X136002438Y-118490476D02*
X136050057Y-118442857D01*
X136954819Y-117490476D02*
X136954819Y-118061904D01*
X136954819Y-117776190D02*
X135954819Y-117776190D01*
X135954819Y-117776190D02*
X136097676Y-117871428D01*
X136097676Y-117871428D02*
X136192914Y-117966666D01*
X136192914Y-117966666D02*
X136240533Y-118061904D01*
X136288152Y-116633333D02*
X136954819Y-116633333D01*
X135907200Y-116871428D02*
X136621485Y-117109523D01*
X136621485Y-117109523D02*
X136621485Y-116490476D01*
X121009580Y-109342857D02*
X121057200Y-109390476D01*
X121057200Y-109390476D02*
X121104819Y-109533333D01*
X121104819Y-109533333D02*
X121104819Y-109628571D01*
X121104819Y-109628571D02*
X121057200Y-109771428D01*
X121057200Y-109771428D02*
X120961961Y-109866666D01*
X120961961Y-109866666D02*
X120866723Y-109914285D01*
X120866723Y-109914285D02*
X120676247Y-109961904D01*
X120676247Y-109961904D02*
X120533390Y-109961904D01*
X120533390Y-109961904D02*
X120342914Y-109914285D01*
X120342914Y-109914285D02*
X120247676Y-109866666D01*
X120247676Y-109866666D02*
X120152438Y-109771428D01*
X120152438Y-109771428D02*
X120104819Y-109628571D01*
X120104819Y-109628571D02*
X120104819Y-109533333D01*
X120104819Y-109533333D02*
X120152438Y-109390476D01*
X120152438Y-109390476D02*
X120200057Y-109342857D01*
X120200057Y-108961904D02*
X120152438Y-108914285D01*
X120152438Y-108914285D02*
X120104819Y-108819047D01*
X120104819Y-108819047D02*
X120104819Y-108580952D01*
X120104819Y-108580952D02*
X120152438Y-108485714D01*
X120152438Y-108485714D02*
X120200057Y-108438095D01*
X120200057Y-108438095D02*
X120295295Y-108390476D01*
X120295295Y-108390476D02*
X120390533Y-108390476D01*
X120390533Y-108390476D02*
X120533390Y-108438095D01*
X120533390Y-108438095D02*
X121104819Y-109009523D01*
X121104819Y-109009523D02*
X121104819Y-108390476D01*
X120104819Y-108057142D02*
X120104819Y-107438095D01*
X120104819Y-107438095D02*
X120485771Y-107771428D01*
X120485771Y-107771428D02*
X120485771Y-107628571D01*
X120485771Y-107628571D02*
X120533390Y-107533333D01*
X120533390Y-107533333D02*
X120581009Y-107485714D01*
X120581009Y-107485714D02*
X120676247Y-107438095D01*
X120676247Y-107438095D02*
X120914342Y-107438095D01*
X120914342Y-107438095D02*
X121009580Y-107485714D01*
X121009580Y-107485714D02*
X121057200Y-107533333D01*
X121057200Y-107533333D02*
X121104819Y-107628571D01*
X121104819Y-107628571D02*
X121104819Y-107914285D01*
X121104819Y-107914285D02*
X121057200Y-108009523D01*
X121057200Y-108009523D02*
X121009580Y-108057142D01*
X162909580Y-121242857D02*
X162957200Y-121290476D01*
X162957200Y-121290476D02*
X163004819Y-121433333D01*
X163004819Y-121433333D02*
X163004819Y-121528571D01*
X163004819Y-121528571D02*
X162957200Y-121671428D01*
X162957200Y-121671428D02*
X162861961Y-121766666D01*
X162861961Y-121766666D02*
X162766723Y-121814285D01*
X162766723Y-121814285D02*
X162576247Y-121861904D01*
X162576247Y-121861904D02*
X162433390Y-121861904D01*
X162433390Y-121861904D02*
X162242914Y-121814285D01*
X162242914Y-121814285D02*
X162147676Y-121766666D01*
X162147676Y-121766666D02*
X162052438Y-121671428D01*
X162052438Y-121671428D02*
X162004819Y-121528571D01*
X162004819Y-121528571D02*
X162004819Y-121433333D01*
X162004819Y-121433333D02*
X162052438Y-121290476D01*
X162052438Y-121290476D02*
X162100057Y-121242857D01*
X162100057Y-120861904D02*
X162052438Y-120814285D01*
X162052438Y-120814285D02*
X162004819Y-120719047D01*
X162004819Y-120719047D02*
X162004819Y-120480952D01*
X162004819Y-120480952D02*
X162052438Y-120385714D01*
X162052438Y-120385714D02*
X162100057Y-120338095D01*
X162100057Y-120338095D02*
X162195295Y-120290476D01*
X162195295Y-120290476D02*
X162290533Y-120290476D01*
X162290533Y-120290476D02*
X162433390Y-120338095D01*
X162433390Y-120338095D02*
X163004819Y-120909523D01*
X163004819Y-120909523D02*
X163004819Y-120290476D01*
X162004819Y-119957142D02*
X162004819Y-119290476D01*
X162004819Y-119290476D02*
X163004819Y-119719047D01*
X140983333Y-125134819D02*
X140650000Y-124658628D01*
X140411905Y-125134819D02*
X140411905Y-124134819D01*
X140411905Y-124134819D02*
X140792857Y-124134819D01*
X140792857Y-124134819D02*
X140888095Y-124182438D01*
X140888095Y-124182438D02*
X140935714Y-124230057D01*
X140935714Y-124230057D02*
X140983333Y-124325295D01*
X140983333Y-124325295D02*
X140983333Y-124468152D01*
X140983333Y-124468152D02*
X140935714Y-124563390D01*
X140935714Y-124563390D02*
X140888095Y-124611009D01*
X140888095Y-124611009D02*
X140792857Y-124658628D01*
X140792857Y-124658628D02*
X140411905Y-124658628D01*
X141840476Y-124468152D02*
X141840476Y-125134819D01*
X141602381Y-124087200D02*
X141364286Y-124801485D01*
X141364286Y-124801485D02*
X141983333Y-124801485D01*
X184807142Y-77959580D02*
X184759523Y-78007200D01*
X184759523Y-78007200D02*
X184616666Y-78054819D01*
X184616666Y-78054819D02*
X184521428Y-78054819D01*
X184521428Y-78054819D02*
X184378571Y-78007200D01*
X184378571Y-78007200D02*
X184283333Y-77911961D01*
X184283333Y-77911961D02*
X184235714Y-77816723D01*
X184235714Y-77816723D02*
X184188095Y-77626247D01*
X184188095Y-77626247D02*
X184188095Y-77483390D01*
X184188095Y-77483390D02*
X184235714Y-77292914D01*
X184235714Y-77292914D02*
X184283333Y-77197676D01*
X184283333Y-77197676D02*
X184378571Y-77102438D01*
X184378571Y-77102438D02*
X184521428Y-77054819D01*
X184521428Y-77054819D02*
X184616666Y-77054819D01*
X184616666Y-77054819D02*
X184759523Y-77102438D01*
X184759523Y-77102438D02*
X184807142Y-77150057D01*
X185140476Y-77054819D02*
X185759523Y-77054819D01*
X185759523Y-77054819D02*
X185426190Y-77435771D01*
X185426190Y-77435771D02*
X185569047Y-77435771D01*
X185569047Y-77435771D02*
X185664285Y-77483390D01*
X185664285Y-77483390D02*
X185711904Y-77531009D01*
X185711904Y-77531009D02*
X185759523Y-77626247D01*
X185759523Y-77626247D02*
X185759523Y-77864342D01*
X185759523Y-77864342D02*
X185711904Y-77959580D01*
X185711904Y-77959580D02*
X185664285Y-78007200D01*
X185664285Y-78007200D02*
X185569047Y-78054819D01*
X185569047Y-78054819D02*
X185283333Y-78054819D01*
X185283333Y-78054819D02*
X185188095Y-78007200D01*
X185188095Y-78007200D02*
X185140476Y-77959580D01*
X186140476Y-77150057D02*
X186188095Y-77102438D01*
X186188095Y-77102438D02*
X186283333Y-77054819D01*
X186283333Y-77054819D02*
X186521428Y-77054819D01*
X186521428Y-77054819D02*
X186616666Y-77102438D01*
X186616666Y-77102438D02*
X186664285Y-77150057D01*
X186664285Y-77150057D02*
X186711904Y-77245295D01*
X186711904Y-77245295D02*
X186711904Y-77340533D01*
X186711904Y-77340533D02*
X186664285Y-77483390D01*
X186664285Y-77483390D02*
X186092857Y-78054819D01*
X186092857Y-78054819D02*
X186711904Y-78054819D01*
X130659580Y-131166666D02*
X130707200Y-131214285D01*
X130707200Y-131214285D02*
X130754819Y-131357142D01*
X130754819Y-131357142D02*
X130754819Y-131452380D01*
X130754819Y-131452380D02*
X130707200Y-131595237D01*
X130707200Y-131595237D02*
X130611961Y-131690475D01*
X130611961Y-131690475D02*
X130516723Y-131738094D01*
X130516723Y-131738094D02*
X130326247Y-131785713D01*
X130326247Y-131785713D02*
X130183390Y-131785713D01*
X130183390Y-131785713D02*
X129992914Y-131738094D01*
X129992914Y-131738094D02*
X129897676Y-131690475D01*
X129897676Y-131690475D02*
X129802438Y-131595237D01*
X129802438Y-131595237D02*
X129754819Y-131452380D01*
X129754819Y-131452380D02*
X129754819Y-131357142D01*
X129754819Y-131357142D02*
X129802438Y-131214285D01*
X129802438Y-131214285D02*
X129850057Y-131166666D01*
X130754819Y-130214285D02*
X130754819Y-130785713D01*
X130754819Y-130499999D02*
X129754819Y-130499999D01*
X129754819Y-130499999D02*
X129897676Y-130595237D01*
X129897676Y-130595237D02*
X129992914Y-130690475D01*
X129992914Y-130690475D02*
X130040533Y-130785713D01*
X171007142Y-76459580D02*
X170959523Y-76507200D01*
X170959523Y-76507200D02*
X170816666Y-76554819D01*
X170816666Y-76554819D02*
X170721428Y-76554819D01*
X170721428Y-76554819D02*
X170578571Y-76507200D01*
X170578571Y-76507200D02*
X170483333Y-76411961D01*
X170483333Y-76411961D02*
X170435714Y-76316723D01*
X170435714Y-76316723D02*
X170388095Y-76126247D01*
X170388095Y-76126247D02*
X170388095Y-75983390D01*
X170388095Y-75983390D02*
X170435714Y-75792914D01*
X170435714Y-75792914D02*
X170483333Y-75697676D01*
X170483333Y-75697676D02*
X170578571Y-75602438D01*
X170578571Y-75602438D02*
X170721428Y-75554819D01*
X170721428Y-75554819D02*
X170816666Y-75554819D01*
X170816666Y-75554819D02*
X170959523Y-75602438D01*
X170959523Y-75602438D02*
X171007142Y-75650057D01*
X171959523Y-76554819D02*
X171388095Y-76554819D01*
X171673809Y-76554819D02*
X171673809Y-75554819D01*
X171673809Y-75554819D02*
X171578571Y-75697676D01*
X171578571Y-75697676D02*
X171483333Y-75792914D01*
X171483333Y-75792914D02*
X171388095Y-75840533D01*
X172911904Y-76554819D02*
X172340476Y-76554819D01*
X172626190Y-76554819D02*
X172626190Y-75554819D01*
X172626190Y-75554819D02*
X172530952Y-75697676D01*
X172530952Y-75697676D02*
X172435714Y-75792914D01*
X172435714Y-75792914D02*
X172340476Y-75840533D01*
X123461904Y-139602438D02*
X123366666Y-139554819D01*
X123366666Y-139554819D02*
X123223809Y-139554819D01*
X123223809Y-139554819D02*
X123080952Y-139602438D01*
X123080952Y-139602438D02*
X122985714Y-139697676D01*
X122985714Y-139697676D02*
X122938095Y-139792914D01*
X122938095Y-139792914D02*
X122890476Y-139983390D01*
X122890476Y-139983390D02*
X122890476Y-140126247D01*
X122890476Y-140126247D02*
X122938095Y-140316723D01*
X122938095Y-140316723D02*
X122985714Y-140411961D01*
X122985714Y-140411961D02*
X123080952Y-140507200D01*
X123080952Y-140507200D02*
X123223809Y-140554819D01*
X123223809Y-140554819D02*
X123319047Y-140554819D01*
X123319047Y-140554819D02*
X123461904Y-140507200D01*
X123461904Y-140507200D02*
X123509523Y-140459580D01*
X123509523Y-140459580D02*
X123509523Y-140126247D01*
X123509523Y-140126247D02*
X123319047Y-140126247D01*
X123938095Y-140554819D02*
X123938095Y-139554819D01*
X123938095Y-139554819D02*
X124509523Y-140554819D01*
X124509523Y-140554819D02*
X124509523Y-139554819D01*
X124985714Y-140554819D02*
X124985714Y-139554819D01*
X124985714Y-139554819D02*
X125223809Y-139554819D01*
X125223809Y-139554819D02*
X125366666Y-139602438D01*
X125366666Y-139602438D02*
X125461904Y-139697676D01*
X125461904Y-139697676D02*
X125509523Y-139792914D01*
X125509523Y-139792914D02*
X125557142Y-139983390D01*
X125557142Y-139983390D02*
X125557142Y-140126247D01*
X125557142Y-140126247D02*
X125509523Y-140316723D01*
X125509523Y-140316723D02*
X125461904Y-140411961D01*
X125461904Y-140411961D02*
X125366666Y-140507200D01*
X125366666Y-140507200D02*
X125223809Y-140554819D01*
X125223809Y-140554819D02*
X124985714Y-140554819D01*
X125938095Y-139650057D02*
X125985714Y-139602438D01*
X125985714Y-139602438D02*
X126080952Y-139554819D01*
X126080952Y-139554819D02*
X126319047Y-139554819D01*
X126319047Y-139554819D02*
X126414285Y-139602438D01*
X126414285Y-139602438D02*
X126461904Y-139650057D01*
X126461904Y-139650057D02*
X126509523Y-139745295D01*
X126509523Y-139745295D02*
X126509523Y-139840533D01*
X126509523Y-139840533D02*
X126461904Y-139983390D01*
X126461904Y-139983390D02*
X125890476Y-140554819D01*
X125890476Y-140554819D02*
X126509523Y-140554819D01*
X122044642Y-84759580D02*
X121997023Y-84807200D01*
X121997023Y-84807200D02*
X121854166Y-84854819D01*
X121854166Y-84854819D02*
X121758928Y-84854819D01*
X121758928Y-84854819D02*
X121616071Y-84807200D01*
X121616071Y-84807200D02*
X121520833Y-84711961D01*
X121520833Y-84711961D02*
X121473214Y-84616723D01*
X121473214Y-84616723D02*
X121425595Y-84426247D01*
X121425595Y-84426247D02*
X121425595Y-84283390D01*
X121425595Y-84283390D02*
X121473214Y-84092914D01*
X121473214Y-84092914D02*
X121520833Y-83997676D01*
X121520833Y-83997676D02*
X121616071Y-83902438D01*
X121616071Y-83902438D02*
X121758928Y-83854819D01*
X121758928Y-83854819D02*
X121854166Y-83854819D01*
X121854166Y-83854819D02*
X121997023Y-83902438D01*
X121997023Y-83902438D02*
X122044642Y-83950057D01*
X122425595Y-83950057D02*
X122473214Y-83902438D01*
X122473214Y-83902438D02*
X122568452Y-83854819D01*
X122568452Y-83854819D02*
X122806547Y-83854819D01*
X122806547Y-83854819D02*
X122901785Y-83902438D01*
X122901785Y-83902438D02*
X122949404Y-83950057D01*
X122949404Y-83950057D02*
X122997023Y-84045295D01*
X122997023Y-84045295D02*
X122997023Y-84140533D01*
X122997023Y-84140533D02*
X122949404Y-84283390D01*
X122949404Y-84283390D02*
X122377976Y-84854819D01*
X122377976Y-84854819D02*
X122997023Y-84854819D01*
X123854166Y-83854819D02*
X123663690Y-83854819D01*
X123663690Y-83854819D02*
X123568452Y-83902438D01*
X123568452Y-83902438D02*
X123520833Y-83950057D01*
X123520833Y-83950057D02*
X123425595Y-84092914D01*
X123425595Y-84092914D02*
X123377976Y-84283390D01*
X123377976Y-84283390D02*
X123377976Y-84664342D01*
X123377976Y-84664342D02*
X123425595Y-84759580D01*
X123425595Y-84759580D02*
X123473214Y-84807200D01*
X123473214Y-84807200D02*
X123568452Y-84854819D01*
X123568452Y-84854819D02*
X123758928Y-84854819D01*
X123758928Y-84854819D02*
X123854166Y-84807200D01*
X123854166Y-84807200D02*
X123901785Y-84759580D01*
X123901785Y-84759580D02*
X123949404Y-84664342D01*
X123949404Y-84664342D02*
X123949404Y-84426247D01*
X123949404Y-84426247D02*
X123901785Y-84331009D01*
X123901785Y-84331009D02*
X123854166Y-84283390D01*
X123854166Y-84283390D02*
X123758928Y-84235771D01*
X123758928Y-84235771D02*
X123568452Y-84235771D01*
X123568452Y-84235771D02*
X123473214Y-84283390D01*
X123473214Y-84283390D02*
X123425595Y-84331009D01*
X123425595Y-84331009D02*
X123377976Y-84426247D01*
X130388095Y-52454819D02*
X130388095Y-53264342D01*
X130388095Y-53264342D02*
X130435714Y-53359580D01*
X130435714Y-53359580D02*
X130483333Y-53407200D01*
X130483333Y-53407200D02*
X130578571Y-53454819D01*
X130578571Y-53454819D02*
X130769047Y-53454819D01*
X130769047Y-53454819D02*
X130864285Y-53407200D01*
X130864285Y-53407200D02*
X130911904Y-53359580D01*
X130911904Y-53359580D02*
X130959523Y-53264342D01*
X130959523Y-53264342D02*
X130959523Y-52454819D01*
X131340476Y-52454819D02*
X131959523Y-52454819D01*
X131959523Y-52454819D02*
X131626190Y-52835771D01*
X131626190Y-52835771D02*
X131769047Y-52835771D01*
X131769047Y-52835771D02*
X131864285Y-52883390D01*
X131864285Y-52883390D02*
X131911904Y-52931009D01*
X131911904Y-52931009D02*
X131959523Y-53026247D01*
X131959523Y-53026247D02*
X131959523Y-53264342D01*
X131959523Y-53264342D02*
X131911904Y-53359580D01*
X131911904Y-53359580D02*
X131864285Y-53407200D01*
X131864285Y-53407200D02*
X131769047Y-53454819D01*
X131769047Y-53454819D02*
X131483333Y-53454819D01*
X131483333Y-53454819D02*
X131388095Y-53407200D01*
X131388095Y-53407200D02*
X131340476Y-53359580D01*
X137009580Y-77666666D02*
X137057200Y-77714285D01*
X137057200Y-77714285D02*
X137104819Y-77857142D01*
X137104819Y-77857142D02*
X137104819Y-77952380D01*
X137104819Y-77952380D02*
X137057200Y-78095237D01*
X137057200Y-78095237D02*
X136961961Y-78190475D01*
X136961961Y-78190475D02*
X136866723Y-78238094D01*
X136866723Y-78238094D02*
X136676247Y-78285713D01*
X136676247Y-78285713D02*
X136533390Y-78285713D01*
X136533390Y-78285713D02*
X136342914Y-78238094D01*
X136342914Y-78238094D02*
X136247676Y-78190475D01*
X136247676Y-78190475D02*
X136152438Y-78095237D01*
X136152438Y-78095237D02*
X136104819Y-77952380D01*
X136104819Y-77952380D02*
X136104819Y-77857142D01*
X136104819Y-77857142D02*
X136152438Y-77714285D01*
X136152438Y-77714285D02*
X136200057Y-77666666D01*
X137104819Y-77190475D02*
X137104819Y-76999999D01*
X137104819Y-76999999D02*
X137057200Y-76904761D01*
X137057200Y-76904761D02*
X137009580Y-76857142D01*
X137009580Y-76857142D02*
X136866723Y-76761904D01*
X136866723Y-76761904D02*
X136676247Y-76714285D01*
X136676247Y-76714285D02*
X136295295Y-76714285D01*
X136295295Y-76714285D02*
X136200057Y-76761904D01*
X136200057Y-76761904D02*
X136152438Y-76809523D01*
X136152438Y-76809523D02*
X136104819Y-76904761D01*
X136104819Y-76904761D02*
X136104819Y-77095237D01*
X136104819Y-77095237D02*
X136152438Y-77190475D01*
X136152438Y-77190475D02*
X136200057Y-77238094D01*
X136200057Y-77238094D02*
X136295295Y-77285713D01*
X136295295Y-77285713D02*
X136533390Y-77285713D01*
X136533390Y-77285713D02*
X136628628Y-77238094D01*
X136628628Y-77238094D02*
X136676247Y-77190475D01*
X136676247Y-77190475D02*
X136723866Y-77095237D01*
X136723866Y-77095237D02*
X136723866Y-76904761D01*
X136723866Y-76904761D02*
X136676247Y-76809523D01*
X136676247Y-76809523D02*
X136628628Y-76761904D01*
X136628628Y-76761904D02*
X136533390Y-76714285D01*
X128438095Y-103054819D02*
X128438095Y-103864342D01*
X128438095Y-103864342D02*
X128485714Y-103959580D01*
X128485714Y-103959580D02*
X128533333Y-104007200D01*
X128533333Y-104007200D02*
X128628571Y-104054819D01*
X128628571Y-104054819D02*
X128819047Y-104054819D01*
X128819047Y-104054819D02*
X128914285Y-104007200D01*
X128914285Y-104007200D02*
X128961904Y-103959580D01*
X128961904Y-103959580D02*
X129009523Y-103864342D01*
X129009523Y-103864342D02*
X129009523Y-103054819D01*
X129438095Y-103150057D02*
X129485714Y-103102438D01*
X129485714Y-103102438D02*
X129580952Y-103054819D01*
X129580952Y-103054819D02*
X129819047Y-103054819D01*
X129819047Y-103054819D02*
X129914285Y-103102438D01*
X129914285Y-103102438D02*
X129961904Y-103150057D01*
X129961904Y-103150057D02*
X130009523Y-103245295D01*
X130009523Y-103245295D02*
X130009523Y-103340533D01*
X130009523Y-103340533D02*
X129961904Y-103483390D01*
X129961904Y-103483390D02*
X129390476Y-104054819D01*
X129390476Y-104054819D02*
X130009523Y-104054819D01*
X127661904Y-44402438D02*
X127566666Y-44354819D01*
X127566666Y-44354819D02*
X127423809Y-44354819D01*
X127423809Y-44354819D02*
X127280952Y-44402438D01*
X127280952Y-44402438D02*
X127185714Y-44497676D01*
X127185714Y-44497676D02*
X127138095Y-44592914D01*
X127138095Y-44592914D02*
X127090476Y-44783390D01*
X127090476Y-44783390D02*
X127090476Y-44926247D01*
X127090476Y-44926247D02*
X127138095Y-45116723D01*
X127138095Y-45116723D02*
X127185714Y-45211961D01*
X127185714Y-45211961D02*
X127280952Y-45307200D01*
X127280952Y-45307200D02*
X127423809Y-45354819D01*
X127423809Y-45354819D02*
X127519047Y-45354819D01*
X127519047Y-45354819D02*
X127661904Y-45307200D01*
X127661904Y-45307200D02*
X127709523Y-45259580D01*
X127709523Y-45259580D02*
X127709523Y-44926247D01*
X127709523Y-44926247D02*
X127519047Y-44926247D01*
X128138095Y-45354819D02*
X128138095Y-44354819D01*
X128138095Y-44354819D02*
X128709523Y-45354819D01*
X128709523Y-45354819D02*
X128709523Y-44354819D01*
X129185714Y-45354819D02*
X129185714Y-44354819D01*
X129185714Y-44354819D02*
X129423809Y-44354819D01*
X129423809Y-44354819D02*
X129566666Y-44402438D01*
X129566666Y-44402438D02*
X129661904Y-44497676D01*
X129661904Y-44497676D02*
X129709523Y-44592914D01*
X129709523Y-44592914D02*
X129757142Y-44783390D01*
X129757142Y-44783390D02*
X129757142Y-44926247D01*
X129757142Y-44926247D02*
X129709523Y-45116723D01*
X129709523Y-45116723D02*
X129661904Y-45211961D01*
X129661904Y-45211961D02*
X129566666Y-45307200D01*
X129566666Y-45307200D02*
X129423809Y-45354819D01*
X129423809Y-45354819D02*
X129185714Y-45354819D01*
X130709523Y-45354819D02*
X130138095Y-45354819D01*
X130423809Y-45354819D02*
X130423809Y-44354819D01*
X130423809Y-44354819D02*
X130328571Y-44497676D01*
X130328571Y-44497676D02*
X130233333Y-44592914D01*
X130233333Y-44592914D02*
X130138095Y-44640533D01*
X118469642Y-84729580D02*
X118422023Y-84777200D01*
X118422023Y-84777200D02*
X118279166Y-84824819D01*
X118279166Y-84824819D02*
X118183928Y-84824819D01*
X118183928Y-84824819D02*
X118041071Y-84777200D01*
X118041071Y-84777200D02*
X117945833Y-84681961D01*
X117945833Y-84681961D02*
X117898214Y-84586723D01*
X117898214Y-84586723D02*
X117850595Y-84396247D01*
X117850595Y-84396247D02*
X117850595Y-84253390D01*
X117850595Y-84253390D02*
X117898214Y-84062914D01*
X117898214Y-84062914D02*
X117945833Y-83967676D01*
X117945833Y-83967676D02*
X118041071Y-83872438D01*
X118041071Y-83872438D02*
X118183928Y-83824819D01*
X118183928Y-83824819D02*
X118279166Y-83824819D01*
X118279166Y-83824819D02*
X118422023Y-83872438D01*
X118422023Y-83872438D02*
X118469642Y-83920057D01*
X118850595Y-83920057D02*
X118898214Y-83872438D01*
X118898214Y-83872438D02*
X118993452Y-83824819D01*
X118993452Y-83824819D02*
X119231547Y-83824819D01*
X119231547Y-83824819D02*
X119326785Y-83872438D01*
X119326785Y-83872438D02*
X119374404Y-83920057D01*
X119374404Y-83920057D02*
X119422023Y-84015295D01*
X119422023Y-84015295D02*
X119422023Y-84110533D01*
X119422023Y-84110533D02*
X119374404Y-84253390D01*
X119374404Y-84253390D02*
X118802976Y-84824819D01*
X118802976Y-84824819D02*
X119422023Y-84824819D01*
X120326785Y-83824819D02*
X119850595Y-83824819D01*
X119850595Y-83824819D02*
X119802976Y-84301009D01*
X119802976Y-84301009D02*
X119850595Y-84253390D01*
X119850595Y-84253390D02*
X119945833Y-84205771D01*
X119945833Y-84205771D02*
X120183928Y-84205771D01*
X120183928Y-84205771D02*
X120279166Y-84253390D01*
X120279166Y-84253390D02*
X120326785Y-84301009D01*
X120326785Y-84301009D02*
X120374404Y-84396247D01*
X120374404Y-84396247D02*
X120374404Y-84634342D01*
X120374404Y-84634342D02*
X120326785Y-84729580D01*
X120326785Y-84729580D02*
X120279166Y-84777200D01*
X120279166Y-84777200D02*
X120183928Y-84824819D01*
X120183928Y-84824819D02*
X119945833Y-84824819D01*
X119945833Y-84824819D02*
X119850595Y-84777200D01*
X119850595Y-84777200D02*
X119802976Y-84729580D01*
X162909580Y-127792857D02*
X162957200Y-127840476D01*
X162957200Y-127840476D02*
X163004819Y-127983333D01*
X163004819Y-127983333D02*
X163004819Y-128078571D01*
X163004819Y-128078571D02*
X162957200Y-128221428D01*
X162957200Y-128221428D02*
X162861961Y-128316666D01*
X162861961Y-128316666D02*
X162766723Y-128364285D01*
X162766723Y-128364285D02*
X162576247Y-128411904D01*
X162576247Y-128411904D02*
X162433390Y-128411904D01*
X162433390Y-128411904D02*
X162242914Y-128364285D01*
X162242914Y-128364285D02*
X162147676Y-128316666D01*
X162147676Y-128316666D02*
X162052438Y-128221428D01*
X162052438Y-128221428D02*
X162004819Y-128078571D01*
X162004819Y-128078571D02*
X162004819Y-127983333D01*
X162004819Y-127983333D02*
X162052438Y-127840476D01*
X162052438Y-127840476D02*
X162100057Y-127792857D01*
X163004819Y-126840476D02*
X163004819Y-127411904D01*
X163004819Y-127126190D02*
X162004819Y-127126190D01*
X162004819Y-127126190D02*
X162147676Y-127221428D01*
X162147676Y-127221428D02*
X162242914Y-127316666D01*
X162242914Y-127316666D02*
X162290533Y-127411904D01*
X162004819Y-126507142D02*
X162004819Y-125840476D01*
X162004819Y-125840476D02*
X163004819Y-126269047D01*
X162909580Y-140892857D02*
X162957200Y-140940476D01*
X162957200Y-140940476D02*
X163004819Y-141083333D01*
X163004819Y-141083333D02*
X163004819Y-141178571D01*
X163004819Y-141178571D02*
X162957200Y-141321428D01*
X162957200Y-141321428D02*
X162861961Y-141416666D01*
X162861961Y-141416666D02*
X162766723Y-141464285D01*
X162766723Y-141464285D02*
X162576247Y-141511904D01*
X162576247Y-141511904D02*
X162433390Y-141511904D01*
X162433390Y-141511904D02*
X162242914Y-141464285D01*
X162242914Y-141464285D02*
X162147676Y-141416666D01*
X162147676Y-141416666D02*
X162052438Y-141321428D01*
X162052438Y-141321428D02*
X162004819Y-141178571D01*
X162004819Y-141178571D02*
X162004819Y-141083333D01*
X162004819Y-141083333D02*
X162052438Y-140940476D01*
X162052438Y-140940476D02*
X162100057Y-140892857D01*
X163004819Y-139940476D02*
X163004819Y-140511904D01*
X163004819Y-140226190D02*
X162004819Y-140226190D01*
X162004819Y-140226190D02*
X162147676Y-140321428D01*
X162147676Y-140321428D02*
X162242914Y-140416666D01*
X162242914Y-140416666D02*
X162290533Y-140511904D01*
X162433390Y-139369047D02*
X162385771Y-139464285D01*
X162385771Y-139464285D02*
X162338152Y-139511904D01*
X162338152Y-139511904D02*
X162242914Y-139559523D01*
X162242914Y-139559523D02*
X162195295Y-139559523D01*
X162195295Y-139559523D02*
X162100057Y-139511904D01*
X162100057Y-139511904D02*
X162052438Y-139464285D01*
X162052438Y-139464285D02*
X162004819Y-139369047D01*
X162004819Y-139369047D02*
X162004819Y-139178571D01*
X162004819Y-139178571D02*
X162052438Y-139083333D01*
X162052438Y-139083333D02*
X162100057Y-139035714D01*
X162100057Y-139035714D02*
X162195295Y-138988095D01*
X162195295Y-138988095D02*
X162242914Y-138988095D01*
X162242914Y-138988095D02*
X162338152Y-139035714D01*
X162338152Y-139035714D02*
X162385771Y-139083333D01*
X162385771Y-139083333D02*
X162433390Y-139178571D01*
X162433390Y-139178571D02*
X162433390Y-139369047D01*
X162433390Y-139369047D02*
X162481009Y-139464285D01*
X162481009Y-139464285D02*
X162528628Y-139511904D01*
X162528628Y-139511904D02*
X162623866Y-139559523D01*
X162623866Y-139559523D02*
X162814342Y-139559523D01*
X162814342Y-139559523D02*
X162909580Y-139511904D01*
X162909580Y-139511904D02*
X162957200Y-139464285D01*
X162957200Y-139464285D02*
X163004819Y-139369047D01*
X163004819Y-139369047D02*
X163004819Y-139178571D01*
X163004819Y-139178571D02*
X162957200Y-139083333D01*
X162957200Y-139083333D02*
X162909580Y-139035714D01*
X162909580Y-139035714D02*
X162814342Y-138988095D01*
X162814342Y-138988095D02*
X162623866Y-138988095D01*
X162623866Y-138988095D02*
X162528628Y-139035714D01*
X162528628Y-139035714D02*
X162481009Y-139083333D01*
X162481009Y-139083333D02*
X162433390Y-139178571D01*
X137059580Y-103242857D02*
X137107200Y-103290476D01*
X137107200Y-103290476D02*
X137154819Y-103433333D01*
X137154819Y-103433333D02*
X137154819Y-103528571D01*
X137154819Y-103528571D02*
X137107200Y-103671428D01*
X137107200Y-103671428D02*
X137011961Y-103766666D01*
X137011961Y-103766666D02*
X136916723Y-103814285D01*
X136916723Y-103814285D02*
X136726247Y-103861904D01*
X136726247Y-103861904D02*
X136583390Y-103861904D01*
X136583390Y-103861904D02*
X136392914Y-103814285D01*
X136392914Y-103814285D02*
X136297676Y-103766666D01*
X136297676Y-103766666D02*
X136202438Y-103671428D01*
X136202438Y-103671428D02*
X136154819Y-103528571D01*
X136154819Y-103528571D02*
X136154819Y-103433333D01*
X136154819Y-103433333D02*
X136202438Y-103290476D01*
X136202438Y-103290476D02*
X136250057Y-103242857D01*
X137154819Y-102290476D02*
X137154819Y-102861904D01*
X137154819Y-102576190D02*
X136154819Y-102576190D01*
X136154819Y-102576190D02*
X136297676Y-102671428D01*
X136297676Y-102671428D02*
X136392914Y-102766666D01*
X136392914Y-102766666D02*
X136440533Y-102861904D01*
X136250057Y-101909523D02*
X136202438Y-101861904D01*
X136202438Y-101861904D02*
X136154819Y-101766666D01*
X136154819Y-101766666D02*
X136154819Y-101528571D01*
X136154819Y-101528571D02*
X136202438Y-101433333D01*
X136202438Y-101433333D02*
X136250057Y-101385714D01*
X136250057Y-101385714D02*
X136345295Y-101338095D01*
X136345295Y-101338095D02*
X136440533Y-101338095D01*
X136440533Y-101338095D02*
X136583390Y-101385714D01*
X136583390Y-101385714D02*
X137154819Y-101957142D01*
X137154819Y-101957142D02*
X137154819Y-101338095D01*
X151600057Y-81145238D02*
X151552438Y-81240476D01*
X151552438Y-81240476D02*
X151457200Y-81335714D01*
X151457200Y-81335714D02*
X151314342Y-81478571D01*
X151314342Y-81478571D02*
X151266723Y-81573809D01*
X151266723Y-81573809D02*
X151266723Y-81669047D01*
X151504819Y-81621428D02*
X151457200Y-81716666D01*
X151457200Y-81716666D02*
X151361961Y-81811904D01*
X151361961Y-81811904D02*
X151171485Y-81859523D01*
X151171485Y-81859523D02*
X150838152Y-81859523D01*
X150838152Y-81859523D02*
X150647676Y-81811904D01*
X150647676Y-81811904D02*
X150552438Y-81716666D01*
X150552438Y-81716666D02*
X150504819Y-81621428D01*
X150504819Y-81621428D02*
X150504819Y-81430952D01*
X150504819Y-81430952D02*
X150552438Y-81335714D01*
X150552438Y-81335714D02*
X150647676Y-81240476D01*
X150647676Y-81240476D02*
X150838152Y-81192857D01*
X150838152Y-81192857D02*
X151171485Y-81192857D01*
X151171485Y-81192857D02*
X151361961Y-81240476D01*
X151361961Y-81240476D02*
X151457200Y-81335714D01*
X151457200Y-81335714D02*
X151504819Y-81430952D01*
X151504819Y-81430952D02*
X151504819Y-81621428D01*
X150600057Y-80811904D02*
X150552438Y-80764285D01*
X150552438Y-80764285D02*
X150504819Y-80669047D01*
X150504819Y-80669047D02*
X150504819Y-80430952D01*
X150504819Y-80430952D02*
X150552438Y-80335714D01*
X150552438Y-80335714D02*
X150600057Y-80288095D01*
X150600057Y-80288095D02*
X150695295Y-80240476D01*
X150695295Y-80240476D02*
X150790533Y-80240476D01*
X150790533Y-80240476D02*
X150933390Y-80288095D01*
X150933390Y-80288095D02*
X151504819Y-80859523D01*
X151504819Y-80859523D02*
X151504819Y-80240476D01*
X164457142Y-76559580D02*
X164409523Y-76607200D01*
X164409523Y-76607200D02*
X164266666Y-76654819D01*
X164266666Y-76654819D02*
X164171428Y-76654819D01*
X164171428Y-76654819D02*
X164028571Y-76607200D01*
X164028571Y-76607200D02*
X163933333Y-76511961D01*
X163933333Y-76511961D02*
X163885714Y-76416723D01*
X163885714Y-76416723D02*
X163838095Y-76226247D01*
X163838095Y-76226247D02*
X163838095Y-76083390D01*
X163838095Y-76083390D02*
X163885714Y-75892914D01*
X163885714Y-75892914D02*
X163933333Y-75797676D01*
X163933333Y-75797676D02*
X164028571Y-75702438D01*
X164028571Y-75702438D02*
X164171428Y-75654819D01*
X164171428Y-75654819D02*
X164266666Y-75654819D01*
X164266666Y-75654819D02*
X164409523Y-75702438D01*
X164409523Y-75702438D02*
X164457142Y-75750057D01*
X164838095Y-75750057D02*
X164885714Y-75702438D01*
X164885714Y-75702438D02*
X164980952Y-75654819D01*
X164980952Y-75654819D02*
X165219047Y-75654819D01*
X165219047Y-75654819D02*
X165314285Y-75702438D01*
X165314285Y-75702438D02*
X165361904Y-75750057D01*
X165361904Y-75750057D02*
X165409523Y-75845295D01*
X165409523Y-75845295D02*
X165409523Y-75940533D01*
X165409523Y-75940533D02*
X165361904Y-76083390D01*
X165361904Y-76083390D02*
X164790476Y-76654819D01*
X164790476Y-76654819D02*
X165409523Y-76654819D01*
X165885714Y-76654819D02*
X166076190Y-76654819D01*
X166076190Y-76654819D02*
X166171428Y-76607200D01*
X166171428Y-76607200D02*
X166219047Y-76559580D01*
X166219047Y-76559580D02*
X166314285Y-76416723D01*
X166314285Y-76416723D02*
X166361904Y-76226247D01*
X166361904Y-76226247D02*
X166361904Y-75845295D01*
X166361904Y-75845295D02*
X166314285Y-75750057D01*
X166314285Y-75750057D02*
X166266666Y-75702438D01*
X166266666Y-75702438D02*
X166171428Y-75654819D01*
X166171428Y-75654819D02*
X165980952Y-75654819D01*
X165980952Y-75654819D02*
X165885714Y-75702438D01*
X165885714Y-75702438D02*
X165838095Y-75750057D01*
X165838095Y-75750057D02*
X165790476Y-75845295D01*
X165790476Y-75845295D02*
X165790476Y-76083390D01*
X165790476Y-76083390D02*
X165838095Y-76178628D01*
X165838095Y-76178628D02*
X165885714Y-76226247D01*
X165885714Y-76226247D02*
X165980952Y-76273866D01*
X165980952Y-76273866D02*
X166171428Y-76273866D01*
X166171428Y-76273866D02*
X166266666Y-76226247D01*
X166266666Y-76226247D02*
X166314285Y-76178628D01*
X166314285Y-76178628D02*
X166361904Y-76083390D01*
X151600057Y-101145238D02*
X151552438Y-101240476D01*
X151552438Y-101240476D02*
X151457200Y-101335714D01*
X151457200Y-101335714D02*
X151314342Y-101478571D01*
X151314342Y-101478571D02*
X151266723Y-101573809D01*
X151266723Y-101573809D02*
X151266723Y-101669047D01*
X151504819Y-101621428D02*
X151457200Y-101716666D01*
X151457200Y-101716666D02*
X151361961Y-101811904D01*
X151361961Y-101811904D02*
X151171485Y-101859523D01*
X151171485Y-101859523D02*
X150838152Y-101859523D01*
X150838152Y-101859523D02*
X150647676Y-101811904D01*
X150647676Y-101811904D02*
X150552438Y-101716666D01*
X150552438Y-101716666D02*
X150504819Y-101621428D01*
X150504819Y-101621428D02*
X150504819Y-101430952D01*
X150504819Y-101430952D02*
X150552438Y-101335714D01*
X150552438Y-101335714D02*
X150647676Y-101240476D01*
X150647676Y-101240476D02*
X150838152Y-101192857D01*
X150838152Y-101192857D02*
X151171485Y-101192857D01*
X151171485Y-101192857D02*
X151361961Y-101240476D01*
X151361961Y-101240476D02*
X151457200Y-101335714D01*
X151457200Y-101335714D02*
X151504819Y-101430952D01*
X151504819Y-101430952D02*
X151504819Y-101621428D01*
X150504819Y-100859523D02*
X150504819Y-100240476D01*
X150504819Y-100240476D02*
X150885771Y-100573809D01*
X150885771Y-100573809D02*
X150885771Y-100430952D01*
X150885771Y-100430952D02*
X150933390Y-100335714D01*
X150933390Y-100335714D02*
X150981009Y-100288095D01*
X150981009Y-100288095D02*
X151076247Y-100240476D01*
X151076247Y-100240476D02*
X151314342Y-100240476D01*
X151314342Y-100240476D02*
X151409580Y-100288095D01*
X151409580Y-100288095D02*
X151457200Y-100335714D01*
X151457200Y-100335714D02*
X151504819Y-100430952D01*
X151504819Y-100430952D02*
X151504819Y-100716666D01*
X151504819Y-100716666D02*
X151457200Y-100811904D01*
X151457200Y-100811904D02*
X151409580Y-100859523D01*
X162909580Y-134342857D02*
X162957200Y-134390476D01*
X162957200Y-134390476D02*
X163004819Y-134533333D01*
X163004819Y-134533333D02*
X163004819Y-134628571D01*
X163004819Y-134628571D02*
X162957200Y-134771428D01*
X162957200Y-134771428D02*
X162861961Y-134866666D01*
X162861961Y-134866666D02*
X162766723Y-134914285D01*
X162766723Y-134914285D02*
X162576247Y-134961904D01*
X162576247Y-134961904D02*
X162433390Y-134961904D01*
X162433390Y-134961904D02*
X162242914Y-134914285D01*
X162242914Y-134914285D02*
X162147676Y-134866666D01*
X162147676Y-134866666D02*
X162052438Y-134771428D01*
X162052438Y-134771428D02*
X162004819Y-134628571D01*
X162004819Y-134628571D02*
X162004819Y-134533333D01*
X162004819Y-134533333D02*
X162052438Y-134390476D01*
X162052438Y-134390476D02*
X162100057Y-134342857D01*
X162100057Y-133961904D02*
X162052438Y-133914285D01*
X162052438Y-133914285D02*
X162004819Y-133819047D01*
X162004819Y-133819047D02*
X162004819Y-133580952D01*
X162004819Y-133580952D02*
X162052438Y-133485714D01*
X162052438Y-133485714D02*
X162100057Y-133438095D01*
X162100057Y-133438095D02*
X162195295Y-133390476D01*
X162195295Y-133390476D02*
X162290533Y-133390476D01*
X162290533Y-133390476D02*
X162433390Y-133438095D01*
X162433390Y-133438095D02*
X163004819Y-134009523D01*
X163004819Y-134009523D02*
X163004819Y-133390476D01*
X162433390Y-132819047D02*
X162385771Y-132914285D01*
X162385771Y-132914285D02*
X162338152Y-132961904D01*
X162338152Y-132961904D02*
X162242914Y-133009523D01*
X162242914Y-133009523D02*
X162195295Y-133009523D01*
X162195295Y-133009523D02*
X162100057Y-132961904D01*
X162100057Y-132961904D02*
X162052438Y-132914285D01*
X162052438Y-132914285D02*
X162004819Y-132819047D01*
X162004819Y-132819047D02*
X162004819Y-132628571D01*
X162004819Y-132628571D02*
X162052438Y-132533333D01*
X162052438Y-132533333D02*
X162100057Y-132485714D01*
X162100057Y-132485714D02*
X162195295Y-132438095D01*
X162195295Y-132438095D02*
X162242914Y-132438095D01*
X162242914Y-132438095D02*
X162338152Y-132485714D01*
X162338152Y-132485714D02*
X162385771Y-132533333D01*
X162385771Y-132533333D02*
X162433390Y-132628571D01*
X162433390Y-132628571D02*
X162433390Y-132819047D01*
X162433390Y-132819047D02*
X162481009Y-132914285D01*
X162481009Y-132914285D02*
X162528628Y-132961904D01*
X162528628Y-132961904D02*
X162623866Y-133009523D01*
X162623866Y-133009523D02*
X162814342Y-133009523D01*
X162814342Y-133009523D02*
X162909580Y-132961904D01*
X162909580Y-132961904D02*
X162957200Y-132914285D01*
X162957200Y-132914285D02*
X163004819Y-132819047D01*
X163004819Y-132819047D02*
X163004819Y-132628571D01*
X163004819Y-132628571D02*
X162957200Y-132533333D01*
X162957200Y-132533333D02*
X162909580Y-132485714D01*
X162909580Y-132485714D02*
X162814342Y-132438095D01*
X162814342Y-132438095D02*
X162623866Y-132438095D01*
X162623866Y-132438095D02*
X162528628Y-132485714D01*
X162528628Y-132485714D02*
X162481009Y-132533333D01*
X162481009Y-132533333D02*
X162433390Y-132628571D01*
X121079580Y-73466666D02*
X121127200Y-73514285D01*
X121127200Y-73514285D02*
X121174819Y-73657142D01*
X121174819Y-73657142D02*
X121174819Y-73752380D01*
X121174819Y-73752380D02*
X121127200Y-73895237D01*
X121127200Y-73895237D02*
X121031961Y-73990475D01*
X121031961Y-73990475D02*
X120936723Y-74038094D01*
X120936723Y-74038094D02*
X120746247Y-74085713D01*
X120746247Y-74085713D02*
X120603390Y-74085713D01*
X120603390Y-74085713D02*
X120412914Y-74038094D01*
X120412914Y-74038094D02*
X120317676Y-73990475D01*
X120317676Y-73990475D02*
X120222438Y-73895237D01*
X120222438Y-73895237D02*
X120174819Y-73752380D01*
X120174819Y-73752380D02*
X120174819Y-73657142D01*
X120174819Y-73657142D02*
X120222438Y-73514285D01*
X120222438Y-73514285D02*
X120270057Y-73466666D01*
X120508152Y-72609523D02*
X121174819Y-72609523D01*
X120127200Y-72847618D02*
X120841485Y-73085713D01*
X120841485Y-73085713D02*
X120841485Y-72466666D01*
X151600057Y-121145238D02*
X151552438Y-121240476D01*
X151552438Y-121240476D02*
X151457200Y-121335714D01*
X151457200Y-121335714D02*
X151314342Y-121478571D01*
X151314342Y-121478571D02*
X151266723Y-121573809D01*
X151266723Y-121573809D02*
X151266723Y-121669047D01*
X151504819Y-121621428D02*
X151457200Y-121716666D01*
X151457200Y-121716666D02*
X151361961Y-121811904D01*
X151361961Y-121811904D02*
X151171485Y-121859523D01*
X151171485Y-121859523D02*
X150838152Y-121859523D01*
X150838152Y-121859523D02*
X150647676Y-121811904D01*
X150647676Y-121811904D02*
X150552438Y-121716666D01*
X150552438Y-121716666D02*
X150504819Y-121621428D01*
X150504819Y-121621428D02*
X150504819Y-121430952D01*
X150504819Y-121430952D02*
X150552438Y-121335714D01*
X150552438Y-121335714D02*
X150647676Y-121240476D01*
X150647676Y-121240476D02*
X150838152Y-121192857D01*
X150838152Y-121192857D02*
X151171485Y-121192857D01*
X151171485Y-121192857D02*
X151361961Y-121240476D01*
X151361961Y-121240476D02*
X151457200Y-121335714D01*
X151457200Y-121335714D02*
X151504819Y-121430952D01*
X151504819Y-121430952D02*
X151504819Y-121621428D01*
X150838152Y-120335714D02*
X151504819Y-120335714D01*
X150457200Y-120573809D02*
X151171485Y-120811904D01*
X151171485Y-120811904D02*
X151171485Y-120192857D01*
X112145180Y-106980952D02*
X112145180Y-106409524D01*
X112145180Y-106695238D02*
X113145180Y-106695238D01*
X113145180Y-106695238D02*
X113002323Y-106600000D01*
X113002323Y-106600000D02*
X112907085Y-106504762D01*
X112907085Y-106504762D02*
X112859466Y-106409524D01*
X113049942Y-107361905D02*
X113097561Y-107409524D01*
X113097561Y-107409524D02*
X113145180Y-107504762D01*
X113145180Y-107504762D02*
X113145180Y-107742857D01*
X113145180Y-107742857D02*
X113097561Y-107838095D01*
X113097561Y-107838095D02*
X113049942Y-107885714D01*
X113049942Y-107885714D02*
X112954704Y-107933333D01*
X112954704Y-107933333D02*
X112859466Y-107933333D01*
X112859466Y-107933333D02*
X112716609Y-107885714D01*
X112716609Y-107885714D02*
X112145180Y-107314286D01*
X112145180Y-107314286D02*
X112145180Y-107933333D01*
X113145180Y-108219048D02*
X112145180Y-108552381D01*
X112145180Y-108552381D02*
X113145180Y-108885714D01*
X191207142Y-77959580D02*
X191159523Y-78007200D01*
X191159523Y-78007200D02*
X191016666Y-78054819D01*
X191016666Y-78054819D02*
X190921428Y-78054819D01*
X190921428Y-78054819D02*
X190778571Y-78007200D01*
X190778571Y-78007200D02*
X190683333Y-77911961D01*
X190683333Y-77911961D02*
X190635714Y-77816723D01*
X190635714Y-77816723D02*
X190588095Y-77626247D01*
X190588095Y-77626247D02*
X190588095Y-77483390D01*
X190588095Y-77483390D02*
X190635714Y-77292914D01*
X190635714Y-77292914D02*
X190683333Y-77197676D01*
X190683333Y-77197676D02*
X190778571Y-77102438D01*
X190778571Y-77102438D02*
X190921428Y-77054819D01*
X190921428Y-77054819D02*
X191016666Y-77054819D01*
X191016666Y-77054819D02*
X191159523Y-77102438D01*
X191159523Y-77102438D02*
X191207142Y-77150057D01*
X191540476Y-77054819D02*
X192159523Y-77054819D01*
X192159523Y-77054819D02*
X191826190Y-77435771D01*
X191826190Y-77435771D02*
X191969047Y-77435771D01*
X191969047Y-77435771D02*
X192064285Y-77483390D01*
X192064285Y-77483390D02*
X192111904Y-77531009D01*
X192111904Y-77531009D02*
X192159523Y-77626247D01*
X192159523Y-77626247D02*
X192159523Y-77864342D01*
X192159523Y-77864342D02*
X192111904Y-77959580D01*
X192111904Y-77959580D02*
X192064285Y-78007200D01*
X192064285Y-78007200D02*
X191969047Y-78054819D01*
X191969047Y-78054819D02*
X191683333Y-78054819D01*
X191683333Y-78054819D02*
X191588095Y-78007200D01*
X191588095Y-78007200D02*
X191540476Y-77959580D01*
X192492857Y-77054819D02*
X193111904Y-77054819D01*
X193111904Y-77054819D02*
X192778571Y-77435771D01*
X192778571Y-77435771D02*
X192921428Y-77435771D01*
X192921428Y-77435771D02*
X193016666Y-77483390D01*
X193016666Y-77483390D02*
X193064285Y-77531009D01*
X193064285Y-77531009D02*
X193111904Y-77626247D01*
X193111904Y-77626247D02*
X193111904Y-77864342D01*
X193111904Y-77864342D02*
X193064285Y-77959580D01*
X193064285Y-77959580D02*
X193016666Y-78007200D01*
X193016666Y-78007200D02*
X192921428Y-78054819D01*
X192921428Y-78054819D02*
X192635714Y-78054819D01*
X192635714Y-78054819D02*
X192540476Y-78007200D01*
X192540476Y-78007200D02*
X192492857Y-77959580D01*
X121079580Y-113942857D02*
X121127200Y-113990476D01*
X121127200Y-113990476D02*
X121174819Y-114133333D01*
X121174819Y-114133333D02*
X121174819Y-114228571D01*
X121174819Y-114228571D02*
X121127200Y-114371428D01*
X121127200Y-114371428D02*
X121031961Y-114466666D01*
X121031961Y-114466666D02*
X120936723Y-114514285D01*
X120936723Y-114514285D02*
X120746247Y-114561904D01*
X120746247Y-114561904D02*
X120603390Y-114561904D01*
X120603390Y-114561904D02*
X120412914Y-114514285D01*
X120412914Y-114514285D02*
X120317676Y-114466666D01*
X120317676Y-114466666D02*
X120222438Y-114371428D01*
X120222438Y-114371428D02*
X120174819Y-114228571D01*
X120174819Y-114228571D02*
X120174819Y-114133333D01*
X120174819Y-114133333D02*
X120222438Y-113990476D01*
X120222438Y-113990476D02*
X120270057Y-113942857D01*
X120270057Y-113561904D02*
X120222438Y-113514285D01*
X120222438Y-113514285D02*
X120174819Y-113419047D01*
X120174819Y-113419047D02*
X120174819Y-113180952D01*
X120174819Y-113180952D02*
X120222438Y-113085714D01*
X120222438Y-113085714D02*
X120270057Y-113038095D01*
X120270057Y-113038095D02*
X120365295Y-112990476D01*
X120365295Y-112990476D02*
X120460533Y-112990476D01*
X120460533Y-112990476D02*
X120603390Y-113038095D01*
X120603390Y-113038095D02*
X121174819Y-113609523D01*
X121174819Y-113609523D02*
X121174819Y-112990476D01*
X120508152Y-112133333D02*
X121174819Y-112133333D01*
X120127200Y-112371428D02*
X120841485Y-112609523D01*
X120841485Y-112609523D02*
X120841485Y-111990476D01*
X201307142Y-97459580D02*
X201259523Y-97507200D01*
X201259523Y-97507200D02*
X201116666Y-97554819D01*
X201116666Y-97554819D02*
X201021428Y-97554819D01*
X201021428Y-97554819D02*
X200878571Y-97507200D01*
X200878571Y-97507200D02*
X200783333Y-97411961D01*
X200783333Y-97411961D02*
X200735714Y-97316723D01*
X200735714Y-97316723D02*
X200688095Y-97126247D01*
X200688095Y-97126247D02*
X200688095Y-96983390D01*
X200688095Y-96983390D02*
X200735714Y-96792914D01*
X200735714Y-96792914D02*
X200783333Y-96697676D01*
X200783333Y-96697676D02*
X200878571Y-96602438D01*
X200878571Y-96602438D02*
X201021428Y-96554819D01*
X201021428Y-96554819D02*
X201116666Y-96554819D01*
X201116666Y-96554819D02*
X201259523Y-96602438D01*
X201259523Y-96602438D02*
X201307142Y-96650057D01*
X202259523Y-97554819D02*
X201688095Y-97554819D01*
X201973809Y-97554819D02*
X201973809Y-96554819D01*
X201973809Y-96554819D02*
X201878571Y-96697676D01*
X201878571Y-96697676D02*
X201783333Y-96792914D01*
X201783333Y-96792914D02*
X201688095Y-96840533D01*
X203164285Y-96554819D02*
X202688095Y-96554819D01*
X202688095Y-96554819D02*
X202640476Y-97031009D01*
X202640476Y-97031009D02*
X202688095Y-96983390D01*
X202688095Y-96983390D02*
X202783333Y-96935771D01*
X202783333Y-96935771D02*
X203021428Y-96935771D01*
X203021428Y-96935771D02*
X203116666Y-96983390D01*
X203116666Y-96983390D02*
X203164285Y-97031009D01*
X203164285Y-97031009D02*
X203211904Y-97126247D01*
X203211904Y-97126247D02*
X203211904Y-97364342D01*
X203211904Y-97364342D02*
X203164285Y-97459580D01*
X203164285Y-97459580D02*
X203116666Y-97507200D01*
X203116666Y-97507200D02*
X203021428Y-97554819D01*
X203021428Y-97554819D02*
X202783333Y-97554819D01*
X202783333Y-97554819D02*
X202688095Y-97507200D01*
X202688095Y-97507200D02*
X202640476Y-97459580D01*
X178507142Y-77859580D02*
X178459523Y-77907200D01*
X178459523Y-77907200D02*
X178316666Y-77954819D01*
X178316666Y-77954819D02*
X178221428Y-77954819D01*
X178221428Y-77954819D02*
X178078571Y-77907200D01*
X178078571Y-77907200D02*
X177983333Y-77811961D01*
X177983333Y-77811961D02*
X177935714Y-77716723D01*
X177935714Y-77716723D02*
X177888095Y-77526247D01*
X177888095Y-77526247D02*
X177888095Y-77383390D01*
X177888095Y-77383390D02*
X177935714Y-77192914D01*
X177935714Y-77192914D02*
X177983333Y-77097676D01*
X177983333Y-77097676D02*
X178078571Y-77002438D01*
X178078571Y-77002438D02*
X178221428Y-76954819D01*
X178221428Y-76954819D02*
X178316666Y-76954819D01*
X178316666Y-76954819D02*
X178459523Y-77002438D01*
X178459523Y-77002438D02*
X178507142Y-77050057D01*
X178840476Y-76954819D02*
X179459523Y-76954819D01*
X179459523Y-76954819D02*
X179126190Y-77335771D01*
X179126190Y-77335771D02*
X179269047Y-77335771D01*
X179269047Y-77335771D02*
X179364285Y-77383390D01*
X179364285Y-77383390D02*
X179411904Y-77431009D01*
X179411904Y-77431009D02*
X179459523Y-77526247D01*
X179459523Y-77526247D02*
X179459523Y-77764342D01*
X179459523Y-77764342D02*
X179411904Y-77859580D01*
X179411904Y-77859580D02*
X179364285Y-77907200D01*
X179364285Y-77907200D02*
X179269047Y-77954819D01*
X179269047Y-77954819D02*
X178983333Y-77954819D01*
X178983333Y-77954819D02*
X178888095Y-77907200D01*
X178888095Y-77907200D02*
X178840476Y-77859580D01*
X180411904Y-77954819D02*
X179840476Y-77954819D01*
X180126190Y-77954819D02*
X180126190Y-76954819D01*
X180126190Y-76954819D02*
X180030952Y-77097676D01*
X180030952Y-77097676D02*
X179935714Y-77192914D01*
X179935714Y-77192914D02*
X179840476Y-77240533D01*
X130488095Y-117954819D02*
X130488095Y-118764342D01*
X130488095Y-118764342D02*
X130535714Y-118859580D01*
X130535714Y-118859580D02*
X130583333Y-118907200D01*
X130583333Y-118907200D02*
X130678571Y-118954819D01*
X130678571Y-118954819D02*
X130869047Y-118954819D01*
X130869047Y-118954819D02*
X130964285Y-118907200D01*
X130964285Y-118907200D02*
X131011904Y-118859580D01*
X131011904Y-118859580D02*
X131059523Y-118764342D01*
X131059523Y-118764342D02*
X131059523Y-117954819D01*
X131964285Y-118288152D02*
X131964285Y-118954819D01*
X131726190Y-117907200D02*
X131488095Y-118621485D01*
X131488095Y-118621485D02*
X132107142Y-118621485D01*
X157907142Y-76559580D02*
X157859523Y-76607200D01*
X157859523Y-76607200D02*
X157716666Y-76654819D01*
X157716666Y-76654819D02*
X157621428Y-76654819D01*
X157621428Y-76654819D02*
X157478571Y-76607200D01*
X157478571Y-76607200D02*
X157383333Y-76511961D01*
X157383333Y-76511961D02*
X157335714Y-76416723D01*
X157335714Y-76416723D02*
X157288095Y-76226247D01*
X157288095Y-76226247D02*
X157288095Y-76083390D01*
X157288095Y-76083390D02*
X157335714Y-75892914D01*
X157335714Y-75892914D02*
X157383333Y-75797676D01*
X157383333Y-75797676D02*
X157478571Y-75702438D01*
X157478571Y-75702438D02*
X157621428Y-75654819D01*
X157621428Y-75654819D02*
X157716666Y-75654819D01*
X157716666Y-75654819D02*
X157859523Y-75702438D01*
X157859523Y-75702438D02*
X157907142Y-75750057D01*
X158240476Y-75654819D02*
X158859523Y-75654819D01*
X158859523Y-75654819D02*
X158526190Y-76035771D01*
X158526190Y-76035771D02*
X158669047Y-76035771D01*
X158669047Y-76035771D02*
X158764285Y-76083390D01*
X158764285Y-76083390D02*
X158811904Y-76131009D01*
X158811904Y-76131009D02*
X158859523Y-76226247D01*
X158859523Y-76226247D02*
X158859523Y-76464342D01*
X158859523Y-76464342D02*
X158811904Y-76559580D01*
X158811904Y-76559580D02*
X158764285Y-76607200D01*
X158764285Y-76607200D02*
X158669047Y-76654819D01*
X158669047Y-76654819D02*
X158383333Y-76654819D01*
X158383333Y-76654819D02*
X158288095Y-76607200D01*
X158288095Y-76607200D02*
X158240476Y-76559580D01*
X159478571Y-75654819D02*
X159573809Y-75654819D01*
X159573809Y-75654819D02*
X159669047Y-75702438D01*
X159669047Y-75702438D02*
X159716666Y-75750057D01*
X159716666Y-75750057D02*
X159764285Y-75845295D01*
X159764285Y-75845295D02*
X159811904Y-76035771D01*
X159811904Y-76035771D02*
X159811904Y-76273866D01*
X159811904Y-76273866D02*
X159764285Y-76464342D01*
X159764285Y-76464342D02*
X159716666Y-76559580D01*
X159716666Y-76559580D02*
X159669047Y-76607200D01*
X159669047Y-76607200D02*
X159573809Y-76654819D01*
X159573809Y-76654819D02*
X159478571Y-76654819D01*
X159478571Y-76654819D02*
X159383333Y-76607200D01*
X159383333Y-76607200D02*
X159335714Y-76559580D01*
X159335714Y-76559580D02*
X159288095Y-76464342D01*
X159288095Y-76464342D02*
X159240476Y-76273866D01*
X159240476Y-76273866D02*
X159240476Y-76035771D01*
X159240476Y-76035771D02*
X159288095Y-75845295D01*
X159288095Y-75845295D02*
X159335714Y-75750057D01*
X159335714Y-75750057D02*
X159383333Y-75702438D01*
X159383333Y-75702438D02*
X159478571Y-75654819D01*
X140983333Y-85134819D02*
X140650000Y-84658628D01*
X140411905Y-85134819D02*
X140411905Y-84134819D01*
X140411905Y-84134819D02*
X140792857Y-84134819D01*
X140792857Y-84134819D02*
X140888095Y-84182438D01*
X140888095Y-84182438D02*
X140935714Y-84230057D01*
X140935714Y-84230057D02*
X140983333Y-84325295D01*
X140983333Y-84325295D02*
X140983333Y-84468152D01*
X140983333Y-84468152D02*
X140935714Y-84563390D01*
X140935714Y-84563390D02*
X140888095Y-84611009D01*
X140888095Y-84611009D02*
X140792857Y-84658628D01*
X140792857Y-84658628D02*
X140411905Y-84658628D01*
X141364286Y-84230057D02*
X141411905Y-84182438D01*
X141411905Y-84182438D02*
X141507143Y-84134819D01*
X141507143Y-84134819D02*
X141745238Y-84134819D01*
X141745238Y-84134819D02*
X141840476Y-84182438D01*
X141840476Y-84182438D02*
X141888095Y-84230057D01*
X141888095Y-84230057D02*
X141935714Y-84325295D01*
X141935714Y-84325295D02*
X141935714Y-84420533D01*
X141935714Y-84420533D02*
X141888095Y-84563390D01*
X141888095Y-84563390D02*
X141316667Y-85134819D01*
X141316667Y-85134819D02*
X141935714Y-85134819D01*
X140433333Y-65134819D02*
X140100000Y-64658628D01*
X139861905Y-65134819D02*
X139861905Y-64134819D01*
X139861905Y-64134819D02*
X140242857Y-64134819D01*
X140242857Y-64134819D02*
X140338095Y-64182438D01*
X140338095Y-64182438D02*
X140385714Y-64230057D01*
X140385714Y-64230057D02*
X140433333Y-64325295D01*
X140433333Y-64325295D02*
X140433333Y-64468152D01*
X140433333Y-64468152D02*
X140385714Y-64563390D01*
X140385714Y-64563390D02*
X140338095Y-64611009D01*
X140338095Y-64611009D02*
X140242857Y-64658628D01*
X140242857Y-64658628D02*
X139861905Y-64658628D01*
X141385714Y-65134819D02*
X140814286Y-65134819D01*
X141100000Y-65134819D02*
X141100000Y-64134819D01*
X141100000Y-64134819D02*
X141004762Y-64277676D01*
X141004762Y-64277676D02*
X140909524Y-64372914D01*
X140909524Y-64372914D02*
X140814286Y-64420533D01*
X177607142Y-76559580D02*
X177559523Y-76607200D01*
X177559523Y-76607200D02*
X177416666Y-76654819D01*
X177416666Y-76654819D02*
X177321428Y-76654819D01*
X177321428Y-76654819D02*
X177178571Y-76607200D01*
X177178571Y-76607200D02*
X177083333Y-76511961D01*
X177083333Y-76511961D02*
X177035714Y-76416723D01*
X177035714Y-76416723D02*
X176988095Y-76226247D01*
X176988095Y-76226247D02*
X176988095Y-76083390D01*
X176988095Y-76083390D02*
X177035714Y-75892914D01*
X177035714Y-75892914D02*
X177083333Y-75797676D01*
X177083333Y-75797676D02*
X177178571Y-75702438D01*
X177178571Y-75702438D02*
X177321428Y-75654819D01*
X177321428Y-75654819D02*
X177416666Y-75654819D01*
X177416666Y-75654819D02*
X177559523Y-75702438D01*
X177559523Y-75702438D02*
X177607142Y-75750057D01*
X178559523Y-76654819D02*
X177988095Y-76654819D01*
X178273809Y-76654819D02*
X178273809Y-75654819D01*
X178273809Y-75654819D02*
X178178571Y-75797676D01*
X178178571Y-75797676D02*
X178083333Y-75892914D01*
X178083333Y-75892914D02*
X177988095Y-75940533D01*
X179178571Y-75654819D02*
X179273809Y-75654819D01*
X179273809Y-75654819D02*
X179369047Y-75702438D01*
X179369047Y-75702438D02*
X179416666Y-75750057D01*
X179416666Y-75750057D02*
X179464285Y-75845295D01*
X179464285Y-75845295D02*
X179511904Y-76035771D01*
X179511904Y-76035771D02*
X179511904Y-76273866D01*
X179511904Y-76273866D02*
X179464285Y-76464342D01*
X179464285Y-76464342D02*
X179416666Y-76559580D01*
X179416666Y-76559580D02*
X179369047Y-76607200D01*
X179369047Y-76607200D02*
X179273809Y-76654819D01*
X179273809Y-76654819D02*
X179178571Y-76654819D01*
X179178571Y-76654819D02*
X179083333Y-76607200D01*
X179083333Y-76607200D02*
X179035714Y-76559580D01*
X179035714Y-76559580D02*
X178988095Y-76464342D01*
X178988095Y-76464342D02*
X178940476Y-76273866D01*
X178940476Y-76273866D02*
X178940476Y-76035771D01*
X178940476Y-76035771D02*
X178988095Y-75845295D01*
X178988095Y-75845295D02*
X179035714Y-75750057D01*
X179035714Y-75750057D02*
X179083333Y-75702438D01*
X179083333Y-75702438D02*
X179178571Y-75654819D01*
X121109580Y-68829166D02*
X121157200Y-68876785D01*
X121157200Y-68876785D02*
X121204819Y-69019642D01*
X121204819Y-69019642D02*
X121204819Y-69114880D01*
X121204819Y-69114880D02*
X121157200Y-69257737D01*
X121157200Y-69257737D02*
X121061961Y-69352975D01*
X121061961Y-69352975D02*
X120966723Y-69400594D01*
X120966723Y-69400594D02*
X120776247Y-69448213D01*
X120776247Y-69448213D02*
X120633390Y-69448213D01*
X120633390Y-69448213D02*
X120442914Y-69400594D01*
X120442914Y-69400594D02*
X120347676Y-69352975D01*
X120347676Y-69352975D02*
X120252438Y-69257737D01*
X120252438Y-69257737D02*
X120204819Y-69114880D01*
X120204819Y-69114880D02*
X120204819Y-69019642D01*
X120204819Y-69019642D02*
X120252438Y-68876785D01*
X120252438Y-68876785D02*
X120300057Y-68829166D01*
X120204819Y-68495832D02*
X120204819Y-67876785D01*
X120204819Y-67876785D02*
X120585771Y-68210118D01*
X120585771Y-68210118D02*
X120585771Y-68067261D01*
X120585771Y-68067261D02*
X120633390Y-67972023D01*
X120633390Y-67972023D02*
X120681009Y-67924404D01*
X120681009Y-67924404D02*
X120776247Y-67876785D01*
X120776247Y-67876785D02*
X121014342Y-67876785D01*
X121014342Y-67876785D02*
X121109580Y-67924404D01*
X121109580Y-67924404D02*
X121157200Y-67972023D01*
X121157200Y-67972023D02*
X121204819Y-68067261D01*
X121204819Y-68067261D02*
X121204819Y-68352975D01*
X121204819Y-68352975D02*
X121157200Y-68448213D01*
X121157200Y-68448213D02*
X121109580Y-68495832D01*
X121559580Y-50542857D02*
X121607200Y-50590476D01*
X121607200Y-50590476D02*
X121654819Y-50733333D01*
X121654819Y-50733333D02*
X121654819Y-50828571D01*
X121654819Y-50828571D02*
X121607200Y-50971428D01*
X121607200Y-50971428D02*
X121511961Y-51066666D01*
X121511961Y-51066666D02*
X121416723Y-51114285D01*
X121416723Y-51114285D02*
X121226247Y-51161904D01*
X121226247Y-51161904D02*
X121083390Y-51161904D01*
X121083390Y-51161904D02*
X120892914Y-51114285D01*
X120892914Y-51114285D02*
X120797676Y-51066666D01*
X120797676Y-51066666D02*
X120702438Y-50971428D01*
X120702438Y-50971428D02*
X120654819Y-50828571D01*
X120654819Y-50828571D02*
X120654819Y-50733333D01*
X120654819Y-50733333D02*
X120702438Y-50590476D01*
X120702438Y-50590476D02*
X120750057Y-50542857D01*
X120654819Y-50209523D02*
X120654819Y-49590476D01*
X120654819Y-49590476D02*
X121035771Y-49923809D01*
X121035771Y-49923809D02*
X121035771Y-49780952D01*
X121035771Y-49780952D02*
X121083390Y-49685714D01*
X121083390Y-49685714D02*
X121131009Y-49638095D01*
X121131009Y-49638095D02*
X121226247Y-49590476D01*
X121226247Y-49590476D02*
X121464342Y-49590476D01*
X121464342Y-49590476D02*
X121559580Y-49638095D01*
X121559580Y-49638095D02*
X121607200Y-49685714D01*
X121607200Y-49685714D02*
X121654819Y-49780952D01*
X121654819Y-49780952D02*
X121654819Y-50066666D01*
X121654819Y-50066666D02*
X121607200Y-50161904D01*
X121607200Y-50161904D02*
X121559580Y-50209523D01*
X120988152Y-48733333D02*
X121654819Y-48733333D01*
X120607200Y-48971428D02*
X121321485Y-49209523D01*
X121321485Y-49209523D02*
X121321485Y-48590476D01*
X151600057Y-61145238D02*
X151552438Y-61240476D01*
X151552438Y-61240476D02*
X151457200Y-61335714D01*
X151457200Y-61335714D02*
X151314342Y-61478571D01*
X151314342Y-61478571D02*
X151266723Y-61573809D01*
X151266723Y-61573809D02*
X151266723Y-61669047D01*
X151504819Y-61621428D02*
X151457200Y-61716666D01*
X151457200Y-61716666D02*
X151361961Y-61811904D01*
X151361961Y-61811904D02*
X151171485Y-61859523D01*
X151171485Y-61859523D02*
X150838152Y-61859523D01*
X150838152Y-61859523D02*
X150647676Y-61811904D01*
X150647676Y-61811904D02*
X150552438Y-61716666D01*
X150552438Y-61716666D02*
X150504819Y-61621428D01*
X150504819Y-61621428D02*
X150504819Y-61430952D01*
X150504819Y-61430952D02*
X150552438Y-61335714D01*
X150552438Y-61335714D02*
X150647676Y-61240476D01*
X150647676Y-61240476D02*
X150838152Y-61192857D01*
X150838152Y-61192857D02*
X151171485Y-61192857D01*
X151171485Y-61192857D02*
X151361961Y-61240476D01*
X151361961Y-61240476D02*
X151457200Y-61335714D01*
X151457200Y-61335714D02*
X151504819Y-61430952D01*
X151504819Y-61430952D02*
X151504819Y-61621428D01*
X151504819Y-60240476D02*
X151504819Y-60811904D01*
X151504819Y-60526190D02*
X150504819Y-60526190D01*
X150504819Y-60526190D02*
X150647676Y-60621428D01*
X150647676Y-60621428D02*
X150742914Y-60716666D01*
X150742914Y-60716666D02*
X150790533Y-60811904D01*
X140483333Y-105134819D02*
X140150000Y-104658628D01*
X139911905Y-105134819D02*
X139911905Y-104134819D01*
X139911905Y-104134819D02*
X140292857Y-104134819D01*
X140292857Y-104134819D02*
X140388095Y-104182438D01*
X140388095Y-104182438D02*
X140435714Y-104230057D01*
X140435714Y-104230057D02*
X140483333Y-104325295D01*
X140483333Y-104325295D02*
X140483333Y-104468152D01*
X140483333Y-104468152D02*
X140435714Y-104563390D01*
X140435714Y-104563390D02*
X140388095Y-104611009D01*
X140388095Y-104611009D02*
X140292857Y-104658628D01*
X140292857Y-104658628D02*
X139911905Y-104658628D01*
X140816667Y-104134819D02*
X141435714Y-104134819D01*
X141435714Y-104134819D02*
X141102381Y-104515771D01*
X141102381Y-104515771D02*
X141245238Y-104515771D01*
X141245238Y-104515771D02*
X141340476Y-104563390D01*
X141340476Y-104563390D02*
X141388095Y-104611009D01*
X141388095Y-104611009D02*
X141435714Y-104706247D01*
X141435714Y-104706247D02*
X141435714Y-104944342D01*
X141435714Y-104944342D02*
X141388095Y-105039580D01*
X141388095Y-105039580D02*
X141340476Y-105087200D01*
X141340476Y-105087200D02*
X141245238Y-105134819D01*
X141245238Y-105134819D02*
X140959524Y-105134819D01*
X140959524Y-105134819D02*
X140864286Y-105087200D01*
X140864286Y-105087200D02*
X140816667Y-105039580D01*
X187783333Y-76959580D02*
X187735714Y-77007200D01*
X187735714Y-77007200D02*
X187592857Y-77054819D01*
X187592857Y-77054819D02*
X187497619Y-77054819D01*
X187497619Y-77054819D02*
X187354762Y-77007200D01*
X187354762Y-77007200D02*
X187259524Y-76911961D01*
X187259524Y-76911961D02*
X187211905Y-76816723D01*
X187211905Y-76816723D02*
X187164286Y-76626247D01*
X187164286Y-76626247D02*
X187164286Y-76483390D01*
X187164286Y-76483390D02*
X187211905Y-76292914D01*
X187211905Y-76292914D02*
X187259524Y-76197676D01*
X187259524Y-76197676D02*
X187354762Y-76102438D01*
X187354762Y-76102438D02*
X187497619Y-76054819D01*
X187497619Y-76054819D02*
X187592857Y-76054819D01*
X187592857Y-76054819D02*
X187735714Y-76102438D01*
X187735714Y-76102438D02*
X187783333Y-76150057D01*
X188164286Y-76150057D02*
X188211905Y-76102438D01*
X188211905Y-76102438D02*
X188307143Y-76054819D01*
X188307143Y-76054819D02*
X188545238Y-76054819D01*
X188545238Y-76054819D02*
X188640476Y-76102438D01*
X188640476Y-76102438D02*
X188688095Y-76150057D01*
X188688095Y-76150057D02*
X188735714Y-76245295D01*
X188735714Y-76245295D02*
X188735714Y-76340533D01*
X188735714Y-76340533D02*
X188688095Y-76483390D01*
X188688095Y-76483390D02*
X188116667Y-77054819D01*
X188116667Y-77054819D02*
X188735714Y-77054819D01*
X137009580Y-63142857D02*
X137057200Y-63190476D01*
X137057200Y-63190476D02*
X137104819Y-63333333D01*
X137104819Y-63333333D02*
X137104819Y-63428571D01*
X137104819Y-63428571D02*
X137057200Y-63571428D01*
X137057200Y-63571428D02*
X136961961Y-63666666D01*
X136961961Y-63666666D02*
X136866723Y-63714285D01*
X136866723Y-63714285D02*
X136676247Y-63761904D01*
X136676247Y-63761904D02*
X136533390Y-63761904D01*
X136533390Y-63761904D02*
X136342914Y-63714285D01*
X136342914Y-63714285D02*
X136247676Y-63666666D01*
X136247676Y-63666666D02*
X136152438Y-63571428D01*
X136152438Y-63571428D02*
X136104819Y-63428571D01*
X136104819Y-63428571D02*
X136104819Y-63333333D01*
X136104819Y-63333333D02*
X136152438Y-63190476D01*
X136152438Y-63190476D02*
X136200057Y-63142857D01*
X137104819Y-62190476D02*
X137104819Y-62761904D01*
X137104819Y-62476190D02*
X136104819Y-62476190D01*
X136104819Y-62476190D02*
X136247676Y-62571428D01*
X136247676Y-62571428D02*
X136342914Y-62666666D01*
X136342914Y-62666666D02*
X136390533Y-62761904D01*
X136104819Y-61857142D02*
X136104819Y-61238095D01*
X136104819Y-61238095D02*
X136485771Y-61571428D01*
X136485771Y-61571428D02*
X136485771Y-61428571D01*
X136485771Y-61428571D02*
X136533390Y-61333333D01*
X136533390Y-61333333D02*
X136581009Y-61285714D01*
X136581009Y-61285714D02*
X136676247Y-61238095D01*
X136676247Y-61238095D02*
X136914342Y-61238095D01*
X136914342Y-61238095D02*
X137009580Y-61285714D01*
X137009580Y-61285714D02*
X137057200Y-61333333D01*
X137057200Y-61333333D02*
X137104819Y-61428571D01*
X137104819Y-61428571D02*
X137104819Y-61714285D01*
X137104819Y-61714285D02*
X137057200Y-61809523D01*
X137057200Y-61809523D02*
X137009580Y-61857142D01*
X128438095Y-63054819D02*
X128438095Y-63864342D01*
X128438095Y-63864342D02*
X128485714Y-63959580D01*
X128485714Y-63959580D02*
X128533333Y-64007200D01*
X128533333Y-64007200D02*
X128628571Y-64054819D01*
X128628571Y-64054819D02*
X128819047Y-64054819D01*
X128819047Y-64054819D02*
X128914285Y-64007200D01*
X128914285Y-64007200D02*
X128961904Y-63959580D01*
X128961904Y-63959580D02*
X129009523Y-63864342D01*
X129009523Y-63864342D02*
X129009523Y-63054819D01*
X130009523Y-64054819D02*
X129438095Y-64054819D01*
X129723809Y-64054819D02*
X129723809Y-63054819D01*
X129723809Y-63054819D02*
X129628571Y-63197676D01*
X129628571Y-63197676D02*
X129533333Y-63292914D01*
X129533333Y-63292914D02*
X129438095Y-63340533D01*
D13*
%TO.C,TP11*%
X115100000Y-52480000D02*
X118100000Y-52480000D01*
X115100000Y-52480000D02*
X115100000Y-44380000D01*
X118100000Y-44380000D02*
X118100000Y-52480000D01*
X118100000Y-44380000D02*
X115100000Y-44380000D01*
D12*
%TO.C,TP10*%
X121565685Y-104321320D02*
X118878680Y-101634315D01*
X123121320Y-102765685D02*
X121565685Y-104321320D01*
X118878680Y-101634315D02*
X120434315Y-100078680D01*
X120434315Y-100078680D02*
X123121320Y-102765685D01*
%TO.C,TP9*%
X116465685Y-104421320D02*
X113778680Y-101734315D01*
X118021320Y-102865685D02*
X116465685Y-104421320D01*
X113778680Y-101734315D02*
X115334315Y-100178680D01*
X115334315Y-100178680D02*
X118021320Y-102865685D01*
%TO.C,TP8*%
X114400000Y-73800000D02*
X114400000Y-70000000D01*
X116600000Y-73800000D02*
X114400000Y-73800000D01*
X114400000Y-70000000D02*
X116600000Y-70000000D01*
X116600000Y-70000000D02*
X116600000Y-73800000D01*
%TO.C,TP7*%
X111100000Y-69500000D02*
X111100000Y-65700000D01*
X113300000Y-69500000D02*
X111100000Y-69500000D01*
X111100000Y-65700000D02*
X113300000Y-65700000D01*
X113300000Y-65700000D02*
X113300000Y-69500000D01*
%TO.C,TP6*%
X120900000Y-79300000D02*
X124700000Y-79300000D01*
X120900000Y-81500000D02*
X120900000Y-79300000D01*
X124700000Y-79300000D02*
X124700000Y-81500000D01*
X124700000Y-81500000D02*
X120900000Y-81500000D01*
%TO.C,TP5*%
X133500000Y-139000000D02*
X129700000Y-139000000D01*
X133500000Y-136800000D02*
X133500000Y-139000000D01*
X129700000Y-139000000D02*
X129700000Y-136800000D01*
X129700000Y-136800000D02*
X133500000Y-136800000D01*
%TO.C,TP4*%
X129700000Y-45900000D02*
X133500000Y-45900000D01*
X129700000Y-48100000D02*
X129700000Y-45900000D01*
X133500000Y-45900000D02*
X133500000Y-48100000D01*
X133500000Y-48100000D02*
X129700000Y-48100000D01*
D13*
%TO.C,C35*%
X113199759Y-113561000D02*
X113829759Y-113561000D01*
X113514759Y-113246000D02*
X113514759Y-113876000D01*
X116700000Y-112170000D02*
X116700000Y-118630000D01*
X116740000Y-112170000D02*
X116740000Y-118630000D01*
X116780000Y-112170000D02*
X116780000Y-118630000D01*
X116820000Y-112172000D02*
X116820000Y-118628000D01*
X116860000Y-112173000D02*
X116860000Y-118627000D01*
X116900000Y-112176000D02*
X116900000Y-118624000D01*
X116940000Y-112178000D02*
X116940000Y-114360000D01*
X116940000Y-116440000D02*
X116940000Y-118622000D01*
X116980000Y-112182000D02*
X116980000Y-114360000D01*
X116980000Y-116440000D02*
X116980000Y-118618000D01*
X117020000Y-112185000D02*
X117020000Y-114360000D01*
X117020000Y-116440000D02*
X117020000Y-118615000D01*
X117060000Y-112189000D02*
X117060000Y-114360000D01*
X117060000Y-116440000D02*
X117060000Y-118611000D01*
X117100000Y-112194000D02*
X117100000Y-114360000D01*
X117100000Y-116440000D02*
X117100000Y-118606000D01*
X117140000Y-112199000D02*
X117140000Y-114360000D01*
X117140000Y-116440000D02*
X117140000Y-118601000D01*
X117180000Y-112205000D02*
X117180000Y-114360000D01*
X117180000Y-116440000D02*
X117180000Y-118595000D01*
X117220000Y-112211000D02*
X117220000Y-114360000D01*
X117220000Y-116440000D02*
X117220000Y-118589000D01*
X117260000Y-112218000D02*
X117260000Y-114360000D01*
X117260000Y-116440000D02*
X117260000Y-118582000D01*
X117300000Y-112225000D02*
X117300000Y-114360000D01*
X117300000Y-116440000D02*
X117300000Y-118575000D01*
X117340000Y-112233000D02*
X117340000Y-114360000D01*
X117340000Y-116440000D02*
X117340000Y-118567000D01*
X117380000Y-112241000D02*
X117380000Y-114360000D01*
X117380000Y-116440000D02*
X117380000Y-118559000D01*
X117421000Y-112250000D02*
X117421000Y-114360000D01*
X117421000Y-116440000D02*
X117421000Y-118550000D01*
X117461000Y-112259000D02*
X117461000Y-114360000D01*
X117461000Y-116440000D02*
X117461000Y-118541000D01*
X117501000Y-112269000D02*
X117501000Y-114360000D01*
X117501000Y-116440000D02*
X117501000Y-118531000D01*
X117541000Y-112279000D02*
X117541000Y-114360000D01*
X117541000Y-116440000D02*
X117541000Y-118521000D01*
X117581000Y-112290000D02*
X117581000Y-114360000D01*
X117581000Y-116440000D02*
X117581000Y-118510000D01*
X117621000Y-112302000D02*
X117621000Y-114360000D01*
X117621000Y-116440000D02*
X117621000Y-118498000D01*
X117661000Y-112314000D02*
X117661000Y-114360000D01*
X117661000Y-116440000D02*
X117661000Y-118486000D01*
X117701000Y-112326000D02*
X117701000Y-114360000D01*
X117701000Y-116440000D02*
X117701000Y-118474000D01*
X117741000Y-112339000D02*
X117741000Y-114360000D01*
X117741000Y-116440000D02*
X117741000Y-118461000D01*
X117781000Y-112353000D02*
X117781000Y-114360000D01*
X117781000Y-116440000D02*
X117781000Y-118447000D01*
X117821000Y-112367000D02*
X117821000Y-114360000D01*
X117821000Y-116440000D02*
X117821000Y-118433000D01*
X117861000Y-112382000D02*
X117861000Y-114360000D01*
X117861000Y-116440000D02*
X117861000Y-118418000D01*
X117901000Y-112398000D02*
X117901000Y-114360000D01*
X117901000Y-116440000D02*
X117901000Y-118402000D01*
X117941000Y-112414000D02*
X117941000Y-114360000D01*
X117941000Y-116440000D02*
X117941000Y-118386000D01*
X117981000Y-112430000D02*
X117981000Y-114360000D01*
X117981000Y-116440000D02*
X117981000Y-118370000D01*
X118021000Y-112448000D02*
X118021000Y-114360000D01*
X118021000Y-116440000D02*
X118021000Y-118352000D01*
X118061000Y-112466000D02*
X118061000Y-114360000D01*
X118061000Y-116440000D02*
X118061000Y-118334000D01*
X118101000Y-112484000D02*
X118101000Y-114360000D01*
X118101000Y-116440000D02*
X118101000Y-118316000D01*
X118141000Y-112504000D02*
X118141000Y-114360000D01*
X118141000Y-116440000D02*
X118141000Y-118296000D01*
X118181000Y-112524000D02*
X118181000Y-114360000D01*
X118181000Y-116440000D02*
X118181000Y-118276000D01*
X118221000Y-112544000D02*
X118221000Y-114360000D01*
X118221000Y-116440000D02*
X118221000Y-118256000D01*
X118261000Y-112566000D02*
X118261000Y-114360000D01*
X118261000Y-116440000D02*
X118261000Y-118234000D01*
X118301000Y-112588000D02*
X118301000Y-114360000D01*
X118301000Y-116440000D02*
X118301000Y-118212000D01*
X118341000Y-112610000D02*
X118341000Y-114360000D01*
X118341000Y-116440000D02*
X118341000Y-118190000D01*
X118381000Y-112634000D02*
X118381000Y-114360000D01*
X118381000Y-116440000D02*
X118381000Y-118166000D01*
X118421000Y-112658000D02*
X118421000Y-114360000D01*
X118421000Y-116440000D02*
X118421000Y-118142000D01*
X118461000Y-112684000D02*
X118461000Y-114360000D01*
X118461000Y-116440000D02*
X118461000Y-118116000D01*
X118501000Y-112710000D02*
X118501000Y-114360000D01*
X118501000Y-116440000D02*
X118501000Y-118090000D01*
X118541000Y-112736000D02*
X118541000Y-114360000D01*
X118541000Y-116440000D02*
X118541000Y-118064000D01*
X118581000Y-112764000D02*
X118581000Y-114360000D01*
X118581000Y-116440000D02*
X118581000Y-118036000D01*
X118621000Y-112793000D02*
X118621000Y-114360000D01*
X118621000Y-116440000D02*
X118621000Y-118007000D01*
X118661000Y-112822000D02*
X118661000Y-114360000D01*
X118661000Y-116440000D02*
X118661000Y-117978000D01*
X118701000Y-112852000D02*
X118701000Y-114360000D01*
X118701000Y-116440000D02*
X118701000Y-117948000D01*
X118741000Y-112884000D02*
X118741000Y-114360000D01*
X118741000Y-116440000D02*
X118741000Y-117916000D01*
X118781000Y-112916000D02*
X118781000Y-114360000D01*
X118781000Y-116440000D02*
X118781000Y-117884000D01*
X118821000Y-112950000D02*
X118821000Y-114360000D01*
X118821000Y-116440000D02*
X118821000Y-117850000D01*
X118861000Y-112984000D02*
X118861000Y-114360000D01*
X118861000Y-116440000D02*
X118861000Y-117816000D01*
X118901000Y-113020000D02*
X118901000Y-114360000D01*
X118901000Y-116440000D02*
X118901000Y-117780000D01*
X118941000Y-113057000D02*
X118941000Y-114360000D01*
X118941000Y-116440000D02*
X118941000Y-117743000D01*
X118981000Y-113095000D02*
X118981000Y-114360000D01*
X118981000Y-116440000D02*
X118981000Y-117705000D01*
X119021000Y-113135000D02*
X119021000Y-117665000D01*
X119061000Y-113176000D02*
X119061000Y-117624000D01*
X119101000Y-113218000D02*
X119101000Y-117582000D01*
X119141000Y-113263000D02*
X119141000Y-117537000D01*
X119181000Y-113308000D02*
X119181000Y-117492000D01*
X119221000Y-113356000D02*
X119221000Y-117444000D01*
X119261000Y-113405000D02*
X119261000Y-117395000D01*
X119301000Y-113456000D02*
X119301000Y-117344000D01*
X119341000Y-113510000D02*
X119341000Y-117290000D01*
X119381000Y-113566000D02*
X119381000Y-117234000D01*
X119421000Y-113624000D02*
X119421000Y-117176000D01*
X119461000Y-113686000D02*
X119461000Y-117114000D01*
X119501000Y-113750000D02*
X119501000Y-117050000D01*
X119541000Y-113819000D02*
X119541000Y-116981000D01*
X119581000Y-113891000D02*
X119581000Y-116909000D01*
X119621000Y-113968000D02*
X119621000Y-116832000D01*
X119661000Y-114050000D02*
X119661000Y-116750000D01*
X119701000Y-114138000D02*
X119701000Y-116662000D01*
X119741000Y-114235000D02*
X119741000Y-116565000D01*
X119781000Y-114341000D02*
X119781000Y-116459000D01*
X119821000Y-114460000D02*
X119821000Y-116340000D01*
X119861000Y-114598000D02*
X119861000Y-116202000D01*
X119901000Y-114767000D02*
X119901000Y-116033000D01*
X119941000Y-114998000D02*
X119941000Y-115802000D01*
X119970000Y-115400000D02*
G75*
G02*
X113430000Y-115400000I-3270000J0D01*
G01*
X113430000Y-115400000D02*
G75*
G02*
X119970000Y-115400000I3270000J0D01*
G01*
%TO.C,J4*%
X110820000Y-74290000D02*
X112150000Y-74290000D01*
X110820000Y-75620000D02*
X110820000Y-74290000D01*
X110820000Y-76890000D02*
X110820000Y-99810000D01*
X110820000Y-76890000D02*
X113480000Y-76890000D01*
X110820000Y-99810000D02*
X113480000Y-99810000D01*
X113480000Y-76890000D02*
X113480000Y-99810000D01*
%TO.C,J5*%
X103700000Y-130750000D02*
X118200000Y-130750000D01*
X103700000Y-139950000D02*
X103700000Y-130750000D01*
X116900000Y-139950000D02*
X103700000Y-139950000D01*
X118200000Y-130750000D02*
X118200000Y-132750000D01*
X118200000Y-137950000D02*
X118200000Y-139950000D01*
X118200000Y-139950000D02*
X116900000Y-139950000D01*
X118500000Y-130450000D02*
X117200000Y-130450000D01*
X118500000Y-132150000D02*
X118500000Y-130450000D01*
%TO.C,R13*%
X111772500Y-122887742D02*
X111772500Y-123362258D01*
X110727500Y-122887742D02*
X110727500Y-123362258D01*
%TO.C,D1*%
X110515000Y-127885000D02*
X111985000Y-127885000D01*
X111985000Y-127885000D02*
X111985000Y-125600000D01*
X110515000Y-125600000D02*
X110515000Y-127885000D01*
%TO.C,U5*%
X118527500Y-92060000D02*
X118527500Y-89340000D01*
X119507500Y-92060000D02*
X118527500Y-92060000D01*
X122267500Y-92060000D02*
X123247500Y-92060000D01*
X123247500Y-89340000D02*
X123247500Y-92060000D01*
X123247500Y-89480000D02*
X123247500Y-92060000D01*
X123427500Y-89170000D02*
X123097500Y-88930000D01*
X123427500Y-88690000D01*
X123427500Y-89170000D01*
G36*
X123427500Y-89170000D02*
G01*
X123097500Y-88930000D01*
X123427500Y-88690000D01*
X123427500Y-89170000D01*
G37*
%TO.C,C14*%
X135740000Y-112188748D02*
X135740000Y-113611252D01*
X137560000Y-112188748D02*
X137560000Y-113611252D01*
%TO.C,C23*%
X121640000Y-108553733D02*
X121640000Y-108846267D01*
X122660000Y-108553733D02*
X122660000Y-108846267D01*
%TO.C,C27*%
X163430000Y-123170000D02*
X163430000Y-117930000D01*
X181670000Y-117930000D02*
X163430000Y-117930000D01*
X181670000Y-123170000D02*
X163430000Y-123170000D01*
X181670000Y-123170000D02*
X181670000Y-117930000D01*
%TO.C,R4*%
X140422936Y-125590000D02*
X141877064Y-125590000D01*
X140422936Y-127410000D02*
X141877064Y-127410000D01*
%TO.C,C32*%
X182730000Y-78480000D02*
X187970000Y-78480000D01*
X182730000Y-96720000D02*
X182730000Y-78480000D01*
X182730000Y-96720000D02*
X187970000Y-96720000D01*
X187970000Y-96720000D02*
X187970000Y-78480000D01*
%TO.C,C16*%
X187630000Y-98180000D02*
X187630000Y-130420000D01*
X202870000Y-98180000D02*
X187630000Y-98180000D01*
X202870000Y-98180000D02*
X202870000Y-130420000D01*
X202870000Y-130420000D02*
X187630000Y-130420000D01*
%TO.C,C1*%
X122741380Y-131423190D02*
X122741380Y-130619190D01*
X122781380Y-131654190D02*
X122781380Y-130388190D01*
X122821380Y-131823190D02*
X122821380Y-130219190D01*
X122861380Y-131961190D02*
X122861380Y-130081190D01*
X122901380Y-132080190D02*
X122901380Y-129962190D01*
X122941380Y-132186190D02*
X122941380Y-129856190D01*
X122981380Y-132283190D02*
X122981380Y-129759190D01*
X123021380Y-132371190D02*
X123021380Y-129671190D01*
X123061380Y-132453190D02*
X123061380Y-129589190D01*
X123101380Y-132530190D02*
X123101380Y-129512190D01*
X123141380Y-132602190D02*
X123141380Y-129440190D01*
X123181380Y-132671190D02*
X123181380Y-129371190D01*
X123221380Y-132735190D02*
X123221380Y-129307190D01*
X123261380Y-132797190D02*
X123261380Y-129245190D01*
X123301380Y-132855190D02*
X123301380Y-129187190D01*
X123341380Y-132911190D02*
X123341380Y-129131190D01*
X123381380Y-132965190D02*
X123381380Y-129077190D01*
X123421380Y-133016190D02*
X123421380Y-129026190D01*
X123461380Y-133065190D02*
X123461380Y-128977190D01*
X123501380Y-133113190D02*
X123501380Y-128929190D01*
X123541380Y-133158190D02*
X123541380Y-128884190D01*
X123581380Y-133203190D02*
X123581380Y-128839190D01*
X123621380Y-133245190D02*
X123621380Y-128797190D01*
X123661380Y-133286190D02*
X123661380Y-128756190D01*
X123701380Y-129981190D02*
X123701380Y-128716190D01*
X123701380Y-133326190D02*
X123701380Y-132061190D01*
X123741380Y-129981190D02*
X123741380Y-128678190D01*
X123741380Y-133364190D02*
X123741380Y-132061190D01*
X123781380Y-129981190D02*
X123781380Y-128641190D01*
X123781380Y-133401190D02*
X123781380Y-132061190D01*
X123821380Y-129981190D02*
X123821380Y-128605190D01*
X123821380Y-133437190D02*
X123821380Y-132061190D01*
X123861380Y-129981190D02*
X123861380Y-128571190D01*
X123861380Y-133471190D02*
X123861380Y-132061190D01*
X123901380Y-129981190D02*
X123901380Y-128537190D01*
X123901380Y-133505190D02*
X123901380Y-132061190D01*
X123941380Y-129981190D02*
X123941380Y-128505190D01*
X123941380Y-133537190D02*
X123941380Y-132061190D01*
X123981380Y-129981190D02*
X123981380Y-128473190D01*
X123981380Y-133569190D02*
X123981380Y-132061190D01*
X124021380Y-129981190D02*
X124021380Y-128443190D01*
X124021380Y-133599190D02*
X124021380Y-132061190D01*
X124061380Y-129981190D02*
X124061380Y-128414190D01*
X124061380Y-133628190D02*
X124061380Y-132061190D01*
X124101380Y-129981190D02*
X124101380Y-128385190D01*
X124101380Y-133657190D02*
X124101380Y-132061190D01*
X124141380Y-129981190D02*
X124141380Y-128357190D01*
X124141380Y-133685190D02*
X124141380Y-132061190D01*
X124181380Y-129981190D02*
X124181380Y-128331190D01*
X124181380Y-133711190D02*
X124181380Y-132061190D01*
X124221380Y-129981190D02*
X124221380Y-128305190D01*
X124221380Y-133737190D02*
X124221380Y-132061190D01*
X124261380Y-129981190D02*
X124261380Y-128279190D01*
X124261380Y-133763190D02*
X124261380Y-132061190D01*
X124301380Y-129981190D02*
X124301380Y-128255190D01*
X124301380Y-133787190D02*
X124301380Y-132061190D01*
X124341380Y-129981190D02*
X124341380Y-128231190D01*
X124341380Y-133811190D02*
X124341380Y-132061190D01*
X124381380Y-129981190D02*
X124381380Y-128209190D01*
X124381380Y-133833190D02*
X124381380Y-132061190D01*
X124421380Y-129981190D02*
X124421380Y-128187190D01*
X124421380Y-133855190D02*
X124421380Y-132061190D01*
X124461380Y-129981190D02*
X124461380Y-128165190D01*
X124461380Y-133877190D02*
X124461380Y-132061190D01*
X124501380Y-129981190D02*
X124501380Y-128145190D01*
X124501380Y-133897190D02*
X124501380Y-132061190D01*
X124541380Y-129981190D02*
X124541380Y-128125190D01*
X124541380Y-133917190D02*
X124541380Y-132061190D01*
X124581380Y-129981190D02*
X124581380Y-128105190D01*
X124581380Y-133937190D02*
X124581380Y-132061190D01*
X124621380Y-129981190D02*
X124621380Y-128087190D01*
X124621380Y-133955190D02*
X124621380Y-132061190D01*
X124661380Y-129981190D02*
X124661380Y-128069190D01*
X124661380Y-133973190D02*
X124661380Y-132061190D01*
X124701380Y-129981190D02*
X124701380Y-128051190D01*
X124701380Y-133991190D02*
X124701380Y-132061190D01*
X124741380Y-129981190D02*
X124741380Y-128035190D01*
X124741380Y-134007190D02*
X124741380Y-132061190D01*
X124781380Y-129981190D02*
X124781380Y-128019190D01*
X124781380Y-134023190D02*
X124781380Y-132061190D01*
X124821380Y-129981190D02*
X124821380Y-128003190D01*
X124821380Y-134039190D02*
X124821380Y-132061190D01*
X124861380Y-129981190D02*
X124861380Y-127988190D01*
X124861380Y-134054190D02*
X124861380Y-132061190D01*
X124901380Y-129981190D02*
X124901380Y-127974190D01*
X124901380Y-134068190D02*
X124901380Y-132061190D01*
X124941380Y-129981190D02*
X124941380Y-127960190D01*
X124941380Y-134082190D02*
X124941380Y-132061190D01*
X124981380Y-129981190D02*
X124981380Y-127947190D01*
X124981380Y-134095190D02*
X124981380Y-132061190D01*
X125021380Y-129981190D02*
X125021380Y-127935190D01*
X125021380Y-134107190D02*
X125021380Y-132061190D01*
X125061380Y-129981190D02*
X125061380Y-127923190D01*
X125061380Y-134119190D02*
X125061380Y-132061190D01*
X125101380Y-129981190D02*
X125101380Y-127911190D01*
X125101380Y-134131190D02*
X125101380Y-132061190D01*
X125141380Y-129981190D02*
X125141380Y-127900190D01*
X125141380Y-134142190D02*
X125141380Y-132061190D01*
X125181380Y-129981190D02*
X125181380Y-127890190D01*
X125181380Y-134152190D02*
X125181380Y-132061190D01*
X125221380Y-129981190D02*
X125221380Y-127880190D01*
X125221380Y-134162190D02*
X125221380Y-132061190D01*
X125261380Y-129981190D02*
X125261380Y-127871190D01*
X125261380Y-134171190D02*
X125261380Y-132061190D01*
X125302380Y-129981190D02*
X125302380Y-127862190D01*
X125302380Y-134180190D02*
X125302380Y-132061190D01*
X125342380Y-129981190D02*
X125342380Y-127854190D01*
X125342380Y-134188190D02*
X125342380Y-132061190D01*
X125382380Y-129981190D02*
X125382380Y-127846190D01*
X125382380Y-134196190D02*
X125382380Y-132061190D01*
X125422380Y-129981190D02*
X125422380Y-127839190D01*
X125422380Y-134203190D02*
X125422380Y-132061190D01*
X125462380Y-129981190D02*
X125462380Y-127832190D01*
X125462380Y-134210190D02*
X125462380Y-132061190D01*
X125502380Y-129981190D02*
X125502380Y-127826190D01*
X125502380Y-134216190D02*
X125502380Y-132061190D01*
X125542380Y-129981190D02*
X125542380Y-127820190D01*
X125542380Y-134222190D02*
X125542380Y-132061190D01*
X125582380Y-129981190D02*
X125582380Y-127815190D01*
X125582380Y-134227190D02*
X125582380Y-132061190D01*
X125622380Y-129981190D02*
X125622380Y-127810190D01*
X125622380Y-134232190D02*
X125622380Y-132061190D01*
X125662380Y-129981190D02*
X125662380Y-127806190D01*
X125662380Y-134236190D02*
X125662380Y-132061190D01*
X125702380Y-129981190D02*
X125702380Y-127803190D01*
X125702380Y-134239190D02*
X125702380Y-132061190D01*
X125742380Y-129981190D02*
X125742380Y-127799190D01*
X125742380Y-134243190D02*
X125742380Y-132061190D01*
X125782380Y-134245190D02*
X125782380Y-127797190D01*
X125822380Y-134248190D02*
X125822380Y-127794190D01*
X125862380Y-134249190D02*
X125862380Y-127793190D01*
X125902380Y-134251190D02*
X125902380Y-127791190D01*
X125942380Y-134251190D02*
X125942380Y-127791190D01*
X125982380Y-134251190D02*
X125982380Y-127791190D01*
X129167621Y-133175190D02*
X129167621Y-132545190D01*
X129482621Y-132860190D02*
X128852621Y-132860190D01*
X129252380Y-131021190D02*
G75*
G02*
X122712380Y-131021190I-3270000J0D01*
G01*
X122712380Y-131021190D02*
G75*
G02*
X129252380Y-131021190I3270000J0D01*
G01*
%TO.C,C11*%
X169030000Y-56780000D02*
X169030000Y-75020000D01*
X174270000Y-56780000D02*
X169030000Y-56780000D01*
X174270000Y-56780000D02*
X174270000Y-75020000D01*
X174270000Y-75020000D02*
X169030000Y-75020000D01*
D12*
%TO.C,TP3*%
X126600000Y-136800000D02*
X126600000Y-139000000D01*
X122800000Y-136800000D02*
X126600000Y-136800000D01*
X126600000Y-139000000D02*
X122800000Y-139000000D01*
X122800000Y-139000000D02*
X122800000Y-136800000D01*
D13*
%TO.C,C26*%
X122896267Y-85290000D02*
X122603733Y-85290000D01*
X122896267Y-86310000D02*
X122603733Y-86310000D01*
%TO.C,U3*%
X112740000Y-60110000D02*
X112740000Y-61360000D01*
X112740000Y-61360000D02*
X113990000Y-61360000D01*
X113040000Y-54140000D02*
X113040000Y-61060000D01*
X113040000Y-61060000D02*
X132260000Y-61060000D01*
X132260000Y-54140000D02*
X113040000Y-54140000D01*
X132260000Y-61060000D02*
X132260000Y-54140000D01*
%TO.C,C9*%
X135740000Y-72243748D02*
X135740000Y-73666252D01*
X137560000Y-72243748D02*
X137560000Y-73666252D01*
%TO.C,U2*%
X125340000Y-104440000D02*
X125340000Y-104695000D01*
X125340000Y-114960000D02*
X125340000Y-114705000D01*
X129200000Y-104440000D02*
X125340000Y-104440000D01*
X129200000Y-104440000D02*
X133060000Y-104440000D01*
X129200000Y-114960000D02*
X125340000Y-114960000D01*
X129200000Y-114960000D02*
X133060000Y-114960000D01*
X133060000Y-104440000D02*
X133060000Y-104695000D01*
X133060000Y-114960000D02*
X133060000Y-114705000D01*
X124487500Y-104695000D02*
X124147500Y-104225000D01*
X124827500Y-104225000D01*
X124487500Y-104695000D01*
G36*
X124487500Y-104695000D02*
G01*
X124147500Y-104225000D01*
X124827500Y-104225000D01*
X124487500Y-104695000D01*
G37*
D12*
%TO.C,TP2*%
X122600000Y-46000000D02*
X122600000Y-43800000D01*
X126400000Y-46000000D02*
X122600000Y-46000000D01*
X122600000Y-43800000D02*
X126400000Y-43800000D01*
X126400000Y-43800000D02*
X126400000Y-46000000D01*
D13*
%TO.C,C25*%
X118966233Y-85290000D02*
X119258767Y-85290000D01*
X118966233Y-86310000D02*
X119258767Y-86310000D01*
%TO.C,C17*%
X163430000Y-129720000D02*
X163430000Y-124480000D01*
X181670000Y-124480000D02*
X163430000Y-124480000D01*
X181670000Y-129720000D02*
X163430000Y-129720000D01*
X181670000Y-129720000D02*
X181670000Y-124480000D01*
%TO.C,C18*%
X163430000Y-142820000D02*
X163430000Y-137580000D01*
X181670000Y-137580000D02*
X163430000Y-137580000D01*
X181670000Y-142820000D02*
X163430000Y-142820000D01*
X181670000Y-142820000D02*
X181670000Y-137580000D01*
%TO.C,C12*%
X135740000Y-105888748D02*
X135740000Y-107311252D01*
X137560000Y-105888748D02*
X137560000Y-107311252D01*
%TO.C,Q2*%
X144299000Y-72980000D02*
X149570000Y-72980000D01*
X144299000Y-79245000D02*
X149570000Y-79245000D01*
X144299000Y-82854000D02*
X149570000Y-82854000D01*
X144299000Y-89120000D02*
X144299000Y-72980000D01*
X144299000Y-89120000D02*
X149570000Y-89120000D01*
X149570000Y-89120000D02*
X149570000Y-72980000D01*
%TO.C,C29*%
X162480000Y-56780000D02*
X162480000Y-75020000D01*
X167720000Y-56780000D02*
X162480000Y-56780000D01*
X167720000Y-56780000D02*
X167720000Y-75020000D01*
X167720000Y-75020000D02*
X162480000Y-75020000D01*
%TO.C,Q3*%
X144299000Y-92980000D02*
X149570000Y-92980000D01*
X144299000Y-99245000D02*
X149570000Y-99245000D01*
X144299000Y-102854000D02*
X149570000Y-102854000D01*
X144299000Y-109120000D02*
X144299000Y-92980000D01*
X144299000Y-109120000D02*
X149570000Y-109120000D01*
X149570000Y-109120000D02*
X149570000Y-92980000D01*
%TO.C,C28*%
X163430000Y-136270000D02*
X163430000Y-131030000D01*
X181670000Y-131030000D02*
X163430000Y-131030000D01*
X181670000Y-136270000D02*
X163430000Y-136270000D01*
X181670000Y-136270000D02*
X181670000Y-131030000D01*
%TO.C,C4*%
X121640000Y-73446267D02*
X121640000Y-73153733D01*
X122660000Y-73446267D02*
X122660000Y-73153733D01*
%TO.C,Q4*%
X144299000Y-112980000D02*
X149570000Y-112980000D01*
X144299000Y-119245000D02*
X149570000Y-119245000D01*
X144299000Y-122854000D02*
X149570000Y-122854000D01*
X144299000Y-129120000D02*
X144299000Y-112980000D01*
X144299000Y-129120000D02*
X149570000Y-129120000D01*
X149570000Y-129120000D02*
X149570000Y-112980000D01*
D12*
%TO.C,TP1*%
X111400000Y-105700000D02*
X111400000Y-109500000D01*
X109200000Y-105700000D02*
X111400000Y-105700000D01*
X111400000Y-109500000D02*
X109200000Y-109500000D01*
X109200000Y-109500000D02*
X109200000Y-105700000D01*
D13*
%TO.C,C33*%
X189280000Y-78480000D02*
X194520000Y-78480000D01*
X189280000Y-96720000D02*
X189280000Y-78480000D01*
X189280000Y-96720000D02*
X194520000Y-96720000D01*
X194520000Y-96720000D02*
X194520000Y-78480000D01*
%TO.C,C24*%
X121640000Y-113446267D02*
X121640000Y-113153733D01*
X122660000Y-113446267D02*
X122660000Y-113153733D01*
%TO.C,C15*%
X185130000Y-98680000D02*
X185130000Y-140420000D01*
X205370000Y-98680000D02*
X185130000Y-98680000D01*
X205370000Y-98680000D02*
X205370000Y-140420000D01*
X205370000Y-140420000D02*
X185130000Y-140420000D01*
%TO.C,C31*%
X176180000Y-78480000D02*
X181420000Y-78480000D01*
X176180000Y-96720000D02*
X176180000Y-78480000D01*
X176180000Y-96720000D02*
X181420000Y-96720000D01*
X181420000Y-96720000D02*
X181420000Y-78480000D01*
%TO.C,HS1*%
X144080000Y-128900000D02*
X144080000Y-52900000D01*
X134300000Y-133400000D02*
X152300000Y-133400000D01*
X152300000Y-48400000D01*
X134300000Y-48400000D01*
X134300000Y-133400000D01*
%TO.C,U4*%
X112740000Y-125681190D02*
X112740000Y-126931190D01*
X112740000Y-126931190D02*
X113990000Y-126931190D01*
X113040000Y-119711190D02*
X113040000Y-126631190D01*
X113040000Y-126631190D02*
X132260000Y-126631190D01*
X132260000Y-119711190D02*
X113040000Y-119711190D01*
X132260000Y-126631190D02*
X132260000Y-119711190D01*
%TO.C,C30*%
X155930000Y-56780000D02*
X155930000Y-75020000D01*
X161170000Y-56780000D02*
X155930000Y-56780000D01*
X161170000Y-56780000D02*
X161170000Y-75020000D01*
X161170000Y-75020000D02*
X155930000Y-75020000D01*
%TO.C,R2*%
X140422936Y-85590000D02*
X141877064Y-85590000D01*
X140422936Y-87410000D02*
X141877064Y-87410000D01*
%TO.C,R1*%
X139872936Y-65590000D02*
X141327064Y-65590000D01*
X139872936Y-67410000D02*
X141327064Y-67410000D01*
%TO.C,C10*%
X175580000Y-56780000D02*
X175580000Y-75020000D01*
X180820000Y-56780000D02*
X175580000Y-56780000D01*
X180820000Y-56780000D02*
X180820000Y-75020000D01*
X180820000Y-75020000D02*
X175580000Y-75020000D01*
%TO.C,J6*%
X195972500Y-80457500D02*
X195972500Y-90677500D01*
X202432500Y-80217500D02*
X205432500Y-80217500D01*
X205192500Y-80457500D02*
X195972500Y-80457500D01*
X205192500Y-80457500D02*
X205192500Y-90677500D01*
X205192500Y-90677500D02*
X195972500Y-90677500D01*
X205432500Y-80217500D02*
X205432500Y-83217500D01*
%TO.C,C3*%
X121640000Y-68516233D02*
X121640000Y-68808767D01*
X122660000Y-68516233D02*
X122660000Y-68808767D01*
%TO.C,C34*%
X122441380Y-50302000D02*
X122441380Y-49498000D01*
X122481380Y-50533000D02*
X122481380Y-49267000D01*
X122521380Y-50702000D02*
X122521380Y-49098000D01*
X122561380Y-50840000D02*
X122561380Y-48960000D01*
X122601380Y-50959000D02*
X122601380Y-48841000D01*
X122641380Y-51065000D02*
X122641380Y-48735000D01*
X122681380Y-51162000D02*
X122681380Y-48638000D01*
X122721380Y-51250000D02*
X122721380Y-48550000D01*
X122761380Y-51332000D02*
X122761380Y-48468000D01*
X122801380Y-51409000D02*
X122801380Y-48391000D01*
X122841380Y-51481000D02*
X122841380Y-48319000D01*
X122881380Y-51550000D02*
X122881380Y-48250000D01*
X122921380Y-51614000D02*
X122921380Y-48186000D01*
X122961380Y-51676000D02*
X122961380Y-48124000D01*
X123001380Y-51734000D02*
X123001380Y-48066000D01*
X123041380Y-51790000D02*
X123041380Y-48010000D01*
X123081380Y-51844000D02*
X123081380Y-47956000D01*
X123121380Y-51895000D02*
X123121380Y-47905000D01*
X123161380Y-51944000D02*
X123161380Y-47856000D01*
X123201380Y-51992000D02*
X123201380Y-47808000D01*
X123241380Y-52037000D02*
X123241380Y-47763000D01*
X123281380Y-52082000D02*
X123281380Y-47718000D01*
X123321380Y-52124000D02*
X123321380Y-47676000D01*
X123361380Y-52165000D02*
X123361380Y-47635000D01*
X123401380Y-48860000D02*
X123401380Y-47595000D01*
X123401380Y-52205000D02*
X123401380Y-50940000D01*
X123441380Y-48860000D02*
X123441380Y-47557000D01*
X123441380Y-52243000D02*
X123441380Y-50940000D01*
X123481380Y-48860000D02*
X123481380Y-47520000D01*
X123481380Y-52280000D02*
X123481380Y-50940000D01*
X123521380Y-48860000D02*
X123521380Y-47484000D01*
X123521380Y-52316000D02*
X123521380Y-50940000D01*
X123561380Y-48860000D02*
X123561380Y-47450000D01*
X123561380Y-52350000D02*
X123561380Y-50940000D01*
X123601380Y-48860000D02*
X123601380Y-47416000D01*
X123601380Y-52384000D02*
X123601380Y-50940000D01*
X123641380Y-48860000D02*
X123641380Y-47384000D01*
X123641380Y-52416000D02*
X123641380Y-50940000D01*
X123681380Y-48860000D02*
X123681380Y-47352000D01*
X123681380Y-52448000D02*
X123681380Y-50940000D01*
X123721380Y-48860000D02*
X123721380Y-47322000D01*
X123721380Y-52478000D02*
X123721380Y-50940000D01*
X123761380Y-48860000D02*
X123761380Y-47293000D01*
X123761380Y-52507000D02*
X123761380Y-50940000D01*
X123801380Y-48860000D02*
X123801380Y-47264000D01*
X123801380Y-52536000D02*
X123801380Y-50940000D01*
X123841380Y-48860000D02*
X123841380Y-47236000D01*
X123841380Y-52564000D02*
X123841380Y-50940000D01*
X123881380Y-48860000D02*
X123881380Y-47210000D01*
X123881380Y-52590000D02*
X123881380Y-50940000D01*
X123921380Y-48860000D02*
X123921380Y-47184000D01*
X123921380Y-52616000D02*
X123921380Y-50940000D01*
X123961380Y-48860000D02*
X123961380Y-47158000D01*
X123961380Y-52642000D02*
X123961380Y-50940000D01*
X124001380Y-48860000D02*
X124001380Y-47134000D01*
X124001380Y-52666000D02*
X124001380Y-50940000D01*
X124041380Y-48860000D02*
X124041380Y-47110000D01*
X124041380Y-52690000D02*
X124041380Y-50940000D01*
X124081380Y-48860000D02*
X124081380Y-47088000D01*
X124081380Y-52712000D02*
X124081380Y-50940000D01*
X124121380Y-48860000D02*
X124121380Y-47066000D01*
X124121380Y-52734000D02*
X124121380Y-50940000D01*
X124161380Y-48860000D02*
X124161380Y-47044000D01*
X124161380Y-52756000D02*
X124161380Y-50940000D01*
X124201380Y-48860000D02*
X124201380Y-47024000D01*
X124201380Y-52776000D02*
X124201380Y-50940000D01*
X124241380Y-48860000D02*
X124241380Y-47004000D01*
X124241380Y-52796000D02*
X124241380Y-50940000D01*
X124281380Y-48860000D02*
X124281380Y-46984000D01*
X124281380Y-52816000D02*
X124281380Y-50940000D01*
X124321380Y-48860000D02*
X124321380Y-46966000D01*
X124321380Y-52834000D02*
X124321380Y-50940000D01*
X124361380Y-48860000D02*
X124361380Y-46948000D01*
X124361380Y-52852000D02*
X124361380Y-50940000D01*
X124401380Y-48860000D02*
X124401380Y-46930000D01*
X124401380Y-52870000D02*
X124401380Y-50940000D01*
X124441380Y-48860000D02*
X124441380Y-46914000D01*
X124441380Y-52886000D02*
X124441380Y-50940000D01*
X124481380Y-48860000D02*
X124481380Y-46898000D01*
X124481380Y-52902000D02*
X124481380Y-50940000D01*
X124521380Y-48860000D02*
X124521380Y-46882000D01*
X124521380Y-52918000D02*
X124521380Y-50940000D01*
X124561380Y-48860000D02*
X124561380Y-46867000D01*
X124561380Y-52933000D02*
X124561380Y-50940000D01*
X124601380Y-48860000D02*
X124601380Y-46853000D01*
X124601380Y-52947000D02*
X124601380Y-50940000D01*
X124641380Y-48860000D02*
X124641380Y-46839000D01*
X124641380Y-52961000D02*
X124641380Y-50940000D01*
X124681380Y-48860000D02*
X124681380Y-46826000D01*
X124681380Y-52974000D02*
X124681380Y-50940000D01*
X124721380Y-48860000D02*
X124721380Y-46814000D01*
X124721380Y-52986000D02*
X124721380Y-50940000D01*
X124761380Y-48860000D02*
X124761380Y-46802000D01*
X124761380Y-52998000D02*
X124761380Y-50940000D01*
X124801380Y-48860000D02*
X124801380Y-46790000D01*
X124801380Y-53010000D02*
X124801380Y-50940000D01*
X124841380Y-48860000D02*
X124841380Y-46779000D01*
X124841380Y-53021000D02*
X124841380Y-50940000D01*
X124881380Y-48860000D02*
X124881380Y-46769000D01*
X124881380Y-53031000D02*
X124881380Y-50940000D01*
X124921380Y-48860000D02*
X124921380Y-46759000D01*
X124921380Y-53041000D02*
X124921380Y-50940000D01*
X124961380Y-48860000D02*
X124961380Y-46750000D01*
X124961380Y-53050000D02*
X124961380Y-50940000D01*
X125002380Y-48860000D02*
X125002380Y-46741000D01*
X125002380Y-53059000D02*
X125002380Y-50940000D01*
X125042380Y-48860000D02*
X125042380Y-46733000D01*
X125042380Y-53067000D02*
X125042380Y-50940000D01*
X125082380Y-48860000D02*
X125082380Y-46725000D01*
X125082380Y-53075000D02*
X125082380Y-50940000D01*
X125122380Y-48860000D02*
X125122380Y-46718000D01*
X125122380Y-53082000D02*
X125122380Y-50940000D01*
X125162380Y-48860000D02*
X125162380Y-46711000D01*
X125162380Y-53089000D02*
X125162380Y-50940000D01*
X125202380Y-48860000D02*
X125202380Y-46705000D01*
X125202380Y-53095000D02*
X125202380Y-50940000D01*
X125242380Y-48860000D02*
X125242380Y-46699000D01*
X125242380Y-53101000D02*
X125242380Y-50940000D01*
X125282380Y-48860000D02*
X125282380Y-46694000D01*
X125282380Y-53106000D02*
X125282380Y-50940000D01*
X125322380Y-48860000D02*
X125322380Y-46689000D01*
X125322380Y-53111000D02*
X125322380Y-50940000D01*
X125362380Y-48860000D02*
X125362380Y-46685000D01*
X125362380Y-53115000D02*
X125362380Y-50940000D01*
X125402380Y-48860000D02*
X125402380Y-46682000D01*
X125402380Y-53118000D02*
X125402380Y-50940000D01*
X125442380Y-48860000D02*
X125442380Y-46678000D01*
X125442380Y-53122000D02*
X125442380Y-50940000D01*
X125482380Y-53124000D02*
X125482380Y-46676000D01*
X125522380Y-53127000D02*
X125522380Y-46673000D01*
X125562380Y-53128000D02*
X125562380Y-46672000D01*
X125602380Y-53130000D02*
X125602380Y-46670000D01*
X125642380Y-53130000D02*
X125642380Y-46670000D01*
X125682380Y-53130000D02*
X125682380Y-46670000D01*
X128867621Y-52054000D02*
X128867621Y-51424000D01*
X129182621Y-51739000D02*
X128552621Y-51739000D01*
X128952380Y-49900000D02*
G75*
G02*
X122412380Y-49900000I-3270000J0D01*
G01*
X122412380Y-49900000D02*
G75*
G02*
X128952380Y-49900000I3270000J0D01*
G01*
%TO.C,Q1*%
X144299000Y-52980000D02*
X149570000Y-52980000D01*
X144299000Y-59245000D02*
X149570000Y-59245000D01*
X144299000Y-62854000D02*
X149570000Y-62854000D01*
X144299000Y-69120000D02*
X144299000Y-52980000D01*
X144299000Y-69120000D02*
X149570000Y-69120000D01*
X149570000Y-69120000D02*
X149570000Y-52980000D01*
%TO.C,R3*%
X139922936Y-105590000D02*
X141377064Y-105590000D01*
X139922936Y-107410000D02*
X141377064Y-107410000D01*
%TO.C,C2*%
X182430000Y-43730000D02*
X182430000Y-75470000D01*
X193670000Y-43730000D02*
X182430000Y-43730000D01*
X193670000Y-43730000D02*
X193670000Y-75470000D01*
X193670000Y-75470000D02*
X182430000Y-75470000D01*
%TO.C,C13*%
X135740000Y-65888748D02*
X135740000Y-67311252D01*
X137560000Y-65888748D02*
X137560000Y-67311252D01*
%TO.C,J3*%
X195972500Y-64457500D02*
X195972500Y-74677500D01*
X202432500Y-64217500D02*
X205432500Y-64217500D01*
X205192500Y-64457500D02*
X195972500Y-64457500D01*
X205192500Y-64457500D02*
X205192500Y-74677500D01*
X205192500Y-74677500D02*
X195972500Y-74677500D01*
X205432500Y-64217500D02*
X205432500Y-67217500D01*
%TO.C,U1*%
X125340000Y-64440000D02*
X125340000Y-64695000D01*
X125340000Y-74960000D02*
X125340000Y-74705000D01*
X129200000Y-64440000D02*
X125340000Y-64440000D01*
X129200000Y-64440000D02*
X133060000Y-64440000D01*
X129200000Y-74960000D02*
X125340000Y-74960000D01*
X129200000Y-74960000D02*
X133060000Y-74960000D01*
X133060000Y-64440000D02*
X133060000Y-64695000D01*
X133060000Y-74960000D02*
X133060000Y-74705000D01*
X124487500Y-64695000D02*
X124147500Y-64225000D01*
X124827500Y-64225000D01*
X124487500Y-64695000D01*
G36*
X124487500Y-64695000D02*
G01*
X124147500Y-64225000D01*
X124827500Y-64225000D01*
X124487500Y-64695000D01*
G37*
%TD*%
M02*
