M48
; DRILL file {KiCad 8.0.3} date 2025-02-16T14:56:25+1300
; FORMAT={-:-/ absolute / metric / decimal}
; #@! TF.CreationDate,2025-02-16T14:56:25+13:00
; #@! TF.GenerationSoftware,Kicad,Pcbnew,8.0.3
; #@! TF.FileFunction,Plated,1,2,PTH
FMAT,2
METRIC
; #@! TA.AperFunction,Plated,PTH,ViaDrill
T1C0.300
; #@! TA.AperFunction,Plated,PTH,ComponentDrill
T2C0.800
; #@! TA.AperFunction,Plated,PTH,ComponentDrill
T3C0.850
; #@! TA.AperFunction,Plated,PTH,ComponentDrill
T4C1.000
; #@! TA.AperFunction,Plated,PTH,ComponentDrill
T5C1.100
; #@! TA.AperFunction,Plated,PTH,ComponentDrill
T6C1.200
; #@! TA.AperFunction,Plated,PTH,ComponentDrill
T7C1.300
; #@! TA.AperFunction,Plated,PTH,ComponentDrill
T8C1.400
; #@! TA.AperFunction,Plated,PTH,ComponentDrill
T9C1.500
; #@! TA.AperFunction,Plated,PTH,ViaDrill
T10C2.000
%
G90
G05
T1
X111.25Y-128.3
X120.887Y-85.8
X120.887Y-90.7
X122.15Y-70.6
X122.15Y-71.4
X122.15Y-110.7
X122.15Y-111.4
X123.05Y-109.1
X123.05Y-110.3
X123.15Y-69.1
X123.15Y-70.3
X133.85Y-75.0
X133.85Y-115.05
X136.6Y-109.3
X136.6Y-115.7
X136.65Y-69.405
X136.65Y-75.755
X138.05Y-108.2
X138.05Y-114.5
X138.1Y-68.155
X138.1Y-74.555
T2
X115.45Y-115.4
X117.95Y-115.4
X124.432Y-49.9
X124.732Y-131.021
X126.932Y-49.9
X127.232Y-131.021
T3
X115.44Y-55.5
X115.44Y-121.071
X117.98Y-55.5
X117.98Y-121.071
X123.06Y-55.5
X123.06Y-121.071
X128.14Y-55.5
X128.14Y-121.071
T4
X112.15Y-75.62
X112.15Y-78.16
X112.15Y-80.7
X112.15Y-83.24
X112.15Y-85.78
X112.15Y-88.32
X112.15Y-90.86
X112.15Y-93.4
X112.15Y-95.94
X112.15Y-98.48
T5
X195.25Y-100.8
X195.25Y-127.8
T6
X158.55Y-58.4
X158.55Y-73.4
X165.05Y-120.55
X165.05Y-127.1
X165.05Y-133.65
X165.05Y-140.2
X165.1Y-58.4
X165.1Y-73.4
X171.65Y-58.4
X171.65Y-73.4
X178.2Y-58.4
X178.2Y-73.4
X178.8Y-80.1
X178.8Y-95.1
X180.05Y-120.55
X180.05Y-127.1
X180.05Y-133.65
X180.05Y-140.2
X185.35Y-80.1
X185.35Y-95.1
X188.05Y-45.85
X188.05Y-73.35
X191.9Y-80.1
X191.9Y-95.1
T7
X200.082Y-67.067
X200.082Y-72.067
X200.082Y-83.067
X200.082Y-88.067
T8
X116.6Y-45.9
X116.6Y-50.98
X190.15Y-100.8
X190.15Y-138.3
X200.35Y-100.8
X200.35Y-138.3
T9
X146.75Y-55.6
X146.75Y-61.05
X146.75Y-66.5
X146.75Y-75.6
X146.75Y-81.05
X146.75Y-86.5
X146.75Y-95.6
X146.75Y-101.05
X146.75Y-106.5
X146.75Y-115.6
X146.75Y-121.05
X146.75Y-126.5
T10
X158.15Y-104.0
X182.15Y-104.0
T4
G00X111.2Y-134.25
M15
G01X111.2Y-136.45
M16
G05
G00X117.5Y-134.05
M15
G01X117.5Y-136.65
M16
G05
T8
G00X141.55Y-50.8
M15
G01X141.55Y-50.0
M16
G05
G00X141.55Y-131.8
M15
G01X141.55Y-131.0
M16
G05
M30
