%TF.GenerationSoftware,KiCad,Pcbnew,8.0.3*%
%TF.CreationDate,2025-02-16T14:56:26+13:00*%
%TF.ProjectId,Power-stage-rounded,506f7765-722d-4737-9461-67652d726f75,rev?*%
%TF.SameCoordinates,Original*%
%TF.FileFunction,Drillmap*%
%TF.FilePolarity,Positive*%
%FSLAX45Y45*%
G04 Gerber Fmt 4.5, Leading zero omitted, Abs format (unit mm)*
G04 Created by KiCad (PCBNEW 8.0.3) date 2025-02-16 14:56:26*
%MOMM*%
%LPD*%
G01*
G04 APERTURE LIST*
%ADD10C,0.050000*%
%ADD11C,0.200000*%
%ADD12C,0.100000*%
%ADD13C,0.110000*%
%ADD14C,0.120000*%
%ADD15C,0.130000*%
%ADD16C,0.140000*%
%ADD17C,0.150000*%
G04 APERTURE END LIST*
D10*
X20365000Y-4300000D02*
G75*
G02*
X20615000Y-4550000I0J-250000D01*
G01*
X10615000Y-14050000D02*
X10615000Y-4550000D01*
X20615000Y-4550000D02*
X20615000Y-14050000D01*
X10615000Y-4550000D02*
G75*
G02*
X10865000Y-4300000I250000J0D01*
G01*
X10865000Y-4300000D02*
X20365000Y-4300000D01*
X20365000Y-14300000D02*
X10865000Y-14300000D01*
X20615000Y-14050000D02*
G75*
G02*
X20365000Y-14300000I-250000J0D01*
G01*
X10865000Y-14300000D02*
G75*
G02*
X10615000Y-14050000I0J250000D01*
G01*
D11*
D12*
X11110000Y-12815000D02*
X11140000Y-12845000D01*
X11140000Y-12815000D02*
X11110000Y-12845000D01*
X12073750Y-8565000D02*
X12103750Y-8595000D01*
X12103750Y-8565000D02*
X12073750Y-8595000D01*
X12073750Y-9055000D02*
X12103750Y-9085000D01*
X12103750Y-9055000D02*
X12073750Y-9085000D01*
X12200000Y-7045000D02*
X12230000Y-7075000D01*
X12230000Y-7045000D02*
X12200000Y-7075000D01*
X12200000Y-7125000D02*
X12230000Y-7155000D01*
X12230000Y-7125000D02*
X12200000Y-7155000D01*
X12200000Y-11055000D02*
X12230000Y-11085000D01*
X12230000Y-11055000D02*
X12200000Y-11085000D01*
X12200000Y-11125000D02*
X12230000Y-11155000D01*
X12230000Y-11125000D02*
X12200000Y-11155000D01*
X12290000Y-10895000D02*
X12320000Y-10925000D01*
X12320000Y-10895000D02*
X12290000Y-10925000D01*
X12290000Y-11015000D02*
X12320000Y-11045000D01*
X12320000Y-11015000D02*
X12290000Y-11045000D01*
X12300000Y-6895000D02*
X12330000Y-6925000D01*
X12330000Y-6895000D02*
X12300000Y-6925000D01*
X12300000Y-7015000D02*
X12330000Y-7045000D01*
X12330000Y-7015000D02*
X12300000Y-7045000D01*
X13370000Y-7485000D02*
X13400000Y-7515000D01*
X13400000Y-7485000D02*
X13370000Y-7515000D01*
X13370000Y-11490000D02*
X13400000Y-11520000D01*
X13400000Y-11490000D02*
X13370000Y-11520000D01*
X13645000Y-10915000D02*
X13675000Y-10945000D01*
X13675000Y-10915000D02*
X13645000Y-10945000D01*
X13645000Y-11555000D02*
X13675000Y-11585000D01*
X13675000Y-11555000D02*
X13645000Y-11585000D01*
X13650000Y-6925500D02*
X13680000Y-6955500D01*
X13680000Y-6925500D02*
X13650000Y-6955500D01*
X13650000Y-7560500D02*
X13680000Y-7590500D01*
X13680000Y-7560500D02*
X13650000Y-7590500D01*
X13790000Y-10805000D02*
X13820000Y-10835000D01*
X13820000Y-10805000D02*
X13790000Y-10835000D01*
X13790000Y-11435000D02*
X13820000Y-11465000D01*
X13820000Y-11435000D02*
X13790000Y-11465000D01*
X13795000Y-6800500D02*
X13825000Y-6830500D01*
X13825000Y-6800500D02*
X13795000Y-6830500D01*
X13795000Y-7440500D02*
X13825000Y-7470500D01*
X13825000Y-7440500D02*
X13795000Y-7470500D01*
X11585000Y-11540000D02*
G75*
G02*
X11505000Y-11540000I-40000J0D01*
G01*
X11505000Y-11540000D02*
G75*
G02*
X11585000Y-11540000I40000J0D01*
G01*
X11835000Y-11540000D02*
G75*
G02*
X11755000Y-11540000I-40000J0D01*
G01*
X11755000Y-11540000D02*
G75*
G02*
X11835000Y-11540000I40000J0D01*
G01*
X12483238Y-4990000D02*
G75*
G02*
X12403238Y-4990000I-40000J0D01*
G01*
X12403238Y-4990000D02*
G75*
G02*
X12483238Y-4990000I40000J0D01*
G01*
X12513238Y-13102119D02*
G75*
G02*
X12433238Y-13102119I-40000J0D01*
G01*
X12433238Y-13102119D02*
G75*
G02*
X12513238Y-13102119I40000J0D01*
G01*
X12733238Y-4990000D02*
G75*
G02*
X12653238Y-4990000I-40000J0D01*
G01*
X12653238Y-4990000D02*
G75*
G02*
X12733238Y-4990000I40000J0D01*
G01*
X12763238Y-13102119D02*
G75*
G02*
X12683238Y-13102119I-40000J0D01*
G01*
X12683238Y-13102119D02*
G75*
G02*
X12763238Y-13102119I40000J0D01*
G01*
X11544000Y-5507500D02*
X11544000Y-5592500D01*
X11501500Y-5550000D02*
X11586500Y-5550000D01*
X11544000Y-12064619D02*
X11544000Y-12149619D01*
X11501500Y-12107119D02*
X11586500Y-12107119D01*
X11798000Y-5507500D02*
X11798000Y-5592500D01*
X11755500Y-5550000D02*
X11840500Y-5550000D01*
X11798000Y-12064619D02*
X11798000Y-12149619D01*
X11755500Y-12107119D02*
X11840500Y-12107119D01*
X12306000Y-5507500D02*
X12306000Y-5592500D01*
X12263500Y-5550000D02*
X12348500Y-5550000D01*
X12306000Y-12064619D02*
X12306000Y-12149619D01*
X12263500Y-12107119D02*
X12348500Y-12107119D01*
X12814000Y-5507500D02*
X12814000Y-5592500D01*
X12771500Y-5550000D02*
X12856500Y-5550000D01*
X12814000Y-12064619D02*
X12814000Y-12149619D01*
X12771500Y-12107119D02*
X12856500Y-12107119D01*
X11155356Y-13570356D02*
X11155356Y-13499644D01*
X11084644Y-13499644D01*
X11084644Y-13570356D01*
X11155356Y-13570356D01*
X11070000Y-13425000D02*
X11070000Y-13645000D01*
X11170000Y-13645000D02*
G75*
G02*
X11070000Y-13645000I-50000J0D01*
G01*
X11170000Y-13645000D02*
X11170000Y-13425000D01*
X11170000Y-13425000D02*
G75*
G03*
X11070000Y-13425000I-50000J0D01*
G01*
X11250356Y-7597356D02*
X11250356Y-7526644D01*
X11179644Y-7526644D01*
X11179644Y-7597356D01*
X11250356Y-7597356D01*
X11250356Y-7851356D02*
X11250356Y-7780644D01*
X11179644Y-7780644D01*
X11179644Y-7851356D01*
X11250356Y-7851356D01*
X11250356Y-8105356D02*
X11250356Y-8034644D01*
X11179644Y-8034644D01*
X11179644Y-8105356D01*
X11250356Y-8105356D01*
X11250356Y-8359356D02*
X11250356Y-8288644D01*
X11179644Y-8288644D01*
X11179644Y-8359356D01*
X11250356Y-8359356D01*
X11250356Y-8613356D02*
X11250356Y-8542644D01*
X11179644Y-8542644D01*
X11179644Y-8613356D01*
X11250356Y-8613356D01*
X11250356Y-8867356D02*
X11250356Y-8796644D01*
X11179644Y-8796644D01*
X11179644Y-8867356D01*
X11250356Y-8867356D01*
X11250356Y-9121356D02*
X11250356Y-9050644D01*
X11179644Y-9050644D01*
X11179644Y-9121356D01*
X11250356Y-9121356D01*
X11250356Y-9375356D02*
X11250356Y-9304644D01*
X11179644Y-9304644D01*
X11179644Y-9375356D01*
X11250356Y-9375356D01*
X11250356Y-9629356D02*
X11250356Y-9558644D01*
X11179644Y-9558644D01*
X11179644Y-9629356D01*
X11250356Y-9629356D01*
X11250356Y-9883356D02*
X11250356Y-9812644D01*
X11179644Y-9812644D01*
X11179644Y-9883356D01*
X11250356Y-9883356D01*
X11785356Y-13570356D02*
X11785356Y-13499644D01*
X11714644Y-13499644D01*
X11714644Y-13570356D01*
X11785356Y-13570356D01*
X11700000Y-13405000D02*
X11700000Y-13665000D01*
X11800000Y-13665000D02*
G75*
G02*
X11700000Y-13665000I-50000J0D01*
G01*
X11800000Y-13665000D02*
X11800000Y-13405000D01*
X11800000Y-13405000D02*
G75*
G03*
X11700000Y-13405000I-50000J0D01*
G01*
D13*
X19525000Y-10135000D02*
X19580000Y-10080000D01*
X19525000Y-10025000D01*
X19470000Y-10080000D01*
X19525000Y-10135000D01*
X19525000Y-12835000D02*
X19580000Y-12780000D01*
X19525000Y-12725000D01*
X19470000Y-12780000D01*
X19525000Y-12835000D01*
D14*
X15795000Y-5780000D02*
X15915000Y-5900000D01*
X15915000Y-5780000D02*
X15795000Y-5900000D01*
X15915000Y-5840000D02*
G75*
G02*
X15795000Y-5840000I-60000J0D01*
G01*
X15795000Y-5840000D02*
G75*
G02*
X15915000Y-5840000I60000J0D01*
G01*
X15795000Y-7280000D02*
X15915000Y-7400000D01*
X15915000Y-7280000D02*
X15795000Y-7400000D01*
X15915000Y-7340000D02*
G75*
G02*
X15795000Y-7340000I-60000J0D01*
G01*
X15795000Y-7340000D02*
G75*
G02*
X15915000Y-7340000I60000J0D01*
G01*
X16445000Y-11995000D02*
X16565000Y-12115000D01*
X16565000Y-11995000D02*
X16445000Y-12115000D01*
X16565000Y-12055000D02*
G75*
G02*
X16445000Y-12055000I-60000J0D01*
G01*
X16445000Y-12055000D02*
G75*
G02*
X16565000Y-12055000I60000J0D01*
G01*
X16445000Y-12650000D02*
X16565000Y-12770000D01*
X16565000Y-12650000D02*
X16445000Y-12770000D01*
X16565000Y-12710000D02*
G75*
G02*
X16445000Y-12710000I-60000J0D01*
G01*
X16445000Y-12710000D02*
G75*
G02*
X16565000Y-12710000I60000J0D01*
G01*
X16445000Y-13305000D02*
X16565000Y-13425000D01*
X16565000Y-13305000D02*
X16445000Y-13425000D01*
X16565000Y-13365000D02*
G75*
G02*
X16445000Y-13365000I-60000J0D01*
G01*
X16445000Y-13365000D02*
G75*
G02*
X16565000Y-13365000I60000J0D01*
G01*
X16445000Y-13960000D02*
X16565000Y-14080000D01*
X16565000Y-13960000D02*
X16445000Y-14080000D01*
X16565000Y-14020000D02*
G75*
G02*
X16445000Y-14020000I-60000J0D01*
G01*
X16445000Y-14020000D02*
G75*
G02*
X16565000Y-14020000I60000J0D01*
G01*
X16450000Y-5780000D02*
X16570000Y-5900000D01*
X16570000Y-5780000D02*
X16450000Y-5900000D01*
X16570000Y-5840000D02*
G75*
G02*
X16450000Y-5840000I-60000J0D01*
G01*
X16450000Y-5840000D02*
G75*
G02*
X16570000Y-5840000I60000J0D01*
G01*
X16450000Y-7280000D02*
X16570000Y-7400000D01*
X16570000Y-7280000D02*
X16450000Y-7400000D01*
X16570000Y-7340000D02*
G75*
G02*
X16450000Y-7340000I-60000J0D01*
G01*
X16450000Y-7340000D02*
G75*
G02*
X16570000Y-7340000I60000J0D01*
G01*
X17105000Y-5780000D02*
X17225000Y-5900000D01*
X17225000Y-5780000D02*
X17105000Y-5900000D01*
X17225000Y-5840000D02*
G75*
G02*
X17105000Y-5840000I-60000J0D01*
G01*
X17105000Y-5840000D02*
G75*
G02*
X17225000Y-5840000I60000J0D01*
G01*
X17105000Y-7280000D02*
X17225000Y-7400000D01*
X17225000Y-7280000D02*
X17105000Y-7400000D01*
X17225000Y-7340000D02*
G75*
G02*
X17105000Y-7340000I-60000J0D01*
G01*
X17105000Y-7340000D02*
G75*
G02*
X17225000Y-7340000I60000J0D01*
G01*
X17760000Y-5780000D02*
X17880000Y-5900000D01*
X17880000Y-5780000D02*
X17760000Y-5900000D01*
X17880000Y-5840000D02*
G75*
G02*
X17760000Y-5840000I-60000J0D01*
G01*
X17760000Y-5840000D02*
G75*
G02*
X17880000Y-5840000I60000J0D01*
G01*
X17760000Y-7280000D02*
X17880000Y-7400000D01*
X17880000Y-7280000D02*
X17760000Y-7400000D01*
X17880000Y-7340000D02*
G75*
G02*
X17760000Y-7340000I-60000J0D01*
G01*
X17760000Y-7340000D02*
G75*
G02*
X17880000Y-7340000I60000J0D01*
G01*
X17820000Y-7950000D02*
X17940000Y-8070000D01*
X17940000Y-7950000D02*
X17820000Y-8070000D01*
X17940000Y-8010000D02*
G75*
G02*
X17820000Y-8010000I-60000J0D01*
G01*
X17820000Y-8010000D02*
G75*
G02*
X17940000Y-8010000I60000J0D01*
G01*
X17820000Y-9450000D02*
X17940000Y-9570000D01*
X17940000Y-9450000D02*
X17820000Y-9570000D01*
X17940000Y-9510000D02*
G75*
G02*
X17820000Y-9510000I-60000J0D01*
G01*
X17820000Y-9510000D02*
G75*
G02*
X17940000Y-9510000I60000J0D01*
G01*
X17945000Y-11995000D02*
X18065000Y-12115000D01*
X18065000Y-11995000D02*
X17945000Y-12115000D01*
X18065000Y-12055000D02*
G75*
G02*
X17945000Y-12055000I-60000J0D01*
G01*
X17945000Y-12055000D02*
G75*
G02*
X18065000Y-12055000I60000J0D01*
G01*
X17945000Y-12650000D02*
X18065000Y-12770000D01*
X18065000Y-12650000D02*
X17945000Y-12770000D01*
X18065000Y-12710000D02*
G75*
G02*
X17945000Y-12710000I-60000J0D01*
G01*
X17945000Y-12710000D02*
G75*
G02*
X18065000Y-12710000I60000J0D01*
G01*
X17945000Y-13305000D02*
X18065000Y-13425000D01*
X18065000Y-13305000D02*
X17945000Y-13425000D01*
X18065000Y-13365000D02*
G75*
G02*
X17945000Y-13365000I-60000J0D01*
G01*
X17945000Y-13365000D02*
G75*
G02*
X18065000Y-13365000I60000J0D01*
G01*
X17945000Y-13960000D02*
X18065000Y-14080000D01*
X18065000Y-13960000D02*
X17945000Y-14080000D01*
X18065000Y-14020000D02*
G75*
G02*
X17945000Y-14020000I-60000J0D01*
G01*
X17945000Y-14020000D02*
G75*
G02*
X18065000Y-14020000I60000J0D01*
G01*
X18475000Y-7950000D02*
X18595000Y-8070000D01*
X18595000Y-7950000D02*
X18475000Y-8070000D01*
X18595000Y-8010000D02*
G75*
G02*
X18475000Y-8010000I-60000J0D01*
G01*
X18475000Y-8010000D02*
G75*
G02*
X18595000Y-8010000I60000J0D01*
G01*
X18475000Y-9450000D02*
X18595000Y-9570000D01*
X18595000Y-9450000D02*
X18475000Y-9570000D01*
X18595000Y-9510000D02*
G75*
G02*
X18475000Y-9510000I-60000J0D01*
G01*
X18475000Y-9510000D02*
G75*
G02*
X18595000Y-9510000I60000J0D01*
G01*
X18745000Y-4525000D02*
X18865000Y-4645000D01*
X18865000Y-4525000D02*
X18745000Y-4645000D01*
X18865000Y-4585000D02*
G75*
G02*
X18745000Y-4585000I-60000J0D01*
G01*
X18745000Y-4585000D02*
G75*
G02*
X18865000Y-4585000I60000J0D01*
G01*
X18745000Y-7275000D02*
X18865000Y-7395000D01*
X18865000Y-7275000D02*
X18745000Y-7395000D01*
X18865000Y-7335000D02*
G75*
G02*
X18745000Y-7335000I-60000J0D01*
G01*
X18745000Y-7335000D02*
G75*
G02*
X18865000Y-7335000I60000J0D01*
G01*
X19130000Y-7950000D02*
X19250000Y-8070000D01*
X19250000Y-7950000D02*
X19130000Y-8070000D01*
X19250000Y-8010000D02*
G75*
G02*
X19130000Y-8010000I-60000J0D01*
G01*
X19130000Y-8010000D02*
G75*
G02*
X19250000Y-8010000I60000J0D01*
G01*
X19130000Y-9450000D02*
X19250000Y-9570000D01*
X19250000Y-9450000D02*
X19130000Y-9570000D01*
X19250000Y-9510000D02*
G75*
G02*
X19130000Y-9510000I-60000J0D01*
G01*
X19130000Y-9510000D02*
G75*
G02*
X19250000Y-9510000I60000J0D01*
G01*
D15*
X19943250Y-6641750D02*
X20073250Y-6771750D01*
X20073250Y-6641750D02*
X19943250Y-6771750D01*
X20008250Y-6641750D02*
X20008250Y-6771750D01*
X19943250Y-6706750D02*
X20073250Y-6706750D01*
X19943250Y-7141750D02*
X20073250Y-7271750D01*
X20073250Y-7141750D02*
X19943250Y-7271750D01*
X20008250Y-7141750D02*
X20008250Y-7271750D01*
X19943250Y-7206750D02*
X20073250Y-7206750D01*
X19943250Y-8241750D02*
X20073250Y-8371750D01*
X20073250Y-8241750D02*
X19943250Y-8371750D01*
X20008250Y-8241750D02*
X20008250Y-8371750D01*
X19943250Y-8306750D02*
X20073250Y-8306750D01*
X19943250Y-8741750D02*
X20073250Y-8871750D01*
X20073250Y-8741750D02*
X19943250Y-8871750D01*
X20008250Y-8741750D02*
X20008250Y-8871750D01*
X19943250Y-8806750D02*
X20073250Y-8806750D01*
D16*
X11590000Y-4520000D02*
X11730000Y-4660000D01*
X11730000Y-4520000D02*
X11590000Y-4660000D01*
X11709498Y-4639498D02*
X11709498Y-4540502D01*
X11610502Y-4540502D01*
X11610502Y-4639498D01*
X11709498Y-4639498D01*
X11590000Y-5028000D02*
X11730000Y-5168000D01*
X11730000Y-5028000D02*
X11590000Y-5168000D01*
X11709498Y-5147498D02*
X11709498Y-5048502D01*
X11610502Y-5048502D01*
X11610502Y-5147498D01*
X11709498Y-5147498D01*
X14085000Y-4970000D02*
X14225000Y-5110000D01*
X14225000Y-4970000D02*
X14085000Y-5110000D01*
X14204498Y-5089498D02*
X14204498Y-4990502D01*
X14105502Y-4990502D01*
X14105502Y-5089498D01*
X14204498Y-5089498D01*
D12*
X14225000Y-5080000D02*
X14225000Y-5000000D01*
X14085000Y-5000000D02*
G75*
G02*
X14225000Y-5000000I70000J0D01*
G01*
X14085000Y-5000000D02*
X14085000Y-5080000D01*
X14085000Y-5080000D02*
G75*
G03*
X14225000Y-5080000I70000J0D01*
G01*
D16*
X14085000Y-13070000D02*
X14225000Y-13210000D01*
X14225000Y-13070000D02*
X14085000Y-13210000D01*
X14204498Y-13189498D02*
X14204498Y-13090502D01*
X14105502Y-13090502D01*
X14105502Y-13189498D01*
X14204498Y-13189498D01*
D12*
X14225000Y-13180000D02*
X14225000Y-13100000D01*
X14085000Y-13100000D02*
G75*
G02*
X14225000Y-13100000I70000J0D01*
G01*
X14085000Y-13100000D02*
X14085000Y-13180000D01*
X14085000Y-13180000D02*
G75*
G03*
X14225000Y-13180000I70000J0D01*
G01*
D16*
X18945000Y-10010000D02*
X19085000Y-10150000D01*
X19085000Y-10010000D02*
X18945000Y-10150000D01*
X19064498Y-10129498D02*
X19064498Y-10030502D01*
X18965502Y-10030502D01*
X18965502Y-10129498D01*
X19064498Y-10129498D01*
X18945000Y-13760000D02*
X19085000Y-13900000D01*
X19085000Y-13760000D02*
X18945000Y-13900000D01*
X19064498Y-13879498D02*
X19064498Y-13780502D01*
X18965502Y-13780502D01*
X18965502Y-13879498D01*
X19064498Y-13879498D01*
X19965000Y-10010000D02*
X20105000Y-10150000D01*
X20105000Y-10010000D02*
X19965000Y-10150000D01*
X20084498Y-10129498D02*
X20084498Y-10030502D01*
X19985502Y-10030502D01*
X19985502Y-10129498D01*
X20084498Y-10129498D01*
X19965000Y-13760000D02*
X20105000Y-13900000D01*
X20105000Y-13760000D02*
X19965000Y-13900000D01*
X20084498Y-13879498D02*
X20084498Y-13780502D01*
X19985502Y-13780502D01*
X19985502Y-13879498D01*
X20084498Y-13879498D01*
D17*
X14600000Y-5485000D02*
X14750000Y-5635000D01*
X14750000Y-5485000D02*
X14600000Y-5635000D01*
X14675000Y-5635000D02*
X14750000Y-5560000D01*
X14675000Y-5485000D01*
X14600000Y-5560000D01*
X14675000Y-5635000D01*
X14600000Y-6030000D02*
X14750000Y-6180000D01*
X14750000Y-6030000D02*
X14600000Y-6180000D01*
X14675000Y-6180000D02*
X14750000Y-6105000D01*
X14675000Y-6030000D01*
X14600000Y-6105000D01*
X14675000Y-6180000D01*
X14600000Y-6575000D02*
X14750000Y-6725000D01*
X14750000Y-6575000D02*
X14600000Y-6725000D01*
X14675000Y-6725000D02*
X14750000Y-6650000D01*
X14675000Y-6575000D01*
X14600000Y-6650000D01*
X14675000Y-6725000D01*
X14600000Y-7485000D02*
X14750000Y-7635000D01*
X14750000Y-7485000D02*
X14600000Y-7635000D01*
X14675000Y-7635000D02*
X14750000Y-7560000D01*
X14675000Y-7485000D01*
X14600000Y-7560000D01*
X14675000Y-7635000D01*
X14600000Y-8030000D02*
X14750000Y-8180000D01*
X14750000Y-8030000D02*
X14600000Y-8180000D01*
X14675000Y-8180000D02*
X14750000Y-8105000D01*
X14675000Y-8030000D01*
X14600000Y-8105000D01*
X14675000Y-8180000D01*
X14600000Y-8575000D02*
X14750000Y-8725000D01*
X14750000Y-8575000D02*
X14600000Y-8725000D01*
X14675000Y-8725000D02*
X14750000Y-8650000D01*
X14675000Y-8575000D01*
X14600000Y-8650000D01*
X14675000Y-8725000D01*
X14600000Y-9485000D02*
X14750000Y-9635000D01*
X14750000Y-9485000D02*
X14600000Y-9635000D01*
X14675000Y-9635000D02*
X14750000Y-9560000D01*
X14675000Y-9485000D01*
X14600000Y-9560000D01*
X14675000Y-9635000D01*
X14600000Y-10030000D02*
X14750000Y-10180000D01*
X14750000Y-10030000D02*
X14600000Y-10180000D01*
X14675000Y-10180000D02*
X14750000Y-10105000D01*
X14675000Y-10030000D01*
X14600000Y-10105000D01*
X14675000Y-10180000D01*
X14600000Y-10575000D02*
X14750000Y-10725000D01*
X14750000Y-10575000D02*
X14600000Y-10725000D01*
X14675000Y-10725000D02*
X14750000Y-10650000D01*
X14675000Y-10575000D01*
X14600000Y-10650000D01*
X14675000Y-10725000D01*
X14600000Y-11485000D02*
X14750000Y-11635000D01*
X14750000Y-11485000D02*
X14600000Y-11635000D01*
X14675000Y-11635000D02*
X14750000Y-11560000D01*
X14675000Y-11485000D01*
X14600000Y-11560000D01*
X14675000Y-11635000D01*
X14600000Y-12030000D02*
X14750000Y-12180000D01*
X14750000Y-12030000D02*
X14600000Y-12180000D01*
X14675000Y-12180000D02*
X14750000Y-12105000D01*
X14675000Y-12030000D01*
X14600000Y-12105000D01*
X14675000Y-12180000D01*
X14600000Y-12575000D02*
X14750000Y-12725000D01*
X14750000Y-12575000D02*
X14600000Y-12725000D01*
X14675000Y-12725000D02*
X14750000Y-12650000D01*
X14675000Y-12575000D01*
X14600000Y-12650000D01*
X14675000Y-12725000D01*
D11*
X15815000Y-10300000D02*
X15815000Y-10500000D01*
X15715000Y-10400000D02*
X15915000Y-10400000D01*
X15915000Y-10400000D02*
G75*
G02*
X15715000Y-10400000I-100000J0D01*
G01*
X15715000Y-10400000D02*
G75*
G02*
X15915000Y-10400000I100000J0D01*
G01*
X18215000Y-10300000D02*
X18215000Y-10500000D01*
X18115000Y-10400000D02*
X18315000Y-10400000D01*
X18315000Y-10400000D02*
G75*
G02*
X18115000Y-10400000I-100000J0D01*
G01*
X18115000Y-10400000D02*
G75*
G02*
X18315000Y-10400000I100000J0D01*
G01*
X10873277Y-14613984D02*
X10873277Y-14413984D01*
X10873277Y-14413984D02*
X10920896Y-14413984D01*
X10920896Y-14413984D02*
X10949467Y-14423508D01*
X10949467Y-14423508D02*
X10968515Y-14442555D01*
X10968515Y-14442555D02*
X10978039Y-14461603D01*
X10978039Y-14461603D02*
X10987563Y-14499698D01*
X10987563Y-14499698D02*
X10987563Y-14528269D01*
X10987563Y-14528269D02*
X10978039Y-14566365D01*
X10978039Y-14566365D02*
X10968515Y-14585412D01*
X10968515Y-14585412D02*
X10949467Y-14604460D01*
X10949467Y-14604460D02*
X10920896Y-14613984D01*
X10920896Y-14613984D02*
X10873277Y-14613984D01*
X11073277Y-14613984D02*
X11073277Y-14480650D01*
X11073277Y-14518746D02*
X11082801Y-14499698D01*
X11082801Y-14499698D02*
X11092324Y-14490174D01*
X11092324Y-14490174D02*
X11111372Y-14480650D01*
X11111372Y-14480650D02*
X11130420Y-14480650D01*
X11197086Y-14613984D02*
X11197086Y-14480650D01*
X11197086Y-14413984D02*
X11187562Y-14423508D01*
X11187562Y-14423508D02*
X11197086Y-14433031D01*
X11197086Y-14433031D02*
X11206610Y-14423508D01*
X11206610Y-14423508D02*
X11197086Y-14413984D01*
X11197086Y-14413984D02*
X11197086Y-14433031D01*
X11320896Y-14613984D02*
X11301848Y-14604460D01*
X11301848Y-14604460D02*
X11292324Y-14585412D01*
X11292324Y-14585412D02*
X11292324Y-14413984D01*
X11425658Y-14613984D02*
X11406610Y-14604460D01*
X11406610Y-14604460D02*
X11397086Y-14585412D01*
X11397086Y-14585412D02*
X11397086Y-14413984D01*
X11654229Y-14613984D02*
X11654229Y-14413984D01*
X11654229Y-14413984D02*
X11720896Y-14556841D01*
X11720896Y-14556841D02*
X11787562Y-14413984D01*
X11787562Y-14413984D02*
X11787562Y-14613984D01*
X11968515Y-14613984D02*
X11968515Y-14509222D01*
X11968515Y-14509222D02*
X11958991Y-14490174D01*
X11958991Y-14490174D02*
X11939943Y-14480650D01*
X11939943Y-14480650D02*
X11901848Y-14480650D01*
X11901848Y-14480650D02*
X11882801Y-14490174D01*
X11968515Y-14604460D02*
X11949467Y-14613984D01*
X11949467Y-14613984D02*
X11901848Y-14613984D01*
X11901848Y-14613984D02*
X11882801Y-14604460D01*
X11882801Y-14604460D02*
X11873277Y-14585412D01*
X11873277Y-14585412D02*
X11873277Y-14566365D01*
X11873277Y-14566365D02*
X11882801Y-14547317D01*
X11882801Y-14547317D02*
X11901848Y-14537793D01*
X11901848Y-14537793D02*
X11949467Y-14537793D01*
X11949467Y-14537793D02*
X11968515Y-14528269D01*
X12063753Y-14480650D02*
X12063753Y-14680650D01*
X12063753Y-14490174D02*
X12082801Y-14480650D01*
X12082801Y-14480650D02*
X12120896Y-14480650D01*
X12120896Y-14480650D02*
X12139943Y-14490174D01*
X12139943Y-14490174D02*
X12149467Y-14499698D01*
X12149467Y-14499698D02*
X12158991Y-14518746D01*
X12158991Y-14518746D02*
X12158991Y-14575888D01*
X12158991Y-14575888D02*
X12149467Y-14594936D01*
X12149467Y-14594936D02*
X12139943Y-14604460D01*
X12139943Y-14604460D02*
X12120896Y-14613984D01*
X12120896Y-14613984D02*
X12082801Y-14613984D01*
X12082801Y-14613984D02*
X12063753Y-14604460D01*
X12244705Y-14594936D02*
X12254229Y-14604460D01*
X12254229Y-14604460D02*
X12244705Y-14613984D01*
X12244705Y-14613984D02*
X12235182Y-14604460D01*
X12235182Y-14604460D02*
X12244705Y-14594936D01*
X12244705Y-14594936D02*
X12244705Y-14613984D01*
X12244705Y-14490174D02*
X12254229Y-14499698D01*
X12254229Y-14499698D02*
X12244705Y-14509222D01*
X12244705Y-14509222D02*
X12235182Y-14499698D01*
X12235182Y-14499698D02*
X12244705Y-14490174D01*
X12244705Y-14490174D02*
X12244705Y-14509222D01*
D12*
X10582500Y-14927500D02*
X10612500Y-14957500D01*
X10612500Y-14927500D02*
X10582500Y-14957500D01*
D11*
X10911372Y-14833984D02*
X10930420Y-14833984D01*
X10930420Y-14833984D02*
X10949467Y-14843508D01*
X10949467Y-14843508D02*
X10958991Y-14853031D01*
X10958991Y-14853031D02*
X10968515Y-14872079D01*
X10968515Y-14872079D02*
X10978039Y-14910174D01*
X10978039Y-14910174D02*
X10978039Y-14957793D01*
X10978039Y-14957793D02*
X10968515Y-14995888D01*
X10968515Y-14995888D02*
X10958991Y-15014936D01*
X10958991Y-15014936D02*
X10949467Y-15024460D01*
X10949467Y-15024460D02*
X10930420Y-15033984D01*
X10930420Y-15033984D02*
X10911372Y-15033984D01*
X10911372Y-15033984D02*
X10892324Y-15024460D01*
X10892324Y-15024460D02*
X10882801Y-15014936D01*
X10882801Y-15014936D02*
X10873277Y-14995888D01*
X10873277Y-14995888D02*
X10863753Y-14957793D01*
X10863753Y-14957793D02*
X10863753Y-14910174D01*
X10863753Y-14910174D02*
X10873277Y-14872079D01*
X10873277Y-14872079D02*
X10882801Y-14853031D01*
X10882801Y-14853031D02*
X10892324Y-14843508D01*
X10892324Y-14843508D02*
X10911372Y-14833984D01*
X11063753Y-15014936D02*
X11073277Y-15024460D01*
X11073277Y-15024460D02*
X11063753Y-15033984D01*
X11063753Y-15033984D02*
X11054229Y-15024460D01*
X11054229Y-15024460D02*
X11063753Y-15014936D01*
X11063753Y-15014936D02*
X11063753Y-15033984D01*
X11139944Y-14833984D02*
X11263753Y-14833984D01*
X11263753Y-14833984D02*
X11197086Y-14910174D01*
X11197086Y-14910174D02*
X11225658Y-14910174D01*
X11225658Y-14910174D02*
X11244705Y-14919698D01*
X11244705Y-14919698D02*
X11254229Y-14929222D01*
X11254229Y-14929222D02*
X11263753Y-14948269D01*
X11263753Y-14948269D02*
X11263753Y-14995888D01*
X11263753Y-14995888D02*
X11254229Y-15014936D01*
X11254229Y-15014936D02*
X11244705Y-15024460D01*
X11244705Y-15024460D02*
X11225658Y-15033984D01*
X11225658Y-15033984D02*
X11168515Y-15033984D01*
X11168515Y-15033984D02*
X11149467Y-15024460D01*
X11149467Y-15024460D02*
X11139944Y-15014936D01*
X11387562Y-14833984D02*
X11406610Y-14833984D01*
X11406610Y-14833984D02*
X11425658Y-14843508D01*
X11425658Y-14843508D02*
X11435182Y-14853031D01*
X11435182Y-14853031D02*
X11444705Y-14872079D01*
X11444705Y-14872079D02*
X11454229Y-14910174D01*
X11454229Y-14910174D02*
X11454229Y-14957793D01*
X11454229Y-14957793D02*
X11444705Y-14995888D01*
X11444705Y-14995888D02*
X11435182Y-15014936D01*
X11435182Y-15014936D02*
X11425658Y-15024460D01*
X11425658Y-15024460D02*
X11406610Y-15033984D01*
X11406610Y-15033984D02*
X11387562Y-15033984D01*
X11387562Y-15033984D02*
X11368515Y-15024460D01*
X11368515Y-15024460D02*
X11358991Y-15014936D01*
X11358991Y-15014936D02*
X11349467Y-14995888D01*
X11349467Y-14995888D02*
X11339943Y-14957793D01*
X11339943Y-14957793D02*
X11339943Y-14910174D01*
X11339943Y-14910174D02*
X11349467Y-14872079D01*
X11349467Y-14872079D02*
X11358991Y-14853031D01*
X11358991Y-14853031D02*
X11368515Y-14843508D01*
X11368515Y-14843508D02*
X11387562Y-14833984D01*
X11578039Y-14833984D02*
X11597086Y-14833984D01*
X11597086Y-14833984D02*
X11616134Y-14843508D01*
X11616134Y-14843508D02*
X11625658Y-14853031D01*
X11625658Y-14853031D02*
X11635182Y-14872079D01*
X11635182Y-14872079D02*
X11644705Y-14910174D01*
X11644705Y-14910174D02*
X11644705Y-14957793D01*
X11644705Y-14957793D02*
X11635182Y-14995888D01*
X11635182Y-14995888D02*
X11625658Y-15014936D01*
X11625658Y-15014936D02*
X11616134Y-15024460D01*
X11616134Y-15024460D02*
X11597086Y-15033984D01*
X11597086Y-15033984D02*
X11578039Y-15033984D01*
X11578039Y-15033984D02*
X11558991Y-15024460D01*
X11558991Y-15024460D02*
X11549467Y-15014936D01*
X11549467Y-15014936D02*
X11539943Y-14995888D01*
X11539943Y-14995888D02*
X11530420Y-14957793D01*
X11530420Y-14957793D02*
X11530420Y-14910174D01*
X11530420Y-14910174D02*
X11539943Y-14872079D01*
X11539943Y-14872079D02*
X11549467Y-14853031D01*
X11549467Y-14853031D02*
X11558991Y-14843508D01*
X11558991Y-14843508D02*
X11578039Y-14833984D01*
X11730420Y-15033984D02*
X11730420Y-14900650D01*
X11730420Y-14919698D02*
X11739943Y-14910174D01*
X11739943Y-14910174D02*
X11758991Y-14900650D01*
X11758991Y-14900650D02*
X11787563Y-14900650D01*
X11787563Y-14900650D02*
X11806610Y-14910174D01*
X11806610Y-14910174D02*
X11816134Y-14929222D01*
X11816134Y-14929222D02*
X11816134Y-15033984D01*
X11816134Y-14929222D02*
X11825658Y-14910174D01*
X11825658Y-14910174D02*
X11844705Y-14900650D01*
X11844705Y-14900650D02*
X11873277Y-14900650D01*
X11873277Y-14900650D02*
X11892324Y-14910174D01*
X11892324Y-14910174D02*
X11901848Y-14929222D01*
X11901848Y-14929222D02*
X11901848Y-15033984D01*
X11997086Y-15033984D02*
X11997086Y-14900650D01*
X11997086Y-14919698D02*
X12006610Y-14910174D01*
X12006610Y-14910174D02*
X12025658Y-14900650D01*
X12025658Y-14900650D02*
X12054229Y-14900650D01*
X12054229Y-14900650D02*
X12073277Y-14910174D01*
X12073277Y-14910174D02*
X12082801Y-14929222D01*
X12082801Y-14929222D02*
X12082801Y-15033984D01*
X12082801Y-14929222D02*
X12092324Y-14910174D01*
X12092324Y-14910174D02*
X12111372Y-14900650D01*
X12111372Y-14900650D02*
X12139943Y-14900650D01*
X12139943Y-14900650D02*
X12158991Y-14910174D01*
X12158991Y-14910174D02*
X12168515Y-14929222D01*
X12168515Y-14929222D02*
X12168515Y-15033984D01*
X12558991Y-14824460D02*
X12387563Y-15081603D01*
X12816134Y-14833984D02*
X12835182Y-14833984D01*
X12835182Y-14833984D02*
X12854229Y-14843508D01*
X12854229Y-14843508D02*
X12863753Y-14853031D01*
X12863753Y-14853031D02*
X12873277Y-14872079D01*
X12873277Y-14872079D02*
X12882801Y-14910174D01*
X12882801Y-14910174D02*
X12882801Y-14957793D01*
X12882801Y-14957793D02*
X12873277Y-14995888D01*
X12873277Y-14995888D02*
X12863753Y-15014936D01*
X12863753Y-15014936D02*
X12854229Y-15024460D01*
X12854229Y-15024460D02*
X12835182Y-15033984D01*
X12835182Y-15033984D02*
X12816134Y-15033984D01*
X12816134Y-15033984D02*
X12797086Y-15024460D01*
X12797086Y-15024460D02*
X12787563Y-15014936D01*
X12787563Y-15014936D02*
X12778039Y-14995888D01*
X12778039Y-14995888D02*
X12768515Y-14957793D01*
X12768515Y-14957793D02*
X12768515Y-14910174D01*
X12768515Y-14910174D02*
X12778039Y-14872079D01*
X12778039Y-14872079D02*
X12787563Y-14853031D01*
X12787563Y-14853031D02*
X12797086Y-14843508D01*
X12797086Y-14843508D02*
X12816134Y-14833984D01*
X12968515Y-15014936D02*
X12978039Y-15024460D01*
X12978039Y-15024460D02*
X12968515Y-15033984D01*
X12968515Y-15033984D02*
X12958991Y-15024460D01*
X12958991Y-15024460D02*
X12968515Y-15014936D01*
X12968515Y-15014936D02*
X12968515Y-15033984D01*
X13101848Y-14833984D02*
X13120896Y-14833984D01*
X13120896Y-14833984D02*
X13139944Y-14843508D01*
X13139944Y-14843508D02*
X13149467Y-14853031D01*
X13149467Y-14853031D02*
X13158991Y-14872079D01*
X13158991Y-14872079D02*
X13168515Y-14910174D01*
X13168515Y-14910174D02*
X13168515Y-14957793D01*
X13168515Y-14957793D02*
X13158991Y-14995888D01*
X13158991Y-14995888D02*
X13149467Y-15014936D01*
X13149467Y-15014936D02*
X13139944Y-15024460D01*
X13139944Y-15024460D02*
X13120896Y-15033984D01*
X13120896Y-15033984D02*
X13101848Y-15033984D01*
X13101848Y-15033984D02*
X13082801Y-15024460D01*
X13082801Y-15024460D02*
X13073277Y-15014936D01*
X13073277Y-15014936D02*
X13063753Y-14995888D01*
X13063753Y-14995888D02*
X13054229Y-14957793D01*
X13054229Y-14957793D02*
X13054229Y-14910174D01*
X13054229Y-14910174D02*
X13063753Y-14872079D01*
X13063753Y-14872079D02*
X13073277Y-14853031D01*
X13073277Y-14853031D02*
X13082801Y-14843508D01*
X13082801Y-14843508D02*
X13101848Y-14833984D01*
X13358991Y-15033984D02*
X13244706Y-15033984D01*
X13301848Y-15033984D02*
X13301848Y-14833984D01*
X13301848Y-14833984D02*
X13282801Y-14862555D01*
X13282801Y-14862555D02*
X13263753Y-14881603D01*
X13263753Y-14881603D02*
X13244706Y-14891127D01*
X13549467Y-15033984D02*
X13435182Y-15033984D01*
X13492325Y-15033984D02*
X13492325Y-14833984D01*
X13492325Y-14833984D02*
X13473277Y-14862555D01*
X13473277Y-14862555D02*
X13454229Y-14881603D01*
X13454229Y-14881603D02*
X13435182Y-14891127D01*
X13663753Y-14919698D02*
X13644706Y-14910174D01*
X13644706Y-14910174D02*
X13635182Y-14900650D01*
X13635182Y-14900650D02*
X13625658Y-14881603D01*
X13625658Y-14881603D02*
X13625658Y-14872079D01*
X13625658Y-14872079D02*
X13635182Y-14853031D01*
X13635182Y-14853031D02*
X13644706Y-14843508D01*
X13644706Y-14843508D02*
X13663753Y-14833984D01*
X13663753Y-14833984D02*
X13701848Y-14833984D01*
X13701848Y-14833984D02*
X13720896Y-14843508D01*
X13720896Y-14843508D02*
X13730420Y-14853031D01*
X13730420Y-14853031D02*
X13739944Y-14872079D01*
X13739944Y-14872079D02*
X13739944Y-14881603D01*
X13739944Y-14881603D02*
X13730420Y-14900650D01*
X13730420Y-14900650D02*
X13720896Y-14910174D01*
X13720896Y-14910174D02*
X13701848Y-14919698D01*
X13701848Y-14919698D02*
X13663753Y-14919698D01*
X13663753Y-14919698D02*
X13644706Y-14929222D01*
X13644706Y-14929222D02*
X13635182Y-14938746D01*
X13635182Y-14938746D02*
X13625658Y-14957793D01*
X13625658Y-14957793D02*
X13625658Y-14995888D01*
X13625658Y-14995888D02*
X13635182Y-15014936D01*
X13635182Y-15014936D02*
X13644706Y-15024460D01*
X13644706Y-15024460D02*
X13663753Y-15033984D01*
X13663753Y-15033984D02*
X13701848Y-15033984D01*
X13701848Y-15033984D02*
X13720896Y-15024460D01*
X13720896Y-15024460D02*
X13730420Y-15014936D01*
X13730420Y-15014936D02*
X13739944Y-14995888D01*
X13739944Y-14995888D02*
X13739944Y-14957793D01*
X13739944Y-14957793D02*
X13730420Y-14938746D01*
X13730420Y-14938746D02*
X13720896Y-14929222D01*
X13720896Y-14929222D02*
X13701848Y-14919698D01*
X13816134Y-14833984D02*
X13816134Y-14872079D01*
X13892325Y-14833984D02*
X13892325Y-14872079D01*
X14187563Y-15110174D02*
X14178039Y-15100650D01*
X14178039Y-15100650D02*
X14158991Y-15072079D01*
X14158991Y-15072079D02*
X14149468Y-15053031D01*
X14149468Y-15053031D02*
X14139944Y-15024460D01*
X14139944Y-15024460D02*
X14130420Y-14976841D01*
X14130420Y-14976841D02*
X14130420Y-14938746D01*
X14130420Y-14938746D02*
X14139944Y-14891127D01*
X14139944Y-14891127D02*
X14149468Y-14862555D01*
X14149468Y-14862555D02*
X14158991Y-14843508D01*
X14158991Y-14843508D02*
X14178039Y-14814936D01*
X14178039Y-14814936D02*
X14187563Y-14805412D01*
X14254229Y-14853031D02*
X14263753Y-14843508D01*
X14263753Y-14843508D02*
X14282801Y-14833984D01*
X14282801Y-14833984D02*
X14330420Y-14833984D01*
X14330420Y-14833984D02*
X14349468Y-14843508D01*
X14349468Y-14843508D02*
X14358991Y-14853031D01*
X14358991Y-14853031D02*
X14368515Y-14872079D01*
X14368515Y-14872079D02*
X14368515Y-14891127D01*
X14368515Y-14891127D02*
X14358991Y-14919698D01*
X14358991Y-14919698D02*
X14244706Y-15033984D01*
X14244706Y-15033984D02*
X14368515Y-15033984D01*
X14558991Y-15033984D02*
X14444706Y-15033984D01*
X14501848Y-15033984D02*
X14501848Y-14833984D01*
X14501848Y-14833984D02*
X14482801Y-14862555D01*
X14482801Y-14862555D02*
X14463753Y-14881603D01*
X14463753Y-14881603D02*
X14444706Y-14891127D01*
X14797087Y-15033984D02*
X14797087Y-14833984D01*
X14882801Y-15033984D02*
X14882801Y-14929222D01*
X14882801Y-14929222D02*
X14873277Y-14910174D01*
X14873277Y-14910174D02*
X14854230Y-14900650D01*
X14854230Y-14900650D02*
X14825658Y-14900650D01*
X14825658Y-14900650D02*
X14806610Y-14910174D01*
X14806610Y-14910174D02*
X14797087Y-14919698D01*
X15006610Y-15033984D02*
X14987563Y-15024460D01*
X14987563Y-15024460D02*
X14978039Y-15014936D01*
X14978039Y-15014936D02*
X14968515Y-14995888D01*
X14968515Y-14995888D02*
X14968515Y-14938746D01*
X14968515Y-14938746D02*
X14978039Y-14919698D01*
X14978039Y-14919698D02*
X14987563Y-14910174D01*
X14987563Y-14910174D02*
X15006610Y-14900650D01*
X15006610Y-14900650D02*
X15035182Y-14900650D01*
X15035182Y-14900650D02*
X15054230Y-14910174D01*
X15054230Y-14910174D02*
X15063753Y-14919698D01*
X15063753Y-14919698D02*
X15073277Y-14938746D01*
X15073277Y-14938746D02*
X15073277Y-14995888D01*
X15073277Y-14995888D02*
X15063753Y-15014936D01*
X15063753Y-15014936D02*
X15054230Y-15024460D01*
X15054230Y-15024460D02*
X15035182Y-15033984D01*
X15035182Y-15033984D02*
X15006610Y-15033984D01*
X15187563Y-15033984D02*
X15168515Y-15024460D01*
X15168515Y-15024460D02*
X15158991Y-15005412D01*
X15158991Y-15005412D02*
X15158991Y-14833984D01*
X15339944Y-15024460D02*
X15320896Y-15033984D01*
X15320896Y-15033984D02*
X15282801Y-15033984D01*
X15282801Y-15033984D02*
X15263753Y-15024460D01*
X15263753Y-15024460D02*
X15254230Y-15005412D01*
X15254230Y-15005412D02*
X15254230Y-14929222D01*
X15254230Y-14929222D02*
X15263753Y-14910174D01*
X15263753Y-14910174D02*
X15282801Y-14900650D01*
X15282801Y-14900650D02*
X15320896Y-14900650D01*
X15320896Y-14900650D02*
X15339944Y-14910174D01*
X15339944Y-14910174D02*
X15349468Y-14929222D01*
X15349468Y-14929222D02*
X15349468Y-14948269D01*
X15349468Y-14948269D02*
X15254230Y-14967317D01*
X15425658Y-15024460D02*
X15444706Y-15033984D01*
X15444706Y-15033984D02*
X15482801Y-15033984D01*
X15482801Y-15033984D02*
X15501849Y-15024460D01*
X15501849Y-15024460D02*
X15511372Y-15005412D01*
X15511372Y-15005412D02*
X15511372Y-14995888D01*
X15511372Y-14995888D02*
X15501849Y-14976841D01*
X15501849Y-14976841D02*
X15482801Y-14967317D01*
X15482801Y-14967317D02*
X15454230Y-14967317D01*
X15454230Y-14967317D02*
X15435182Y-14957793D01*
X15435182Y-14957793D02*
X15425658Y-14938746D01*
X15425658Y-14938746D02*
X15425658Y-14929222D01*
X15425658Y-14929222D02*
X15435182Y-14910174D01*
X15435182Y-14910174D02*
X15454230Y-14900650D01*
X15454230Y-14900650D02*
X15482801Y-14900650D01*
X15482801Y-14900650D02*
X15501849Y-14910174D01*
X15578039Y-15110174D02*
X15587563Y-15100650D01*
X15587563Y-15100650D02*
X15606611Y-15072079D01*
X15606611Y-15072079D02*
X15616134Y-15053031D01*
X15616134Y-15053031D02*
X15625658Y-15024460D01*
X15625658Y-15024460D02*
X15635182Y-14976841D01*
X15635182Y-14976841D02*
X15635182Y-14938746D01*
X15635182Y-14938746D02*
X15625658Y-14891127D01*
X15625658Y-14891127D02*
X15616134Y-14862555D01*
X15616134Y-14862555D02*
X15606611Y-14843508D01*
X15606611Y-14843508D02*
X15587563Y-14814936D01*
X15587563Y-14814936D02*
X15578039Y-14805412D01*
D12*
X10612500Y-15206500D02*
G75*
G02*
X10532500Y-15206500I-40000J0D01*
G01*
X10532500Y-15206500D02*
G75*
G02*
X10612500Y-15206500I40000J0D01*
G01*
D11*
X10911372Y-15097984D02*
X10930420Y-15097984D01*
X10930420Y-15097984D02*
X10949467Y-15107508D01*
X10949467Y-15107508D02*
X10958991Y-15117031D01*
X10958991Y-15117031D02*
X10968515Y-15136079D01*
X10968515Y-15136079D02*
X10978039Y-15174174D01*
X10978039Y-15174174D02*
X10978039Y-15221793D01*
X10978039Y-15221793D02*
X10968515Y-15259888D01*
X10968515Y-15259888D02*
X10958991Y-15278936D01*
X10958991Y-15278936D02*
X10949467Y-15288460D01*
X10949467Y-15288460D02*
X10930420Y-15297984D01*
X10930420Y-15297984D02*
X10911372Y-15297984D01*
X10911372Y-15297984D02*
X10892324Y-15288460D01*
X10892324Y-15288460D02*
X10882801Y-15278936D01*
X10882801Y-15278936D02*
X10873277Y-15259888D01*
X10873277Y-15259888D02*
X10863753Y-15221793D01*
X10863753Y-15221793D02*
X10863753Y-15174174D01*
X10863753Y-15174174D02*
X10873277Y-15136079D01*
X10873277Y-15136079D02*
X10882801Y-15117031D01*
X10882801Y-15117031D02*
X10892324Y-15107508D01*
X10892324Y-15107508D02*
X10911372Y-15097984D01*
X11063753Y-15278936D02*
X11073277Y-15288460D01*
X11073277Y-15288460D02*
X11063753Y-15297984D01*
X11063753Y-15297984D02*
X11054229Y-15288460D01*
X11054229Y-15288460D02*
X11063753Y-15278936D01*
X11063753Y-15278936D02*
X11063753Y-15297984D01*
X11187562Y-15183698D02*
X11168515Y-15174174D01*
X11168515Y-15174174D02*
X11158991Y-15164650D01*
X11158991Y-15164650D02*
X11149467Y-15145603D01*
X11149467Y-15145603D02*
X11149467Y-15136079D01*
X11149467Y-15136079D02*
X11158991Y-15117031D01*
X11158991Y-15117031D02*
X11168515Y-15107508D01*
X11168515Y-15107508D02*
X11187562Y-15097984D01*
X11187562Y-15097984D02*
X11225658Y-15097984D01*
X11225658Y-15097984D02*
X11244705Y-15107508D01*
X11244705Y-15107508D02*
X11254229Y-15117031D01*
X11254229Y-15117031D02*
X11263753Y-15136079D01*
X11263753Y-15136079D02*
X11263753Y-15145603D01*
X11263753Y-15145603D02*
X11254229Y-15164650D01*
X11254229Y-15164650D02*
X11244705Y-15174174D01*
X11244705Y-15174174D02*
X11225658Y-15183698D01*
X11225658Y-15183698D02*
X11187562Y-15183698D01*
X11187562Y-15183698D02*
X11168515Y-15193222D01*
X11168515Y-15193222D02*
X11158991Y-15202746D01*
X11158991Y-15202746D02*
X11149467Y-15221793D01*
X11149467Y-15221793D02*
X11149467Y-15259888D01*
X11149467Y-15259888D02*
X11158991Y-15278936D01*
X11158991Y-15278936D02*
X11168515Y-15288460D01*
X11168515Y-15288460D02*
X11187562Y-15297984D01*
X11187562Y-15297984D02*
X11225658Y-15297984D01*
X11225658Y-15297984D02*
X11244705Y-15288460D01*
X11244705Y-15288460D02*
X11254229Y-15278936D01*
X11254229Y-15278936D02*
X11263753Y-15259888D01*
X11263753Y-15259888D02*
X11263753Y-15221793D01*
X11263753Y-15221793D02*
X11254229Y-15202746D01*
X11254229Y-15202746D02*
X11244705Y-15193222D01*
X11244705Y-15193222D02*
X11225658Y-15183698D01*
X11387562Y-15097984D02*
X11406610Y-15097984D01*
X11406610Y-15097984D02*
X11425658Y-15107508D01*
X11425658Y-15107508D02*
X11435182Y-15117031D01*
X11435182Y-15117031D02*
X11444705Y-15136079D01*
X11444705Y-15136079D02*
X11454229Y-15174174D01*
X11454229Y-15174174D02*
X11454229Y-15221793D01*
X11454229Y-15221793D02*
X11444705Y-15259888D01*
X11444705Y-15259888D02*
X11435182Y-15278936D01*
X11435182Y-15278936D02*
X11425658Y-15288460D01*
X11425658Y-15288460D02*
X11406610Y-15297984D01*
X11406610Y-15297984D02*
X11387562Y-15297984D01*
X11387562Y-15297984D02*
X11368515Y-15288460D01*
X11368515Y-15288460D02*
X11358991Y-15278936D01*
X11358991Y-15278936D02*
X11349467Y-15259888D01*
X11349467Y-15259888D02*
X11339943Y-15221793D01*
X11339943Y-15221793D02*
X11339943Y-15174174D01*
X11339943Y-15174174D02*
X11349467Y-15136079D01*
X11349467Y-15136079D02*
X11358991Y-15117031D01*
X11358991Y-15117031D02*
X11368515Y-15107508D01*
X11368515Y-15107508D02*
X11387562Y-15097984D01*
X11578039Y-15097984D02*
X11597086Y-15097984D01*
X11597086Y-15097984D02*
X11616134Y-15107508D01*
X11616134Y-15107508D02*
X11625658Y-15117031D01*
X11625658Y-15117031D02*
X11635182Y-15136079D01*
X11635182Y-15136079D02*
X11644705Y-15174174D01*
X11644705Y-15174174D02*
X11644705Y-15221793D01*
X11644705Y-15221793D02*
X11635182Y-15259888D01*
X11635182Y-15259888D02*
X11625658Y-15278936D01*
X11625658Y-15278936D02*
X11616134Y-15288460D01*
X11616134Y-15288460D02*
X11597086Y-15297984D01*
X11597086Y-15297984D02*
X11578039Y-15297984D01*
X11578039Y-15297984D02*
X11558991Y-15288460D01*
X11558991Y-15288460D02*
X11549467Y-15278936D01*
X11549467Y-15278936D02*
X11539943Y-15259888D01*
X11539943Y-15259888D02*
X11530420Y-15221793D01*
X11530420Y-15221793D02*
X11530420Y-15174174D01*
X11530420Y-15174174D02*
X11539943Y-15136079D01*
X11539943Y-15136079D02*
X11549467Y-15117031D01*
X11549467Y-15117031D02*
X11558991Y-15107508D01*
X11558991Y-15107508D02*
X11578039Y-15097984D01*
X11730420Y-15297984D02*
X11730420Y-15164650D01*
X11730420Y-15183698D02*
X11739943Y-15174174D01*
X11739943Y-15174174D02*
X11758991Y-15164650D01*
X11758991Y-15164650D02*
X11787563Y-15164650D01*
X11787563Y-15164650D02*
X11806610Y-15174174D01*
X11806610Y-15174174D02*
X11816134Y-15193222D01*
X11816134Y-15193222D02*
X11816134Y-15297984D01*
X11816134Y-15193222D02*
X11825658Y-15174174D01*
X11825658Y-15174174D02*
X11844705Y-15164650D01*
X11844705Y-15164650D02*
X11873277Y-15164650D01*
X11873277Y-15164650D02*
X11892324Y-15174174D01*
X11892324Y-15174174D02*
X11901848Y-15193222D01*
X11901848Y-15193222D02*
X11901848Y-15297984D01*
X11997086Y-15297984D02*
X11997086Y-15164650D01*
X11997086Y-15183698D02*
X12006610Y-15174174D01*
X12006610Y-15174174D02*
X12025658Y-15164650D01*
X12025658Y-15164650D02*
X12054229Y-15164650D01*
X12054229Y-15164650D02*
X12073277Y-15174174D01*
X12073277Y-15174174D02*
X12082801Y-15193222D01*
X12082801Y-15193222D02*
X12082801Y-15297984D01*
X12082801Y-15193222D02*
X12092324Y-15174174D01*
X12092324Y-15174174D02*
X12111372Y-15164650D01*
X12111372Y-15164650D02*
X12139943Y-15164650D01*
X12139943Y-15164650D02*
X12158991Y-15174174D01*
X12158991Y-15174174D02*
X12168515Y-15193222D01*
X12168515Y-15193222D02*
X12168515Y-15297984D01*
X12558991Y-15088460D02*
X12387563Y-15345603D01*
X12816134Y-15097984D02*
X12835182Y-15097984D01*
X12835182Y-15097984D02*
X12854229Y-15107508D01*
X12854229Y-15107508D02*
X12863753Y-15117031D01*
X12863753Y-15117031D02*
X12873277Y-15136079D01*
X12873277Y-15136079D02*
X12882801Y-15174174D01*
X12882801Y-15174174D02*
X12882801Y-15221793D01*
X12882801Y-15221793D02*
X12873277Y-15259888D01*
X12873277Y-15259888D02*
X12863753Y-15278936D01*
X12863753Y-15278936D02*
X12854229Y-15288460D01*
X12854229Y-15288460D02*
X12835182Y-15297984D01*
X12835182Y-15297984D02*
X12816134Y-15297984D01*
X12816134Y-15297984D02*
X12797086Y-15288460D01*
X12797086Y-15288460D02*
X12787563Y-15278936D01*
X12787563Y-15278936D02*
X12778039Y-15259888D01*
X12778039Y-15259888D02*
X12768515Y-15221793D01*
X12768515Y-15221793D02*
X12768515Y-15174174D01*
X12768515Y-15174174D02*
X12778039Y-15136079D01*
X12778039Y-15136079D02*
X12787563Y-15117031D01*
X12787563Y-15117031D02*
X12797086Y-15107508D01*
X12797086Y-15107508D02*
X12816134Y-15097984D01*
X12968515Y-15278936D02*
X12978039Y-15288460D01*
X12978039Y-15288460D02*
X12968515Y-15297984D01*
X12968515Y-15297984D02*
X12958991Y-15288460D01*
X12958991Y-15288460D02*
X12968515Y-15278936D01*
X12968515Y-15278936D02*
X12968515Y-15297984D01*
X13101848Y-15097984D02*
X13120896Y-15097984D01*
X13120896Y-15097984D02*
X13139944Y-15107508D01*
X13139944Y-15107508D02*
X13149467Y-15117031D01*
X13149467Y-15117031D02*
X13158991Y-15136079D01*
X13158991Y-15136079D02*
X13168515Y-15174174D01*
X13168515Y-15174174D02*
X13168515Y-15221793D01*
X13168515Y-15221793D02*
X13158991Y-15259888D01*
X13158991Y-15259888D02*
X13149467Y-15278936D01*
X13149467Y-15278936D02*
X13139944Y-15288460D01*
X13139944Y-15288460D02*
X13120896Y-15297984D01*
X13120896Y-15297984D02*
X13101848Y-15297984D01*
X13101848Y-15297984D02*
X13082801Y-15288460D01*
X13082801Y-15288460D02*
X13073277Y-15278936D01*
X13073277Y-15278936D02*
X13063753Y-15259888D01*
X13063753Y-15259888D02*
X13054229Y-15221793D01*
X13054229Y-15221793D02*
X13054229Y-15174174D01*
X13054229Y-15174174D02*
X13063753Y-15136079D01*
X13063753Y-15136079D02*
X13073277Y-15117031D01*
X13073277Y-15117031D02*
X13082801Y-15107508D01*
X13082801Y-15107508D02*
X13101848Y-15097984D01*
X13235182Y-15097984D02*
X13358991Y-15097984D01*
X13358991Y-15097984D02*
X13292325Y-15174174D01*
X13292325Y-15174174D02*
X13320896Y-15174174D01*
X13320896Y-15174174D02*
X13339944Y-15183698D01*
X13339944Y-15183698D02*
X13349467Y-15193222D01*
X13349467Y-15193222D02*
X13358991Y-15212269D01*
X13358991Y-15212269D02*
X13358991Y-15259888D01*
X13358991Y-15259888D02*
X13349467Y-15278936D01*
X13349467Y-15278936D02*
X13339944Y-15288460D01*
X13339944Y-15288460D02*
X13320896Y-15297984D01*
X13320896Y-15297984D02*
X13263753Y-15297984D01*
X13263753Y-15297984D02*
X13244706Y-15288460D01*
X13244706Y-15288460D02*
X13235182Y-15278936D01*
X13549467Y-15297984D02*
X13435182Y-15297984D01*
X13492325Y-15297984D02*
X13492325Y-15097984D01*
X13492325Y-15097984D02*
X13473277Y-15126555D01*
X13473277Y-15126555D02*
X13454229Y-15145603D01*
X13454229Y-15145603D02*
X13435182Y-15155127D01*
X13730420Y-15097984D02*
X13635182Y-15097984D01*
X13635182Y-15097984D02*
X13625658Y-15193222D01*
X13625658Y-15193222D02*
X13635182Y-15183698D01*
X13635182Y-15183698D02*
X13654229Y-15174174D01*
X13654229Y-15174174D02*
X13701848Y-15174174D01*
X13701848Y-15174174D02*
X13720896Y-15183698D01*
X13720896Y-15183698D02*
X13730420Y-15193222D01*
X13730420Y-15193222D02*
X13739944Y-15212269D01*
X13739944Y-15212269D02*
X13739944Y-15259888D01*
X13739944Y-15259888D02*
X13730420Y-15278936D01*
X13730420Y-15278936D02*
X13720896Y-15288460D01*
X13720896Y-15288460D02*
X13701848Y-15297984D01*
X13701848Y-15297984D02*
X13654229Y-15297984D01*
X13654229Y-15297984D02*
X13635182Y-15288460D01*
X13635182Y-15288460D02*
X13625658Y-15278936D01*
X13816134Y-15097984D02*
X13816134Y-15136079D01*
X13892325Y-15097984D02*
X13892325Y-15136079D01*
X14187563Y-15374174D02*
X14178039Y-15364650D01*
X14178039Y-15364650D02*
X14158991Y-15336079D01*
X14158991Y-15336079D02*
X14149468Y-15317031D01*
X14149468Y-15317031D02*
X14139944Y-15288460D01*
X14139944Y-15288460D02*
X14130420Y-15240841D01*
X14130420Y-15240841D02*
X14130420Y-15202746D01*
X14130420Y-15202746D02*
X14139944Y-15155127D01*
X14139944Y-15155127D02*
X14149468Y-15126555D01*
X14149468Y-15126555D02*
X14158991Y-15107508D01*
X14158991Y-15107508D02*
X14178039Y-15078936D01*
X14178039Y-15078936D02*
X14187563Y-15069412D01*
X14349468Y-15097984D02*
X14311372Y-15097984D01*
X14311372Y-15097984D02*
X14292325Y-15107508D01*
X14292325Y-15107508D02*
X14282801Y-15117031D01*
X14282801Y-15117031D02*
X14263753Y-15145603D01*
X14263753Y-15145603D02*
X14254229Y-15183698D01*
X14254229Y-15183698D02*
X14254229Y-15259888D01*
X14254229Y-15259888D02*
X14263753Y-15278936D01*
X14263753Y-15278936D02*
X14273277Y-15288460D01*
X14273277Y-15288460D02*
X14292325Y-15297984D01*
X14292325Y-15297984D02*
X14330420Y-15297984D01*
X14330420Y-15297984D02*
X14349468Y-15288460D01*
X14349468Y-15288460D02*
X14358991Y-15278936D01*
X14358991Y-15278936D02*
X14368515Y-15259888D01*
X14368515Y-15259888D02*
X14368515Y-15212269D01*
X14368515Y-15212269D02*
X14358991Y-15193222D01*
X14358991Y-15193222D02*
X14349468Y-15183698D01*
X14349468Y-15183698D02*
X14330420Y-15174174D01*
X14330420Y-15174174D02*
X14292325Y-15174174D01*
X14292325Y-15174174D02*
X14273277Y-15183698D01*
X14273277Y-15183698D02*
X14263753Y-15193222D01*
X14263753Y-15193222D02*
X14254229Y-15212269D01*
X14606610Y-15297984D02*
X14606610Y-15097984D01*
X14692325Y-15297984D02*
X14692325Y-15193222D01*
X14692325Y-15193222D02*
X14682801Y-15174174D01*
X14682801Y-15174174D02*
X14663753Y-15164650D01*
X14663753Y-15164650D02*
X14635182Y-15164650D01*
X14635182Y-15164650D02*
X14616134Y-15174174D01*
X14616134Y-15174174D02*
X14606610Y-15183698D01*
X14816134Y-15297984D02*
X14797087Y-15288460D01*
X14797087Y-15288460D02*
X14787563Y-15278936D01*
X14787563Y-15278936D02*
X14778039Y-15259888D01*
X14778039Y-15259888D02*
X14778039Y-15202746D01*
X14778039Y-15202746D02*
X14787563Y-15183698D01*
X14787563Y-15183698D02*
X14797087Y-15174174D01*
X14797087Y-15174174D02*
X14816134Y-15164650D01*
X14816134Y-15164650D02*
X14844706Y-15164650D01*
X14844706Y-15164650D02*
X14863753Y-15174174D01*
X14863753Y-15174174D02*
X14873277Y-15183698D01*
X14873277Y-15183698D02*
X14882801Y-15202746D01*
X14882801Y-15202746D02*
X14882801Y-15259888D01*
X14882801Y-15259888D02*
X14873277Y-15278936D01*
X14873277Y-15278936D02*
X14863753Y-15288460D01*
X14863753Y-15288460D02*
X14844706Y-15297984D01*
X14844706Y-15297984D02*
X14816134Y-15297984D01*
X14997087Y-15297984D02*
X14978039Y-15288460D01*
X14978039Y-15288460D02*
X14968515Y-15269412D01*
X14968515Y-15269412D02*
X14968515Y-15097984D01*
X15149468Y-15288460D02*
X15130420Y-15297984D01*
X15130420Y-15297984D02*
X15092325Y-15297984D01*
X15092325Y-15297984D02*
X15073277Y-15288460D01*
X15073277Y-15288460D02*
X15063753Y-15269412D01*
X15063753Y-15269412D02*
X15063753Y-15193222D01*
X15063753Y-15193222D02*
X15073277Y-15174174D01*
X15073277Y-15174174D02*
X15092325Y-15164650D01*
X15092325Y-15164650D02*
X15130420Y-15164650D01*
X15130420Y-15164650D02*
X15149468Y-15174174D01*
X15149468Y-15174174D02*
X15158991Y-15193222D01*
X15158991Y-15193222D02*
X15158991Y-15212269D01*
X15158991Y-15212269D02*
X15063753Y-15231317D01*
X15235182Y-15288460D02*
X15254230Y-15297984D01*
X15254230Y-15297984D02*
X15292325Y-15297984D01*
X15292325Y-15297984D02*
X15311372Y-15288460D01*
X15311372Y-15288460D02*
X15320896Y-15269412D01*
X15320896Y-15269412D02*
X15320896Y-15259888D01*
X15320896Y-15259888D02*
X15311372Y-15240841D01*
X15311372Y-15240841D02*
X15292325Y-15231317D01*
X15292325Y-15231317D02*
X15263753Y-15231317D01*
X15263753Y-15231317D02*
X15244706Y-15221793D01*
X15244706Y-15221793D02*
X15235182Y-15202746D01*
X15235182Y-15202746D02*
X15235182Y-15193222D01*
X15235182Y-15193222D02*
X15244706Y-15174174D01*
X15244706Y-15174174D02*
X15263753Y-15164650D01*
X15263753Y-15164650D02*
X15292325Y-15164650D01*
X15292325Y-15164650D02*
X15311372Y-15174174D01*
X15387563Y-15374174D02*
X15397087Y-15364650D01*
X15397087Y-15364650D02*
X15416134Y-15336079D01*
X15416134Y-15336079D02*
X15425658Y-15317031D01*
X15425658Y-15317031D02*
X15435182Y-15288460D01*
X15435182Y-15288460D02*
X15444706Y-15240841D01*
X15444706Y-15240841D02*
X15444706Y-15202746D01*
X15444706Y-15202746D02*
X15435182Y-15155127D01*
X15435182Y-15155127D02*
X15425658Y-15126555D01*
X15425658Y-15126555D02*
X15416134Y-15107508D01*
X15416134Y-15107508D02*
X15397087Y-15078936D01*
X15397087Y-15078936D02*
X15387563Y-15069412D01*
D12*
X10570000Y-15428000D02*
X10570000Y-15513000D01*
X10527500Y-15470500D02*
X10612500Y-15470500D01*
D11*
X10911372Y-15361984D02*
X10930420Y-15361984D01*
X10930420Y-15361984D02*
X10949467Y-15371508D01*
X10949467Y-15371508D02*
X10958991Y-15381031D01*
X10958991Y-15381031D02*
X10968515Y-15400079D01*
X10968515Y-15400079D02*
X10978039Y-15438174D01*
X10978039Y-15438174D02*
X10978039Y-15485793D01*
X10978039Y-15485793D02*
X10968515Y-15523888D01*
X10968515Y-15523888D02*
X10958991Y-15542936D01*
X10958991Y-15542936D02*
X10949467Y-15552460D01*
X10949467Y-15552460D02*
X10930420Y-15561984D01*
X10930420Y-15561984D02*
X10911372Y-15561984D01*
X10911372Y-15561984D02*
X10892324Y-15552460D01*
X10892324Y-15552460D02*
X10882801Y-15542936D01*
X10882801Y-15542936D02*
X10873277Y-15523888D01*
X10873277Y-15523888D02*
X10863753Y-15485793D01*
X10863753Y-15485793D02*
X10863753Y-15438174D01*
X10863753Y-15438174D02*
X10873277Y-15400079D01*
X10873277Y-15400079D02*
X10882801Y-15381031D01*
X10882801Y-15381031D02*
X10892324Y-15371508D01*
X10892324Y-15371508D02*
X10911372Y-15361984D01*
X11063753Y-15542936D02*
X11073277Y-15552460D01*
X11073277Y-15552460D02*
X11063753Y-15561984D01*
X11063753Y-15561984D02*
X11054229Y-15552460D01*
X11054229Y-15552460D02*
X11063753Y-15542936D01*
X11063753Y-15542936D02*
X11063753Y-15561984D01*
X11187562Y-15447698D02*
X11168515Y-15438174D01*
X11168515Y-15438174D02*
X11158991Y-15428650D01*
X11158991Y-15428650D02*
X11149467Y-15409603D01*
X11149467Y-15409603D02*
X11149467Y-15400079D01*
X11149467Y-15400079D02*
X11158991Y-15381031D01*
X11158991Y-15381031D02*
X11168515Y-15371508D01*
X11168515Y-15371508D02*
X11187562Y-15361984D01*
X11187562Y-15361984D02*
X11225658Y-15361984D01*
X11225658Y-15361984D02*
X11244705Y-15371508D01*
X11244705Y-15371508D02*
X11254229Y-15381031D01*
X11254229Y-15381031D02*
X11263753Y-15400079D01*
X11263753Y-15400079D02*
X11263753Y-15409603D01*
X11263753Y-15409603D02*
X11254229Y-15428650D01*
X11254229Y-15428650D02*
X11244705Y-15438174D01*
X11244705Y-15438174D02*
X11225658Y-15447698D01*
X11225658Y-15447698D02*
X11187562Y-15447698D01*
X11187562Y-15447698D02*
X11168515Y-15457222D01*
X11168515Y-15457222D02*
X11158991Y-15466746D01*
X11158991Y-15466746D02*
X11149467Y-15485793D01*
X11149467Y-15485793D02*
X11149467Y-15523888D01*
X11149467Y-15523888D02*
X11158991Y-15542936D01*
X11158991Y-15542936D02*
X11168515Y-15552460D01*
X11168515Y-15552460D02*
X11187562Y-15561984D01*
X11187562Y-15561984D02*
X11225658Y-15561984D01*
X11225658Y-15561984D02*
X11244705Y-15552460D01*
X11244705Y-15552460D02*
X11254229Y-15542936D01*
X11254229Y-15542936D02*
X11263753Y-15523888D01*
X11263753Y-15523888D02*
X11263753Y-15485793D01*
X11263753Y-15485793D02*
X11254229Y-15466746D01*
X11254229Y-15466746D02*
X11244705Y-15457222D01*
X11244705Y-15457222D02*
X11225658Y-15447698D01*
X11444705Y-15361984D02*
X11349467Y-15361984D01*
X11349467Y-15361984D02*
X11339943Y-15457222D01*
X11339943Y-15457222D02*
X11349467Y-15447698D01*
X11349467Y-15447698D02*
X11368515Y-15438174D01*
X11368515Y-15438174D02*
X11416134Y-15438174D01*
X11416134Y-15438174D02*
X11435182Y-15447698D01*
X11435182Y-15447698D02*
X11444705Y-15457222D01*
X11444705Y-15457222D02*
X11454229Y-15476269D01*
X11454229Y-15476269D02*
X11454229Y-15523888D01*
X11454229Y-15523888D02*
X11444705Y-15542936D01*
X11444705Y-15542936D02*
X11435182Y-15552460D01*
X11435182Y-15552460D02*
X11416134Y-15561984D01*
X11416134Y-15561984D02*
X11368515Y-15561984D01*
X11368515Y-15561984D02*
X11349467Y-15552460D01*
X11349467Y-15552460D02*
X11339943Y-15542936D01*
X11578039Y-15361984D02*
X11597086Y-15361984D01*
X11597086Y-15361984D02*
X11616134Y-15371508D01*
X11616134Y-15371508D02*
X11625658Y-15381031D01*
X11625658Y-15381031D02*
X11635182Y-15400079D01*
X11635182Y-15400079D02*
X11644705Y-15438174D01*
X11644705Y-15438174D02*
X11644705Y-15485793D01*
X11644705Y-15485793D02*
X11635182Y-15523888D01*
X11635182Y-15523888D02*
X11625658Y-15542936D01*
X11625658Y-15542936D02*
X11616134Y-15552460D01*
X11616134Y-15552460D02*
X11597086Y-15561984D01*
X11597086Y-15561984D02*
X11578039Y-15561984D01*
X11578039Y-15561984D02*
X11558991Y-15552460D01*
X11558991Y-15552460D02*
X11549467Y-15542936D01*
X11549467Y-15542936D02*
X11539943Y-15523888D01*
X11539943Y-15523888D02*
X11530420Y-15485793D01*
X11530420Y-15485793D02*
X11530420Y-15438174D01*
X11530420Y-15438174D02*
X11539943Y-15400079D01*
X11539943Y-15400079D02*
X11549467Y-15381031D01*
X11549467Y-15381031D02*
X11558991Y-15371508D01*
X11558991Y-15371508D02*
X11578039Y-15361984D01*
X11730420Y-15561984D02*
X11730420Y-15428650D01*
X11730420Y-15447698D02*
X11739943Y-15438174D01*
X11739943Y-15438174D02*
X11758991Y-15428650D01*
X11758991Y-15428650D02*
X11787563Y-15428650D01*
X11787563Y-15428650D02*
X11806610Y-15438174D01*
X11806610Y-15438174D02*
X11816134Y-15457222D01*
X11816134Y-15457222D02*
X11816134Y-15561984D01*
X11816134Y-15457222D02*
X11825658Y-15438174D01*
X11825658Y-15438174D02*
X11844705Y-15428650D01*
X11844705Y-15428650D02*
X11873277Y-15428650D01*
X11873277Y-15428650D02*
X11892324Y-15438174D01*
X11892324Y-15438174D02*
X11901848Y-15457222D01*
X11901848Y-15457222D02*
X11901848Y-15561984D01*
X11997086Y-15561984D02*
X11997086Y-15428650D01*
X11997086Y-15447698D02*
X12006610Y-15438174D01*
X12006610Y-15438174D02*
X12025658Y-15428650D01*
X12025658Y-15428650D02*
X12054229Y-15428650D01*
X12054229Y-15428650D02*
X12073277Y-15438174D01*
X12073277Y-15438174D02*
X12082801Y-15457222D01*
X12082801Y-15457222D02*
X12082801Y-15561984D01*
X12082801Y-15457222D02*
X12092324Y-15438174D01*
X12092324Y-15438174D02*
X12111372Y-15428650D01*
X12111372Y-15428650D02*
X12139943Y-15428650D01*
X12139943Y-15428650D02*
X12158991Y-15438174D01*
X12158991Y-15438174D02*
X12168515Y-15457222D01*
X12168515Y-15457222D02*
X12168515Y-15561984D01*
X12558991Y-15352460D02*
X12387563Y-15609603D01*
X12816134Y-15361984D02*
X12835182Y-15361984D01*
X12835182Y-15361984D02*
X12854229Y-15371508D01*
X12854229Y-15371508D02*
X12863753Y-15381031D01*
X12863753Y-15381031D02*
X12873277Y-15400079D01*
X12873277Y-15400079D02*
X12882801Y-15438174D01*
X12882801Y-15438174D02*
X12882801Y-15485793D01*
X12882801Y-15485793D02*
X12873277Y-15523888D01*
X12873277Y-15523888D02*
X12863753Y-15542936D01*
X12863753Y-15542936D02*
X12854229Y-15552460D01*
X12854229Y-15552460D02*
X12835182Y-15561984D01*
X12835182Y-15561984D02*
X12816134Y-15561984D01*
X12816134Y-15561984D02*
X12797086Y-15552460D01*
X12797086Y-15552460D02*
X12787563Y-15542936D01*
X12787563Y-15542936D02*
X12778039Y-15523888D01*
X12778039Y-15523888D02*
X12768515Y-15485793D01*
X12768515Y-15485793D02*
X12768515Y-15438174D01*
X12768515Y-15438174D02*
X12778039Y-15400079D01*
X12778039Y-15400079D02*
X12787563Y-15381031D01*
X12787563Y-15381031D02*
X12797086Y-15371508D01*
X12797086Y-15371508D02*
X12816134Y-15361984D01*
X12968515Y-15542936D02*
X12978039Y-15552460D01*
X12978039Y-15552460D02*
X12968515Y-15561984D01*
X12968515Y-15561984D02*
X12958991Y-15552460D01*
X12958991Y-15552460D02*
X12968515Y-15542936D01*
X12968515Y-15542936D02*
X12968515Y-15561984D01*
X13101848Y-15361984D02*
X13120896Y-15361984D01*
X13120896Y-15361984D02*
X13139944Y-15371508D01*
X13139944Y-15371508D02*
X13149467Y-15381031D01*
X13149467Y-15381031D02*
X13158991Y-15400079D01*
X13158991Y-15400079D02*
X13168515Y-15438174D01*
X13168515Y-15438174D02*
X13168515Y-15485793D01*
X13168515Y-15485793D02*
X13158991Y-15523888D01*
X13158991Y-15523888D02*
X13149467Y-15542936D01*
X13149467Y-15542936D02*
X13139944Y-15552460D01*
X13139944Y-15552460D02*
X13120896Y-15561984D01*
X13120896Y-15561984D02*
X13101848Y-15561984D01*
X13101848Y-15561984D02*
X13082801Y-15552460D01*
X13082801Y-15552460D02*
X13073277Y-15542936D01*
X13073277Y-15542936D02*
X13063753Y-15523888D01*
X13063753Y-15523888D02*
X13054229Y-15485793D01*
X13054229Y-15485793D02*
X13054229Y-15438174D01*
X13054229Y-15438174D02*
X13063753Y-15400079D01*
X13063753Y-15400079D02*
X13073277Y-15381031D01*
X13073277Y-15381031D02*
X13082801Y-15371508D01*
X13082801Y-15371508D02*
X13101848Y-15361984D01*
X13235182Y-15361984D02*
X13358991Y-15361984D01*
X13358991Y-15361984D02*
X13292325Y-15438174D01*
X13292325Y-15438174D02*
X13320896Y-15438174D01*
X13320896Y-15438174D02*
X13339944Y-15447698D01*
X13339944Y-15447698D02*
X13349467Y-15457222D01*
X13349467Y-15457222D02*
X13358991Y-15476269D01*
X13358991Y-15476269D02*
X13358991Y-15523888D01*
X13358991Y-15523888D02*
X13349467Y-15542936D01*
X13349467Y-15542936D02*
X13339944Y-15552460D01*
X13339944Y-15552460D02*
X13320896Y-15561984D01*
X13320896Y-15561984D02*
X13263753Y-15561984D01*
X13263753Y-15561984D02*
X13244706Y-15552460D01*
X13244706Y-15552460D02*
X13235182Y-15542936D01*
X13425658Y-15361984D02*
X13549467Y-15361984D01*
X13549467Y-15361984D02*
X13482801Y-15438174D01*
X13482801Y-15438174D02*
X13511372Y-15438174D01*
X13511372Y-15438174D02*
X13530420Y-15447698D01*
X13530420Y-15447698D02*
X13539944Y-15457222D01*
X13539944Y-15457222D02*
X13549467Y-15476269D01*
X13549467Y-15476269D02*
X13549467Y-15523888D01*
X13549467Y-15523888D02*
X13539944Y-15542936D01*
X13539944Y-15542936D02*
X13530420Y-15552460D01*
X13530420Y-15552460D02*
X13511372Y-15561984D01*
X13511372Y-15561984D02*
X13454229Y-15561984D01*
X13454229Y-15561984D02*
X13435182Y-15552460D01*
X13435182Y-15552460D02*
X13425658Y-15542936D01*
X13730420Y-15361984D02*
X13635182Y-15361984D01*
X13635182Y-15361984D02*
X13625658Y-15457222D01*
X13625658Y-15457222D02*
X13635182Y-15447698D01*
X13635182Y-15447698D02*
X13654229Y-15438174D01*
X13654229Y-15438174D02*
X13701848Y-15438174D01*
X13701848Y-15438174D02*
X13720896Y-15447698D01*
X13720896Y-15447698D02*
X13730420Y-15457222D01*
X13730420Y-15457222D02*
X13739944Y-15476269D01*
X13739944Y-15476269D02*
X13739944Y-15523888D01*
X13739944Y-15523888D02*
X13730420Y-15542936D01*
X13730420Y-15542936D02*
X13720896Y-15552460D01*
X13720896Y-15552460D02*
X13701848Y-15561984D01*
X13701848Y-15561984D02*
X13654229Y-15561984D01*
X13654229Y-15561984D02*
X13635182Y-15552460D01*
X13635182Y-15552460D02*
X13625658Y-15542936D01*
X13816134Y-15361984D02*
X13816134Y-15400079D01*
X13892325Y-15361984D02*
X13892325Y-15400079D01*
X14187563Y-15638174D02*
X14178039Y-15628650D01*
X14178039Y-15628650D02*
X14158991Y-15600079D01*
X14158991Y-15600079D02*
X14149468Y-15581031D01*
X14149468Y-15581031D02*
X14139944Y-15552460D01*
X14139944Y-15552460D02*
X14130420Y-15504841D01*
X14130420Y-15504841D02*
X14130420Y-15466746D01*
X14130420Y-15466746D02*
X14139944Y-15419127D01*
X14139944Y-15419127D02*
X14149468Y-15390555D01*
X14149468Y-15390555D02*
X14158991Y-15371508D01*
X14158991Y-15371508D02*
X14178039Y-15342936D01*
X14178039Y-15342936D02*
X14187563Y-15333412D01*
X14292325Y-15447698D02*
X14273277Y-15438174D01*
X14273277Y-15438174D02*
X14263753Y-15428650D01*
X14263753Y-15428650D02*
X14254229Y-15409603D01*
X14254229Y-15409603D02*
X14254229Y-15400079D01*
X14254229Y-15400079D02*
X14263753Y-15381031D01*
X14263753Y-15381031D02*
X14273277Y-15371508D01*
X14273277Y-15371508D02*
X14292325Y-15361984D01*
X14292325Y-15361984D02*
X14330420Y-15361984D01*
X14330420Y-15361984D02*
X14349468Y-15371508D01*
X14349468Y-15371508D02*
X14358991Y-15381031D01*
X14358991Y-15381031D02*
X14368515Y-15400079D01*
X14368515Y-15400079D02*
X14368515Y-15409603D01*
X14368515Y-15409603D02*
X14358991Y-15428650D01*
X14358991Y-15428650D02*
X14349468Y-15438174D01*
X14349468Y-15438174D02*
X14330420Y-15447698D01*
X14330420Y-15447698D02*
X14292325Y-15447698D01*
X14292325Y-15447698D02*
X14273277Y-15457222D01*
X14273277Y-15457222D02*
X14263753Y-15466746D01*
X14263753Y-15466746D02*
X14254229Y-15485793D01*
X14254229Y-15485793D02*
X14254229Y-15523888D01*
X14254229Y-15523888D02*
X14263753Y-15542936D01*
X14263753Y-15542936D02*
X14273277Y-15552460D01*
X14273277Y-15552460D02*
X14292325Y-15561984D01*
X14292325Y-15561984D02*
X14330420Y-15561984D01*
X14330420Y-15561984D02*
X14349468Y-15552460D01*
X14349468Y-15552460D02*
X14358991Y-15542936D01*
X14358991Y-15542936D02*
X14368515Y-15523888D01*
X14368515Y-15523888D02*
X14368515Y-15485793D01*
X14368515Y-15485793D02*
X14358991Y-15466746D01*
X14358991Y-15466746D02*
X14349468Y-15457222D01*
X14349468Y-15457222D02*
X14330420Y-15447698D01*
X14606610Y-15561984D02*
X14606610Y-15361984D01*
X14692325Y-15561984D02*
X14692325Y-15457222D01*
X14692325Y-15457222D02*
X14682801Y-15438174D01*
X14682801Y-15438174D02*
X14663753Y-15428650D01*
X14663753Y-15428650D02*
X14635182Y-15428650D01*
X14635182Y-15428650D02*
X14616134Y-15438174D01*
X14616134Y-15438174D02*
X14606610Y-15447698D01*
X14816134Y-15561984D02*
X14797087Y-15552460D01*
X14797087Y-15552460D02*
X14787563Y-15542936D01*
X14787563Y-15542936D02*
X14778039Y-15523888D01*
X14778039Y-15523888D02*
X14778039Y-15466746D01*
X14778039Y-15466746D02*
X14787563Y-15447698D01*
X14787563Y-15447698D02*
X14797087Y-15438174D01*
X14797087Y-15438174D02*
X14816134Y-15428650D01*
X14816134Y-15428650D02*
X14844706Y-15428650D01*
X14844706Y-15428650D02*
X14863753Y-15438174D01*
X14863753Y-15438174D02*
X14873277Y-15447698D01*
X14873277Y-15447698D02*
X14882801Y-15466746D01*
X14882801Y-15466746D02*
X14882801Y-15523888D01*
X14882801Y-15523888D02*
X14873277Y-15542936D01*
X14873277Y-15542936D02*
X14863753Y-15552460D01*
X14863753Y-15552460D02*
X14844706Y-15561984D01*
X14844706Y-15561984D02*
X14816134Y-15561984D01*
X14997087Y-15561984D02*
X14978039Y-15552460D01*
X14978039Y-15552460D02*
X14968515Y-15533412D01*
X14968515Y-15533412D02*
X14968515Y-15361984D01*
X15149468Y-15552460D02*
X15130420Y-15561984D01*
X15130420Y-15561984D02*
X15092325Y-15561984D01*
X15092325Y-15561984D02*
X15073277Y-15552460D01*
X15073277Y-15552460D02*
X15063753Y-15533412D01*
X15063753Y-15533412D02*
X15063753Y-15457222D01*
X15063753Y-15457222D02*
X15073277Y-15438174D01*
X15073277Y-15438174D02*
X15092325Y-15428650D01*
X15092325Y-15428650D02*
X15130420Y-15428650D01*
X15130420Y-15428650D02*
X15149468Y-15438174D01*
X15149468Y-15438174D02*
X15158991Y-15457222D01*
X15158991Y-15457222D02*
X15158991Y-15476269D01*
X15158991Y-15476269D02*
X15063753Y-15495317D01*
X15235182Y-15552460D02*
X15254230Y-15561984D01*
X15254230Y-15561984D02*
X15292325Y-15561984D01*
X15292325Y-15561984D02*
X15311372Y-15552460D01*
X15311372Y-15552460D02*
X15320896Y-15533412D01*
X15320896Y-15533412D02*
X15320896Y-15523888D01*
X15320896Y-15523888D02*
X15311372Y-15504841D01*
X15311372Y-15504841D02*
X15292325Y-15495317D01*
X15292325Y-15495317D02*
X15263753Y-15495317D01*
X15263753Y-15495317D02*
X15244706Y-15485793D01*
X15244706Y-15485793D02*
X15235182Y-15466746D01*
X15235182Y-15466746D02*
X15235182Y-15457222D01*
X15235182Y-15457222D02*
X15244706Y-15438174D01*
X15244706Y-15438174D02*
X15263753Y-15428650D01*
X15263753Y-15428650D02*
X15292325Y-15428650D01*
X15292325Y-15428650D02*
X15311372Y-15438174D01*
X15387563Y-15638174D02*
X15397087Y-15628650D01*
X15397087Y-15628650D02*
X15416134Y-15600079D01*
X15416134Y-15600079D02*
X15425658Y-15581031D01*
X15425658Y-15581031D02*
X15435182Y-15552460D01*
X15435182Y-15552460D02*
X15444706Y-15504841D01*
X15444706Y-15504841D02*
X15444706Y-15466746D01*
X15444706Y-15466746D02*
X15435182Y-15419127D01*
X15435182Y-15419127D02*
X15425658Y-15390555D01*
X15425658Y-15390555D02*
X15416134Y-15371508D01*
X15416134Y-15371508D02*
X15397087Y-15342936D01*
X15397087Y-15342936D02*
X15387563Y-15333412D01*
D12*
X10597856Y-15769856D02*
X10597856Y-15699144D01*
X10527144Y-15699144D01*
X10527144Y-15769856D01*
X10597856Y-15769856D01*
D11*
X10978039Y-15825984D02*
X10863753Y-15825984D01*
X10920896Y-15825984D02*
X10920896Y-15625984D01*
X10920896Y-15625984D02*
X10901848Y-15654555D01*
X10901848Y-15654555D02*
X10882801Y-15673603D01*
X10882801Y-15673603D02*
X10863753Y-15683127D01*
X11063753Y-15806936D02*
X11073277Y-15816460D01*
X11073277Y-15816460D02*
X11063753Y-15825984D01*
X11063753Y-15825984D02*
X11054229Y-15816460D01*
X11054229Y-15816460D02*
X11063753Y-15806936D01*
X11063753Y-15806936D02*
X11063753Y-15825984D01*
X11197086Y-15625984D02*
X11216134Y-15625984D01*
X11216134Y-15625984D02*
X11235182Y-15635508D01*
X11235182Y-15635508D02*
X11244705Y-15645031D01*
X11244705Y-15645031D02*
X11254229Y-15664079D01*
X11254229Y-15664079D02*
X11263753Y-15702174D01*
X11263753Y-15702174D02*
X11263753Y-15749793D01*
X11263753Y-15749793D02*
X11254229Y-15787888D01*
X11254229Y-15787888D02*
X11244705Y-15806936D01*
X11244705Y-15806936D02*
X11235182Y-15816460D01*
X11235182Y-15816460D02*
X11216134Y-15825984D01*
X11216134Y-15825984D02*
X11197086Y-15825984D01*
X11197086Y-15825984D02*
X11178039Y-15816460D01*
X11178039Y-15816460D02*
X11168515Y-15806936D01*
X11168515Y-15806936D02*
X11158991Y-15787888D01*
X11158991Y-15787888D02*
X11149467Y-15749793D01*
X11149467Y-15749793D02*
X11149467Y-15702174D01*
X11149467Y-15702174D02*
X11158991Y-15664079D01*
X11158991Y-15664079D02*
X11168515Y-15645031D01*
X11168515Y-15645031D02*
X11178039Y-15635508D01*
X11178039Y-15635508D02*
X11197086Y-15625984D01*
X11387562Y-15625984D02*
X11406610Y-15625984D01*
X11406610Y-15625984D02*
X11425658Y-15635508D01*
X11425658Y-15635508D02*
X11435182Y-15645031D01*
X11435182Y-15645031D02*
X11444705Y-15664079D01*
X11444705Y-15664079D02*
X11454229Y-15702174D01*
X11454229Y-15702174D02*
X11454229Y-15749793D01*
X11454229Y-15749793D02*
X11444705Y-15787888D01*
X11444705Y-15787888D02*
X11435182Y-15806936D01*
X11435182Y-15806936D02*
X11425658Y-15816460D01*
X11425658Y-15816460D02*
X11406610Y-15825984D01*
X11406610Y-15825984D02*
X11387562Y-15825984D01*
X11387562Y-15825984D02*
X11368515Y-15816460D01*
X11368515Y-15816460D02*
X11358991Y-15806936D01*
X11358991Y-15806936D02*
X11349467Y-15787888D01*
X11349467Y-15787888D02*
X11339943Y-15749793D01*
X11339943Y-15749793D02*
X11339943Y-15702174D01*
X11339943Y-15702174D02*
X11349467Y-15664079D01*
X11349467Y-15664079D02*
X11358991Y-15645031D01*
X11358991Y-15645031D02*
X11368515Y-15635508D01*
X11368515Y-15635508D02*
X11387562Y-15625984D01*
X11578039Y-15625984D02*
X11597086Y-15625984D01*
X11597086Y-15625984D02*
X11616134Y-15635508D01*
X11616134Y-15635508D02*
X11625658Y-15645031D01*
X11625658Y-15645031D02*
X11635182Y-15664079D01*
X11635182Y-15664079D02*
X11644705Y-15702174D01*
X11644705Y-15702174D02*
X11644705Y-15749793D01*
X11644705Y-15749793D02*
X11635182Y-15787888D01*
X11635182Y-15787888D02*
X11625658Y-15806936D01*
X11625658Y-15806936D02*
X11616134Y-15816460D01*
X11616134Y-15816460D02*
X11597086Y-15825984D01*
X11597086Y-15825984D02*
X11578039Y-15825984D01*
X11578039Y-15825984D02*
X11558991Y-15816460D01*
X11558991Y-15816460D02*
X11549467Y-15806936D01*
X11549467Y-15806936D02*
X11539943Y-15787888D01*
X11539943Y-15787888D02*
X11530420Y-15749793D01*
X11530420Y-15749793D02*
X11530420Y-15702174D01*
X11530420Y-15702174D02*
X11539943Y-15664079D01*
X11539943Y-15664079D02*
X11549467Y-15645031D01*
X11549467Y-15645031D02*
X11558991Y-15635508D01*
X11558991Y-15635508D02*
X11578039Y-15625984D01*
X11730420Y-15825984D02*
X11730420Y-15692650D01*
X11730420Y-15711698D02*
X11739943Y-15702174D01*
X11739943Y-15702174D02*
X11758991Y-15692650D01*
X11758991Y-15692650D02*
X11787563Y-15692650D01*
X11787563Y-15692650D02*
X11806610Y-15702174D01*
X11806610Y-15702174D02*
X11816134Y-15721222D01*
X11816134Y-15721222D02*
X11816134Y-15825984D01*
X11816134Y-15721222D02*
X11825658Y-15702174D01*
X11825658Y-15702174D02*
X11844705Y-15692650D01*
X11844705Y-15692650D02*
X11873277Y-15692650D01*
X11873277Y-15692650D02*
X11892324Y-15702174D01*
X11892324Y-15702174D02*
X11901848Y-15721222D01*
X11901848Y-15721222D02*
X11901848Y-15825984D01*
X11997086Y-15825984D02*
X11997086Y-15692650D01*
X11997086Y-15711698D02*
X12006610Y-15702174D01*
X12006610Y-15702174D02*
X12025658Y-15692650D01*
X12025658Y-15692650D02*
X12054229Y-15692650D01*
X12054229Y-15692650D02*
X12073277Y-15702174D01*
X12073277Y-15702174D02*
X12082801Y-15721222D01*
X12082801Y-15721222D02*
X12082801Y-15825984D01*
X12082801Y-15721222D02*
X12092324Y-15702174D01*
X12092324Y-15702174D02*
X12111372Y-15692650D01*
X12111372Y-15692650D02*
X12139943Y-15692650D01*
X12139943Y-15692650D02*
X12158991Y-15702174D01*
X12158991Y-15702174D02*
X12168515Y-15721222D01*
X12168515Y-15721222D02*
X12168515Y-15825984D01*
X12558991Y-15616460D02*
X12387563Y-15873603D01*
X12816134Y-15625984D02*
X12835182Y-15625984D01*
X12835182Y-15625984D02*
X12854229Y-15635508D01*
X12854229Y-15635508D02*
X12863753Y-15645031D01*
X12863753Y-15645031D02*
X12873277Y-15664079D01*
X12873277Y-15664079D02*
X12882801Y-15702174D01*
X12882801Y-15702174D02*
X12882801Y-15749793D01*
X12882801Y-15749793D02*
X12873277Y-15787888D01*
X12873277Y-15787888D02*
X12863753Y-15806936D01*
X12863753Y-15806936D02*
X12854229Y-15816460D01*
X12854229Y-15816460D02*
X12835182Y-15825984D01*
X12835182Y-15825984D02*
X12816134Y-15825984D01*
X12816134Y-15825984D02*
X12797086Y-15816460D01*
X12797086Y-15816460D02*
X12787563Y-15806936D01*
X12787563Y-15806936D02*
X12778039Y-15787888D01*
X12778039Y-15787888D02*
X12768515Y-15749793D01*
X12768515Y-15749793D02*
X12768515Y-15702174D01*
X12768515Y-15702174D02*
X12778039Y-15664079D01*
X12778039Y-15664079D02*
X12787563Y-15645031D01*
X12787563Y-15645031D02*
X12797086Y-15635508D01*
X12797086Y-15635508D02*
X12816134Y-15625984D01*
X12968515Y-15806936D02*
X12978039Y-15816460D01*
X12978039Y-15816460D02*
X12968515Y-15825984D01*
X12968515Y-15825984D02*
X12958991Y-15816460D01*
X12958991Y-15816460D02*
X12968515Y-15806936D01*
X12968515Y-15806936D02*
X12968515Y-15825984D01*
X13101848Y-15625984D02*
X13120896Y-15625984D01*
X13120896Y-15625984D02*
X13139944Y-15635508D01*
X13139944Y-15635508D02*
X13149467Y-15645031D01*
X13149467Y-15645031D02*
X13158991Y-15664079D01*
X13158991Y-15664079D02*
X13168515Y-15702174D01*
X13168515Y-15702174D02*
X13168515Y-15749793D01*
X13168515Y-15749793D02*
X13158991Y-15787888D01*
X13158991Y-15787888D02*
X13149467Y-15806936D01*
X13149467Y-15806936D02*
X13139944Y-15816460D01*
X13139944Y-15816460D02*
X13120896Y-15825984D01*
X13120896Y-15825984D02*
X13101848Y-15825984D01*
X13101848Y-15825984D02*
X13082801Y-15816460D01*
X13082801Y-15816460D02*
X13073277Y-15806936D01*
X13073277Y-15806936D02*
X13063753Y-15787888D01*
X13063753Y-15787888D02*
X13054229Y-15749793D01*
X13054229Y-15749793D02*
X13054229Y-15702174D01*
X13054229Y-15702174D02*
X13063753Y-15664079D01*
X13063753Y-15664079D02*
X13073277Y-15645031D01*
X13073277Y-15645031D02*
X13082801Y-15635508D01*
X13082801Y-15635508D02*
X13101848Y-15625984D01*
X13235182Y-15625984D02*
X13358991Y-15625984D01*
X13358991Y-15625984D02*
X13292325Y-15702174D01*
X13292325Y-15702174D02*
X13320896Y-15702174D01*
X13320896Y-15702174D02*
X13339944Y-15711698D01*
X13339944Y-15711698D02*
X13349467Y-15721222D01*
X13349467Y-15721222D02*
X13358991Y-15740269D01*
X13358991Y-15740269D02*
X13358991Y-15787888D01*
X13358991Y-15787888D02*
X13349467Y-15806936D01*
X13349467Y-15806936D02*
X13339944Y-15816460D01*
X13339944Y-15816460D02*
X13320896Y-15825984D01*
X13320896Y-15825984D02*
X13263753Y-15825984D01*
X13263753Y-15825984D02*
X13244706Y-15816460D01*
X13244706Y-15816460D02*
X13235182Y-15806936D01*
X13454229Y-15825984D02*
X13492325Y-15825984D01*
X13492325Y-15825984D02*
X13511372Y-15816460D01*
X13511372Y-15816460D02*
X13520896Y-15806936D01*
X13520896Y-15806936D02*
X13539944Y-15778365D01*
X13539944Y-15778365D02*
X13549467Y-15740269D01*
X13549467Y-15740269D02*
X13549467Y-15664079D01*
X13549467Y-15664079D02*
X13539944Y-15645031D01*
X13539944Y-15645031D02*
X13530420Y-15635508D01*
X13530420Y-15635508D02*
X13511372Y-15625984D01*
X13511372Y-15625984D02*
X13473277Y-15625984D01*
X13473277Y-15625984D02*
X13454229Y-15635508D01*
X13454229Y-15635508D02*
X13444706Y-15645031D01*
X13444706Y-15645031D02*
X13435182Y-15664079D01*
X13435182Y-15664079D02*
X13435182Y-15711698D01*
X13435182Y-15711698D02*
X13444706Y-15730746D01*
X13444706Y-15730746D02*
X13454229Y-15740269D01*
X13454229Y-15740269D02*
X13473277Y-15749793D01*
X13473277Y-15749793D02*
X13511372Y-15749793D01*
X13511372Y-15749793D02*
X13530420Y-15740269D01*
X13530420Y-15740269D02*
X13539944Y-15730746D01*
X13539944Y-15730746D02*
X13549467Y-15711698D01*
X13720896Y-15692650D02*
X13720896Y-15825984D01*
X13673277Y-15616460D02*
X13625658Y-15759317D01*
X13625658Y-15759317D02*
X13749467Y-15759317D01*
X13816134Y-15625984D02*
X13816134Y-15664079D01*
X13892325Y-15625984D02*
X13892325Y-15664079D01*
X14187563Y-15902174D02*
X14178039Y-15892650D01*
X14178039Y-15892650D02*
X14158991Y-15864079D01*
X14158991Y-15864079D02*
X14149468Y-15845031D01*
X14149468Y-15845031D02*
X14139944Y-15816460D01*
X14139944Y-15816460D02*
X14130420Y-15768841D01*
X14130420Y-15768841D02*
X14130420Y-15730746D01*
X14130420Y-15730746D02*
X14139944Y-15683127D01*
X14139944Y-15683127D02*
X14149468Y-15654555D01*
X14149468Y-15654555D02*
X14158991Y-15635508D01*
X14158991Y-15635508D02*
X14178039Y-15606936D01*
X14178039Y-15606936D02*
X14187563Y-15597412D01*
X14368515Y-15825984D02*
X14254229Y-15825984D01*
X14311372Y-15825984D02*
X14311372Y-15625984D01*
X14311372Y-15625984D02*
X14292325Y-15654555D01*
X14292325Y-15654555D02*
X14273277Y-15673603D01*
X14273277Y-15673603D02*
X14254229Y-15683127D01*
X14492325Y-15625984D02*
X14511372Y-15625984D01*
X14511372Y-15625984D02*
X14530420Y-15635508D01*
X14530420Y-15635508D02*
X14539944Y-15645031D01*
X14539944Y-15645031D02*
X14549468Y-15664079D01*
X14549468Y-15664079D02*
X14558991Y-15702174D01*
X14558991Y-15702174D02*
X14558991Y-15749793D01*
X14558991Y-15749793D02*
X14549468Y-15787888D01*
X14549468Y-15787888D02*
X14539944Y-15806936D01*
X14539944Y-15806936D02*
X14530420Y-15816460D01*
X14530420Y-15816460D02*
X14511372Y-15825984D01*
X14511372Y-15825984D02*
X14492325Y-15825984D01*
X14492325Y-15825984D02*
X14473277Y-15816460D01*
X14473277Y-15816460D02*
X14463753Y-15806936D01*
X14463753Y-15806936D02*
X14454229Y-15787888D01*
X14454229Y-15787888D02*
X14444706Y-15749793D01*
X14444706Y-15749793D02*
X14444706Y-15702174D01*
X14444706Y-15702174D02*
X14454229Y-15664079D01*
X14454229Y-15664079D02*
X14463753Y-15645031D01*
X14463753Y-15645031D02*
X14473277Y-15635508D01*
X14473277Y-15635508D02*
X14492325Y-15625984D01*
X14797087Y-15825984D02*
X14797087Y-15625984D01*
X14882801Y-15825984D02*
X14882801Y-15721222D01*
X14882801Y-15721222D02*
X14873277Y-15702174D01*
X14873277Y-15702174D02*
X14854230Y-15692650D01*
X14854230Y-15692650D02*
X14825658Y-15692650D01*
X14825658Y-15692650D02*
X14806610Y-15702174D01*
X14806610Y-15702174D02*
X14797087Y-15711698D01*
X15006610Y-15825984D02*
X14987563Y-15816460D01*
X14987563Y-15816460D02*
X14978039Y-15806936D01*
X14978039Y-15806936D02*
X14968515Y-15787888D01*
X14968515Y-15787888D02*
X14968515Y-15730746D01*
X14968515Y-15730746D02*
X14978039Y-15711698D01*
X14978039Y-15711698D02*
X14987563Y-15702174D01*
X14987563Y-15702174D02*
X15006610Y-15692650D01*
X15006610Y-15692650D02*
X15035182Y-15692650D01*
X15035182Y-15692650D02*
X15054230Y-15702174D01*
X15054230Y-15702174D02*
X15063753Y-15711698D01*
X15063753Y-15711698D02*
X15073277Y-15730746D01*
X15073277Y-15730746D02*
X15073277Y-15787888D01*
X15073277Y-15787888D02*
X15063753Y-15806936D01*
X15063753Y-15806936D02*
X15054230Y-15816460D01*
X15054230Y-15816460D02*
X15035182Y-15825984D01*
X15035182Y-15825984D02*
X15006610Y-15825984D01*
X15187563Y-15825984D02*
X15168515Y-15816460D01*
X15168515Y-15816460D02*
X15158991Y-15797412D01*
X15158991Y-15797412D02*
X15158991Y-15625984D01*
X15339944Y-15816460D02*
X15320896Y-15825984D01*
X15320896Y-15825984D02*
X15282801Y-15825984D01*
X15282801Y-15825984D02*
X15263753Y-15816460D01*
X15263753Y-15816460D02*
X15254230Y-15797412D01*
X15254230Y-15797412D02*
X15254230Y-15721222D01*
X15254230Y-15721222D02*
X15263753Y-15702174D01*
X15263753Y-15702174D02*
X15282801Y-15692650D01*
X15282801Y-15692650D02*
X15320896Y-15692650D01*
X15320896Y-15692650D02*
X15339944Y-15702174D01*
X15339944Y-15702174D02*
X15349468Y-15721222D01*
X15349468Y-15721222D02*
X15349468Y-15740269D01*
X15349468Y-15740269D02*
X15254230Y-15759317D01*
X15425658Y-15816460D02*
X15444706Y-15825984D01*
X15444706Y-15825984D02*
X15482801Y-15825984D01*
X15482801Y-15825984D02*
X15501849Y-15816460D01*
X15501849Y-15816460D02*
X15511372Y-15797412D01*
X15511372Y-15797412D02*
X15511372Y-15787888D01*
X15511372Y-15787888D02*
X15501849Y-15768841D01*
X15501849Y-15768841D02*
X15482801Y-15759317D01*
X15482801Y-15759317D02*
X15454230Y-15759317D01*
X15454230Y-15759317D02*
X15435182Y-15749793D01*
X15435182Y-15749793D02*
X15425658Y-15730746D01*
X15425658Y-15730746D02*
X15425658Y-15721222D01*
X15425658Y-15721222D02*
X15435182Y-15702174D01*
X15435182Y-15702174D02*
X15454230Y-15692650D01*
X15454230Y-15692650D02*
X15482801Y-15692650D01*
X15482801Y-15692650D02*
X15501849Y-15702174D01*
X15749468Y-15749793D02*
X15901849Y-15749793D01*
X15825658Y-15825984D02*
X15825658Y-15673603D01*
X16139944Y-15645031D02*
X16149468Y-15635508D01*
X16149468Y-15635508D02*
X16168515Y-15625984D01*
X16168515Y-15625984D02*
X16216134Y-15625984D01*
X16216134Y-15625984D02*
X16235182Y-15635508D01*
X16235182Y-15635508D02*
X16244706Y-15645031D01*
X16244706Y-15645031D02*
X16254230Y-15664079D01*
X16254230Y-15664079D02*
X16254230Y-15683127D01*
X16254230Y-15683127D02*
X16244706Y-15711698D01*
X16244706Y-15711698D02*
X16130420Y-15825984D01*
X16130420Y-15825984D02*
X16254230Y-15825984D01*
X16482801Y-15816460D02*
X16501849Y-15825984D01*
X16501849Y-15825984D02*
X16539944Y-15825984D01*
X16539944Y-15825984D02*
X16558992Y-15816460D01*
X16558992Y-15816460D02*
X16568515Y-15797412D01*
X16568515Y-15797412D02*
X16568515Y-15787888D01*
X16568515Y-15787888D02*
X16558992Y-15768841D01*
X16558992Y-15768841D02*
X16539944Y-15759317D01*
X16539944Y-15759317D02*
X16511373Y-15759317D01*
X16511373Y-15759317D02*
X16492325Y-15749793D01*
X16492325Y-15749793D02*
X16482801Y-15730746D01*
X16482801Y-15730746D02*
X16482801Y-15721222D01*
X16482801Y-15721222D02*
X16492325Y-15702174D01*
X16492325Y-15702174D02*
X16511373Y-15692650D01*
X16511373Y-15692650D02*
X16539944Y-15692650D01*
X16539944Y-15692650D02*
X16558992Y-15702174D01*
X16682801Y-15825984D02*
X16663754Y-15816460D01*
X16663754Y-15816460D02*
X16654230Y-15797412D01*
X16654230Y-15797412D02*
X16654230Y-15625984D01*
X16787563Y-15825984D02*
X16768515Y-15816460D01*
X16768515Y-15816460D02*
X16758992Y-15806936D01*
X16758992Y-15806936D02*
X16749468Y-15787888D01*
X16749468Y-15787888D02*
X16749468Y-15730746D01*
X16749468Y-15730746D02*
X16758992Y-15711698D01*
X16758992Y-15711698D02*
X16768515Y-15702174D01*
X16768515Y-15702174D02*
X16787563Y-15692650D01*
X16787563Y-15692650D02*
X16816135Y-15692650D01*
X16816135Y-15692650D02*
X16835182Y-15702174D01*
X16835182Y-15702174D02*
X16844706Y-15711698D01*
X16844706Y-15711698D02*
X16854230Y-15730746D01*
X16854230Y-15730746D02*
X16854230Y-15787888D01*
X16854230Y-15787888D02*
X16844706Y-15806936D01*
X16844706Y-15806936D02*
X16835182Y-15816460D01*
X16835182Y-15816460D02*
X16816135Y-15825984D01*
X16816135Y-15825984D02*
X16787563Y-15825984D01*
X16911373Y-15692650D02*
X16987563Y-15692650D01*
X16939944Y-15625984D02*
X16939944Y-15797412D01*
X16939944Y-15797412D02*
X16949468Y-15816460D01*
X16949468Y-15816460D02*
X16968516Y-15825984D01*
X16968516Y-15825984D02*
X16987563Y-15825984D01*
X17044706Y-15816460D02*
X17063754Y-15825984D01*
X17063754Y-15825984D02*
X17101849Y-15825984D01*
X17101849Y-15825984D02*
X17120897Y-15816460D01*
X17120897Y-15816460D02*
X17130420Y-15797412D01*
X17130420Y-15797412D02*
X17130420Y-15787888D01*
X17130420Y-15787888D02*
X17120897Y-15768841D01*
X17120897Y-15768841D02*
X17101849Y-15759317D01*
X17101849Y-15759317D02*
X17073277Y-15759317D01*
X17073277Y-15759317D02*
X17054230Y-15749793D01*
X17054230Y-15749793D02*
X17044706Y-15730746D01*
X17044706Y-15730746D02*
X17044706Y-15721222D01*
X17044706Y-15721222D02*
X17054230Y-15702174D01*
X17054230Y-15702174D02*
X17073277Y-15692650D01*
X17073277Y-15692650D02*
X17101849Y-15692650D01*
X17101849Y-15692650D02*
X17120897Y-15702174D01*
X17197087Y-15902174D02*
X17206611Y-15892650D01*
X17206611Y-15892650D02*
X17225658Y-15864079D01*
X17225658Y-15864079D02*
X17235182Y-15845031D01*
X17235182Y-15845031D02*
X17244706Y-15816460D01*
X17244706Y-15816460D02*
X17254230Y-15768841D01*
X17254230Y-15768841D02*
X17254230Y-15730746D01*
X17254230Y-15730746D02*
X17244706Y-15683127D01*
X17244706Y-15683127D02*
X17235182Y-15654555D01*
X17235182Y-15654555D02*
X17225658Y-15635508D01*
X17225658Y-15635508D02*
X17206611Y-15606936D01*
X17206611Y-15606936D02*
X17197087Y-15597412D01*
D13*
X10557500Y-16053500D02*
X10612500Y-15998500D01*
X10557500Y-15943500D01*
X10502500Y-15998500D01*
X10557500Y-16053500D01*
D11*
X10978039Y-16089984D02*
X10863753Y-16089984D01*
X10920896Y-16089984D02*
X10920896Y-15889984D01*
X10920896Y-15889984D02*
X10901848Y-15918555D01*
X10901848Y-15918555D02*
X10882801Y-15937603D01*
X10882801Y-15937603D02*
X10863753Y-15947127D01*
X11063753Y-16070936D02*
X11073277Y-16080460D01*
X11073277Y-16080460D02*
X11063753Y-16089984D01*
X11063753Y-16089984D02*
X11054229Y-16080460D01*
X11054229Y-16080460D02*
X11063753Y-16070936D01*
X11063753Y-16070936D02*
X11063753Y-16089984D01*
X11263753Y-16089984D02*
X11149467Y-16089984D01*
X11206610Y-16089984D02*
X11206610Y-15889984D01*
X11206610Y-15889984D02*
X11187562Y-15918555D01*
X11187562Y-15918555D02*
X11168515Y-15937603D01*
X11168515Y-15937603D02*
X11149467Y-15947127D01*
X11387562Y-15889984D02*
X11406610Y-15889984D01*
X11406610Y-15889984D02*
X11425658Y-15899508D01*
X11425658Y-15899508D02*
X11435182Y-15909031D01*
X11435182Y-15909031D02*
X11444705Y-15928079D01*
X11444705Y-15928079D02*
X11454229Y-15966174D01*
X11454229Y-15966174D02*
X11454229Y-16013793D01*
X11454229Y-16013793D02*
X11444705Y-16051888D01*
X11444705Y-16051888D02*
X11435182Y-16070936D01*
X11435182Y-16070936D02*
X11425658Y-16080460D01*
X11425658Y-16080460D02*
X11406610Y-16089984D01*
X11406610Y-16089984D02*
X11387562Y-16089984D01*
X11387562Y-16089984D02*
X11368515Y-16080460D01*
X11368515Y-16080460D02*
X11358991Y-16070936D01*
X11358991Y-16070936D02*
X11349467Y-16051888D01*
X11349467Y-16051888D02*
X11339943Y-16013793D01*
X11339943Y-16013793D02*
X11339943Y-15966174D01*
X11339943Y-15966174D02*
X11349467Y-15928079D01*
X11349467Y-15928079D02*
X11358991Y-15909031D01*
X11358991Y-15909031D02*
X11368515Y-15899508D01*
X11368515Y-15899508D02*
X11387562Y-15889984D01*
X11578039Y-15889984D02*
X11597086Y-15889984D01*
X11597086Y-15889984D02*
X11616134Y-15899508D01*
X11616134Y-15899508D02*
X11625658Y-15909031D01*
X11625658Y-15909031D02*
X11635182Y-15928079D01*
X11635182Y-15928079D02*
X11644705Y-15966174D01*
X11644705Y-15966174D02*
X11644705Y-16013793D01*
X11644705Y-16013793D02*
X11635182Y-16051888D01*
X11635182Y-16051888D02*
X11625658Y-16070936D01*
X11625658Y-16070936D02*
X11616134Y-16080460D01*
X11616134Y-16080460D02*
X11597086Y-16089984D01*
X11597086Y-16089984D02*
X11578039Y-16089984D01*
X11578039Y-16089984D02*
X11558991Y-16080460D01*
X11558991Y-16080460D02*
X11549467Y-16070936D01*
X11549467Y-16070936D02*
X11539943Y-16051888D01*
X11539943Y-16051888D02*
X11530420Y-16013793D01*
X11530420Y-16013793D02*
X11530420Y-15966174D01*
X11530420Y-15966174D02*
X11539943Y-15928079D01*
X11539943Y-15928079D02*
X11549467Y-15909031D01*
X11549467Y-15909031D02*
X11558991Y-15899508D01*
X11558991Y-15899508D02*
X11578039Y-15889984D01*
X11730420Y-16089984D02*
X11730420Y-15956650D01*
X11730420Y-15975698D02*
X11739943Y-15966174D01*
X11739943Y-15966174D02*
X11758991Y-15956650D01*
X11758991Y-15956650D02*
X11787563Y-15956650D01*
X11787563Y-15956650D02*
X11806610Y-15966174D01*
X11806610Y-15966174D02*
X11816134Y-15985222D01*
X11816134Y-15985222D02*
X11816134Y-16089984D01*
X11816134Y-15985222D02*
X11825658Y-15966174D01*
X11825658Y-15966174D02*
X11844705Y-15956650D01*
X11844705Y-15956650D02*
X11873277Y-15956650D01*
X11873277Y-15956650D02*
X11892324Y-15966174D01*
X11892324Y-15966174D02*
X11901848Y-15985222D01*
X11901848Y-15985222D02*
X11901848Y-16089984D01*
X11997086Y-16089984D02*
X11997086Y-15956650D01*
X11997086Y-15975698D02*
X12006610Y-15966174D01*
X12006610Y-15966174D02*
X12025658Y-15956650D01*
X12025658Y-15956650D02*
X12054229Y-15956650D01*
X12054229Y-15956650D02*
X12073277Y-15966174D01*
X12073277Y-15966174D02*
X12082801Y-15985222D01*
X12082801Y-15985222D02*
X12082801Y-16089984D01*
X12082801Y-15985222D02*
X12092324Y-15966174D01*
X12092324Y-15966174D02*
X12111372Y-15956650D01*
X12111372Y-15956650D02*
X12139943Y-15956650D01*
X12139943Y-15956650D02*
X12158991Y-15966174D01*
X12158991Y-15966174D02*
X12168515Y-15985222D01*
X12168515Y-15985222D02*
X12168515Y-16089984D01*
X12558991Y-15880460D02*
X12387563Y-16137603D01*
X12816134Y-15889984D02*
X12835182Y-15889984D01*
X12835182Y-15889984D02*
X12854229Y-15899508D01*
X12854229Y-15899508D02*
X12863753Y-15909031D01*
X12863753Y-15909031D02*
X12873277Y-15928079D01*
X12873277Y-15928079D02*
X12882801Y-15966174D01*
X12882801Y-15966174D02*
X12882801Y-16013793D01*
X12882801Y-16013793D02*
X12873277Y-16051888D01*
X12873277Y-16051888D02*
X12863753Y-16070936D01*
X12863753Y-16070936D02*
X12854229Y-16080460D01*
X12854229Y-16080460D02*
X12835182Y-16089984D01*
X12835182Y-16089984D02*
X12816134Y-16089984D01*
X12816134Y-16089984D02*
X12797086Y-16080460D01*
X12797086Y-16080460D02*
X12787563Y-16070936D01*
X12787563Y-16070936D02*
X12778039Y-16051888D01*
X12778039Y-16051888D02*
X12768515Y-16013793D01*
X12768515Y-16013793D02*
X12768515Y-15966174D01*
X12768515Y-15966174D02*
X12778039Y-15928079D01*
X12778039Y-15928079D02*
X12787563Y-15909031D01*
X12787563Y-15909031D02*
X12797086Y-15899508D01*
X12797086Y-15899508D02*
X12816134Y-15889984D01*
X12968515Y-16070936D02*
X12978039Y-16080460D01*
X12978039Y-16080460D02*
X12968515Y-16089984D01*
X12968515Y-16089984D02*
X12958991Y-16080460D01*
X12958991Y-16080460D02*
X12968515Y-16070936D01*
X12968515Y-16070936D02*
X12968515Y-16089984D01*
X13101848Y-15889984D02*
X13120896Y-15889984D01*
X13120896Y-15889984D02*
X13139944Y-15899508D01*
X13139944Y-15899508D02*
X13149467Y-15909031D01*
X13149467Y-15909031D02*
X13158991Y-15928079D01*
X13158991Y-15928079D02*
X13168515Y-15966174D01*
X13168515Y-15966174D02*
X13168515Y-16013793D01*
X13168515Y-16013793D02*
X13158991Y-16051888D01*
X13158991Y-16051888D02*
X13149467Y-16070936D01*
X13149467Y-16070936D02*
X13139944Y-16080460D01*
X13139944Y-16080460D02*
X13120896Y-16089984D01*
X13120896Y-16089984D02*
X13101848Y-16089984D01*
X13101848Y-16089984D02*
X13082801Y-16080460D01*
X13082801Y-16080460D02*
X13073277Y-16070936D01*
X13073277Y-16070936D02*
X13063753Y-16051888D01*
X13063753Y-16051888D02*
X13054229Y-16013793D01*
X13054229Y-16013793D02*
X13054229Y-15966174D01*
X13054229Y-15966174D02*
X13063753Y-15928079D01*
X13063753Y-15928079D02*
X13073277Y-15909031D01*
X13073277Y-15909031D02*
X13082801Y-15899508D01*
X13082801Y-15899508D02*
X13101848Y-15889984D01*
X13339944Y-15956650D02*
X13339944Y-16089984D01*
X13292325Y-15880460D02*
X13244706Y-16023317D01*
X13244706Y-16023317D02*
X13368515Y-16023317D01*
X13425658Y-15889984D02*
X13549467Y-15889984D01*
X13549467Y-15889984D02*
X13482801Y-15966174D01*
X13482801Y-15966174D02*
X13511372Y-15966174D01*
X13511372Y-15966174D02*
X13530420Y-15975698D01*
X13530420Y-15975698D02*
X13539944Y-15985222D01*
X13539944Y-15985222D02*
X13549467Y-16004269D01*
X13549467Y-16004269D02*
X13549467Y-16051888D01*
X13549467Y-16051888D02*
X13539944Y-16070936D01*
X13539944Y-16070936D02*
X13530420Y-16080460D01*
X13530420Y-16080460D02*
X13511372Y-16089984D01*
X13511372Y-16089984D02*
X13454229Y-16089984D01*
X13454229Y-16089984D02*
X13435182Y-16080460D01*
X13435182Y-16080460D02*
X13425658Y-16070936D01*
X13616134Y-15889984D02*
X13739944Y-15889984D01*
X13739944Y-15889984D02*
X13673277Y-15966174D01*
X13673277Y-15966174D02*
X13701848Y-15966174D01*
X13701848Y-15966174D02*
X13720896Y-15975698D01*
X13720896Y-15975698D02*
X13730420Y-15985222D01*
X13730420Y-15985222D02*
X13739944Y-16004269D01*
X13739944Y-16004269D02*
X13739944Y-16051888D01*
X13739944Y-16051888D02*
X13730420Y-16070936D01*
X13730420Y-16070936D02*
X13720896Y-16080460D01*
X13720896Y-16080460D02*
X13701848Y-16089984D01*
X13701848Y-16089984D02*
X13644706Y-16089984D01*
X13644706Y-16089984D02*
X13625658Y-16080460D01*
X13625658Y-16080460D02*
X13616134Y-16070936D01*
X13816134Y-15889984D02*
X13816134Y-15928079D01*
X13892325Y-15889984D02*
X13892325Y-15928079D01*
X14187563Y-16166174D02*
X14178039Y-16156650D01*
X14178039Y-16156650D02*
X14158991Y-16128079D01*
X14158991Y-16128079D02*
X14149468Y-16109031D01*
X14149468Y-16109031D02*
X14139944Y-16080460D01*
X14139944Y-16080460D02*
X14130420Y-16032841D01*
X14130420Y-16032841D02*
X14130420Y-15994746D01*
X14130420Y-15994746D02*
X14139944Y-15947127D01*
X14139944Y-15947127D02*
X14149468Y-15918555D01*
X14149468Y-15918555D02*
X14158991Y-15899508D01*
X14158991Y-15899508D02*
X14178039Y-15870936D01*
X14178039Y-15870936D02*
X14187563Y-15861412D01*
X14254229Y-15909031D02*
X14263753Y-15899508D01*
X14263753Y-15899508D02*
X14282801Y-15889984D01*
X14282801Y-15889984D02*
X14330420Y-15889984D01*
X14330420Y-15889984D02*
X14349468Y-15899508D01*
X14349468Y-15899508D02*
X14358991Y-15909031D01*
X14358991Y-15909031D02*
X14368515Y-15928079D01*
X14368515Y-15928079D02*
X14368515Y-15947127D01*
X14368515Y-15947127D02*
X14358991Y-15975698D01*
X14358991Y-15975698D02*
X14244706Y-16089984D01*
X14244706Y-16089984D02*
X14368515Y-16089984D01*
X14606610Y-16089984D02*
X14606610Y-15889984D01*
X14692325Y-16089984D02*
X14692325Y-15985222D01*
X14692325Y-15985222D02*
X14682801Y-15966174D01*
X14682801Y-15966174D02*
X14663753Y-15956650D01*
X14663753Y-15956650D02*
X14635182Y-15956650D01*
X14635182Y-15956650D02*
X14616134Y-15966174D01*
X14616134Y-15966174D02*
X14606610Y-15975698D01*
X14816134Y-16089984D02*
X14797087Y-16080460D01*
X14797087Y-16080460D02*
X14787563Y-16070936D01*
X14787563Y-16070936D02*
X14778039Y-16051888D01*
X14778039Y-16051888D02*
X14778039Y-15994746D01*
X14778039Y-15994746D02*
X14787563Y-15975698D01*
X14787563Y-15975698D02*
X14797087Y-15966174D01*
X14797087Y-15966174D02*
X14816134Y-15956650D01*
X14816134Y-15956650D02*
X14844706Y-15956650D01*
X14844706Y-15956650D02*
X14863753Y-15966174D01*
X14863753Y-15966174D02*
X14873277Y-15975698D01*
X14873277Y-15975698D02*
X14882801Y-15994746D01*
X14882801Y-15994746D02*
X14882801Y-16051888D01*
X14882801Y-16051888D02*
X14873277Y-16070936D01*
X14873277Y-16070936D02*
X14863753Y-16080460D01*
X14863753Y-16080460D02*
X14844706Y-16089984D01*
X14844706Y-16089984D02*
X14816134Y-16089984D01*
X14997087Y-16089984D02*
X14978039Y-16080460D01*
X14978039Y-16080460D02*
X14968515Y-16061412D01*
X14968515Y-16061412D02*
X14968515Y-15889984D01*
X15149468Y-16080460D02*
X15130420Y-16089984D01*
X15130420Y-16089984D02*
X15092325Y-16089984D01*
X15092325Y-16089984D02*
X15073277Y-16080460D01*
X15073277Y-16080460D02*
X15063753Y-16061412D01*
X15063753Y-16061412D02*
X15063753Y-15985222D01*
X15063753Y-15985222D02*
X15073277Y-15966174D01*
X15073277Y-15966174D02*
X15092325Y-15956650D01*
X15092325Y-15956650D02*
X15130420Y-15956650D01*
X15130420Y-15956650D02*
X15149468Y-15966174D01*
X15149468Y-15966174D02*
X15158991Y-15985222D01*
X15158991Y-15985222D02*
X15158991Y-16004269D01*
X15158991Y-16004269D02*
X15063753Y-16023317D01*
X15235182Y-16080460D02*
X15254230Y-16089984D01*
X15254230Y-16089984D02*
X15292325Y-16089984D01*
X15292325Y-16089984D02*
X15311372Y-16080460D01*
X15311372Y-16080460D02*
X15320896Y-16061412D01*
X15320896Y-16061412D02*
X15320896Y-16051888D01*
X15320896Y-16051888D02*
X15311372Y-16032841D01*
X15311372Y-16032841D02*
X15292325Y-16023317D01*
X15292325Y-16023317D02*
X15263753Y-16023317D01*
X15263753Y-16023317D02*
X15244706Y-16013793D01*
X15244706Y-16013793D02*
X15235182Y-15994746D01*
X15235182Y-15994746D02*
X15235182Y-15985222D01*
X15235182Y-15985222D02*
X15244706Y-15966174D01*
X15244706Y-15966174D02*
X15263753Y-15956650D01*
X15263753Y-15956650D02*
X15292325Y-15956650D01*
X15292325Y-15956650D02*
X15311372Y-15966174D01*
X15387563Y-16166174D02*
X15397087Y-16156650D01*
X15397087Y-16156650D02*
X15416134Y-16128079D01*
X15416134Y-16128079D02*
X15425658Y-16109031D01*
X15425658Y-16109031D02*
X15435182Y-16080460D01*
X15435182Y-16080460D02*
X15444706Y-16032841D01*
X15444706Y-16032841D02*
X15444706Y-15994746D01*
X15444706Y-15994746D02*
X15435182Y-15947127D01*
X15435182Y-15947127D02*
X15425658Y-15918555D01*
X15425658Y-15918555D02*
X15416134Y-15899508D01*
X15416134Y-15899508D02*
X15397087Y-15870936D01*
X15397087Y-15870936D02*
X15387563Y-15861412D01*
D14*
X10492500Y-16202500D02*
X10612500Y-16322500D01*
X10612500Y-16202500D02*
X10492500Y-16322500D01*
X10612500Y-16262500D02*
G75*
G02*
X10492500Y-16262500I-60000J0D01*
G01*
X10492500Y-16262500D02*
G75*
G02*
X10612500Y-16262500I60000J0D01*
G01*
D11*
X10978039Y-16353984D02*
X10863753Y-16353984D01*
X10920896Y-16353984D02*
X10920896Y-16153984D01*
X10920896Y-16153984D02*
X10901848Y-16182555D01*
X10901848Y-16182555D02*
X10882801Y-16201603D01*
X10882801Y-16201603D02*
X10863753Y-16211127D01*
X11063753Y-16334936D02*
X11073277Y-16344460D01*
X11073277Y-16344460D02*
X11063753Y-16353984D01*
X11063753Y-16353984D02*
X11054229Y-16344460D01*
X11054229Y-16344460D02*
X11063753Y-16334936D01*
X11063753Y-16334936D02*
X11063753Y-16353984D01*
X11149467Y-16173031D02*
X11158991Y-16163508D01*
X11158991Y-16163508D02*
X11178039Y-16153984D01*
X11178039Y-16153984D02*
X11225658Y-16153984D01*
X11225658Y-16153984D02*
X11244705Y-16163508D01*
X11244705Y-16163508D02*
X11254229Y-16173031D01*
X11254229Y-16173031D02*
X11263753Y-16192079D01*
X11263753Y-16192079D02*
X11263753Y-16211127D01*
X11263753Y-16211127D02*
X11254229Y-16239698D01*
X11254229Y-16239698D02*
X11139944Y-16353984D01*
X11139944Y-16353984D02*
X11263753Y-16353984D01*
X11387562Y-16153984D02*
X11406610Y-16153984D01*
X11406610Y-16153984D02*
X11425658Y-16163508D01*
X11425658Y-16163508D02*
X11435182Y-16173031D01*
X11435182Y-16173031D02*
X11444705Y-16192079D01*
X11444705Y-16192079D02*
X11454229Y-16230174D01*
X11454229Y-16230174D02*
X11454229Y-16277793D01*
X11454229Y-16277793D02*
X11444705Y-16315888D01*
X11444705Y-16315888D02*
X11435182Y-16334936D01*
X11435182Y-16334936D02*
X11425658Y-16344460D01*
X11425658Y-16344460D02*
X11406610Y-16353984D01*
X11406610Y-16353984D02*
X11387562Y-16353984D01*
X11387562Y-16353984D02*
X11368515Y-16344460D01*
X11368515Y-16344460D02*
X11358991Y-16334936D01*
X11358991Y-16334936D02*
X11349467Y-16315888D01*
X11349467Y-16315888D02*
X11339943Y-16277793D01*
X11339943Y-16277793D02*
X11339943Y-16230174D01*
X11339943Y-16230174D02*
X11349467Y-16192079D01*
X11349467Y-16192079D02*
X11358991Y-16173031D01*
X11358991Y-16173031D02*
X11368515Y-16163508D01*
X11368515Y-16163508D02*
X11387562Y-16153984D01*
X11578039Y-16153984D02*
X11597086Y-16153984D01*
X11597086Y-16153984D02*
X11616134Y-16163508D01*
X11616134Y-16163508D02*
X11625658Y-16173031D01*
X11625658Y-16173031D02*
X11635182Y-16192079D01*
X11635182Y-16192079D02*
X11644705Y-16230174D01*
X11644705Y-16230174D02*
X11644705Y-16277793D01*
X11644705Y-16277793D02*
X11635182Y-16315888D01*
X11635182Y-16315888D02*
X11625658Y-16334936D01*
X11625658Y-16334936D02*
X11616134Y-16344460D01*
X11616134Y-16344460D02*
X11597086Y-16353984D01*
X11597086Y-16353984D02*
X11578039Y-16353984D01*
X11578039Y-16353984D02*
X11558991Y-16344460D01*
X11558991Y-16344460D02*
X11549467Y-16334936D01*
X11549467Y-16334936D02*
X11539943Y-16315888D01*
X11539943Y-16315888D02*
X11530420Y-16277793D01*
X11530420Y-16277793D02*
X11530420Y-16230174D01*
X11530420Y-16230174D02*
X11539943Y-16192079D01*
X11539943Y-16192079D02*
X11549467Y-16173031D01*
X11549467Y-16173031D02*
X11558991Y-16163508D01*
X11558991Y-16163508D02*
X11578039Y-16153984D01*
X11730420Y-16353984D02*
X11730420Y-16220650D01*
X11730420Y-16239698D02*
X11739943Y-16230174D01*
X11739943Y-16230174D02*
X11758991Y-16220650D01*
X11758991Y-16220650D02*
X11787563Y-16220650D01*
X11787563Y-16220650D02*
X11806610Y-16230174D01*
X11806610Y-16230174D02*
X11816134Y-16249222D01*
X11816134Y-16249222D02*
X11816134Y-16353984D01*
X11816134Y-16249222D02*
X11825658Y-16230174D01*
X11825658Y-16230174D02*
X11844705Y-16220650D01*
X11844705Y-16220650D02*
X11873277Y-16220650D01*
X11873277Y-16220650D02*
X11892324Y-16230174D01*
X11892324Y-16230174D02*
X11901848Y-16249222D01*
X11901848Y-16249222D02*
X11901848Y-16353984D01*
X11997086Y-16353984D02*
X11997086Y-16220650D01*
X11997086Y-16239698D02*
X12006610Y-16230174D01*
X12006610Y-16230174D02*
X12025658Y-16220650D01*
X12025658Y-16220650D02*
X12054229Y-16220650D01*
X12054229Y-16220650D02*
X12073277Y-16230174D01*
X12073277Y-16230174D02*
X12082801Y-16249222D01*
X12082801Y-16249222D02*
X12082801Y-16353984D01*
X12082801Y-16249222D02*
X12092324Y-16230174D01*
X12092324Y-16230174D02*
X12111372Y-16220650D01*
X12111372Y-16220650D02*
X12139943Y-16220650D01*
X12139943Y-16220650D02*
X12158991Y-16230174D01*
X12158991Y-16230174D02*
X12168515Y-16249222D01*
X12168515Y-16249222D02*
X12168515Y-16353984D01*
X12558991Y-16144460D02*
X12387563Y-16401603D01*
X12816134Y-16153984D02*
X12835182Y-16153984D01*
X12835182Y-16153984D02*
X12854229Y-16163508D01*
X12854229Y-16163508D02*
X12863753Y-16173031D01*
X12863753Y-16173031D02*
X12873277Y-16192079D01*
X12873277Y-16192079D02*
X12882801Y-16230174D01*
X12882801Y-16230174D02*
X12882801Y-16277793D01*
X12882801Y-16277793D02*
X12873277Y-16315888D01*
X12873277Y-16315888D02*
X12863753Y-16334936D01*
X12863753Y-16334936D02*
X12854229Y-16344460D01*
X12854229Y-16344460D02*
X12835182Y-16353984D01*
X12835182Y-16353984D02*
X12816134Y-16353984D01*
X12816134Y-16353984D02*
X12797086Y-16344460D01*
X12797086Y-16344460D02*
X12787563Y-16334936D01*
X12787563Y-16334936D02*
X12778039Y-16315888D01*
X12778039Y-16315888D02*
X12768515Y-16277793D01*
X12768515Y-16277793D02*
X12768515Y-16230174D01*
X12768515Y-16230174D02*
X12778039Y-16192079D01*
X12778039Y-16192079D02*
X12787563Y-16173031D01*
X12787563Y-16173031D02*
X12797086Y-16163508D01*
X12797086Y-16163508D02*
X12816134Y-16153984D01*
X12968515Y-16334936D02*
X12978039Y-16344460D01*
X12978039Y-16344460D02*
X12968515Y-16353984D01*
X12968515Y-16353984D02*
X12958991Y-16344460D01*
X12958991Y-16344460D02*
X12968515Y-16334936D01*
X12968515Y-16334936D02*
X12968515Y-16353984D01*
X13101848Y-16153984D02*
X13120896Y-16153984D01*
X13120896Y-16153984D02*
X13139944Y-16163508D01*
X13139944Y-16163508D02*
X13149467Y-16173031D01*
X13149467Y-16173031D02*
X13158991Y-16192079D01*
X13158991Y-16192079D02*
X13168515Y-16230174D01*
X13168515Y-16230174D02*
X13168515Y-16277793D01*
X13168515Y-16277793D02*
X13158991Y-16315888D01*
X13158991Y-16315888D02*
X13149467Y-16334936D01*
X13149467Y-16334936D02*
X13139944Y-16344460D01*
X13139944Y-16344460D02*
X13120896Y-16353984D01*
X13120896Y-16353984D02*
X13101848Y-16353984D01*
X13101848Y-16353984D02*
X13082801Y-16344460D01*
X13082801Y-16344460D02*
X13073277Y-16334936D01*
X13073277Y-16334936D02*
X13063753Y-16315888D01*
X13063753Y-16315888D02*
X13054229Y-16277793D01*
X13054229Y-16277793D02*
X13054229Y-16230174D01*
X13054229Y-16230174D02*
X13063753Y-16192079D01*
X13063753Y-16192079D02*
X13073277Y-16173031D01*
X13073277Y-16173031D02*
X13082801Y-16163508D01*
X13082801Y-16163508D02*
X13101848Y-16153984D01*
X13339944Y-16220650D02*
X13339944Y-16353984D01*
X13292325Y-16144460D02*
X13244706Y-16287317D01*
X13244706Y-16287317D02*
X13368515Y-16287317D01*
X13425658Y-16153984D02*
X13558991Y-16153984D01*
X13558991Y-16153984D02*
X13473277Y-16353984D01*
X13625658Y-16173031D02*
X13635182Y-16163508D01*
X13635182Y-16163508D02*
X13654229Y-16153984D01*
X13654229Y-16153984D02*
X13701848Y-16153984D01*
X13701848Y-16153984D02*
X13720896Y-16163508D01*
X13720896Y-16163508D02*
X13730420Y-16173031D01*
X13730420Y-16173031D02*
X13739944Y-16192079D01*
X13739944Y-16192079D02*
X13739944Y-16211127D01*
X13739944Y-16211127D02*
X13730420Y-16239698D01*
X13730420Y-16239698D02*
X13616134Y-16353984D01*
X13616134Y-16353984D02*
X13739944Y-16353984D01*
X13816134Y-16153984D02*
X13816134Y-16192079D01*
X13892325Y-16153984D02*
X13892325Y-16192079D01*
X14187563Y-16430174D02*
X14178039Y-16420650D01*
X14178039Y-16420650D02*
X14158991Y-16392079D01*
X14158991Y-16392079D02*
X14149468Y-16373031D01*
X14149468Y-16373031D02*
X14139944Y-16344460D01*
X14139944Y-16344460D02*
X14130420Y-16296841D01*
X14130420Y-16296841D02*
X14130420Y-16258746D01*
X14130420Y-16258746D02*
X14139944Y-16211127D01*
X14139944Y-16211127D02*
X14149468Y-16182555D01*
X14149468Y-16182555D02*
X14158991Y-16163508D01*
X14158991Y-16163508D02*
X14178039Y-16134936D01*
X14178039Y-16134936D02*
X14187563Y-16125412D01*
X14254229Y-16173031D02*
X14263753Y-16163508D01*
X14263753Y-16163508D02*
X14282801Y-16153984D01*
X14282801Y-16153984D02*
X14330420Y-16153984D01*
X14330420Y-16153984D02*
X14349468Y-16163508D01*
X14349468Y-16163508D02*
X14358991Y-16173031D01*
X14358991Y-16173031D02*
X14368515Y-16192079D01*
X14368515Y-16192079D02*
X14368515Y-16211127D01*
X14368515Y-16211127D02*
X14358991Y-16239698D01*
X14358991Y-16239698D02*
X14244706Y-16353984D01*
X14244706Y-16353984D02*
X14368515Y-16353984D01*
X14539944Y-16220650D02*
X14539944Y-16353984D01*
X14492325Y-16144460D02*
X14444706Y-16287317D01*
X14444706Y-16287317D02*
X14568515Y-16287317D01*
X14797087Y-16353984D02*
X14797087Y-16153984D01*
X14882801Y-16353984D02*
X14882801Y-16249222D01*
X14882801Y-16249222D02*
X14873277Y-16230174D01*
X14873277Y-16230174D02*
X14854230Y-16220650D01*
X14854230Y-16220650D02*
X14825658Y-16220650D01*
X14825658Y-16220650D02*
X14806610Y-16230174D01*
X14806610Y-16230174D02*
X14797087Y-16239698D01*
X15006610Y-16353984D02*
X14987563Y-16344460D01*
X14987563Y-16344460D02*
X14978039Y-16334936D01*
X14978039Y-16334936D02*
X14968515Y-16315888D01*
X14968515Y-16315888D02*
X14968515Y-16258746D01*
X14968515Y-16258746D02*
X14978039Y-16239698D01*
X14978039Y-16239698D02*
X14987563Y-16230174D01*
X14987563Y-16230174D02*
X15006610Y-16220650D01*
X15006610Y-16220650D02*
X15035182Y-16220650D01*
X15035182Y-16220650D02*
X15054230Y-16230174D01*
X15054230Y-16230174D02*
X15063753Y-16239698D01*
X15063753Y-16239698D02*
X15073277Y-16258746D01*
X15073277Y-16258746D02*
X15073277Y-16315888D01*
X15073277Y-16315888D02*
X15063753Y-16334936D01*
X15063753Y-16334936D02*
X15054230Y-16344460D01*
X15054230Y-16344460D02*
X15035182Y-16353984D01*
X15035182Y-16353984D02*
X15006610Y-16353984D01*
X15187563Y-16353984D02*
X15168515Y-16344460D01*
X15168515Y-16344460D02*
X15158991Y-16325412D01*
X15158991Y-16325412D02*
X15158991Y-16153984D01*
X15339944Y-16344460D02*
X15320896Y-16353984D01*
X15320896Y-16353984D02*
X15282801Y-16353984D01*
X15282801Y-16353984D02*
X15263753Y-16344460D01*
X15263753Y-16344460D02*
X15254230Y-16325412D01*
X15254230Y-16325412D02*
X15254230Y-16249222D01*
X15254230Y-16249222D02*
X15263753Y-16230174D01*
X15263753Y-16230174D02*
X15282801Y-16220650D01*
X15282801Y-16220650D02*
X15320896Y-16220650D01*
X15320896Y-16220650D02*
X15339944Y-16230174D01*
X15339944Y-16230174D02*
X15349468Y-16249222D01*
X15349468Y-16249222D02*
X15349468Y-16268269D01*
X15349468Y-16268269D02*
X15254230Y-16287317D01*
X15425658Y-16344460D02*
X15444706Y-16353984D01*
X15444706Y-16353984D02*
X15482801Y-16353984D01*
X15482801Y-16353984D02*
X15501849Y-16344460D01*
X15501849Y-16344460D02*
X15511372Y-16325412D01*
X15511372Y-16325412D02*
X15511372Y-16315888D01*
X15511372Y-16315888D02*
X15501849Y-16296841D01*
X15501849Y-16296841D02*
X15482801Y-16287317D01*
X15482801Y-16287317D02*
X15454230Y-16287317D01*
X15454230Y-16287317D02*
X15435182Y-16277793D01*
X15435182Y-16277793D02*
X15425658Y-16258746D01*
X15425658Y-16258746D02*
X15425658Y-16249222D01*
X15425658Y-16249222D02*
X15435182Y-16230174D01*
X15435182Y-16230174D02*
X15454230Y-16220650D01*
X15454230Y-16220650D02*
X15482801Y-16220650D01*
X15482801Y-16220650D02*
X15501849Y-16230174D01*
X15578039Y-16430174D02*
X15587563Y-16420650D01*
X15587563Y-16420650D02*
X15606611Y-16392079D01*
X15606611Y-16392079D02*
X15616134Y-16373031D01*
X15616134Y-16373031D02*
X15625658Y-16344460D01*
X15625658Y-16344460D02*
X15635182Y-16296841D01*
X15635182Y-16296841D02*
X15635182Y-16258746D01*
X15635182Y-16258746D02*
X15625658Y-16211127D01*
X15625658Y-16211127D02*
X15616134Y-16182555D01*
X15616134Y-16182555D02*
X15606611Y-16163508D01*
X15606611Y-16163508D02*
X15587563Y-16134936D01*
X15587563Y-16134936D02*
X15578039Y-16125412D01*
D15*
X10482500Y-16461500D02*
X10612500Y-16591500D01*
X10612500Y-16461500D02*
X10482500Y-16591500D01*
X10547500Y-16461500D02*
X10547500Y-16591500D01*
X10482500Y-16526500D02*
X10612500Y-16526500D01*
D11*
X10978039Y-16617984D02*
X10863753Y-16617984D01*
X10920896Y-16617984D02*
X10920896Y-16417984D01*
X10920896Y-16417984D02*
X10901848Y-16446555D01*
X10901848Y-16446555D02*
X10882801Y-16465603D01*
X10882801Y-16465603D02*
X10863753Y-16475127D01*
X11063753Y-16598936D02*
X11073277Y-16608460D01*
X11073277Y-16608460D02*
X11063753Y-16617984D01*
X11063753Y-16617984D02*
X11054229Y-16608460D01*
X11054229Y-16608460D02*
X11063753Y-16598936D01*
X11063753Y-16598936D02*
X11063753Y-16617984D01*
X11139944Y-16417984D02*
X11263753Y-16417984D01*
X11263753Y-16417984D02*
X11197086Y-16494174D01*
X11197086Y-16494174D02*
X11225658Y-16494174D01*
X11225658Y-16494174D02*
X11244705Y-16503698D01*
X11244705Y-16503698D02*
X11254229Y-16513222D01*
X11254229Y-16513222D02*
X11263753Y-16532269D01*
X11263753Y-16532269D02*
X11263753Y-16579888D01*
X11263753Y-16579888D02*
X11254229Y-16598936D01*
X11254229Y-16598936D02*
X11244705Y-16608460D01*
X11244705Y-16608460D02*
X11225658Y-16617984D01*
X11225658Y-16617984D02*
X11168515Y-16617984D01*
X11168515Y-16617984D02*
X11149467Y-16608460D01*
X11149467Y-16608460D02*
X11139944Y-16598936D01*
X11387562Y-16417984D02*
X11406610Y-16417984D01*
X11406610Y-16417984D02*
X11425658Y-16427508D01*
X11425658Y-16427508D02*
X11435182Y-16437031D01*
X11435182Y-16437031D02*
X11444705Y-16456079D01*
X11444705Y-16456079D02*
X11454229Y-16494174D01*
X11454229Y-16494174D02*
X11454229Y-16541793D01*
X11454229Y-16541793D02*
X11444705Y-16579888D01*
X11444705Y-16579888D02*
X11435182Y-16598936D01*
X11435182Y-16598936D02*
X11425658Y-16608460D01*
X11425658Y-16608460D02*
X11406610Y-16617984D01*
X11406610Y-16617984D02*
X11387562Y-16617984D01*
X11387562Y-16617984D02*
X11368515Y-16608460D01*
X11368515Y-16608460D02*
X11358991Y-16598936D01*
X11358991Y-16598936D02*
X11349467Y-16579888D01*
X11349467Y-16579888D02*
X11339943Y-16541793D01*
X11339943Y-16541793D02*
X11339943Y-16494174D01*
X11339943Y-16494174D02*
X11349467Y-16456079D01*
X11349467Y-16456079D02*
X11358991Y-16437031D01*
X11358991Y-16437031D02*
X11368515Y-16427508D01*
X11368515Y-16427508D02*
X11387562Y-16417984D01*
X11578039Y-16417984D02*
X11597086Y-16417984D01*
X11597086Y-16417984D02*
X11616134Y-16427508D01*
X11616134Y-16427508D02*
X11625658Y-16437031D01*
X11625658Y-16437031D02*
X11635182Y-16456079D01*
X11635182Y-16456079D02*
X11644705Y-16494174D01*
X11644705Y-16494174D02*
X11644705Y-16541793D01*
X11644705Y-16541793D02*
X11635182Y-16579888D01*
X11635182Y-16579888D02*
X11625658Y-16598936D01*
X11625658Y-16598936D02*
X11616134Y-16608460D01*
X11616134Y-16608460D02*
X11597086Y-16617984D01*
X11597086Y-16617984D02*
X11578039Y-16617984D01*
X11578039Y-16617984D02*
X11558991Y-16608460D01*
X11558991Y-16608460D02*
X11549467Y-16598936D01*
X11549467Y-16598936D02*
X11539943Y-16579888D01*
X11539943Y-16579888D02*
X11530420Y-16541793D01*
X11530420Y-16541793D02*
X11530420Y-16494174D01*
X11530420Y-16494174D02*
X11539943Y-16456079D01*
X11539943Y-16456079D02*
X11549467Y-16437031D01*
X11549467Y-16437031D02*
X11558991Y-16427508D01*
X11558991Y-16427508D02*
X11578039Y-16417984D01*
X11730420Y-16617984D02*
X11730420Y-16484650D01*
X11730420Y-16503698D02*
X11739943Y-16494174D01*
X11739943Y-16494174D02*
X11758991Y-16484650D01*
X11758991Y-16484650D02*
X11787563Y-16484650D01*
X11787563Y-16484650D02*
X11806610Y-16494174D01*
X11806610Y-16494174D02*
X11816134Y-16513222D01*
X11816134Y-16513222D02*
X11816134Y-16617984D01*
X11816134Y-16513222D02*
X11825658Y-16494174D01*
X11825658Y-16494174D02*
X11844705Y-16484650D01*
X11844705Y-16484650D02*
X11873277Y-16484650D01*
X11873277Y-16484650D02*
X11892324Y-16494174D01*
X11892324Y-16494174D02*
X11901848Y-16513222D01*
X11901848Y-16513222D02*
X11901848Y-16617984D01*
X11997086Y-16617984D02*
X11997086Y-16484650D01*
X11997086Y-16503698D02*
X12006610Y-16494174D01*
X12006610Y-16494174D02*
X12025658Y-16484650D01*
X12025658Y-16484650D02*
X12054229Y-16484650D01*
X12054229Y-16484650D02*
X12073277Y-16494174D01*
X12073277Y-16494174D02*
X12082801Y-16513222D01*
X12082801Y-16513222D02*
X12082801Y-16617984D01*
X12082801Y-16513222D02*
X12092324Y-16494174D01*
X12092324Y-16494174D02*
X12111372Y-16484650D01*
X12111372Y-16484650D02*
X12139943Y-16484650D01*
X12139943Y-16484650D02*
X12158991Y-16494174D01*
X12158991Y-16494174D02*
X12168515Y-16513222D01*
X12168515Y-16513222D02*
X12168515Y-16617984D01*
X12558991Y-16408460D02*
X12387563Y-16665603D01*
X12816134Y-16417984D02*
X12835182Y-16417984D01*
X12835182Y-16417984D02*
X12854229Y-16427508D01*
X12854229Y-16427508D02*
X12863753Y-16437031D01*
X12863753Y-16437031D02*
X12873277Y-16456079D01*
X12873277Y-16456079D02*
X12882801Y-16494174D01*
X12882801Y-16494174D02*
X12882801Y-16541793D01*
X12882801Y-16541793D02*
X12873277Y-16579888D01*
X12873277Y-16579888D02*
X12863753Y-16598936D01*
X12863753Y-16598936D02*
X12854229Y-16608460D01*
X12854229Y-16608460D02*
X12835182Y-16617984D01*
X12835182Y-16617984D02*
X12816134Y-16617984D01*
X12816134Y-16617984D02*
X12797086Y-16608460D01*
X12797086Y-16608460D02*
X12787563Y-16598936D01*
X12787563Y-16598936D02*
X12778039Y-16579888D01*
X12778039Y-16579888D02*
X12768515Y-16541793D01*
X12768515Y-16541793D02*
X12768515Y-16494174D01*
X12768515Y-16494174D02*
X12778039Y-16456079D01*
X12778039Y-16456079D02*
X12787563Y-16437031D01*
X12787563Y-16437031D02*
X12797086Y-16427508D01*
X12797086Y-16427508D02*
X12816134Y-16417984D01*
X12968515Y-16598936D02*
X12978039Y-16608460D01*
X12978039Y-16608460D02*
X12968515Y-16617984D01*
X12968515Y-16617984D02*
X12958991Y-16608460D01*
X12958991Y-16608460D02*
X12968515Y-16598936D01*
X12968515Y-16598936D02*
X12968515Y-16617984D01*
X13101848Y-16417984D02*
X13120896Y-16417984D01*
X13120896Y-16417984D02*
X13139944Y-16427508D01*
X13139944Y-16427508D02*
X13149467Y-16437031D01*
X13149467Y-16437031D02*
X13158991Y-16456079D01*
X13158991Y-16456079D02*
X13168515Y-16494174D01*
X13168515Y-16494174D02*
X13168515Y-16541793D01*
X13168515Y-16541793D02*
X13158991Y-16579888D01*
X13158991Y-16579888D02*
X13149467Y-16598936D01*
X13149467Y-16598936D02*
X13139944Y-16608460D01*
X13139944Y-16608460D02*
X13120896Y-16617984D01*
X13120896Y-16617984D02*
X13101848Y-16617984D01*
X13101848Y-16617984D02*
X13082801Y-16608460D01*
X13082801Y-16608460D02*
X13073277Y-16598936D01*
X13073277Y-16598936D02*
X13063753Y-16579888D01*
X13063753Y-16579888D02*
X13054229Y-16541793D01*
X13054229Y-16541793D02*
X13054229Y-16494174D01*
X13054229Y-16494174D02*
X13063753Y-16456079D01*
X13063753Y-16456079D02*
X13073277Y-16437031D01*
X13073277Y-16437031D02*
X13082801Y-16427508D01*
X13082801Y-16427508D02*
X13101848Y-16417984D01*
X13349467Y-16417984D02*
X13254229Y-16417984D01*
X13254229Y-16417984D02*
X13244706Y-16513222D01*
X13244706Y-16513222D02*
X13254229Y-16503698D01*
X13254229Y-16503698D02*
X13273277Y-16494174D01*
X13273277Y-16494174D02*
X13320896Y-16494174D01*
X13320896Y-16494174D02*
X13339944Y-16503698D01*
X13339944Y-16503698D02*
X13349467Y-16513222D01*
X13349467Y-16513222D02*
X13358991Y-16532269D01*
X13358991Y-16532269D02*
X13358991Y-16579888D01*
X13358991Y-16579888D02*
X13349467Y-16598936D01*
X13349467Y-16598936D02*
X13339944Y-16608460D01*
X13339944Y-16608460D02*
X13320896Y-16617984D01*
X13320896Y-16617984D02*
X13273277Y-16617984D01*
X13273277Y-16617984D02*
X13254229Y-16608460D01*
X13254229Y-16608460D02*
X13244706Y-16598936D01*
X13549467Y-16617984D02*
X13435182Y-16617984D01*
X13492325Y-16617984D02*
X13492325Y-16417984D01*
X13492325Y-16417984D02*
X13473277Y-16446555D01*
X13473277Y-16446555D02*
X13454229Y-16465603D01*
X13454229Y-16465603D02*
X13435182Y-16475127D01*
X13625658Y-16437031D02*
X13635182Y-16427508D01*
X13635182Y-16427508D02*
X13654229Y-16417984D01*
X13654229Y-16417984D02*
X13701848Y-16417984D01*
X13701848Y-16417984D02*
X13720896Y-16427508D01*
X13720896Y-16427508D02*
X13730420Y-16437031D01*
X13730420Y-16437031D02*
X13739944Y-16456079D01*
X13739944Y-16456079D02*
X13739944Y-16475127D01*
X13739944Y-16475127D02*
X13730420Y-16503698D01*
X13730420Y-16503698D02*
X13616134Y-16617984D01*
X13616134Y-16617984D02*
X13739944Y-16617984D01*
X13816134Y-16417984D02*
X13816134Y-16456079D01*
X13892325Y-16417984D02*
X13892325Y-16456079D01*
X14187563Y-16694174D02*
X14178039Y-16684650D01*
X14178039Y-16684650D02*
X14158991Y-16656079D01*
X14158991Y-16656079D02*
X14149468Y-16637031D01*
X14149468Y-16637031D02*
X14139944Y-16608460D01*
X14139944Y-16608460D02*
X14130420Y-16560841D01*
X14130420Y-16560841D02*
X14130420Y-16522746D01*
X14130420Y-16522746D02*
X14139944Y-16475127D01*
X14139944Y-16475127D02*
X14149468Y-16446555D01*
X14149468Y-16446555D02*
X14158991Y-16427508D01*
X14158991Y-16427508D02*
X14178039Y-16398936D01*
X14178039Y-16398936D02*
X14187563Y-16389412D01*
X14349468Y-16484650D02*
X14349468Y-16617984D01*
X14301848Y-16408460D02*
X14254229Y-16551317D01*
X14254229Y-16551317D02*
X14378039Y-16551317D01*
X14606610Y-16617984D02*
X14606610Y-16417984D01*
X14692325Y-16617984D02*
X14692325Y-16513222D01*
X14692325Y-16513222D02*
X14682801Y-16494174D01*
X14682801Y-16494174D02*
X14663753Y-16484650D01*
X14663753Y-16484650D02*
X14635182Y-16484650D01*
X14635182Y-16484650D02*
X14616134Y-16494174D01*
X14616134Y-16494174D02*
X14606610Y-16503698D01*
X14816134Y-16617984D02*
X14797087Y-16608460D01*
X14797087Y-16608460D02*
X14787563Y-16598936D01*
X14787563Y-16598936D02*
X14778039Y-16579888D01*
X14778039Y-16579888D02*
X14778039Y-16522746D01*
X14778039Y-16522746D02*
X14787563Y-16503698D01*
X14787563Y-16503698D02*
X14797087Y-16494174D01*
X14797087Y-16494174D02*
X14816134Y-16484650D01*
X14816134Y-16484650D02*
X14844706Y-16484650D01*
X14844706Y-16484650D02*
X14863753Y-16494174D01*
X14863753Y-16494174D02*
X14873277Y-16503698D01*
X14873277Y-16503698D02*
X14882801Y-16522746D01*
X14882801Y-16522746D02*
X14882801Y-16579888D01*
X14882801Y-16579888D02*
X14873277Y-16598936D01*
X14873277Y-16598936D02*
X14863753Y-16608460D01*
X14863753Y-16608460D02*
X14844706Y-16617984D01*
X14844706Y-16617984D02*
X14816134Y-16617984D01*
X14997087Y-16617984D02*
X14978039Y-16608460D01*
X14978039Y-16608460D02*
X14968515Y-16589412D01*
X14968515Y-16589412D02*
X14968515Y-16417984D01*
X15149468Y-16608460D02*
X15130420Y-16617984D01*
X15130420Y-16617984D02*
X15092325Y-16617984D01*
X15092325Y-16617984D02*
X15073277Y-16608460D01*
X15073277Y-16608460D02*
X15063753Y-16589412D01*
X15063753Y-16589412D02*
X15063753Y-16513222D01*
X15063753Y-16513222D02*
X15073277Y-16494174D01*
X15073277Y-16494174D02*
X15092325Y-16484650D01*
X15092325Y-16484650D02*
X15130420Y-16484650D01*
X15130420Y-16484650D02*
X15149468Y-16494174D01*
X15149468Y-16494174D02*
X15158991Y-16513222D01*
X15158991Y-16513222D02*
X15158991Y-16532269D01*
X15158991Y-16532269D02*
X15063753Y-16551317D01*
X15235182Y-16608460D02*
X15254230Y-16617984D01*
X15254230Y-16617984D02*
X15292325Y-16617984D01*
X15292325Y-16617984D02*
X15311372Y-16608460D01*
X15311372Y-16608460D02*
X15320896Y-16589412D01*
X15320896Y-16589412D02*
X15320896Y-16579888D01*
X15320896Y-16579888D02*
X15311372Y-16560841D01*
X15311372Y-16560841D02*
X15292325Y-16551317D01*
X15292325Y-16551317D02*
X15263753Y-16551317D01*
X15263753Y-16551317D02*
X15244706Y-16541793D01*
X15244706Y-16541793D02*
X15235182Y-16522746D01*
X15235182Y-16522746D02*
X15235182Y-16513222D01*
X15235182Y-16513222D02*
X15244706Y-16494174D01*
X15244706Y-16494174D02*
X15263753Y-16484650D01*
X15263753Y-16484650D02*
X15292325Y-16484650D01*
X15292325Y-16484650D02*
X15311372Y-16494174D01*
X15387563Y-16694174D02*
X15397087Y-16684650D01*
X15397087Y-16684650D02*
X15416134Y-16656079D01*
X15416134Y-16656079D02*
X15425658Y-16637031D01*
X15425658Y-16637031D02*
X15435182Y-16608460D01*
X15435182Y-16608460D02*
X15444706Y-16560841D01*
X15444706Y-16560841D02*
X15444706Y-16522746D01*
X15444706Y-16522746D02*
X15435182Y-16475127D01*
X15435182Y-16475127D02*
X15425658Y-16446555D01*
X15425658Y-16446555D02*
X15416134Y-16427508D01*
X15416134Y-16427508D02*
X15397087Y-16398936D01*
X15397087Y-16398936D02*
X15387563Y-16389412D01*
D16*
X10472500Y-16720500D02*
X10612500Y-16860500D01*
X10612500Y-16720500D02*
X10472500Y-16860500D01*
X10591998Y-16839998D02*
X10591998Y-16741002D01*
X10493002Y-16741002D01*
X10493002Y-16839998D01*
X10591998Y-16839998D01*
D11*
X10978039Y-16881984D02*
X10863753Y-16881984D01*
X10920896Y-16881984D02*
X10920896Y-16681984D01*
X10920896Y-16681984D02*
X10901848Y-16710555D01*
X10901848Y-16710555D02*
X10882801Y-16729603D01*
X10882801Y-16729603D02*
X10863753Y-16739127D01*
X11063753Y-16862936D02*
X11073277Y-16872460D01*
X11073277Y-16872460D02*
X11063753Y-16881984D01*
X11063753Y-16881984D02*
X11054229Y-16872460D01*
X11054229Y-16872460D02*
X11063753Y-16862936D01*
X11063753Y-16862936D02*
X11063753Y-16881984D01*
X11244705Y-16748650D02*
X11244705Y-16881984D01*
X11197086Y-16672460D02*
X11149467Y-16815317D01*
X11149467Y-16815317D02*
X11273277Y-16815317D01*
X11387562Y-16681984D02*
X11406610Y-16681984D01*
X11406610Y-16681984D02*
X11425658Y-16691508D01*
X11425658Y-16691508D02*
X11435182Y-16701031D01*
X11435182Y-16701031D02*
X11444705Y-16720079D01*
X11444705Y-16720079D02*
X11454229Y-16758174D01*
X11454229Y-16758174D02*
X11454229Y-16805793D01*
X11454229Y-16805793D02*
X11444705Y-16843889D01*
X11444705Y-16843889D02*
X11435182Y-16862936D01*
X11435182Y-16862936D02*
X11425658Y-16872460D01*
X11425658Y-16872460D02*
X11406610Y-16881984D01*
X11406610Y-16881984D02*
X11387562Y-16881984D01*
X11387562Y-16881984D02*
X11368515Y-16872460D01*
X11368515Y-16872460D02*
X11358991Y-16862936D01*
X11358991Y-16862936D02*
X11349467Y-16843889D01*
X11349467Y-16843889D02*
X11339943Y-16805793D01*
X11339943Y-16805793D02*
X11339943Y-16758174D01*
X11339943Y-16758174D02*
X11349467Y-16720079D01*
X11349467Y-16720079D02*
X11358991Y-16701031D01*
X11358991Y-16701031D02*
X11368515Y-16691508D01*
X11368515Y-16691508D02*
X11387562Y-16681984D01*
X11578039Y-16681984D02*
X11597086Y-16681984D01*
X11597086Y-16681984D02*
X11616134Y-16691508D01*
X11616134Y-16691508D02*
X11625658Y-16701031D01*
X11625658Y-16701031D02*
X11635182Y-16720079D01*
X11635182Y-16720079D02*
X11644705Y-16758174D01*
X11644705Y-16758174D02*
X11644705Y-16805793D01*
X11644705Y-16805793D02*
X11635182Y-16843889D01*
X11635182Y-16843889D02*
X11625658Y-16862936D01*
X11625658Y-16862936D02*
X11616134Y-16872460D01*
X11616134Y-16872460D02*
X11597086Y-16881984D01*
X11597086Y-16881984D02*
X11578039Y-16881984D01*
X11578039Y-16881984D02*
X11558991Y-16872460D01*
X11558991Y-16872460D02*
X11549467Y-16862936D01*
X11549467Y-16862936D02*
X11539943Y-16843889D01*
X11539943Y-16843889D02*
X11530420Y-16805793D01*
X11530420Y-16805793D02*
X11530420Y-16758174D01*
X11530420Y-16758174D02*
X11539943Y-16720079D01*
X11539943Y-16720079D02*
X11549467Y-16701031D01*
X11549467Y-16701031D02*
X11558991Y-16691508D01*
X11558991Y-16691508D02*
X11578039Y-16681984D01*
X11730420Y-16881984D02*
X11730420Y-16748650D01*
X11730420Y-16767698D02*
X11739943Y-16758174D01*
X11739943Y-16758174D02*
X11758991Y-16748650D01*
X11758991Y-16748650D02*
X11787563Y-16748650D01*
X11787563Y-16748650D02*
X11806610Y-16758174D01*
X11806610Y-16758174D02*
X11816134Y-16777222D01*
X11816134Y-16777222D02*
X11816134Y-16881984D01*
X11816134Y-16777222D02*
X11825658Y-16758174D01*
X11825658Y-16758174D02*
X11844705Y-16748650D01*
X11844705Y-16748650D02*
X11873277Y-16748650D01*
X11873277Y-16748650D02*
X11892324Y-16758174D01*
X11892324Y-16758174D02*
X11901848Y-16777222D01*
X11901848Y-16777222D02*
X11901848Y-16881984D01*
X11997086Y-16881984D02*
X11997086Y-16748650D01*
X11997086Y-16767698D02*
X12006610Y-16758174D01*
X12006610Y-16758174D02*
X12025658Y-16748650D01*
X12025658Y-16748650D02*
X12054229Y-16748650D01*
X12054229Y-16748650D02*
X12073277Y-16758174D01*
X12073277Y-16758174D02*
X12082801Y-16777222D01*
X12082801Y-16777222D02*
X12082801Y-16881984D01*
X12082801Y-16777222D02*
X12092324Y-16758174D01*
X12092324Y-16758174D02*
X12111372Y-16748650D01*
X12111372Y-16748650D02*
X12139943Y-16748650D01*
X12139943Y-16748650D02*
X12158991Y-16758174D01*
X12158991Y-16758174D02*
X12168515Y-16777222D01*
X12168515Y-16777222D02*
X12168515Y-16881984D01*
X12558991Y-16672460D02*
X12387563Y-16929603D01*
X12816134Y-16681984D02*
X12835182Y-16681984D01*
X12835182Y-16681984D02*
X12854229Y-16691508D01*
X12854229Y-16691508D02*
X12863753Y-16701031D01*
X12863753Y-16701031D02*
X12873277Y-16720079D01*
X12873277Y-16720079D02*
X12882801Y-16758174D01*
X12882801Y-16758174D02*
X12882801Y-16805793D01*
X12882801Y-16805793D02*
X12873277Y-16843889D01*
X12873277Y-16843889D02*
X12863753Y-16862936D01*
X12863753Y-16862936D02*
X12854229Y-16872460D01*
X12854229Y-16872460D02*
X12835182Y-16881984D01*
X12835182Y-16881984D02*
X12816134Y-16881984D01*
X12816134Y-16881984D02*
X12797086Y-16872460D01*
X12797086Y-16872460D02*
X12787563Y-16862936D01*
X12787563Y-16862936D02*
X12778039Y-16843889D01*
X12778039Y-16843889D02*
X12768515Y-16805793D01*
X12768515Y-16805793D02*
X12768515Y-16758174D01*
X12768515Y-16758174D02*
X12778039Y-16720079D01*
X12778039Y-16720079D02*
X12787563Y-16701031D01*
X12787563Y-16701031D02*
X12797086Y-16691508D01*
X12797086Y-16691508D02*
X12816134Y-16681984D01*
X12968515Y-16862936D02*
X12978039Y-16872460D01*
X12978039Y-16872460D02*
X12968515Y-16881984D01*
X12968515Y-16881984D02*
X12958991Y-16872460D01*
X12958991Y-16872460D02*
X12968515Y-16862936D01*
X12968515Y-16862936D02*
X12968515Y-16881984D01*
X13101848Y-16681984D02*
X13120896Y-16681984D01*
X13120896Y-16681984D02*
X13139944Y-16691508D01*
X13139944Y-16691508D02*
X13149467Y-16701031D01*
X13149467Y-16701031D02*
X13158991Y-16720079D01*
X13158991Y-16720079D02*
X13168515Y-16758174D01*
X13168515Y-16758174D02*
X13168515Y-16805793D01*
X13168515Y-16805793D02*
X13158991Y-16843889D01*
X13158991Y-16843889D02*
X13149467Y-16862936D01*
X13149467Y-16862936D02*
X13139944Y-16872460D01*
X13139944Y-16872460D02*
X13120896Y-16881984D01*
X13120896Y-16881984D02*
X13101848Y-16881984D01*
X13101848Y-16881984D02*
X13082801Y-16872460D01*
X13082801Y-16872460D02*
X13073277Y-16862936D01*
X13073277Y-16862936D02*
X13063753Y-16843889D01*
X13063753Y-16843889D02*
X13054229Y-16805793D01*
X13054229Y-16805793D02*
X13054229Y-16758174D01*
X13054229Y-16758174D02*
X13063753Y-16720079D01*
X13063753Y-16720079D02*
X13073277Y-16701031D01*
X13073277Y-16701031D02*
X13082801Y-16691508D01*
X13082801Y-16691508D02*
X13101848Y-16681984D01*
X13349467Y-16681984D02*
X13254229Y-16681984D01*
X13254229Y-16681984D02*
X13244706Y-16777222D01*
X13244706Y-16777222D02*
X13254229Y-16767698D01*
X13254229Y-16767698D02*
X13273277Y-16758174D01*
X13273277Y-16758174D02*
X13320896Y-16758174D01*
X13320896Y-16758174D02*
X13339944Y-16767698D01*
X13339944Y-16767698D02*
X13349467Y-16777222D01*
X13349467Y-16777222D02*
X13358991Y-16796270D01*
X13358991Y-16796270D02*
X13358991Y-16843889D01*
X13358991Y-16843889D02*
X13349467Y-16862936D01*
X13349467Y-16862936D02*
X13339944Y-16872460D01*
X13339944Y-16872460D02*
X13320896Y-16881984D01*
X13320896Y-16881984D02*
X13273277Y-16881984D01*
X13273277Y-16881984D02*
X13254229Y-16872460D01*
X13254229Y-16872460D02*
X13244706Y-16862936D01*
X13539944Y-16681984D02*
X13444706Y-16681984D01*
X13444706Y-16681984D02*
X13435182Y-16777222D01*
X13435182Y-16777222D02*
X13444706Y-16767698D01*
X13444706Y-16767698D02*
X13463753Y-16758174D01*
X13463753Y-16758174D02*
X13511372Y-16758174D01*
X13511372Y-16758174D02*
X13530420Y-16767698D01*
X13530420Y-16767698D02*
X13539944Y-16777222D01*
X13539944Y-16777222D02*
X13549467Y-16796270D01*
X13549467Y-16796270D02*
X13549467Y-16843889D01*
X13549467Y-16843889D02*
X13539944Y-16862936D01*
X13539944Y-16862936D02*
X13530420Y-16872460D01*
X13530420Y-16872460D02*
X13511372Y-16881984D01*
X13511372Y-16881984D02*
X13463753Y-16881984D01*
X13463753Y-16881984D02*
X13444706Y-16872460D01*
X13444706Y-16872460D02*
X13435182Y-16862936D01*
X13739944Y-16881984D02*
X13625658Y-16881984D01*
X13682801Y-16881984D02*
X13682801Y-16681984D01*
X13682801Y-16681984D02*
X13663753Y-16710555D01*
X13663753Y-16710555D02*
X13644706Y-16729603D01*
X13644706Y-16729603D02*
X13625658Y-16739127D01*
X13816134Y-16681984D02*
X13816134Y-16720079D01*
X13892325Y-16681984D02*
X13892325Y-16720079D01*
X14187563Y-16958174D02*
X14178039Y-16948650D01*
X14178039Y-16948650D02*
X14158991Y-16920079D01*
X14158991Y-16920079D02*
X14149468Y-16901031D01*
X14149468Y-16901031D02*
X14139944Y-16872460D01*
X14139944Y-16872460D02*
X14130420Y-16824841D01*
X14130420Y-16824841D02*
X14130420Y-16786746D01*
X14130420Y-16786746D02*
X14139944Y-16739127D01*
X14139944Y-16739127D02*
X14149468Y-16710555D01*
X14149468Y-16710555D02*
X14158991Y-16691508D01*
X14158991Y-16691508D02*
X14178039Y-16662936D01*
X14178039Y-16662936D02*
X14187563Y-16653412D01*
X14349468Y-16681984D02*
X14311372Y-16681984D01*
X14311372Y-16681984D02*
X14292325Y-16691508D01*
X14292325Y-16691508D02*
X14282801Y-16701031D01*
X14282801Y-16701031D02*
X14263753Y-16729603D01*
X14263753Y-16729603D02*
X14254229Y-16767698D01*
X14254229Y-16767698D02*
X14254229Y-16843889D01*
X14254229Y-16843889D02*
X14263753Y-16862936D01*
X14263753Y-16862936D02*
X14273277Y-16872460D01*
X14273277Y-16872460D02*
X14292325Y-16881984D01*
X14292325Y-16881984D02*
X14330420Y-16881984D01*
X14330420Y-16881984D02*
X14349468Y-16872460D01*
X14349468Y-16872460D02*
X14358991Y-16862936D01*
X14358991Y-16862936D02*
X14368515Y-16843889D01*
X14368515Y-16843889D02*
X14368515Y-16796270D01*
X14368515Y-16796270D02*
X14358991Y-16777222D01*
X14358991Y-16777222D02*
X14349468Y-16767698D01*
X14349468Y-16767698D02*
X14330420Y-16758174D01*
X14330420Y-16758174D02*
X14292325Y-16758174D01*
X14292325Y-16758174D02*
X14273277Y-16767698D01*
X14273277Y-16767698D02*
X14263753Y-16777222D01*
X14263753Y-16777222D02*
X14254229Y-16796270D01*
X14606610Y-16881984D02*
X14606610Y-16681984D01*
X14692325Y-16881984D02*
X14692325Y-16777222D01*
X14692325Y-16777222D02*
X14682801Y-16758174D01*
X14682801Y-16758174D02*
X14663753Y-16748650D01*
X14663753Y-16748650D02*
X14635182Y-16748650D01*
X14635182Y-16748650D02*
X14616134Y-16758174D01*
X14616134Y-16758174D02*
X14606610Y-16767698D01*
X14816134Y-16881984D02*
X14797087Y-16872460D01*
X14797087Y-16872460D02*
X14787563Y-16862936D01*
X14787563Y-16862936D02*
X14778039Y-16843889D01*
X14778039Y-16843889D02*
X14778039Y-16786746D01*
X14778039Y-16786746D02*
X14787563Y-16767698D01*
X14787563Y-16767698D02*
X14797087Y-16758174D01*
X14797087Y-16758174D02*
X14816134Y-16748650D01*
X14816134Y-16748650D02*
X14844706Y-16748650D01*
X14844706Y-16748650D02*
X14863753Y-16758174D01*
X14863753Y-16758174D02*
X14873277Y-16767698D01*
X14873277Y-16767698D02*
X14882801Y-16786746D01*
X14882801Y-16786746D02*
X14882801Y-16843889D01*
X14882801Y-16843889D02*
X14873277Y-16862936D01*
X14873277Y-16862936D02*
X14863753Y-16872460D01*
X14863753Y-16872460D02*
X14844706Y-16881984D01*
X14844706Y-16881984D02*
X14816134Y-16881984D01*
X14997087Y-16881984D02*
X14978039Y-16872460D01*
X14978039Y-16872460D02*
X14968515Y-16853412D01*
X14968515Y-16853412D02*
X14968515Y-16681984D01*
X15149468Y-16872460D02*
X15130420Y-16881984D01*
X15130420Y-16881984D02*
X15092325Y-16881984D01*
X15092325Y-16881984D02*
X15073277Y-16872460D01*
X15073277Y-16872460D02*
X15063753Y-16853412D01*
X15063753Y-16853412D02*
X15063753Y-16777222D01*
X15063753Y-16777222D02*
X15073277Y-16758174D01*
X15073277Y-16758174D02*
X15092325Y-16748650D01*
X15092325Y-16748650D02*
X15130420Y-16748650D01*
X15130420Y-16748650D02*
X15149468Y-16758174D01*
X15149468Y-16758174D02*
X15158991Y-16777222D01*
X15158991Y-16777222D02*
X15158991Y-16796270D01*
X15158991Y-16796270D02*
X15063753Y-16815317D01*
X15235182Y-16872460D02*
X15254230Y-16881984D01*
X15254230Y-16881984D02*
X15292325Y-16881984D01*
X15292325Y-16881984D02*
X15311372Y-16872460D01*
X15311372Y-16872460D02*
X15320896Y-16853412D01*
X15320896Y-16853412D02*
X15320896Y-16843889D01*
X15320896Y-16843889D02*
X15311372Y-16824841D01*
X15311372Y-16824841D02*
X15292325Y-16815317D01*
X15292325Y-16815317D02*
X15263753Y-16815317D01*
X15263753Y-16815317D02*
X15244706Y-16805793D01*
X15244706Y-16805793D02*
X15235182Y-16786746D01*
X15235182Y-16786746D02*
X15235182Y-16777222D01*
X15235182Y-16777222D02*
X15244706Y-16758174D01*
X15244706Y-16758174D02*
X15263753Y-16748650D01*
X15263753Y-16748650D02*
X15292325Y-16748650D01*
X15292325Y-16748650D02*
X15311372Y-16758174D01*
X15558992Y-16805793D02*
X15711373Y-16805793D01*
X15635182Y-16881984D02*
X15635182Y-16729603D01*
X15949468Y-16701031D02*
X15958992Y-16691508D01*
X15958992Y-16691508D02*
X15978039Y-16681984D01*
X15978039Y-16681984D02*
X16025658Y-16681984D01*
X16025658Y-16681984D02*
X16044706Y-16691508D01*
X16044706Y-16691508D02*
X16054230Y-16701031D01*
X16054230Y-16701031D02*
X16063753Y-16720079D01*
X16063753Y-16720079D02*
X16063753Y-16739127D01*
X16063753Y-16739127D02*
X16054230Y-16767698D01*
X16054230Y-16767698D02*
X15939944Y-16881984D01*
X15939944Y-16881984D02*
X16063753Y-16881984D01*
X16292325Y-16872460D02*
X16311373Y-16881984D01*
X16311373Y-16881984D02*
X16349468Y-16881984D01*
X16349468Y-16881984D02*
X16368515Y-16872460D01*
X16368515Y-16872460D02*
X16378039Y-16853412D01*
X16378039Y-16853412D02*
X16378039Y-16843889D01*
X16378039Y-16843889D02*
X16368515Y-16824841D01*
X16368515Y-16824841D02*
X16349468Y-16815317D01*
X16349468Y-16815317D02*
X16320896Y-16815317D01*
X16320896Y-16815317D02*
X16301849Y-16805793D01*
X16301849Y-16805793D02*
X16292325Y-16786746D01*
X16292325Y-16786746D02*
X16292325Y-16777222D01*
X16292325Y-16777222D02*
X16301849Y-16758174D01*
X16301849Y-16758174D02*
X16320896Y-16748650D01*
X16320896Y-16748650D02*
X16349468Y-16748650D01*
X16349468Y-16748650D02*
X16368515Y-16758174D01*
X16492325Y-16881984D02*
X16473277Y-16872460D01*
X16473277Y-16872460D02*
X16463754Y-16853412D01*
X16463754Y-16853412D02*
X16463754Y-16681984D01*
X16597087Y-16881984D02*
X16578039Y-16872460D01*
X16578039Y-16872460D02*
X16568515Y-16862936D01*
X16568515Y-16862936D02*
X16558992Y-16843889D01*
X16558992Y-16843889D02*
X16558992Y-16786746D01*
X16558992Y-16786746D02*
X16568515Y-16767698D01*
X16568515Y-16767698D02*
X16578039Y-16758174D01*
X16578039Y-16758174D02*
X16597087Y-16748650D01*
X16597087Y-16748650D02*
X16625658Y-16748650D01*
X16625658Y-16748650D02*
X16644706Y-16758174D01*
X16644706Y-16758174D02*
X16654230Y-16767698D01*
X16654230Y-16767698D02*
X16663754Y-16786746D01*
X16663754Y-16786746D02*
X16663754Y-16843889D01*
X16663754Y-16843889D02*
X16654230Y-16862936D01*
X16654230Y-16862936D02*
X16644706Y-16872460D01*
X16644706Y-16872460D02*
X16625658Y-16881984D01*
X16625658Y-16881984D02*
X16597087Y-16881984D01*
X16720896Y-16748650D02*
X16797087Y-16748650D01*
X16749468Y-16681984D02*
X16749468Y-16853412D01*
X16749468Y-16853412D02*
X16758992Y-16872460D01*
X16758992Y-16872460D02*
X16778039Y-16881984D01*
X16778039Y-16881984D02*
X16797087Y-16881984D01*
X16854230Y-16872460D02*
X16873277Y-16881984D01*
X16873277Y-16881984D02*
X16911373Y-16881984D01*
X16911373Y-16881984D02*
X16930420Y-16872460D01*
X16930420Y-16872460D02*
X16939944Y-16853412D01*
X16939944Y-16853412D02*
X16939944Y-16843889D01*
X16939944Y-16843889D02*
X16930420Y-16824841D01*
X16930420Y-16824841D02*
X16911373Y-16815317D01*
X16911373Y-16815317D02*
X16882801Y-16815317D01*
X16882801Y-16815317D02*
X16863754Y-16805793D01*
X16863754Y-16805793D02*
X16854230Y-16786746D01*
X16854230Y-16786746D02*
X16854230Y-16777222D01*
X16854230Y-16777222D02*
X16863754Y-16758174D01*
X16863754Y-16758174D02*
X16882801Y-16748650D01*
X16882801Y-16748650D02*
X16911373Y-16748650D01*
X16911373Y-16748650D02*
X16930420Y-16758174D01*
X17006611Y-16958174D02*
X17016135Y-16948650D01*
X17016135Y-16948650D02*
X17035182Y-16920079D01*
X17035182Y-16920079D02*
X17044706Y-16901031D01*
X17044706Y-16901031D02*
X17054230Y-16872460D01*
X17054230Y-16872460D02*
X17063754Y-16824841D01*
X17063754Y-16824841D02*
X17063754Y-16786746D01*
X17063754Y-16786746D02*
X17054230Y-16739127D01*
X17054230Y-16739127D02*
X17044706Y-16710555D01*
X17044706Y-16710555D02*
X17035182Y-16691508D01*
X17035182Y-16691508D02*
X17016135Y-16662936D01*
X17016135Y-16662936D02*
X17006611Y-16653412D01*
D17*
X10462500Y-16979500D02*
X10612500Y-17129500D01*
X10612500Y-16979500D02*
X10462500Y-17129500D01*
X10537500Y-17129500D02*
X10612500Y-17054500D01*
X10537500Y-16979500D01*
X10462500Y-17054500D01*
X10537500Y-17129500D01*
D11*
X10978039Y-17145984D02*
X10863753Y-17145984D01*
X10920896Y-17145984D02*
X10920896Y-16945984D01*
X10920896Y-16945984D02*
X10901848Y-16974555D01*
X10901848Y-16974555D02*
X10882801Y-16993603D01*
X10882801Y-16993603D02*
X10863753Y-17003127D01*
X11063753Y-17126936D02*
X11073277Y-17136460D01*
X11073277Y-17136460D02*
X11063753Y-17145984D01*
X11063753Y-17145984D02*
X11054229Y-17136460D01*
X11054229Y-17136460D02*
X11063753Y-17126936D01*
X11063753Y-17126936D02*
X11063753Y-17145984D01*
X11254229Y-16945984D02*
X11158991Y-16945984D01*
X11158991Y-16945984D02*
X11149467Y-17041222D01*
X11149467Y-17041222D02*
X11158991Y-17031698D01*
X11158991Y-17031698D02*
X11178039Y-17022174D01*
X11178039Y-17022174D02*
X11225658Y-17022174D01*
X11225658Y-17022174D02*
X11244705Y-17031698D01*
X11244705Y-17031698D02*
X11254229Y-17041222D01*
X11254229Y-17041222D02*
X11263753Y-17060270D01*
X11263753Y-17060270D02*
X11263753Y-17107889D01*
X11263753Y-17107889D02*
X11254229Y-17126936D01*
X11254229Y-17126936D02*
X11244705Y-17136460D01*
X11244705Y-17136460D02*
X11225658Y-17145984D01*
X11225658Y-17145984D02*
X11178039Y-17145984D01*
X11178039Y-17145984D02*
X11158991Y-17136460D01*
X11158991Y-17136460D02*
X11149467Y-17126936D01*
X11387562Y-16945984D02*
X11406610Y-16945984D01*
X11406610Y-16945984D02*
X11425658Y-16955508D01*
X11425658Y-16955508D02*
X11435182Y-16965031D01*
X11435182Y-16965031D02*
X11444705Y-16984079D01*
X11444705Y-16984079D02*
X11454229Y-17022174D01*
X11454229Y-17022174D02*
X11454229Y-17069793D01*
X11454229Y-17069793D02*
X11444705Y-17107889D01*
X11444705Y-17107889D02*
X11435182Y-17126936D01*
X11435182Y-17126936D02*
X11425658Y-17136460D01*
X11425658Y-17136460D02*
X11406610Y-17145984D01*
X11406610Y-17145984D02*
X11387562Y-17145984D01*
X11387562Y-17145984D02*
X11368515Y-17136460D01*
X11368515Y-17136460D02*
X11358991Y-17126936D01*
X11358991Y-17126936D02*
X11349467Y-17107889D01*
X11349467Y-17107889D02*
X11339943Y-17069793D01*
X11339943Y-17069793D02*
X11339943Y-17022174D01*
X11339943Y-17022174D02*
X11349467Y-16984079D01*
X11349467Y-16984079D02*
X11358991Y-16965031D01*
X11358991Y-16965031D02*
X11368515Y-16955508D01*
X11368515Y-16955508D02*
X11387562Y-16945984D01*
X11578039Y-16945984D02*
X11597086Y-16945984D01*
X11597086Y-16945984D02*
X11616134Y-16955508D01*
X11616134Y-16955508D02*
X11625658Y-16965031D01*
X11625658Y-16965031D02*
X11635182Y-16984079D01*
X11635182Y-16984079D02*
X11644705Y-17022174D01*
X11644705Y-17022174D02*
X11644705Y-17069793D01*
X11644705Y-17069793D02*
X11635182Y-17107889D01*
X11635182Y-17107889D02*
X11625658Y-17126936D01*
X11625658Y-17126936D02*
X11616134Y-17136460D01*
X11616134Y-17136460D02*
X11597086Y-17145984D01*
X11597086Y-17145984D02*
X11578039Y-17145984D01*
X11578039Y-17145984D02*
X11558991Y-17136460D01*
X11558991Y-17136460D02*
X11549467Y-17126936D01*
X11549467Y-17126936D02*
X11539943Y-17107889D01*
X11539943Y-17107889D02*
X11530420Y-17069793D01*
X11530420Y-17069793D02*
X11530420Y-17022174D01*
X11530420Y-17022174D02*
X11539943Y-16984079D01*
X11539943Y-16984079D02*
X11549467Y-16965031D01*
X11549467Y-16965031D02*
X11558991Y-16955508D01*
X11558991Y-16955508D02*
X11578039Y-16945984D01*
X11730420Y-17145984D02*
X11730420Y-17012650D01*
X11730420Y-17031698D02*
X11739943Y-17022174D01*
X11739943Y-17022174D02*
X11758991Y-17012650D01*
X11758991Y-17012650D02*
X11787563Y-17012650D01*
X11787563Y-17012650D02*
X11806610Y-17022174D01*
X11806610Y-17022174D02*
X11816134Y-17041222D01*
X11816134Y-17041222D02*
X11816134Y-17145984D01*
X11816134Y-17041222D02*
X11825658Y-17022174D01*
X11825658Y-17022174D02*
X11844705Y-17012650D01*
X11844705Y-17012650D02*
X11873277Y-17012650D01*
X11873277Y-17012650D02*
X11892324Y-17022174D01*
X11892324Y-17022174D02*
X11901848Y-17041222D01*
X11901848Y-17041222D02*
X11901848Y-17145984D01*
X11997086Y-17145984D02*
X11997086Y-17012650D01*
X11997086Y-17031698D02*
X12006610Y-17022174D01*
X12006610Y-17022174D02*
X12025658Y-17012650D01*
X12025658Y-17012650D02*
X12054229Y-17012650D01*
X12054229Y-17012650D02*
X12073277Y-17022174D01*
X12073277Y-17022174D02*
X12082801Y-17041222D01*
X12082801Y-17041222D02*
X12082801Y-17145984D01*
X12082801Y-17041222D02*
X12092324Y-17022174D01*
X12092324Y-17022174D02*
X12111372Y-17012650D01*
X12111372Y-17012650D02*
X12139943Y-17012650D01*
X12139943Y-17012650D02*
X12158991Y-17022174D01*
X12158991Y-17022174D02*
X12168515Y-17041222D01*
X12168515Y-17041222D02*
X12168515Y-17145984D01*
X12558991Y-16936460D02*
X12387563Y-17193603D01*
X12816134Y-16945984D02*
X12835182Y-16945984D01*
X12835182Y-16945984D02*
X12854229Y-16955508D01*
X12854229Y-16955508D02*
X12863753Y-16965031D01*
X12863753Y-16965031D02*
X12873277Y-16984079D01*
X12873277Y-16984079D02*
X12882801Y-17022174D01*
X12882801Y-17022174D02*
X12882801Y-17069793D01*
X12882801Y-17069793D02*
X12873277Y-17107889D01*
X12873277Y-17107889D02*
X12863753Y-17126936D01*
X12863753Y-17126936D02*
X12854229Y-17136460D01*
X12854229Y-17136460D02*
X12835182Y-17145984D01*
X12835182Y-17145984D02*
X12816134Y-17145984D01*
X12816134Y-17145984D02*
X12797086Y-17136460D01*
X12797086Y-17136460D02*
X12787563Y-17126936D01*
X12787563Y-17126936D02*
X12778039Y-17107889D01*
X12778039Y-17107889D02*
X12768515Y-17069793D01*
X12768515Y-17069793D02*
X12768515Y-17022174D01*
X12768515Y-17022174D02*
X12778039Y-16984079D01*
X12778039Y-16984079D02*
X12787563Y-16965031D01*
X12787563Y-16965031D02*
X12797086Y-16955508D01*
X12797086Y-16955508D02*
X12816134Y-16945984D01*
X12968515Y-17126936D02*
X12978039Y-17136460D01*
X12978039Y-17136460D02*
X12968515Y-17145984D01*
X12968515Y-17145984D02*
X12958991Y-17136460D01*
X12958991Y-17136460D02*
X12968515Y-17126936D01*
X12968515Y-17126936D02*
X12968515Y-17145984D01*
X13101848Y-16945984D02*
X13120896Y-16945984D01*
X13120896Y-16945984D02*
X13139944Y-16955508D01*
X13139944Y-16955508D02*
X13149467Y-16965031D01*
X13149467Y-16965031D02*
X13158991Y-16984079D01*
X13158991Y-16984079D02*
X13168515Y-17022174D01*
X13168515Y-17022174D02*
X13168515Y-17069793D01*
X13168515Y-17069793D02*
X13158991Y-17107889D01*
X13158991Y-17107889D02*
X13149467Y-17126936D01*
X13149467Y-17126936D02*
X13139944Y-17136460D01*
X13139944Y-17136460D02*
X13120896Y-17145984D01*
X13120896Y-17145984D02*
X13101848Y-17145984D01*
X13101848Y-17145984D02*
X13082801Y-17136460D01*
X13082801Y-17136460D02*
X13073277Y-17126936D01*
X13073277Y-17126936D02*
X13063753Y-17107889D01*
X13063753Y-17107889D02*
X13054229Y-17069793D01*
X13054229Y-17069793D02*
X13054229Y-17022174D01*
X13054229Y-17022174D02*
X13063753Y-16984079D01*
X13063753Y-16984079D02*
X13073277Y-16965031D01*
X13073277Y-16965031D02*
X13082801Y-16955508D01*
X13082801Y-16955508D02*
X13101848Y-16945984D01*
X13349467Y-16945984D02*
X13254229Y-16945984D01*
X13254229Y-16945984D02*
X13244706Y-17041222D01*
X13244706Y-17041222D02*
X13254229Y-17031698D01*
X13254229Y-17031698D02*
X13273277Y-17022174D01*
X13273277Y-17022174D02*
X13320896Y-17022174D01*
X13320896Y-17022174D02*
X13339944Y-17031698D01*
X13339944Y-17031698D02*
X13349467Y-17041222D01*
X13349467Y-17041222D02*
X13358991Y-17060270D01*
X13358991Y-17060270D02*
X13358991Y-17107889D01*
X13358991Y-17107889D02*
X13349467Y-17126936D01*
X13349467Y-17126936D02*
X13339944Y-17136460D01*
X13339944Y-17136460D02*
X13320896Y-17145984D01*
X13320896Y-17145984D02*
X13273277Y-17145984D01*
X13273277Y-17145984D02*
X13254229Y-17136460D01*
X13254229Y-17136460D02*
X13244706Y-17126936D01*
X13454229Y-17145984D02*
X13492325Y-17145984D01*
X13492325Y-17145984D02*
X13511372Y-17136460D01*
X13511372Y-17136460D02*
X13520896Y-17126936D01*
X13520896Y-17126936D02*
X13539944Y-17098365D01*
X13539944Y-17098365D02*
X13549467Y-17060270D01*
X13549467Y-17060270D02*
X13549467Y-16984079D01*
X13549467Y-16984079D02*
X13539944Y-16965031D01*
X13539944Y-16965031D02*
X13530420Y-16955508D01*
X13530420Y-16955508D02*
X13511372Y-16945984D01*
X13511372Y-16945984D02*
X13473277Y-16945984D01*
X13473277Y-16945984D02*
X13454229Y-16955508D01*
X13454229Y-16955508D02*
X13444706Y-16965031D01*
X13444706Y-16965031D02*
X13435182Y-16984079D01*
X13435182Y-16984079D02*
X13435182Y-17031698D01*
X13435182Y-17031698D02*
X13444706Y-17050746D01*
X13444706Y-17050746D02*
X13454229Y-17060270D01*
X13454229Y-17060270D02*
X13473277Y-17069793D01*
X13473277Y-17069793D02*
X13511372Y-17069793D01*
X13511372Y-17069793D02*
X13530420Y-17060270D01*
X13530420Y-17060270D02*
X13539944Y-17050746D01*
X13539944Y-17050746D02*
X13549467Y-17031698D01*
X13739944Y-17145984D02*
X13625658Y-17145984D01*
X13682801Y-17145984D02*
X13682801Y-16945984D01*
X13682801Y-16945984D02*
X13663753Y-16974555D01*
X13663753Y-16974555D02*
X13644706Y-16993603D01*
X13644706Y-16993603D02*
X13625658Y-17003127D01*
X13816134Y-16945984D02*
X13816134Y-16984079D01*
X13892325Y-16945984D02*
X13892325Y-16984079D01*
X14187563Y-17222174D02*
X14178039Y-17212650D01*
X14178039Y-17212650D02*
X14158991Y-17184079D01*
X14158991Y-17184079D02*
X14149468Y-17165031D01*
X14149468Y-17165031D02*
X14139944Y-17136460D01*
X14139944Y-17136460D02*
X14130420Y-17088841D01*
X14130420Y-17088841D02*
X14130420Y-17050746D01*
X14130420Y-17050746D02*
X14139944Y-17003127D01*
X14139944Y-17003127D02*
X14149468Y-16974555D01*
X14149468Y-16974555D02*
X14158991Y-16955508D01*
X14158991Y-16955508D02*
X14178039Y-16926936D01*
X14178039Y-16926936D02*
X14187563Y-16917412D01*
X14368515Y-17145984D02*
X14254229Y-17145984D01*
X14311372Y-17145984D02*
X14311372Y-16945984D01*
X14311372Y-16945984D02*
X14292325Y-16974555D01*
X14292325Y-16974555D02*
X14273277Y-16993603D01*
X14273277Y-16993603D02*
X14254229Y-17003127D01*
X14444706Y-16965031D02*
X14454229Y-16955508D01*
X14454229Y-16955508D02*
X14473277Y-16945984D01*
X14473277Y-16945984D02*
X14520896Y-16945984D01*
X14520896Y-16945984D02*
X14539944Y-16955508D01*
X14539944Y-16955508D02*
X14549468Y-16965031D01*
X14549468Y-16965031D02*
X14558991Y-16984079D01*
X14558991Y-16984079D02*
X14558991Y-17003127D01*
X14558991Y-17003127D02*
X14549468Y-17031698D01*
X14549468Y-17031698D02*
X14435182Y-17145984D01*
X14435182Y-17145984D02*
X14558991Y-17145984D01*
X14797087Y-17145984D02*
X14797087Y-16945984D01*
X14882801Y-17145984D02*
X14882801Y-17041222D01*
X14882801Y-17041222D02*
X14873277Y-17022174D01*
X14873277Y-17022174D02*
X14854230Y-17012650D01*
X14854230Y-17012650D02*
X14825658Y-17012650D01*
X14825658Y-17012650D02*
X14806610Y-17022174D01*
X14806610Y-17022174D02*
X14797087Y-17031698D01*
X15006610Y-17145984D02*
X14987563Y-17136460D01*
X14987563Y-17136460D02*
X14978039Y-17126936D01*
X14978039Y-17126936D02*
X14968515Y-17107889D01*
X14968515Y-17107889D02*
X14968515Y-17050746D01*
X14968515Y-17050746D02*
X14978039Y-17031698D01*
X14978039Y-17031698D02*
X14987563Y-17022174D01*
X14987563Y-17022174D02*
X15006610Y-17012650D01*
X15006610Y-17012650D02*
X15035182Y-17012650D01*
X15035182Y-17012650D02*
X15054230Y-17022174D01*
X15054230Y-17022174D02*
X15063753Y-17031698D01*
X15063753Y-17031698D02*
X15073277Y-17050746D01*
X15073277Y-17050746D02*
X15073277Y-17107889D01*
X15073277Y-17107889D02*
X15063753Y-17126936D01*
X15063753Y-17126936D02*
X15054230Y-17136460D01*
X15054230Y-17136460D02*
X15035182Y-17145984D01*
X15035182Y-17145984D02*
X15006610Y-17145984D01*
X15187563Y-17145984D02*
X15168515Y-17136460D01*
X15168515Y-17136460D02*
X15158991Y-17117412D01*
X15158991Y-17117412D02*
X15158991Y-16945984D01*
X15339944Y-17136460D02*
X15320896Y-17145984D01*
X15320896Y-17145984D02*
X15282801Y-17145984D01*
X15282801Y-17145984D02*
X15263753Y-17136460D01*
X15263753Y-17136460D02*
X15254230Y-17117412D01*
X15254230Y-17117412D02*
X15254230Y-17041222D01*
X15254230Y-17041222D02*
X15263753Y-17022174D01*
X15263753Y-17022174D02*
X15282801Y-17012650D01*
X15282801Y-17012650D02*
X15320896Y-17012650D01*
X15320896Y-17012650D02*
X15339944Y-17022174D01*
X15339944Y-17022174D02*
X15349468Y-17041222D01*
X15349468Y-17041222D02*
X15349468Y-17060270D01*
X15349468Y-17060270D02*
X15254230Y-17079317D01*
X15425658Y-17136460D02*
X15444706Y-17145984D01*
X15444706Y-17145984D02*
X15482801Y-17145984D01*
X15482801Y-17145984D02*
X15501849Y-17136460D01*
X15501849Y-17136460D02*
X15511372Y-17117412D01*
X15511372Y-17117412D02*
X15511372Y-17107889D01*
X15511372Y-17107889D02*
X15501849Y-17088841D01*
X15501849Y-17088841D02*
X15482801Y-17079317D01*
X15482801Y-17079317D02*
X15454230Y-17079317D01*
X15454230Y-17079317D02*
X15435182Y-17069793D01*
X15435182Y-17069793D02*
X15425658Y-17050746D01*
X15425658Y-17050746D02*
X15425658Y-17041222D01*
X15425658Y-17041222D02*
X15435182Y-17022174D01*
X15435182Y-17022174D02*
X15454230Y-17012650D01*
X15454230Y-17012650D02*
X15482801Y-17012650D01*
X15482801Y-17012650D02*
X15501849Y-17022174D01*
X15578039Y-17222174D02*
X15587563Y-17212650D01*
X15587563Y-17212650D02*
X15606611Y-17184079D01*
X15606611Y-17184079D02*
X15616134Y-17165031D01*
X15616134Y-17165031D02*
X15625658Y-17136460D01*
X15625658Y-17136460D02*
X15635182Y-17088841D01*
X15635182Y-17088841D02*
X15635182Y-17050746D01*
X15635182Y-17050746D02*
X15625658Y-17003127D01*
X15625658Y-17003127D02*
X15616134Y-16974555D01*
X15616134Y-16974555D02*
X15606611Y-16955508D01*
X15606611Y-16955508D02*
X15587563Y-16926936D01*
X15587563Y-16926936D02*
X15578039Y-16917412D01*
X10512500Y-17224500D02*
X10512500Y-17424500D01*
X10412500Y-17324500D02*
X10612500Y-17324500D01*
X10612500Y-17324500D02*
G75*
G02*
X10412500Y-17324500I-100000J0D01*
G01*
X10412500Y-17324500D02*
G75*
G02*
X10612500Y-17324500I100000J0D01*
G01*
X10863753Y-17235031D02*
X10873277Y-17225508D01*
X10873277Y-17225508D02*
X10892324Y-17215984D01*
X10892324Y-17215984D02*
X10939944Y-17215984D01*
X10939944Y-17215984D02*
X10958991Y-17225508D01*
X10958991Y-17225508D02*
X10968515Y-17235031D01*
X10968515Y-17235031D02*
X10978039Y-17254079D01*
X10978039Y-17254079D02*
X10978039Y-17273127D01*
X10978039Y-17273127D02*
X10968515Y-17301698D01*
X10968515Y-17301698D02*
X10854229Y-17415984D01*
X10854229Y-17415984D02*
X10978039Y-17415984D01*
X11063753Y-17396936D02*
X11073277Y-17406460D01*
X11073277Y-17406460D02*
X11063753Y-17415984D01*
X11063753Y-17415984D02*
X11054229Y-17406460D01*
X11054229Y-17406460D02*
X11063753Y-17396936D01*
X11063753Y-17396936D02*
X11063753Y-17415984D01*
X11197086Y-17215984D02*
X11216134Y-17215984D01*
X11216134Y-17215984D02*
X11235182Y-17225508D01*
X11235182Y-17225508D02*
X11244705Y-17235031D01*
X11244705Y-17235031D02*
X11254229Y-17254079D01*
X11254229Y-17254079D02*
X11263753Y-17292174D01*
X11263753Y-17292174D02*
X11263753Y-17339793D01*
X11263753Y-17339793D02*
X11254229Y-17377889D01*
X11254229Y-17377889D02*
X11244705Y-17396936D01*
X11244705Y-17396936D02*
X11235182Y-17406460D01*
X11235182Y-17406460D02*
X11216134Y-17415984D01*
X11216134Y-17415984D02*
X11197086Y-17415984D01*
X11197086Y-17415984D02*
X11178039Y-17406460D01*
X11178039Y-17406460D02*
X11168515Y-17396936D01*
X11168515Y-17396936D02*
X11158991Y-17377889D01*
X11158991Y-17377889D02*
X11149467Y-17339793D01*
X11149467Y-17339793D02*
X11149467Y-17292174D01*
X11149467Y-17292174D02*
X11158991Y-17254079D01*
X11158991Y-17254079D02*
X11168515Y-17235031D01*
X11168515Y-17235031D02*
X11178039Y-17225508D01*
X11178039Y-17225508D02*
X11197086Y-17215984D01*
X11387562Y-17215984D02*
X11406610Y-17215984D01*
X11406610Y-17215984D02*
X11425658Y-17225508D01*
X11425658Y-17225508D02*
X11435182Y-17235031D01*
X11435182Y-17235031D02*
X11444705Y-17254079D01*
X11444705Y-17254079D02*
X11454229Y-17292174D01*
X11454229Y-17292174D02*
X11454229Y-17339793D01*
X11454229Y-17339793D02*
X11444705Y-17377889D01*
X11444705Y-17377889D02*
X11435182Y-17396936D01*
X11435182Y-17396936D02*
X11425658Y-17406460D01*
X11425658Y-17406460D02*
X11406610Y-17415984D01*
X11406610Y-17415984D02*
X11387562Y-17415984D01*
X11387562Y-17415984D02*
X11368515Y-17406460D01*
X11368515Y-17406460D02*
X11358991Y-17396936D01*
X11358991Y-17396936D02*
X11349467Y-17377889D01*
X11349467Y-17377889D02*
X11339943Y-17339793D01*
X11339943Y-17339793D02*
X11339943Y-17292174D01*
X11339943Y-17292174D02*
X11349467Y-17254079D01*
X11349467Y-17254079D02*
X11358991Y-17235031D01*
X11358991Y-17235031D02*
X11368515Y-17225508D01*
X11368515Y-17225508D02*
X11387562Y-17215984D01*
X11578039Y-17215984D02*
X11597086Y-17215984D01*
X11597086Y-17215984D02*
X11616134Y-17225508D01*
X11616134Y-17225508D02*
X11625658Y-17235031D01*
X11625658Y-17235031D02*
X11635182Y-17254079D01*
X11635182Y-17254079D02*
X11644705Y-17292174D01*
X11644705Y-17292174D02*
X11644705Y-17339793D01*
X11644705Y-17339793D02*
X11635182Y-17377889D01*
X11635182Y-17377889D02*
X11625658Y-17396936D01*
X11625658Y-17396936D02*
X11616134Y-17406460D01*
X11616134Y-17406460D02*
X11597086Y-17415984D01*
X11597086Y-17415984D02*
X11578039Y-17415984D01*
X11578039Y-17415984D02*
X11558991Y-17406460D01*
X11558991Y-17406460D02*
X11549467Y-17396936D01*
X11549467Y-17396936D02*
X11539943Y-17377889D01*
X11539943Y-17377889D02*
X11530420Y-17339793D01*
X11530420Y-17339793D02*
X11530420Y-17292174D01*
X11530420Y-17292174D02*
X11539943Y-17254079D01*
X11539943Y-17254079D02*
X11549467Y-17235031D01*
X11549467Y-17235031D02*
X11558991Y-17225508D01*
X11558991Y-17225508D02*
X11578039Y-17215984D01*
X11730420Y-17415984D02*
X11730420Y-17282650D01*
X11730420Y-17301698D02*
X11739943Y-17292174D01*
X11739943Y-17292174D02*
X11758991Y-17282650D01*
X11758991Y-17282650D02*
X11787563Y-17282650D01*
X11787563Y-17282650D02*
X11806610Y-17292174D01*
X11806610Y-17292174D02*
X11816134Y-17311222D01*
X11816134Y-17311222D02*
X11816134Y-17415984D01*
X11816134Y-17311222D02*
X11825658Y-17292174D01*
X11825658Y-17292174D02*
X11844705Y-17282650D01*
X11844705Y-17282650D02*
X11873277Y-17282650D01*
X11873277Y-17282650D02*
X11892324Y-17292174D01*
X11892324Y-17292174D02*
X11901848Y-17311222D01*
X11901848Y-17311222D02*
X11901848Y-17415984D01*
X11997086Y-17415984D02*
X11997086Y-17282650D01*
X11997086Y-17301698D02*
X12006610Y-17292174D01*
X12006610Y-17292174D02*
X12025658Y-17282650D01*
X12025658Y-17282650D02*
X12054229Y-17282650D01*
X12054229Y-17282650D02*
X12073277Y-17292174D01*
X12073277Y-17292174D02*
X12082801Y-17311222D01*
X12082801Y-17311222D02*
X12082801Y-17415984D01*
X12082801Y-17311222D02*
X12092324Y-17292174D01*
X12092324Y-17292174D02*
X12111372Y-17282650D01*
X12111372Y-17282650D02*
X12139943Y-17282650D01*
X12139943Y-17282650D02*
X12158991Y-17292174D01*
X12158991Y-17292174D02*
X12168515Y-17311222D01*
X12168515Y-17311222D02*
X12168515Y-17415984D01*
X12558991Y-17206460D02*
X12387563Y-17463603D01*
X12816134Y-17215984D02*
X12835182Y-17215984D01*
X12835182Y-17215984D02*
X12854229Y-17225508D01*
X12854229Y-17225508D02*
X12863753Y-17235031D01*
X12863753Y-17235031D02*
X12873277Y-17254079D01*
X12873277Y-17254079D02*
X12882801Y-17292174D01*
X12882801Y-17292174D02*
X12882801Y-17339793D01*
X12882801Y-17339793D02*
X12873277Y-17377889D01*
X12873277Y-17377889D02*
X12863753Y-17396936D01*
X12863753Y-17396936D02*
X12854229Y-17406460D01*
X12854229Y-17406460D02*
X12835182Y-17415984D01*
X12835182Y-17415984D02*
X12816134Y-17415984D01*
X12816134Y-17415984D02*
X12797086Y-17406460D01*
X12797086Y-17406460D02*
X12787563Y-17396936D01*
X12787563Y-17396936D02*
X12778039Y-17377889D01*
X12778039Y-17377889D02*
X12768515Y-17339793D01*
X12768515Y-17339793D02*
X12768515Y-17292174D01*
X12768515Y-17292174D02*
X12778039Y-17254079D01*
X12778039Y-17254079D02*
X12787563Y-17235031D01*
X12787563Y-17235031D02*
X12797086Y-17225508D01*
X12797086Y-17225508D02*
X12816134Y-17215984D01*
X12968515Y-17396936D02*
X12978039Y-17406460D01*
X12978039Y-17406460D02*
X12968515Y-17415984D01*
X12968515Y-17415984D02*
X12958991Y-17406460D01*
X12958991Y-17406460D02*
X12968515Y-17396936D01*
X12968515Y-17396936D02*
X12968515Y-17415984D01*
X13101848Y-17215984D02*
X13120896Y-17215984D01*
X13120896Y-17215984D02*
X13139944Y-17225508D01*
X13139944Y-17225508D02*
X13149467Y-17235031D01*
X13149467Y-17235031D02*
X13158991Y-17254079D01*
X13158991Y-17254079D02*
X13168515Y-17292174D01*
X13168515Y-17292174D02*
X13168515Y-17339793D01*
X13168515Y-17339793D02*
X13158991Y-17377889D01*
X13158991Y-17377889D02*
X13149467Y-17396936D01*
X13149467Y-17396936D02*
X13139944Y-17406460D01*
X13139944Y-17406460D02*
X13120896Y-17415984D01*
X13120896Y-17415984D02*
X13101848Y-17415984D01*
X13101848Y-17415984D02*
X13082801Y-17406460D01*
X13082801Y-17406460D02*
X13073277Y-17396936D01*
X13073277Y-17396936D02*
X13063753Y-17377889D01*
X13063753Y-17377889D02*
X13054229Y-17339793D01*
X13054229Y-17339793D02*
X13054229Y-17292174D01*
X13054229Y-17292174D02*
X13063753Y-17254079D01*
X13063753Y-17254079D02*
X13073277Y-17235031D01*
X13073277Y-17235031D02*
X13082801Y-17225508D01*
X13082801Y-17225508D02*
X13101848Y-17215984D01*
X13235182Y-17215984D02*
X13368515Y-17215984D01*
X13368515Y-17215984D02*
X13282801Y-17415984D01*
X13473277Y-17301698D02*
X13454229Y-17292174D01*
X13454229Y-17292174D02*
X13444706Y-17282650D01*
X13444706Y-17282650D02*
X13435182Y-17263603D01*
X13435182Y-17263603D02*
X13435182Y-17254079D01*
X13435182Y-17254079D02*
X13444706Y-17235031D01*
X13444706Y-17235031D02*
X13454229Y-17225508D01*
X13454229Y-17225508D02*
X13473277Y-17215984D01*
X13473277Y-17215984D02*
X13511372Y-17215984D01*
X13511372Y-17215984D02*
X13530420Y-17225508D01*
X13530420Y-17225508D02*
X13539944Y-17235031D01*
X13539944Y-17235031D02*
X13549467Y-17254079D01*
X13549467Y-17254079D02*
X13549467Y-17263603D01*
X13549467Y-17263603D02*
X13539944Y-17282650D01*
X13539944Y-17282650D02*
X13530420Y-17292174D01*
X13530420Y-17292174D02*
X13511372Y-17301698D01*
X13511372Y-17301698D02*
X13473277Y-17301698D01*
X13473277Y-17301698D02*
X13454229Y-17311222D01*
X13454229Y-17311222D02*
X13444706Y-17320746D01*
X13444706Y-17320746D02*
X13435182Y-17339793D01*
X13435182Y-17339793D02*
X13435182Y-17377889D01*
X13435182Y-17377889D02*
X13444706Y-17396936D01*
X13444706Y-17396936D02*
X13454229Y-17406460D01*
X13454229Y-17406460D02*
X13473277Y-17415984D01*
X13473277Y-17415984D02*
X13511372Y-17415984D01*
X13511372Y-17415984D02*
X13530420Y-17406460D01*
X13530420Y-17406460D02*
X13539944Y-17396936D01*
X13539944Y-17396936D02*
X13549467Y-17377889D01*
X13549467Y-17377889D02*
X13549467Y-17339793D01*
X13549467Y-17339793D02*
X13539944Y-17320746D01*
X13539944Y-17320746D02*
X13530420Y-17311222D01*
X13530420Y-17311222D02*
X13511372Y-17301698D01*
X13616134Y-17215984D02*
X13749467Y-17215984D01*
X13749467Y-17215984D02*
X13663753Y-17415984D01*
X13816134Y-17215984D02*
X13816134Y-17254079D01*
X13892325Y-17215984D02*
X13892325Y-17254079D01*
X14187563Y-17492174D02*
X14178039Y-17482650D01*
X14178039Y-17482650D02*
X14158991Y-17454079D01*
X14158991Y-17454079D02*
X14149468Y-17435031D01*
X14149468Y-17435031D02*
X14139944Y-17406460D01*
X14139944Y-17406460D02*
X14130420Y-17358841D01*
X14130420Y-17358841D02*
X14130420Y-17320746D01*
X14130420Y-17320746D02*
X14139944Y-17273127D01*
X14139944Y-17273127D02*
X14149468Y-17244555D01*
X14149468Y-17244555D02*
X14158991Y-17225508D01*
X14158991Y-17225508D02*
X14178039Y-17196936D01*
X14178039Y-17196936D02*
X14187563Y-17187412D01*
X14254229Y-17235031D02*
X14263753Y-17225508D01*
X14263753Y-17225508D02*
X14282801Y-17215984D01*
X14282801Y-17215984D02*
X14330420Y-17215984D01*
X14330420Y-17215984D02*
X14349468Y-17225508D01*
X14349468Y-17225508D02*
X14358991Y-17235031D01*
X14358991Y-17235031D02*
X14368515Y-17254079D01*
X14368515Y-17254079D02*
X14368515Y-17273127D01*
X14368515Y-17273127D02*
X14358991Y-17301698D01*
X14358991Y-17301698D02*
X14244706Y-17415984D01*
X14244706Y-17415984D02*
X14368515Y-17415984D01*
X14606610Y-17415984D02*
X14606610Y-17215984D01*
X14692325Y-17415984D02*
X14692325Y-17311222D01*
X14692325Y-17311222D02*
X14682801Y-17292174D01*
X14682801Y-17292174D02*
X14663753Y-17282650D01*
X14663753Y-17282650D02*
X14635182Y-17282650D01*
X14635182Y-17282650D02*
X14616134Y-17292174D01*
X14616134Y-17292174D02*
X14606610Y-17301698D01*
X14816134Y-17415984D02*
X14797087Y-17406460D01*
X14797087Y-17406460D02*
X14787563Y-17396936D01*
X14787563Y-17396936D02*
X14778039Y-17377889D01*
X14778039Y-17377889D02*
X14778039Y-17320746D01*
X14778039Y-17320746D02*
X14787563Y-17301698D01*
X14787563Y-17301698D02*
X14797087Y-17292174D01*
X14797087Y-17292174D02*
X14816134Y-17282650D01*
X14816134Y-17282650D02*
X14844706Y-17282650D01*
X14844706Y-17282650D02*
X14863753Y-17292174D01*
X14863753Y-17292174D02*
X14873277Y-17301698D01*
X14873277Y-17301698D02*
X14882801Y-17320746D01*
X14882801Y-17320746D02*
X14882801Y-17377889D01*
X14882801Y-17377889D02*
X14873277Y-17396936D01*
X14873277Y-17396936D02*
X14863753Y-17406460D01*
X14863753Y-17406460D02*
X14844706Y-17415984D01*
X14844706Y-17415984D02*
X14816134Y-17415984D01*
X14997087Y-17415984D02*
X14978039Y-17406460D01*
X14978039Y-17406460D02*
X14968515Y-17387412D01*
X14968515Y-17387412D02*
X14968515Y-17215984D01*
X15149468Y-17406460D02*
X15130420Y-17415984D01*
X15130420Y-17415984D02*
X15092325Y-17415984D01*
X15092325Y-17415984D02*
X15073277Y-17406460D01*
X15073277Y-17406460D02*
X15063753Y-17387412D01*
X15063753Y-17387412D02*
X15063753Y-17311222D01*
X15063753Y-17311222D02*
X15073277Y-17292174D01*
X15073277Y-17292174D02*
X15092325Y-17282650D01*
X15092325Y-17282650D02*
X15130420Y-17282650D01*
X15130420Y-17282650D02*
X15149468Y-17292174D01*
X15149468Y-17292174D02*
X15158991Y-17311222D01*
X15158991Y-17311222D02*
X15158991Y-17330270D01*
X15158991Y-17330270D02*
X15063753Y-17349317D01*
X15235182Y-17406460D02*
X15254230Y-17415984D01*
X15254230Y-17415984D02*
X15292325Y-17415984D01*
X15292325Y-17415984D02*
X15311372Y-17406460D01*
X15311372Y-17406460D02*
X15320896Y-17387412D01*
X15320896Y-17387412D02*
X15320896Y-17377889D01*
X15320896Y-17377889D02*
X15311372Y-17358841D01*
X15311372Y-17358841D02*
X15292325Y-17349317D01*
X15292325Y-17349317D02*
X15263753Y-17349317D01*
X15263753Y-17349317D02*
X15244706Y-17339793D01*
X15244706Y-17339793D02*
X15235182Y-17320746D01*
X15235182Y-17320746D02*
X15235182Y-17311222D01*
X15235182Y-17311222D02*
X15244706Y-17292174D01*
X15244706Y-17292174D02*
X15263753Y-17282650D01*
X15263753Y-17282650D02*
X15292325Y-17282650D01*
X15292325Y-17282650D02*
X15311372Y-17292174D01*
X15387563Y-17492174D02*
X15397087Y-17482650D01*
X15397087Y-17482650D02*
X15416134Y-17454079D01*
X15416134Y-17454079D02*
X15425658Y-17435031D01*
X15425658Y-17435031D02*
X15435182Y-17406460D01*
X15435182Y-17406460D02*
X15444706Y-17358841D01*
X15444706Y-17358841D02*
X15444706Y-17320746D01*
X15444706Y-17320746D02*
X15435182Y-17273127D01*
X15435182Y-17273127D02*
X15425658Y-17244555D01*
X15425658Y-17244555D02*
X15416134Y-17225508D01*
X15416134Y-17225508D02*
X15397087Y-17196936D01*
X15397087Y-17196936D02*
X15387563Y-17187412D01*
M02*
