%TF.GenerationSoftware,KiCad,Pcbnew,8.0.3*%
%TF.CreationDate,2025-02-16T14:56:23+13:00*%
%TF.ProjectId,Power-stage-rounded,506f7765-722d-4737-9461-67652d726f75,rev?*%
%TF.SameCoordinates,Original*%
%TF.FileFunction,Copper,L2,Bot*%
%TF.FilePolarity,Positive*%
%FSLAX46Y46*%
G04 Gerber Fmt 4.6, Leading zero omitted, Abs format (unit mm)*
G04 Created by KiCad (PCBNEW 8.0.3) date 2025-02-16 14:56:23*
%MOMM*%
%LPD*%
G01*
G04 APERTURE LIST*
G04 Aperture macros list*
%AMRoundRect*
0 Rectangle with rounded corners*
0 $1 Rounding radius*
0 $2 $3 $4 $5 $6 $7 $8 $9 X,Y pos of 4 corners*
0 Add a 4 corners polygon primitive as box body*
4,1,4,$2,$3,$4,$5,$6,$7,$8,$9,$2,$3,0*
0 Add four circle primitives for the rounded corners*
1,1,$1+$1,$2,$3*
1,1,$1+$1,$4,$5*
1,1,$1+$1,$6,$7*
1,1,$1+$1,$8,$9*
0 Add four rect primitives between the rounded corners*
20,1,$1+$1,$2,$3,$4,$5,0*
20,1,$1+$1,$4,$5,$6,$7,0*
20,1,$1+$1,$6,$7,$8,$9,0*
20,1,$1+$1,$8,$9,$2,$3,0*%
G04 Aperture macros list end*
%TA.AperFunction,ComponentPad*%
%ADD10RoundRect,0.650000X0.650000X-0.650000X0.650000X0.650000X-0.650000X0.650000X-0.650000X-0.650000X0*%
%TD*%
%TA.AperFunction,ComponentPad*%
%ADD11C,2.600000*%
%TD*%
%TA.AperFunction,ComponentPad*%
%ADD12R,1.600000X1.600000*%
%TD*%
%TA.AperFunction,ComponentPad*%
%ADD13C,1.600000*%
%TD*%
%TA.AperFunction,ComponentPad*%
%ADD14R,1.700000X1.700000*%
%TD*%
%TA.AperFunction,ComponentPad*%
%ADD15O,1.700000X1.700000*%
%TD*%
%TA.AperFunction,ComponentPad*%
%ADD16R,2.000000X4.600000*%
%TD*%
%TA.AperFunction,ComponentPad*%
%ADD17O,2.000000X4.200000*%
%TD*%
%TA.AperFunction,ComponentPad*%
%ADD18C,2.400000*%
%TD*%
%TA.AperFunction,ComponentPad*%
%ADD19C,2.200000*%
%TD*%
%TA.AperFunction,ComponentPad*%
%ADD20R,1.850000X1.850000*%
%TD*%
%TA.AperFunction,ComponentPad*%
%ADD21C,1.850000*%
%TD*%
%TA.AperFunction,ComponentPad*%
%ADD22R,4.500000X2.500000*%
%TD*%
%TA.AperFunction,ComponentPad*%
%ADD23O,4.500000X2.500000*%
%TD*%
%TA.AperFunction,ComponentPad*%
%ADD24C,2.800000*%
%TD*%
%TA.AperFunction,ComponentPad*%
%ADD25RoundRect,0.575000X0.575000X-0.925000X0.575000X0.925000X-0.575000X0.925000X-0.575000X-0.925000X0*%
%TD*%
%TA.AperFunction,ComponentPad*%
%ADD26R,3.000000X3.000000*%
%TD*%
%TA.AperFunction,ComponentPad*%
%ADD27C,3.000000*%
%TD*%
%TA.AperFunction,SMDPad,CuDef*%
%ADD28RoundRect,0.250000X0.650000X-0.412500X0.650000X0.412500X-0.650000X0.412500X-0.650000X-0.412500X0*%
%TD*%
%TA.AperFunction,SMDPad,CuDef*%
%ADD29RoundRect,0.250000X0.412500X0.650000X-0.412500X0.650000X-0.412500X-0.650000X0.412500X-0.650000X0*%
%TD*%
%TA.AperFunction,SMDPad,CuDef*%
%ADD30RoundRect,0.250000X-0.400000X-0.625000X0.400000X-0.625000X0.400000X0.625000X-0.400000X0.625000X0*%
%TD*%
%TA.AperFunction,SMDPad,CuDef*%
%ADD31RoundRect,0.237500X-0.237500X0.250000X-0.237500X-0.250000X0.237500X-0.250000X0.237500X0.250000X0*%
%TD*%
%TA.AperFunction,SMDPad,CuDef*%
%ADD32RoundRect,0.250000X-0.412500X-0.650000X0.412500X-0.650000X0.412500X0.650000X-0.412500X0.650000X0*%
%TD*%
%TA.AperFunction,SMDPad,CuDef*%
%ADD33RoundRect,0.250000X0.625000X-0.400000X0.625000X0.400000X-0.625000X0.400000X-0.625000X-0.400000X0*%
%TD*%
%TA.AperFunction,SMDPad,CuDef*%
%ADD34RoundRect,0.250000X0.400000X0.625000X-0.400000X0.625000X-0.400000X-0.625000X0.400000X-0.625000X0*%
%TD*%
%TA.AperFunction,SMDPad,CuDef*%
%ADD35RoundRect,0.237500X0.250000X0.237500X-0.250000X0.237500X-0.250000X-0.237500X0.250000X-0.237500X0*%
%TD*%
%TA.AperFunction,SMDPad,CuDef*%
%ADD36RoundRect,0.250000X-0.650000X0.412500X-0.650000X-0.412500X0.650000X-0.412500X0.650000X0.412500X0*%
%TD*%
%TA.AperFunction,ViaPad*%
%ADD37C,0.600000*%
%TD*%
%TA.AperFunction,ViaPad*%
%ADD38C,5.000000*%
%TD*%
%TA.AperFunction,Conductor*%
%ADD39C,1.000000*%
%TD*%
%TA.AperFunction,Conductor*%
%ADD40C,0.500000*%
%TD*%
G04 APERTURE END LIST*
D10*
%TO.P,TP11,1,1*%
%TO.N,GND*%
X116600000Y-50980000D03*
D11*
X116600000Y-45900000D03*
%TD*%
D12*
%TO.P,C35,1*%
%TO.N,+12V*%
X115450000Y-115400000D03*
D13*
%TO.P,C35,2*%
%TO.N,GND*%
X117950000Y-115400000D03*
%TD*%
D14*
%TO.P,J4,1,Pin_1*%
%TO.N,/PWMA_1*%
X112150000Y-75620000D03*
D15*
%TO.P,J4,2,Pin_2*%
%TO.N,GND*%
X112150000Y-78160000D03*
%TO.P,J4,3,Pin_3*%
%TO.N,/PWMB_1*%
X112150000Y-80700000D03*
%TO.P,J4,4,Pin_4*%
%TO.N,GND*%
X112150000Y-83240000D03*
%TO.P,J4,5,Pin_5*%
%TO.N,+12V*%
X112150000Y-85780000D03*
%TO.P,J4,6,Pin_6*%
%TO.N,+5V*%
X112150000Y-88320000D03*
%TO.P,J4,7,Pin_7*%
%TO.N,GND*%
X112150000Y-90860000D03*
%TO.P,J4,8,Pin_8*%
%TO.N,/PWMA_2*%
X112150000Y-93400000D03*
%TO.P,J4,9,Pin_9*%
%TO.N,GND*%
X112150000Y-95940000D03*
%TO.P,J4,10,Pin_10*%
%TO.N,/PWMB_2*%
X112150000Y-98480000D03*
%TD*%
D16*
%TO.P,J5,1*%
%TO.N,+12V*%
X117500000Y-135350000D03*
D17*
%TO.P,J5,2*%
%TO.N,GND*%
X111200000Y-135350000D03*
%TD*%
D18*
%TO.P,C27,1*%
%TO.N,/out*%
X180050000Y-120550000D03*
%TO.P,C27,2*%
%TO.N,/Neutral*%
X165050000Y-120550000D03*
%TD*%
%TO.P,C32,1*%
%TO.N,/out*%
X185350000Y-95100000D03*
%TO.P,C32,2*%
%TO.N,/Neutral*%
X185350000Y-80100000D03*
%TD*%
D19*
%TO.P,C16,1*%
%TO.N,/out*%
X195250000Y-100800000D03*
%TO.P,C16,2*%
%TO.N,/Neutral*%
X195250000Y-127800000D03*
%TD*%
D12*
%TO.P,C1,1*%
%TO.N,ISO_12V_2*%
X127232380Y-131021190D03*
D13*
%TO.P,C1,2*%
%TO.N,GND2*%
X124732380Y-131021190D03*
%TD*%
D18*
%TO.P,C11,1*%
%TO.N,/Line*%
X171650000Y-58400000D03*
%TO.P,C11,2*%
%TO.N,/Neutral*%
X171650000Y-73400000D03*
%TD*%
D20*
%TO.P,U3,1,+Vin*%
%TO.N,+12V*%
X115440000Y-55500000D03*
D21*
%TO.P,U3,2,-Vin*%
%TO.N,GND*%
X117980000Y-55500000D03*
%TO.P,U3,5,-Vout*%
%TO.N,GND1*%
X123060000Y-55500000D03*
%TO.P,U3,7,+Vout*%
%TO.N,ISO_12V_1*%
X128140000Y-55500000D03*
%TD*%
D18*
%TO.P,C17,1*%
%TO.N,/out*%
X180050000Y-127100000D03*
%TO.P,C17,2*%
%TO.N,/Neutral*%
X165050000Y-127100000D03*
%TD*%
%TO.P,C18,1*%
%TO.N,/out*%
X180050000Y-140200000D03*
%TO.P,C18,2*%
%TO.N,/Neutral*%
X165050000Y-140200000D03*
%TD*%
D22*
%TO.P,Q2,1,G*%
%TO.N,Net-(Q2-G)*%
X146750000Y-86500000D03*
D23*
%TO.P,Q2,2,D*%
%TO.N,/SW-Node*%
X146750000Y-81050000D03*
%TO.P,Q2,3,S*%
%TO.N,GND1*%
X146750000Y-75600000D03*
%TD*%
D18*
%TO.P,C29,1*%
%TO.N,/Line*%
X165100000Y-58400000D03*
%TO.P,C29,2*%
%TO.N,/Neutral*%
X165100000Y-73400000D03*
%TD*%
D22*
%TO.P,Q3,1,G*%
%TO.N,Net-(Q3-G)*%
X146750000Y-106500000D03*
D23*
%TO.P,Q3,2,D*%
%TO.N,/SW-Node*%
X146750000Y-101050000D03*
%TO.P,Q3,3,S*%
%TO.N,GND2*%
X146750000Y-95600000D03*
%TD*%
D18*
%TO.P,C28,1*%
%TO.N,/out*%
X180050000Y-133650000D03*
%TO.P,C28,2*%
%TO.N,/Neutral*%
X165050000Y-133650000D03*
%TD*%
D22*
%TO.P,Q4,1,G*%
%TO.N,Net-(Q4-G)*%
X146750000Y-126500000D03*
D23*
%TO.P,Q4,2,D*%
%TO.N,/Neutral*%
X146750000Y-121050000D03*
%TO.P,Q4,3,S*%
%TO.N,GND2*%
X146750000Y-115600000D03*
%TD*%
D18*
%TO.P,C33,1*%
%TO.N,/out*%
X191900000Y-95100000D03*
%TO.P,C33,2*%
%TO.N,/Neutral*%
X191900000Y-80100000D03*
%TD*%
D24*
%TO.P,C15,1*%
%TO.N,/out*%
X200350000Y-100800000D03*
X190150000Y-100800000D03*
%TO.P,C15,2*%
%TO.N,/Neutral*%
X200350000Y-138300000D03*
X190150000Y-138300000D03*
%TD*%
D18*
%TO.P,C31,1*%
%TO.N,/out*%
X178800000Y-95100000D03*
%TO.P,C31,2*%
%TO.N,/Neutral*%
X178800000Y-80100000D03*
%TD*%
D25*
%TO.P,HS1,1*%
%TO.N,N/C*%
X141550000Y-131400000D03*
X141550000Y-50400000D03*
%TD*%
D20*
%TO.P,U4,1,+Vin*%
%TO.N,+12V*%
X115440000Y-121071190D03*
D21*
%TO.P,U4,2,-Vin*%
%TO.N,GND*%
X117980000Y-121071190D03*
%TO.P,U4,5,-Vout*%
%TO.N,GND2*%
X123060000Y-121071190D03*
%TO.P,U4,7,+Vout*%
%TO.N,ISO_12V_2*%
X128140000Y-121071190D03*
%TD*%
D18*
%TO.P,C30,1*%
%TO.N,/Line*%
X158550000Y-58400000D03*
%TO.P,C30,2*%
%TO.N,/Neutral*%
X158550000Y-73400000D03*
%TD*%
%TO.P,C10,1*%
%TO.N,/Line*%
X178200000Y-58400000D03*
%TO.P,C10,2*%
%TO.N,/Neutral*%
X178200000Y-73400000D03*
%TD*%
D26*
%TO.P,J6,1,Pin_1*%
%TO.N,/Neutral*%
X200082500Y-83067500D03*
D27*
%TO.P,J6,2,Pin_2*%
%TO.N,/out*%
X200082500Y-88067500D03*
%TD*%
D12*
%TO.P,C34,1*%
%TO.N,ISO_12V_1*%
X126932380Y-49900000D03*
D13*
%TO.P,C34,2*%
%TO.N,GND1*%
X124432380Y-49900000D03*
%TD*%
D22*
%TO.P,Q1,1,G*%
%TO.N,Net-(Q1-G)*%
X146750000Y-66500000D03*
D23*
%TO.P,Q1,2,D*%
%TO.N,/Line*%
X146750000Y-61050000D03*
%TO.P,Q1,3,S*%
%TO.N,GND1*%
X146750000Y-55600000D03*
%TD*%
D18*
%TO.P,C2,1*%
%TO.N,/Line*%
X188050000Y-45850000D03*
%TO.P,C2,2*%
%TO.N,/Neutral*%
X188050000Y-73350000D03*
%TD*%
D26*
%TO.P,J3,1,Pin_1*%
%TO.N,/Line*%
X200082500Y-67067500D03*
D27*
%TO.P,J3,2,Pin_2*%
%TO.N,/Neutral*%
X200082500Y-72067500D03*
%TD*%
D28*
%TO.P,C21,1*%
%TO.N,Net-(C21-Pad1)*%
X151750000Y-57462500D03*
%TO.P,C21,2*%
%TO.N,GND1*%
X151750000Y-54337500D03*
%TD*%
D29*
%TO.P,C7,1*%
%TO.N,ISO_12V_1*%
X127212500Y-58000000D03*
%TO.P,C7,2*%
%TO.N,GND1*%
X124087500Y-58000000D03*
%TD*%
%TO.P,C8,1*%
%TO.N,ISO_12V_2*%
X127212500Y-118500000D03*
%TO.P,C8,2*%
%TO.N,GND2*%
X124087500Y-118500000D03*
%TD*%
D30*
%TO.P,R10,2*%
%TO.N,Net-(C20-Pad1)*%
X149900000Y-71300000D03*
%TO.P,R10,1*%
%TO.N,GND1*%
X146800000Y-71300000D03*
%TD*%
D31*
%TO.P,R6,1*%
%TO.N,GND1*%
X142750000Y-80087500D03*
%TO.P,R6,2*%
%TO.N,Net-(Q2-G)*%
X142750000Y-81912500D03*
%TD*%
D32*
%TO.P,C22,2*%
%TO.N,/Neutral*%
X153962500Y-111400000D03*
%TO.P,C22,1*%
%TO.N,Net-(C22-Pad1)*%
X150837500Y-111400000D03*
%TD*%
%TO.P,C5,1*%
%TO.N,+12V*%
X115087500Y-58000000D03*
%TO.P,C5,2*%
%TO.N,GND*%
X118212500Y-58000000D03*
%TD*%
%TO.P,C6,1*%
%TO.N,+12V*%
X115087500Y-123521190D03*
%TO.P,C6,2*%
%TO.N,GND*%
X118212500Y-123521190D03*
%TD*%
D33*
%TO.P,R11,1*%
%TO.N,/Line*%
X151750000Y-62750000D03*
%TO.P,R11,2*%
%TO.N,Net-(C21-Pad1)*%
X151750000Y-59650000D03*
%TD*%
D34*
%TO.P,R9,1*%
%TO.N,/SW-Node*%
X150450000Y-91200000D03*
%TO.P,R9,2*%
%TO.N,Net-(C19-Pad1)*%
X147350000Y-91200000D03*
%TD*%
D35*
%TO.P,R5,1*%
%TO.N,Net-(Q1-G)*%
X145562500Y-68600000D03*
%TO.P,R5,2*%
%TO.N,GND1*%
X143737500Y-68600000D03*
%TD*%
D36*
%TO.P,C20,1*%
%TO.N,Net-(C20-Pad1)*%
X151450000Y-76737500D03*
%TO.P,C20,2*%
%TO.N,/SW-Node*%
X151450000Y-79862500D03*
%TD*%
D35*
%TO.P,R7,1*%
%TO.N,Net-(Q3-G)*%
X145562500Y-109000000D03*
%TO.P,R7,2*%
%TO.N,GND2*%
X143737500Y-109000000D03*
%TD*%
D36*
%TO.P,C19,1*%
%TO.N,Net-(C19-Pad1)*%
X142650000Y-91200000D03*
%TO.P,C19,2*%
%TO.N,GND2*%
X142650000Y-94325000D03*
%TD*%
D31*
%TO.P,R8,1*%
%TO.N,GND2*%
X142750000Y-120287500D03*
%TO.P,R8,2*%
%TO.N,Net-(Q4-G)*%
X142750000Y-122112500D03*
%TD*%
D30*
%TO.P,R12,1*%
%TO.N,GND2*%
X143250000Y-111400000D03*
%TO.P,R12,2*%
%TO.N,Net-(C22-Pad1)*%
X146350000Y-111400000D03*
%TD*%
D37*
%TO.N,GND*%
X111250000Y-128300000D03*
X122150000Y-111400000D03*
X122150000Y-70600000D03*
X120887500Y-90700000D03*
X122150000Y-71400000D03*
X123150000Y-70300000D03*
X123050000Y-109100000D03*
X123050000Y-110300000D03*
X122150000Y-110700000D03*
X123150000Y-69100000D03*
X120887500Y-85800000D03*
%TO.N,GND1*%
X138100000Y-74555000D03*
X138100000Y-68155000D03*
X133850000Y-75000000D03*
X136650000Y-69405000D03*
X136650000Y-75755000D03*
%TO.N,GND2*%
X138050000Y-114500000D03*
X136600000Y-109300000D03*
X133850000Y-115050000D03*
X136600000Y-115700000D03*
X138050000Y-108200000D03*
D38*
%TO.N,/SW-Node*%
X158150000Y-104000000D03*
%TO.N,/out*%
X182150000Y-104000000D03*
%TD*%
D39*
%TO.N,ISO_12V_2*%
X127686190Y-121525000D02*
G75*
G03*
X127232381Y-122620594I1095610J-1095600D01*
G01*
X127686190Y-120617380D02*
G75*
G02*
X127686200Y-121525010I-453790J-453820D01*
G01*
X127212500Y-119487848D02*
G75*
G03*
X127676283Y-120607407I1583300J48D01*
G01*
%TO.N,ISO_12V_1*%
X127676250Y-55963750D02*
G75*
G03*
X127212517Y-57083341I1119550J-1119550D01*
G01*
X127676250Y-55036250D02*
G75*
G02*
X127676250Y-55963750I-463750J-463750D01*
G01*
X126932380Y-53438463D02*
G75*
G03*
X127536175Y-54896205I2061520J-37D01*
G01*
%TO.N,Net-(C20-Pad1)*%
X150675000Y-72075000D02*
G75*
G02*
X151449994Y-73946015I-1871000J-1871000D01*
G01*
D40*
%TO.N,Net-(Q4-G)*%
X144584314Y-125934314D02*
G75*
G03*
X145950000Y-126499991I1365686J1365714D01*
G01*
X142750000Y-123106250D02*
G75*
G03*
X143452667Y-124802707I2399100J-50D01*
G01*
%TO.N,Net-(Q3-G)*%
X146700000Y-106550000D02*
X146699999Y-106549999D01*
X146026538Y-107223461D02*
G75*
G03*
X145562527Y-108343750I1120262J-1120239D01*
G01*
%TO.N,Net-(Q2-G)*%
X145261091Y-86111091D02*
G75*
G03*
X146200000Y-86500005I938909J938891D01*
G01*
X142750000Y-82756250D02*
G75*
G03*
X143346594Y-84196648I2037000J-50D01*
G01*
%TO.N,Net-(Q1-G)*%
X145885117Y-67364882D02*
G75*
G03*
X145562539Y-68143750I778883J-778818D01*
G01*
D39*
%TO.N,/Line*%
X147600000Y-61900000D02*
G75*
G03*
X149652081Y-62750008I2052100J2052100D01*
G01*
%TO.N,GND2*%
X133050000Y-116900000D02*
G75*
G03*
X132808578Y-116800009I-241400J-241400D01*
G01*
X126989581Y-116800000D02*
G75*
G03*
X124937505Y-117650005I19J-2902100D01*
G01*
X124087500Y-119317137D02*
G75*
G02*
X123573741Y-120557431I-1754100J37D01*
G01*
X123896190Y-121907380D02*
G75*
G02*
X124732351Y-123926121I-2018790J-2018720D01*
G01*
%TO.N,GND1*%
X124432380Y-53157200D02*
G75*
G02*
X123746186Y-54813806I-2342780J0D01*
G01*
X128681519Y-62594019D02*
G75*
G03*
X130868750Y-63500039I2187281J2187219D01*
G01*
X146800000Y-75514644D02*
G75*
G02*
X146774987Y-75574987I-85400J44D01*
G01*
X123573750Y-56013750D02*
G75*
G02*
X124087520Y-57254052I-1240350J-1240350D01*
G01*
X148905222Y-54337500D02*
G75*
G03*
X147381243Y-54968743I-22J-2155200D01*
G01*
%TO.N,+12V*%
X115268750Y-55681250D02*
G75*
G03*
X115087511Y-56118826I437550J-437550D01*
G01*
X115440000Y-122919434D02*
G75*
G02*
X115263742Y-123344932I-601800J34D01*
G01*
D40*
%TO.N,Net-(Q3-G)*%
X145562500Y-108343750D02*
X145562500Y-109000000D01*
X146699999Y-106549999D02*
X146026538Y-107223461D01*
D39*
%TO.N,GND1*%
X146800000Y-75514644D02*
X146800000Y-71300000D01*
X146775000Y-75575000D02*
X146750000Y-75600000D01*
%TO.N,Net-(C22-Pad1)*%
X150837500Y-111400000D02*
X146350000Y-111400000D01*
%TO.N,Net-(C19-Pad1)*%
X147350000Y-91200000D02*
X142650000Y-91200000D01*
%TO.N,Net-(C20-Pad1)*%
X151450000Y-73946015D02*
X151450000Y-76737500D01*
X150675000Y-72075000D02*
X149900000Y-71300000D01*
%TO.N,+12V*%
X115440000Y-122919434D02*
X115440000Y-121071190D01*
X115087500Y-56118826D02*
X115087500Y-58000000D01*
X115268750Y-55681250D02*
X115450000Y-55500000D01*
X115263750Y-123344940D02*
X115087500Y-123521190D01*
%TO.N,GND1*%
X148905222Y-54337500D02*
X151750000Y-54337500D01*
X147381250Y-54968750D02*
X146750000Y-55600000D01*
D40*
X142750000Y-80087500D02*
X142750000Y-77000000D01*
D39*
X123746190Y-54813810D02*
X123060000Y-55500000D01*
X124432380Y-53157200D02*
X124432380Y-49900000D01*
X130868750Y-63500000D02*
X132150000Y-63500000D01*
X124087500Y-57254052D02*
X124087500Y-58000000D01*
X128681519Y-62594019D02*
X124087500Y-58000000D01*
X123573750Y-56013750D02*
X123060000Y-55500000D01*
D40*
%TO.N,GND2*%
X142750000Y-120287500D02*
X142750000Y-116400000D01*
D39*
X123573750Y-120557440D02*
X123060000Y-121071190D01*
X123896190Y-121907380D02*
X123060000Y-121071190D01*
X132808578Y-116800000D02*
X126989581Y-116800000D01*
X124937500Y-117650000D02*
X124087500Y-118500000D01*
X133050000Y-116900000D02*
X133150000Y-117000000D01*
X124087500Y-119317137D02*
X124087500Y-118500000D01*
X124732380Y-123926121D02*
X124732380Y-131021190D01*
%TO.N,/Line*%
X147600000Y-61900000D02*
X146750000Y-61050000D01*
X149652081Y-62750000D02*
X151750000Y-62750000D01*
D40*
%TO.N,Net-(Q1-G)*%
X145562500Y-68143750D02*
X145562500Y-68600000D01*
X145885117Y-67364882D02*
X146750000Y-66500000D01*
%TO.N,Net-(Q2-G)*%
X145261091Y-86111091D02*
X143346621Y-84196621D01*
X146200000Y-86500000D02*
X146750000Y-86500000D01*
X142750000Y-82756250D02*
X142750000Y-81912500D01*
%TO.N,Net-(Q3-G)*%
X146700000Y-106550000D02*
X146650000Y-106600000D01*
%TO.N,Net-(Q4-G)*%
X145950000Y-126500000D02*
X146750000Y-126500000D01*
X142750000Y-123106250D02*
X142750000Y-122112500D01*
X144584314Y-125934314D02*
X143452687Y-124802687D01*
D39*
%TO.N,Net-(C21-Pad1)*%
X151750000Y-57462500D02*
X151750000Y-59650000D01*
%TO.N,ISO_12V_1*%
X127212500Y-57083341D02*
X127212500Y-58000000D01*
X127676250Y-55036250D02*
X127536190Y-54896190D01*
X126932380Y-53438463D02*
X126932380Y-49900000D01*
%TO.N,ISO_12V_2*%
X127212500Y-119487848D02*
X127212500Y-118500000D01*
X127686190Y-120617380D02*
X127676250Y-120607440D01*
X127232380Y-122620594D02*
X127232380Y-131021190D01*
%TD*%
%TA.AperFunction,Conductor*%
%TO.N,/Neutral*%
G36*
X187441617Y-43520185D02*
G01*
X187487372Y-43572989D01*
X187497316Y-43642147D01*
X187468291Y-43705703D01*
X187414437Y-43741919D01*
X187206094Y-43812642D01*
X186947393Y-43940219D01*
X186947386Y-43940223D01*
X186707547Y-44100478D01*
X186490672Y-44290672D01*
X186300478Y-44507547D01*
X186140223Y-44747386D01*
X186140219Y-44747393D01*
X186012642Y-45006094D01*
X185919921Y-45279239D01*
X185919917Y-45279254D01*
X185863646Y-45562150D01*
X185863644Y-45562162D01*
X185844778Y-45850000D01*
X185863644Y-46137837D01*
X185863646Y-46137849D01*
X185919917Y-46420745D01*
X185919921Y-46420760D01*
X186012642Y-46693905D01*
X186140219Y-46952606D01*
X186140223Y-46952613D01*
X186300478Y-47192452D01*
X186490672Y-47409327D01*
X186703646Y-47596100D01*
X186707546Y-47599520D01*
X186947389Y-47759778D01*
X187206098Y-47887359D01*
X187479247Y-47980081D01*
X187762161Y-48036356D01*
X188050000Y-48055222D01*
X188337839Y-48036356D01*
X188620753Y-47980081D01*
X188893902Y-47887359D01*
X189152611Y-47759778D01*
X189392454Y-47599520D01*
X189609327Y-47409327D01*
X189799520Y-47192454D01*
X189959778Y-46952611D01*
X189996221Y-46878711D01*
X200299500Y-46878711D01*
X200299500Y-47121288D01*
X200331161Y-47361785D01*
X200393947Y-47596104D01*
X200461743Y-47759778D01*
X200486776Y-47820212D01*
X200608064Y-48030289D01*
X200608066Y-48030292D01*
X200608067Y-48030293D01*
X200755733Y-48222736D01*
X200755739Y-48222743D01*
X200927256Y-48394260D01*
X200927262Y-48394265D01*
X201119711Y-48541936D01*
X201329788Y-48663224D01*
X201553900Y-48756054D01*
X201788211Y-48818838D01*
X201968586Y-48842584D01*
X202028711Y-48850500D01*
X202028712Y-48850500D01*
X202271289Y-48850500D01*
X202319388Y-48844167D01*
X202511789Y-48818838D01*
X202746100Y-48756054D01*
X202970212Y-48663224D01*
X203180289Y-48541936D01*
X203372738Y-48394265D01*
X203544265Y-48222738D01*
X203691936Y-48030289D01*
X203813224Y-47820212D01*
X203906054Y-47596100D01*
X203968838Y-47361789D01*
X204000500Y-47121288D01*
X204000500Y-46878712D01*
X203968838Y-46638211D01*
X203906054Y-46403900D01*
X203813224Y-46179788D01*
X203691936Y-45969711D01*
X203544265Y-45777262D01*
X203544260Y-45777256D01*
X203372743Y-45605739D01*
X203372736Y-45605733D01*
X203180293Y-45458067D01*
X203180292Y-45458066D01*
X203180289Y-45458064D01*
X202970212Y-45336776D01*
X202970205Y-45336773D01*
X202746104Y-45243947D01*
X202511785Y-45181161D01*
X202271289Y-45149500D01*
X202271288Y-45149500D01*
X202028712Y-45149500D01*
X202028711Y-45149500D01*
X201788214Y-45181161D01*
X201553895Y-45243947D01*
X201329794Y-45336773D01*
X201329785Y-45336777D01*
X201119706Y-45458067D01*
X200927263Y-45605733D01*
X200927256Y-45605739D01*
X200755739Y-45777256D01*
X200755733Y-45777263D01*
X200608067Y-45969706D01*
X200486777Y-46179785D01*
X200486773Y-46179794D01*
X200393947Y-46403895D01*
X200331161Y-46638214D01*
X200299500Y-46878711D01*
X189996221Y-46878711D01*
X190087359Y-46693902D01*
X190180081Y-46420753D01*
X190236356Y-46137839D01*
X190255222Y-45850000D01*
X190236356Y-45562161D01*
X190180081Y-45279247D01*
X190087359Y-45006098D01*
X189959778Y-44747389D01*
X189799520Y-44507546D01*
X189787195Y-44493492D01*
X189609327Y-44290672D01*
X189392452Y-44100478D01*
X189152613Y-43940223D01*
X189152606Y-43940219D01*
X188893905Y-43812642D01*
X188685563Y-43741919D01*
X188628409Y-43701730D01*
X188602056Y-43637021D01*
X188614870Y-43568336D01*
X188662784Y-43517483D01*
X188725422Y-43500500D01*
X203584108Y-43500500D01*
X203645933Y-43500500D01*
X203654043Y-43500765D01*
X203902895Y-43517075D01*
X203918953Y-43519190D01*
X204111353Y-43557461D01*
X204159535Y-43567045D01*
X204175202Y-43571243D01*
X204332093Y-43624500D01*
X204407481Y-43650091D01*
X204422458Y-43656294D01*
X204551477Y-43719919D01*
X204642460Y-43764787D01*
X204656508Y-43772897D01*
X204860464Y-43909177D01*
X204873328Y-43919048D01*
X205057749Y-44080781D01*
X205069218Y-44092250D01*
X205230951Y-44276671D01*
X205240825Y-44289539D01*
X205377102Y-44493492D01*
X205385212Y-44507539D01*
X205493702Y-44727534D01*
X205499909Y-44742520D01*
X205578756Y-44974797D01*
X205582954Y-44990464D01*
X205630807Y-45231035D01*
X205632925Y-45247116D01*
X205649235Y-45495956D01*
X205649500Y-45504066D01*
X205649500Y-140495933D01*
X205649235Y-140504043D01*
X205632925Y-140752883D01*
X205630807Y-140768964D01*
X205582954Y-141009535D01*
X205578756Y-141025202D01*
X205499909Y-141257479D01*
X205493702Y-141272465D01*
X205385212Y-141492460D01*
X205377102Y-141506507D01*
X205240825Y-141710460D01*
X205230951Y-141723328D01*
X205069218Y-141907749D01*
X205057749Y-141919218D01*
X204873328Y-142080951D01*
X204860460Y-142090825D01*
X204656507Y-142227102D01*
X204642460Y-142235212D01*
X204422465Y-142343702D01*
X204407479Y-142349909D01*
X204175202Y-142428756D01*
X204159535Y-142432954D01*
X203918964Y-142480807D01*
X203902883Y-142482925D01*
X203654043Y-142499235D01*
X203645933Y-142499500D01*
X180872716Y-142499500D01*
X180805677Y-142479815D01*
X180759922Y-142427011D01*
X180749978Y-142357853D01*
X180779003Y-142294297D01*
X180832857Y-142258081D01*
X180893902Y-142237359D01*
X181152611Y-142109778D01*
X181392454Y-141949520D01*
X181609327Y-141759327D01*
X181799520Y-141542454D01*
X181959778Y-141302611D01*
X182087359Y-141043902D01*
X182180081Y-140770753D01*
X182236356Y-140487839D01*
X182255222Y-140200000D01*
X182236356Y-139912161D01*
X182180081Y-139629247D01*
X182087359Y-139356098D01*
X181959778Y-139097389D01*
X181799520Y-138857546D01*
X181609327Y-138640672D01*
X181392452Y-138450478D01*
X181152613Y-138290223D01*
X181152606Y-138290219D01*
X180893905Y-138162642D01*
X180620760Y-138069921D01*
X180620754Y-138069919D01*
X180620753Y-138069919D01*
X180620751Y-138069918D01*
X180620745Y-138069917D01*
X180337849Y-138013646D01*
X180337839Y-138013644D01*
X180050000Y-137994778D01*
X179762161Y-138013644D01*
X179762155Y-138013645D01*
X179762150Y-138013646D01*
X179479254Y-138069917D01*
X179479239Y-138069921D01*
X179206094Y-138162642D01*
X178947393Y-138290219D01*
X178947386Y-138290223D01*
X178707547Y-138450478D01*
X178490672Y-138640672D01*
X178300478Y-138857547D01*
X178140223Y-139097386D01*
X178140219Y-139097393D01*
X178012642Y-139356094D01*
X177919921Y-139629239D01*
X177919917Y-139629254D01*
X177881933Y-139820214D01*
X177863644Y-139912161D01*
X177844778Y-140200000D01*
X177857510Y-140394260D01*
X177863644Y-140487837D01*
X177863646Y-140487849D01*
X177919917Y-140770745D01*
X177919921Y-140770760D01*
X178012642Y-141043905D01*
X178140219Y-141302606D01*
X178140223Y-141302613D01*
X178300478Y-141542452D01*
X178490672Y-141759327D01*
X178672993Y-141919218D01*
X178707546Y-141949520D01*
X178947389Y-142109778D01*
X179206098Y-142237359D01*
X179267143Y-142258081D01*
X179324297Y-142298270D01*
X179350650Y-142362979D01*
X179337836Y-142431664D01*
X179289922Y-142482516D01*
X179227284Y-142499500D01*
X153274000Y-142499500D01*
X153206961Y-142479815D01*
X153161206Y-142427011D01*
X153150000Y-142375500D01*
X153150000Y-140974500D01*
X153169685Y-140907461D01*
X153222489Y-140861706D01*
X153267314Y-140851954D01*
X153267237Y-140850766D01*
X153271282Y-140850500D01*
X153271288Y-140850500D01*
X153511789Y-140818838D01*
X153746100Y-140756054D01*
X153970212Y-140663224D01*
X154180289Y-140541936D01*
X154372738Y-140394265D01*
X154544265Y-140222738D01*
X154691936Y-140030289D01*
X154813224Y-139820212D01*
X154906054Y-139596100D01*
X154968838Y-139361789D01*
X155000500Y-139121288D01*
X155000500Y-138878712D01*
X154997713Y-138857546D01*
X154968838Y-138638214D01*
X154968838Y-138638211D01*
X154906054Y-138403900D01*
X154813224Y-138179788D01*
X154691936Y-137969711D01*
X154544265Y-137777262D01*
X154544260Y-137777256D01*
X154372743Y-137605739D01*
X154372736Y-137605733D01*
X154180293Y-137458067D01*
X154180292Y-137458066D01*
X154180289Y-137458064D01*
X153970212Y-137336776D01*
X153970205Y-137336773D01*
X153746104Y-137243947D01*
X153511785Y-137181161D01*
X153271282Y-137149499D01*
X153267237Y-137149234D01*
X153267347Y-137147546D01*
X153206961Y-137129815D01*
X153161206Y-137077011D01*
X153150000Y-137025500D01*
X153150000Y-133650000D01*
X177844778Y-133650000D01*
X177863644Y-133937837D01*
X177863646Y-133937849D01*
X177919917Y-134220745D01*
X177919921Y-134220760D01*
X178012642Y-134493905D01*
X178140219Y-134752606D01*
X178140223Y-134752613D01*
X178300478Y-134992452D01*
X178490672Y-135209327D01*
X178707546Y-135399520D01*
X178947389Y-135559778D01*
X179206098Y-135687359D01*
X179479247Y-135780081D01*
X179762161Y-135836356D01*
X180050000Y-135855222D01*
X180337839Y-135836356D01*
X180620753Y-135780081D01*
X180893902Y-135687359D01*
X181152611Y-135559778D01*
X181392454Y-135399520D01*
X181609327Y-135209327D01*
X181799520Y-134992454D01*
X181959778Y-134752611D01*
X182087359Y-134493902D01*
X182180081Y-134220753D01*
X182236356Y-133937839D01*
X182255222Y-133650000D01*
X182236356Y-133362161D01*
X182180081Y-133079247D01*
X182087359Y-132806098D01*
X181959778Y-132547389D01*
X181799520Y-132307546D01*
X181609327Y-132090672D01*
X181392452Y-131900478D01*
X181152613Y-131740223D01*
X181152606Y-131740219D01*
X180893905Y-131612642D01*
X180620760Y-131519921D01*
X180620754Y-131519919D01*
X180620753Y-131519919D01*
X180620751Y-131519918D01*
X180620745Y-131519917D01*
X180337849Y-131463646D01*
X180337839Y-131463644D01*
X180050000Y-131444778D01*
X179762161Y-131463644D01*
X179762155Y-131463645D01*
X179762150Y-131463646D01*
X179479254Y-131519917D01*
X179479239Y-131519921D01*
X179206094Y-131612642D01*
X178947393Y-131740219D01*
X178947386Y-131740223D01*
X178707547Y-131900478D01*
X178490672Y-132090672D01*
X178300478Y-132307547D01*
X178140223Y-132547386D01*
X178140219Y-132547393D01*
X178012642Y-132806094D01*
X177919921Y-133079239D01*
X177919917Y-133079254D01*
X177863646Y-133362150D01*
X177863644Y-133362162D01*
X177844778Y-133650000D01*
X153150000Y-133650000D01*
X153150000Y-127100000D01*
X177844778Y-127100000D01*
X177863644Y-127387837D01*
X177863646Y-127387849D01*
X177919917Y-127670745D01*
X177919921Y-127670760D01*
X178012642Y-127943905D01*
X178140219Y-128202606D01*
X178140223Y-128202613D01*
X178300478Y-128442452D01*
X178490672Y-128659327D01*
X178707546Y-128849520D01*
X178947389Y-129009778D01*
X179206098Y-129137359D01*
X179479247Y-129230081D01*
X179762161Y-129286356D01*
X180050000Y-129305222D01*
X180337839Y-129286356D01*
X180620753Y-129230081D01*
X180893902Y-129137359D01*
X181152611Y-129009778D01*
X181392454Y-128849520D01*
X181609327Y-128659327D01*
X181799520Y-128442454D01*
X181959778Y-128202611D01*
X182087359Y-127943902D01*
X182180081Y-127670753D01*
X182236356Y-127387839D01*
X182255222Y-127100000D01*
X182236356Y-126812161D01*
X182180081Y-126529247D01*
X182087359Y-126256098D01*
X181959778Y-125997389D01*
X181801288Y-125760192D01*
X181799521Y-125757547D01*
X181609327Y-125540672D01*
X181392452Y-125350478D01*
X181152613Y-125190223D01*
X181152606Y-125190219D01*
X180893905Y-125062642D01*
X180620760Y-124969921D01*
X180620754Y-124969919D01*
X180620753Y-124969919D01*
X180620751Y-124969918D01*
X180620745Y-124969917D01*
X180337849Y-124913646D01*
X180337839Y-124913644D01*
X180050000Y-124894778D01*
X179762161Y-124913644D01*
X179762155Y-124913645D01*
X179762150Y-124913646D01*
X179479254Y-124969917D01*
X179479239Y-124969921D01*
X179206094Y-125062642D01*
X178947393Y-125190219D01*
X178947386Y-125190223D01*
X178707547Y-125350478D01*
X178490672Y-125540672D01*
X178300478Y-125757547D01*
X178140223Y-125997386D01*
X178140219Y-125997393D01*
X178012642Y-126256094D01*
X177919921Y-126529239D01*
X177919917Y-126529254D01*
X177863646Y-126812150D01*
X177863644Y-126812162D01*
X177844778Y-127100000D01*
X153150000Y-127100000D01*
X153150000Y-125000000D01*
X151150000Y-123000000D01*
X144274000Y-123000000D01*
X144206961Y-122980315D01*
X144161206Y-122927511D01*
X144150000Y-122876000D01*
X144150000Y-122823548D01*
X144159736Y-122778575D01*
X144158914Y-122778288D01*
X144160749Y-122773042D01*
X144160748Y-122773042D01*
X144160751Y-122773038D01*
X144215201Y-122556949D01*
X144225500Y-122426084D01*
X144225500Y-121798916D01*
X144215201Y-121668051D01*
X144211311Y-121652613D01*
X144160754Y-121451972D01*
X144158911Y-121446704D01*
X144159733Y-121446416D01*
X144150000Y-121401450D01*
X144150000Y-120998548D01*
X144159735Y-120953578D01*
X144158913Y-120953291D01*
X144160747Y-120948045D01*
X144160751Y-120948038D01*
X144215201Y-120731949D01*
X144225500Y-120601084D01*
X144225500Y-120550000D01*
X177844778Y-120550000D01*
X177863644Y-120837837D01*
X177863646Y-120837849D01*
X177919917Y-121120745D01*
X177919921Y-121120760D01*
X178012642Y-121393905D01*
X178140219Y-121652606D01*
X178140223Y-121652613D01*
X178300478Y-121892452D01*
X178490672Y-122109327D01*
X178707546Y-122299520D01*
X178947389Y-122459778D01*
X179206098Y-122587359D01*
X179479247Y-122680081D01*
X179762161Y-122736356D01*
X180050000Y-122755222D01*
X180337839Y-122736356D01*
X180620753Y-122680081D01*
X180893902Y-122587359D01*
X181152611Y-122459778D01*
X181392454Y-122299520D01*
X181609327Y-122109327D01*
X181799520Y-121892454D01*
X181959778Y-121652611D01*
X182087359Y-121393902D01*
X182180081Y-121120753D01*
X182236356Y-120837839D01*
X182255222Y-120550000D01*
X182236356Y-120262161D01*
X182180081Y-119979247D01*
X182087359Y-119706098D01*
X181959778Y-119447389D01*
X181833012Y-119257670D01*
X181799521Y-119207547D01*
X181609327Y-118990672D01*
X181392452Y-118800478D01*
X181152613Y-118640223D01*
X181152606Y-118640219D01*
X180893905Y-118512642D01*
X180620760Y-118419921D01*
X180620754Y-118419919D01*
X180620753Y-118419919D01*
X180620751Y-118419918D01*
X180620745Y-118419917D01*
X180337849Y-118363646D01*
X180337839Y-118363644D01*
X180050000Y-118344778D01*
X179762161Y-118363644D01*
X179762155Y-118363645D01*
X179762150Y-118363646D01*
X179479254Y-118419917D01*
X179479239Y-118419921D01*
X179206094Y-118512642D01*
X178947393Y-118640219D01*
X178947386Y-118640223D01*
X178707547Y-118800478D01*
X178490672Y-118990672D01*
X178300478Y-119207547D01*
X178140223Y-119447386D01*
X178140219Y-119447393D01*
X178012642Y-119706094D01*
X177919921Y-119979239D01*
X177919917Y-119979254D01*
X177863646Y-120262150D01*
X177863644Y-120262162D01*
X177844778Y-120550000D01*
X144225500Y-120550000D01*
X144225500Y-119973916D01*
X144215201Y-119843051D01*
X144188362Y-119736541D01*
X144187564Y-119732197D01*
X144187409Y-119732232D01*
X144186107Y-119726282D01*
X144186105Y-119726278D01*
X144186105Y-119726272D01*
X144185903Y-119725650D01*
X144183617Y-119717712D01*
X144160751Y-119626962D01*
X144160746Y-119626952D01*
X144158910Y-119621700D01*
X144159732Y-119621412D01*
X144150000Y-119576450D01*
X144150000Y-119124000D01*
X144169685Y-119056961D01*
X144222489Y-119011206D01*
X144274000Y-119000000D01*
X151150000Y-119000000D01*
X153150000Y-117000000D01*
X153150000Y-110124000D01*
X153169685Y-110056961D01*
X153222489Y-110011206D01*
X153274000Y-110000000D01*
X168150000Y-110000000D01*
X168150000Y-103999999D01*
X178644696Y-103999999D01*
X178644696Y-104000000D01*
X178663898Y-104366405D01*
X178721294Y-104728788D01*
X178721294Y-104728790D01*
X178816260Y-105083206D01*
X178947746Y-105425739D01*
X179114320Y-105752656D01*
X179314147Y-106060364D01*
X179314149Y-106060366D01*
X179545051Y-106345506D01*
X179804494Y-106604949D01*
X179804498Y-106604952D01*
X180089635Y-106835852D01*
X180397343Y-107035679D01*
X180397348Y-107035682D01*
X180724264Y-107202255D01*
X181066801Y-107333742D01*
X181421206Y-107428705D01*
X181783596Y-107486102D01*
X182129734Y-107504241D01*
X182149999Y-107505304D01*
X182150000Y-107505304D01*
X182150001Y-107505304D01*
X182169203Y-107504297D01*
X182516404Y-107486102D01*
X182878794Y-107428705D01*
X183233199Y-107333742D01*
X183575736Y-107202255D01*
X183902652Y-107035682D01*
X184210366Y-106835851D01*
X184495506Y-106604949D01*
X184754949Y-106345506D01*
X184985851Y-106060366D01*
X185185682Y-105752652D01*
X185352255Y-105425736D01*
X185483742Y-105083199D01*
X185578705Y-104728794D01*
X185636102Y-104366404D01*
X185655304Y-104000000D01*
X185636102Y-103633596D01*
X185578705Y-103271206D01*
X185483742Y-102916801D01*
X185352255Y-102574264D01*
X185185682Y-102247348D01*
X185163872Y-102213763D01*
X184985852Y-101939635D01*
X184754952Y-101654498D01*
X184754949Y-101654494D01*
X184495506Y-101395051D01*
X184462140Y-101368032D01*
X184210364Y-101164147D01*
X183902656Y-100964320D01*
X183580151Y-100799994D01*
X187744754Y-100799994D01*
X187744754Y-100800005D01*
X187763718Y-101101446D01*
X187763719Y-101101453D01*
X187820320Y-101398164D01*
X187913659Y-101685431D01*
X187913661Y-101685436D01*
X188042265Y-101958732D01*
X188042268Y-101958738D01*
X188204111Y-102213763D01*
X188204114Y-102213767D01*
X188204115Y-102213768D01*
X188307474Y-102338708D01*
X188396652Y-102446505D01*
X188616836Y-102653272D01*
X188616846Y-102653280D01*
X188861193Y-102830808D01*
X188861198Y-102830810D01*
X188861205Y-102830816D01*
X189125896Y-102976332D01*
X189125901Y-102976334D01*
X189125903Y-102976335D01*
X189125904Y-102976336D01*
X189406734Y-103087524D01*
X189406737Y-103087525D01*
X189504259Y-103112564D01*
X189699302Y-103162642D01*
X189846039Y-103181179D01*
X189998963Y-103200499D01*
X189998969Y-103200499D01*
X189998973Y-103200500D01*
X189998975Y-103200500D01*
X190301025Y-103200500D01*
X190301027Y-103200500D01*
X190301032Y-103200499D01*
X190301036Y-103200499D01*
X190380591Y-103190448D01*
X190600698Y-103162642D01*
X190893262Y-103087525D01*
X190893265Y-103087524D01*
X191174095Y-102976336D01*
X191174096Y-102976335D01*
X191174094Y-102976335D01*
X191174104Y-102976332D01*
X191438795Y-102830816D01*
X191683162Y-102653274D01*
X191903349Y-102446504D01*
X192095885Y-102213768D01*
X192257733Y-101958736D01*
X192386341Y-101685430D01*
X192479681Y-101398160D01*
X192536280Y-101101457D01*
X192536281Y-101101446D01*
X192555246Y-100800005D01*
X192555246Y-100800000D01*
X193144592Y-100800000D01*
X193164201Y-101086680D01*
X193164201Y-101086684D01*
X193164202Y-101086686D01*
X193180299Y-101164149D01*
X193222666Y-101368034D01*
X193222667Y-101368037D01*
X193318894Y-101638793D01*
X193318893Y-101638793D01*
X193451098Y-101893935D01*
X193616812Y-102128700D01*
X193696256Y-102213763D01*
X193812947Y-102338708D01*
X194035853Y-102520055D01*
X194254921Y-102653274D01*
X194281382Y-102669365D01*
X194457001Y-102745646D01*
X194544942Y-102783844D01*
X194821642Y-102861371D01*
X195071920Y-102895771D01*
X195106321Y-102900500D01*
X195106322Y-102900500D01*
X195393679Y-102900500D01*
X195424370Y-102896281D01*
X195678358Y-102861371D01*
X195955058Y-102783844D01*
X196068015Y-102734779D01*
X196218617Y-102669365D01*
X196218620Y-102669363D01*
X196218625Y-102669361D01*
X196464147Y-102520055D01*
X196687053Y-102338708D01*
X196883189Y-102128698D01*
X197048901Y-101893936D01*
X197181104Y-101638797D01*
X197277334Y-101368032D01*
X197335798Y-101086686D01*
X197355408Y-100800000D01*
X197355408Y-100799994D01*
X197944754Y-100799994D01*
X197944754Y-100800005D01*
X197963718Y-101101446D01*
X197963719Y-101101453D01*
X198020320Y-101398164D01*
X198113659Y-101685431D01*
X198113661Y-101685436D01*
X198242265Y-101958732D01*
X198242268Y-101958738D01*
X198404111Y-102213763D01*
X198404114Y-102213767D01*
X198404115Y-102213768D01*
X198507474Y-102338708D01*
X198596652Y-102446505D01*
X198816836Y-102653272D01*
X198816846Y-102653280D01*
X199061193Y-102830808D01*
X199061198Y-102830810D01*
X199061205Y-102830816D01*
X199325896Y-102976332D01*
X199325901Y-102976334D01*
X199325903Y-102976335D01*
X199325904Y-102976336D01*
X199606734Y-103087524D01*
X199606737Y-103087525D01*
X199704259Y-103112564D01*
X199899302Y-103162642D01*
X200046039Y-103181179D01*
X200198963Y-103200499D01*
X200198969Y-103200499D01*
X200198973Y-103200500D01*
X200198975Y-103200500D01*
X200501025Y-103200500D01*
X200501027Y-103200500D01*
X200501032Y-103200499D01*
X200501036Y-103200499D01*
X200580591Y-103190448D01*
X200800698Y-103162642D01*
X201093262Y-103087525D01*
X201093265Y-103087524D01*
X201374095Y-102976336D01*
X201374096Y-102976335D01*
X201374094Y-102976335D01*
X201374104Y-102976332D01*
X201638795Y-102830816D01*
X201883162Y-102653274D01*
X202103349Y-102446504D01*
X202295885Y-102213768D01*
X202457733Y-101958736D01*
X202586341Y-101685430D01*
X202679681Y-101398160D01*
X202736280Y-101101457D01*
X202736281Y-101101446D01*
X202755246Y-100800005D01*
X202755246Y-100799994D01*
X202736281Y-100498553D01*
X202736280Y-100498546D01*
X202736280Y-100498543D01*
X202679681Y-100201840D01*
X202586341Y-99914570D01*
X202457733Y-99641264D01*
X202295885Y-99386232D01*
X202103349Y-99153496D01*
X201883162Y-98946726D01*
X201883159Y-98946724D01*
X201883153Y-98946719D01*
X201638806Y-98769191D01*
X201638799Y-98769186D01*
X201638795Y-98769184D01*
X201374104Y-98623668D01*
X201374101Y-98623666D01*
X201374096Y-98623664D01*
X201374095Y-98623663D01*
X201093265Y-98512475D01*
X201093262Y-98512474D01*
X200800695Y-98437357D01*
X200501036Y-98399500D01*
X200501027Y-98399500D01*
X200198973Y-98399500D01*
X200198963Y-98399500D01*
X199899304Y-98437357D01*
X199606737Y-98512474D01*
X199606734Y-98512475D01*
X199325904Y-98623663D01*
X199325903Y-98623664D01*
X199061205Y-98769184D01*
X199061193Y-98769191D01*
X198816846Y-98946719D01*
X198816836Y-98946727D01*
X198596652Y-99153494D01*
X198404111Y-99386236D01*
X198242268Y-99641261D01*
X198242265Y-99641267D01*
X198113661Y-99914563D01*
X198113659Y-99914568D01*
X198020320Y-100201835D01*
X197963719Y-100498546D01*
X197963718Y-100498553D01*
X197944754Y-100799994D01*
X197355408Y-100799994D01*
X197335798Y-100513314D01*
X197277334Y-100231968D01*
X197266626Y-100201840D01*
X197181105Y-99961206D01*
X197181106Y-99961206D01*
X197048901Y-99706064D01*
X196883187Y-99471299D01*
X196773967Y-99354354D01*
X196687053Y-99261292D01*
X196464147Y-99079945D01*
X196464146Y-99079944D01*
X196218617Y-98930634D01*
X195955063Y-98816158D01*
X195955061Y-98816157D01*
X195955058Y-98816156D01*
X195825578Y-98779877D01*
X195678364Y-98738630D01*
X195678359Y-98738629D01*
X195678358Y-98738629D01*
X195536018Y-98719064D01*
X195393679Y-98699500D01*
X195393678Y-98699500D01*
X195106322Y-98699500D01*
X195106321Y-98699500D01*
X194821642Y-98738629D01*
X194821635Y-98738630D01*
X194613861Y-98796845D01*
X194544942Y-98816156D01*
X194544939Y-98816156D01*
X194544936Y-98816158D01*
X194544935Y-98816158D01*
X194281382Y-98930634D01*
X194035853Y-99079944D01*
X193812950Y-99261289D01*
X193616812Y-99471299D01*
X193451098Y-99706064D01*
X193318894Y-99961206D01*
X193222667Y-100231962D01*
X193222666Y-100231965D01*
X193164201Y-100513319D01*
X193144592Y-100800000D01*
X192555246Y-100800000D01*
X192555246Y-100799994D01*
X192536281Y-100498553D01*
X192536280Y-100498546D01*
X192536280Y-100498543D01*
X192479681Y-100201840D01*
X192386341Y-99914570D01*
X192257733Y-99641264D01*
X192095885Y-99386232D01*
X191903349Y-99153496D01*
X191683162Y-98946726D01*
X191683159Y-98946724D01*
X191683153Y-98946719D01*
X191438806Y-98769191D01*
X191438799Y-98769186D01*
X191438795Y-98769184D01*
X191174104Y-98623668D01*
X191174101Y-98623666D01*
X191174096Y-98623664D01*
X191174095Y-98623663D01*
X190893265Y-98512475D01*
X190893262Y-98512474D01*
X190600695Y-98437357D01*
X190301036Y-98399500D01*
X190301027Y-98399500D01*
X189998973Y-98399500D01*
X189998963Y-98399500D01*
X189699304Y-98437357D01*
X189406737Y-98512474D01*
X189406734Y-98512475D01*
X189125904Y-98623663D01*
X189125903Y-98623664D01*
X188861205Y-98769184D01*
X188861193Y-98769191D01*
X188616846Y-98946719D01*
X188616836Y-98946727D01*
X188396652Y-99153494D01*
X188204111Y-99386236D01*
X188042268Y-99641261D01*
X188042265Y-99641267D01*
X187913661Y-99914563D01*
X187913659Y-99914568D01*
X187820320Y-100201835D01*
X187763719Y-100498546D01*
X187763718Y-100498553D01*
X187744754Y-100799994D01*
X183580151Y-100799994D01*
X183575739Y-100797746D01*
X183233206Y-100666260D01*
X183023268Y-100610007D01*
X182878794Y-100571295D01*
X182878790Y-100571294D01*
X182878789Y-100571294D01*
X182516405Y-100513898D01*
X182150001Y-100494696D01*
X182149999Y-100494696D01*
X181783594Y-100513898D01*
X181421211Y-100571294D01*
X181421209Y-100571294D01*
X181066793Y-100666260D01*
X180724260Y-100797746D01*
X180397343Y-100964320D01*
X180089635Y-101164147D01*
X179804498Y-101395047D01*
X179804490Y-101395054D01*
X179545054Y-101654490D01*
X179545047Y-101654498D01*
X179314147Y-101939635D01*
X179114320Y-102247343D01*
X178947746Y-102574260D01*
X178816260Y-102916793D01*
X178721294Y-103271209D01*
X178721294Y-103271211D01*
X178663898Y-103633594D01*
X178644696Y-103999999D01*
X168150000Y-103999999D01*
X168150000Y-95100000D01*
X176594778Y-95100000D01*
X176613644Y-95387837D01*
X176613646Y-95387849D01*
X176669917Y-95670745D01*
X176669921Y-95670760D01*
X176762642Y-95943905D01*
X176890219Y-96202606D01*
X176890223Y-96202613D01*
X177050478Y-96442452D01*
X177240672Y-96659327D01*
X177457546Y-96849520D01*
X177697389Y-97009778D01*
X177956098Y-97137359D01*
X178229247Y-97230081D01*
X178512161Y-97286356D01*
X178800000Y-97305222D01*
X179087839Y-97286356D01*
X179370753Y-97230081D01*
X179643902Y-97137359D01*
X179902611Y-97009778D01*
X180142454Y-96849520D01*
X180359327Y-96659327D01*
X180549520Y-96442454D01*
X180709778Y-96202611D01*
X180837359Y-95943902D01*
X180930081Y-95670753D01*
X180986356Y-95387839D01*
X181005222Y-95100000D01*
X183144778Y-95100000D01*
X183163644Y-95387837D01*
X183163646Y-95387849D01*
X183219917Y-95670745D01*
X183219921Y-95670760D01*
X183312642Y-95943905D01*
X183440219Y-96202606D01*
X183440223Y-96202613D01*
X183600478Y-96442452D01*
X183790672Y-96659327D01*
X184007546Y-96849520D01*
X184247389Y-97009778D01*
X184506098Y-97137359D01*
X184779247Y-97230081D01*
X185062161Y-97286356D01*
X185350000Y-97305222D01*
X185637839Y-97286356D01*
X185920753Y-97230081D01*
X186193902Y-97137359D01*
X186452611Y-97009778D01*
X186692454Y-96849520D01*
X186909327Y-96659327D01*
X187099520Y-96442454D01*
X187259778Y-96202611D01*
X187387359Y-95943902D01*
X187480081Y-95670753D01*
X187536356Y-95387839D01*
X187555222Y-95100000D01*
X189694778Y-95100000D01*
X189713644Y-95387837D01*
X189713646Y-95387849D01*
X189769917Y-95670745D01*
X189769921Y-95670760D01*
X189862642Y-95943905D01*
X189990219Y-96202606D01*
X189990223Y-96202613D01*
X190150478Y-96442452D01*
X190340672Y-96659327D01*
X190557546Y-96849520D01*
X190797389Y-97009778D01*
X191056098Y-97137359D01*
X191329247Y-97230081D01*
X191612161Y-97286356D01*
X191900000Y-97305222D01*
X192187839Y-97286356D01*
X192470753Y-97230081D01*
X192743902Y-97137359D01*
X193002611Y-97009778D01*
X193242454Y-96849520D01*
X193459327Y-96659327D01*
X193649520Y-96442454D01*
X193809778Y-96202611D01*
X193937359Y-95943902D01*
X194030081Y-95670753D01*
X194086356Y-95387839D01*
X194105222Y-95100000D01*
X194086356Y-94812161D01*
X194030081Y-94529247D01*
X193937359Y-94256098D01*
X193809778Y-93997389D01*
X193649520Y-93757546D01*
X193613162Y-93716088D01*
X193459327Y-93540672D01*
X193242452Y-93350478D01*
X193002613Y-93190223D01*
X193002606Y-93190219D01*
X192743905Y-93062642D01*
X192470760Y-92969921D01*
X192470754Y-92969919D01*
X192470753Y-92969919D01*
X192470751Y-92969918D01*
X192470745Y-92969917D01*
X192187849Y-92913646D01*
X192187839Y-92913644D01*
X191900000Y-92894778D01*
X191612161Y-92913644D01*
X191612155Y-92913645D01*
X191612150Y-92913646D01*
X191329254Y-92969917D01*
X191329239Y-92969921D01*
X191056094Y-93062642D01*
X190797393Y-93190219D01*
X190797386Y-93190223D01*
X190557547Y-93350478D01*
X190340672Y-93540672D01*
X190150478Y-93757547D01*
X189990223Y-93997386D01*
X189990219Y-93997393D01*
X189862642Y-94256094D01*
X189769921Y-94529239D01*
X189769917Y-94529254D01*
X189713646Y-94812150D01*
X189713644Y-94812162D01*
X189694778Y-95100000D01*
X187555222Y-95100000D01*
X187536356Y-94812161D01*
X187480081Y-94529247D01*
X187387359Y-94256098D01*
X187259778Y-93997389D01*
X187099520Y-93757546D01*
X187063162Y-93716088D01*
X186909327Y-93540672D01*
X186692452Y-93350478D01*
X186452613Y-93190223D01*
X186452606Y-93190219D01*
X186193905Y-93062642D01*
X185920760Y-92969921D01*
X185920754Y-92969919D01*
X185920753Y-92969919D01*
X185920751Y-92969918D01*
X185920745Y-92969917D01*
X185637849Y-92913646D01*
X185637839Y-92913644D01*
X185350000Y-92894778D01*
X185062161Y-92913644D01*
X185062155Y-92913645D01*
X185062150Y-92913646D01*
X184779254Y-92969917D01*
X184779239Y-92969921D01*
X184506094Y-93062642D01*
X184247393Y-93190219D01*
X184247386Y-93190223D01*
X184007547Y-93350478D01*
X183790672Y-93540672D01*
X183600478Y-93757547D01*
X183440223Y-93997386D01*
X183440219Y-93997393D01*
X183312642Y-94256094D01*
X183219921Y-94529239D01*
X183219917Y-94529254D01*
X183163646Y-94812150D01*
X183163644Y-94812162D01*
X183144778Y-95100000D01*
X181005222Y-95100000D01*
X180986356Y-94812161D01*
X180930081Y-94529247D01*
X180837359Y-94256098D01*
X180709778Y-93997389D01*
X180549520Y-93757546D01*
X180513162Y-93716088D01*
X180359327Y-93540672D01*
X180142452Y-93350478D01*
X179902613Y-93190223D01*
X179902606Y-93190219D01*
X179643905Y-93062642D01*
X179370760Y-92969921D01*
X179370754Y-92969919D01*
X179370753Y-92969919D01*
X179370751Y-92969918D01*
X179370745Y-92969917D01*
X179087849Y-92913646D01*
X179087839Y-92913644D01*
X178800000Y-92894778D01*
X178512161Y-92913644D01*
X178512155Y-92913645D01*
X178512150Y-92913646D01*
X178229254Y-92969917D01*
X178229239Y-92969921D01*
X177956094Y-93062642D01*
X177697393Y-93190219D01*
X177697386Y-93190223D01*
X177457547Y-93350478D01*
X177240672Y-93540672D01*
X177050478Y-93757547D01*
X176890223Y-93997386D01*
X176890219Y-93997393D01*
X176762642Y-94256094D01*
X176669921Y-94529239D01*
X176669917Y-94529254D01*
X176613646Y-94812150D01*
X176613644Y-94812162D01*
X176594778Y-95100000D01*
X168150000Y-95100000D01*
X168150000Y-88067494D01*
X197577056Y-88067494D01*
X197577056Y-88067505D01*
X197596810Y-88381504D01*
X197596811Y-88381511D01*
X197655770Y-88690583D01*
X197752997Y-88989816D01*
X197752999Y-88989821D01*
X197886961Y-89274503D01*
X197886964Y-89274509D01*
X198055551Y-89540161D01*
X198055554Y-89540165D01*
X198256106Y-89782590D01*
X198256108Y-89782592D01*
X198256110Y-89782594D01*
X198440102Y-89955374D01*
X198485468Y-89997976D01*
X198485478Y-89997984D01*
X198740004Y-90182908D01*
X198740009Y-90182910D01*
X198740016Y-90182916D01*
X199015734Y-90334494D01*
X199015739Y-90334496D01*
X199015741Y-90334497D01*
X199015742Y-90334498D01*
X199308271Y-90450318D01*
X199308274Y-90450319D01*
X199613023Y-90528565D01*
X199613027Y-90528566D01*
X199678510Y-90536838D01*
X199925170Y-90567999D01*
X199925179Y-90567999D01*
X199925182Y-90568000D01*
X199925184Y-90568000D01*
X200239816Y-90568000D01*
X200239818Y-90568000D01*
X200239821Y-90567999D01*
X200239829Y-90567999D01*
X200426093Y-90544468D01*
X200551973Y-90528566D01*
X200856725Y-90450319D01*
X200856728Y-90450318D01*
X201149257Y-90334498D01*
X201149258Y-90334497D01*
X201149256Y-90334497D01*
X201149266Y-90334494D01*
X201424984Y-90182916D01*
X201679530Y-89997978D01*
X201908890Y-89782594D01*
X202109447Y-89540163D01*
X202278037Y-89274507D01*
X202412003Y-88989815D01*
X202509231Y-88690579D01*
X202568188Y-88381515D01*
X202587944Y-88067500D01*
X202583697Y-88000000D01*
X202568189Y-87753495D01*
X202568188Y-87753488D01*
X202568188Y-87753485D01*
X202509231Y-87444421D01*
X202412003Y-87145185D01*
X202278037Y-86860493D01*
X202109447Y-86594837D01*
X202027561Y-86495854D01*
X201908893Y-86352409D01*
X201908891Y-86352407D01*
X201679531Y-86137023D01*
X201679521Y-86137015D01*
X201424995Y-85952091D01*
X201424988Y-85952086D01*
X201424984Y-85952084D01*
X201149266Y-85800506D01*
X201149263Y-85800504D01*
X201149258Y-85800502D01*
X201149257Y-85800501D01*
X200856728Y-85684681D01*
X200856725Y-85684680D01*
X200551976Y-85606434D01*
X200551963Y-85606432D01*
X200239829Y-85567000D01*
X200239818Y-85567000D01*
X199925182Y-85567000D01*
X199925170Y-85567000D01*
X199613036Y-85606432D01*
X199613023Y-85606434D01*
X199308274Y-85684680D01*
X199308271Y-85684681D01*
X199015742Y-85800501D01*
X199015741Y-85800502D01*
X198740016Y-85952084D01*
X198740004Y-85952091D01*
X198485478Y-86137015D01*
X198485468Y-86137023D01*
X198256108Y-86352407D01*
X198256106Y-86352409D01*
X198055554Y-86594834D01*
X198055551Y-86594838D01*
X197886964Y-86860490D01*
X197886961Y-86860496D01*
X197752999Y-87145178D01*
X197752997Y-87145183D01*
X197655770Y-87444416D01*
X197596811Y-87753488D01*
X197596810Y-87753495D01*
X197577056Y-88067494D01*
X168150000Y-88067494D01*
X168150000Y-88000000D01*
X156186319Y-76036319D01*
X156152834Y-75974996D01*
X156150000Y-75948638D01*
X156150000Y-65509466D01*
X197582000Y-65509466D01*
X197582000Y-68625528D01*
X197582001Y-68625534D01*
X197592613Y-68744915D01*
X197648589Y-68940545D01*
X197648590Y-68940548D01*
X197648591Y-68940549D01*
X197742802Y-69120907D01*
X197742804Y-69120909D01*
X197871390Y-69278609D01*
X197965303Y-69355184D01*
X198029093Y-69407198D01*
X198209451Y-69501409D01*
X198405082Y-69557386D01*
X198524463Y-69568000D01*
X201640536Y-69567999D01*
X201759918Y-69557386D01*
X201955549Y-69501409D01*
X202135907Y-69407198D01*
X202293609Y-69278609D01*
X202422198Y-69120907D01*
X202516409Y-68940549D01*
X202572386Y-68744918D01*
X202583000Y-68625537D01*
X202582999Y-65509464D01*
X202572386Y-65390082D01*
X202516409Y-65194451D01*
X202422198Y-65014093D01*
X202370184Y-64950303D01*
X202293609Y-64856390D01*
X202135909Y-64727804D01*
X202135910Y-64727804D01*
X202135907Y-64727802D01*
X201955549Y-64633591D01*
X201955548Y-64633590D01*
X201955545Y-64633589D01*
X201838329Y-64600050D01*
X201759918Y-64577614D01*
X201759915Y-64577613D01*
X201759913Y-64577613D01*
X201693602Y-64571717D01*
X201640537Y-64567000D01*
X201640532Y-64567000D01*
X198524471Y-64567000D01*
X198524465Y-64567000D01*
X198524464Y-64567001D01*
X198512816Y-64568036D01*
X198405084Y-64577613D01*
X198209454Y-64633589D01*
X198119272Y-64680696D01*
X198029093Y-64727802D01*
X198029091Y-64727803D01*
X198029090Y-64727804D01*
X197871390Y-64856390D01*
X197742804Y-65014090D01*
X197648589Y-65194454D01*
X197592614Y-65390083D01*
X197592613Y-65390086D01*
X197582000Y-65509466D01*
X156150000Y-65509466D01*
X156150000Y-58872769D01*
X156169685Y-58805730D01*
X156222489Y-58759975D01*
X156291647Y-58750031D01*
X156355203Y-58779056D01*
X156392977Y-58837834D01*
X156395617Y-58848578D01*
X156419917Y-58970745D01*
X156419921Y-58970760D01*
X156512642Y-59243905D01*
X156640219Y-59502606D01*
X156640223Y-59502613D01*
X156800478Y-59742452D01*
X156990672Y-59959327D01*
X157207547Y-60149521D01*
X157447386Y-60309776D01*
X157447393Y-60309780D01*
X157576743Y-60373568D01*
X157706098Y-60437359D01*
X157979247Y-60530081D01*
X158262161Y-60586356D01*
X158550000Y-60605222D01*
X158837839Y-60586356D01*
X159120753Y-60530081D01*
X159393902Y-60437359D01*
X159652611Y-60309778D01*
X159892454Y-60149520D01*
X160109327Y-59959327D01*
X160299520Y-59742454D01*
X160459778Y-59502611D01*
X160587359Y-59243902D01*
X160680081Y-58970753D01*
X160736356Y-58687839D01*
X160755222Y-58400000D01*
X162894778Y-58400000D01*
X162913644Y-58687837D01*
X162913646Y-58687849D01*
X162969917Y-58970745D01*
X162969921Y-58970760D01*
X163062642Y-59243905D01*
X163190219Y-59502606D01*
X163190223Y-59502613D01*
X163350478Y-59742452D01*
X163540672Y-59959327D01*
X163757547Y-60149521D01*
X163997386Y-60309776D01*
X163997393Y-60309780D01*
X164126743Y-60373568D01*
X164256098Y-60437359D01*
X164529247Y-60530081D01*
X164812161Y-60586356D01*
X165100000Y-60605222D01*
X165387839Y-60586356D01*
X165670753Y-60530081D01*
X165943902Y-60437359D01*
X166202611Y-60309778D01*
X166442454Y-60149520D01*
X166659327Y-59959327D01*
X166849520Y-59742454D01*
X167009778Y-59502611D01*
X167137359Y-59243902D01*
X167230081Y-58970753D01*
X167286356Y-58687839D01*
X167305222Y-58400000D01*
X169444778Y-58400000D01*
X169463644Y-58687837D01*
X169463646Y-58687849D01*
X169519917Y-58970745D01*
X169519921Y-58970760D01*
X169612642Y-59243905D01*
X169740219Y-59502606D01*
X169740223Y-59502613D01*
X169900478Y-59742452D01*
X170090672Y-59959327D01*
X170307547Y-60149521D01*
X170547386Y-60309776D01*
X170547393Y-60309780D01*
X170676743Y-60373568D01*
X170806098Y-60437359D01*
X171079247Y-60530081D01*
X171362161Y-60586356D01*
X171650000Y-60605222D01*
X171937839Y-60586356D01*
X172220753Y-60530081D01*
X172493902Y-60437359D01*
X172752611Y-60309778D01*
X172992454Y-60149520D01*
X173209327Y-59959327D01*
X173399520Y-59742454D01*
X173559778Y-59502611D01*
X173687359Y-59243902D01*
X173780081Y-58970753D01*
X173836356Y-58687839D01*
X173855222Y-58400000D01*
X175994778Y-58400000D01*
X176013644Y-58687837D01*
X176013646Y-58687849D01*
X176069917Y-58970745D01*
X176069921Y-58970760D01*
X176162642Y-59243905D01*
X176290219Y-59502606D01*
X176290223Y-59502613D01*
X176450478Y-59742452D01*
X176640672Y-59959327D01*
X176857547Y-60149521D01*
X177097386Y-60309776D01*
X177097393Y-60309780D01*
X177226743Y-60373568D01*
X177356098Y-60437359D01*
X177629247Y-60530081D01*
X177912161Y-60586356D01*
X178200000Y-60605222D01*
X178487839Y-60586356D01*
X178770753Y-60530081D01*
X179043902Y-60437359D01*
X179302611Y-60309778D01*
X179542454Y-60149520D01*
X179759327Y-59959327D01*
X179949520Y-59742454D01*
X180109778Y-59502611D01*
X180237359Y-59243902D01*
X180330081Y-58970753D01*
X180386356Y-58687839D01*
X180405222Y-58400000D01*
X180386356Y-58112161D01*
X180330081Y-57829247D01*
X180237359Y-57556098D01*
X180109778Y-57297389D01*
X179949520Y-57057546D01*
X179759327Y-56840672D01*
X179542452Y-56650478D01*
X179302613Y-56490223D01*
X179302606Y-56490219D01*
X179043905Y-56362642D01*
X178770760Y-56269921D01*
X178770754Y-56269919D01*
X178770753Y-56269919D01*
X178770751Y-56269918D01*
X178770745Y-56269917D01*
X178487849Y-56213646D01*
X178487839Y-56213644D01*
X178200000Y-56194778D01*
X177912161Y-56213644D01*
X177912155Y-56213645D01*
X177912150Y-56213646D01*
X177629254Y-56269917D01*
X177629239Y-56269921D01*
X177356094Y-56362642D01*
X177097393Y-56490219D01*
X177097386Y-56490223D01*
X176857547Y-56650478D01*
X176640672Y-56840672D01*
X176450478Y-57057547D01*
X176290223Y-57297386D01*
X176290219Y-57297393D01*
X176162642Y-57556094D01*
X176069921Y-57829239D01*
X176069917Y-57829254D01*
X176013646Y-58112150D01*
X176013644Y-58112162D01*
X175994778Y-58400000D01*
X173855222Y-58400000D01*
X173836356Y-58112161D01*
X173780081Y-57829247D01*
X173687359Y-57556098D01*
X173559778Y-57297389D01*
X173399520Y-57057546D01*
X173209327Y-56840672D01*
X172992452Y-56650478D01*
X172752613Y-56490223D01*
X172752606Y-56490219D01*
X172493905Y-56362642D01*
X172220760Y-56269921D01*
X172220754Y-56269919D01*
X172220753Y-56269919D01*
X172220751Y-56269918D01*
X172220745Y-56269917D01*
X171937849Y-56213646D01*
X171937839Y-56213644D01*
X171650000Y-56194778D01*
X171362161Y-56213644D01*
X171362155Y-56213645D01*
X171362150Y-56213646D01*
X171079254Y-56269917D01*
X171079239Y-56269921D01*
X170806094Y-56362642D01*
X170547393Y-56490219D01*
X170547386Y-56490223D01*
X170307547Y-56650478D01*
X170090672Y-56840672D01*
X169900478Y-57057547D01*
X169740223Y-57297386D01*
X169740219Y-57297393D01*
X169612642Y-57556094D01*
X169519921Y-57829239D01*
X169519917Y-57829254D01*
X169463646Y-58112150D01*
X169463644Y-58112162D01*
X169444778Y-58400000D01*
X167305222Y-58400000D01*
X167286356Y-58112161D01*
X167230081Y-57829247D01*
X167137359Y-57556098D01*
X167009778Y-57297389D01*
X166849520Y-57057546D01*
X166659327Y-56840672D01*
X166442452Y-56650478D01*
X166202613Y-56490223D01*
X166202606Y-56490219D01*
X165943905Y-56362642D01*
X165670760Y-56269921D01*
X165670754Y-56269919D01*
X165670753Y-56269919D01*
X165670751Y-56269918D01*
X165670745Y-56269917D01*
X165387849Y-56213646D01*
X165387839Y-56213644D01*
X165100000Y-56194778D01*
X164812161Y-56213644D01*
X164812155Y-56213645D01*
X164812150Y-56213646D01*
X164529254Y-56269917D01*
X164529239Y-56269921D01*
X164256094Y-56362642D01*
X163997393Y-56490219D01*
X163997386Y-56490223D01*
X163757547Y-56650478D01*
X163540672Y-56840672D01*
X163350478Y-57057547D01*
X163190223Y-57297386D01*
X163190219Y-57297393D01*
X163062642Y-57556094D01*
X162969921Y-57829239D01*
X162969917Y-57829254D01*
X162913646Y-58112150D01*
X162913644Y-58112162D01*
X162894778Y-58400000D01*
X160755222Y-58400000D01*
X160736356Y-58112161D01*
X160680081Y-57829247D01*
X160587359Y-57556098D01*
X160459778Y-57297389D01*
X160299520Y-57057546D01*
X160109327Y-56840672D01*
X159892452Y-56650478D01*
X159652613Y-56490223D01*
X159652606Y-56490219D01*
X159393905Y-56362642D01*
X159120760Y-56269921D01*
X159120754Y-56269919D01*
X159120753Y-56269919D01*
X159120751Y-56269918D01*
X159120745Y-56269917D01*
X158837849Y-56213646D01*
X158837839Y-56213644D01*
X158550000Y-56194778D01*
X158262161Y-56213644D01*
X158262155Y-56213645D01*
X158262150Y-56213646D01*
X157979254Y-56269917D01*
X157979239Y-56269921D01*
X157706094Y-56362642D01*
X157447393Y-56490219D01*
X157447386Y-56490223D01*
X157207547Y-56650478D01*
X156990672Y-56840672D01*
X156800478Y-57057547D01*
X156640223Y-57297386D01*
X156640219Y-57297393D01*
X156512642Y-57556094D01*
X156419921Y-57829239D01*
X156419917Y-57829254D01*
X156395617Y-57951421D01*
X156363232Y-58013332D01*
X156302517Y-58047906D01*
X156232747Y-58044167D01*
X156176075Y-58003300D01*
X156150494Y-57938282D01*
X156150000Y-57927230D01*
X156150000Y-43624500D01*
X156169685Y-43557461D01*
X156222489Y-43511706D01*
X156274000Y-43500500D01*
X187374578Y-43500500D01*
X187441617Y-43520185D01*
G37*
%TD.AperFunction*%
%TD*%
%TA.AperFunction,Conductor*%
%TO.N,/SW-Node*%
G36*
X155162915Y-79019685D02*
G01*
X155186799Y-79039685D01*
X165316925Y-89964331D01*
X165348074Y-90026873D01*
X165350000Y-90048643D01*
X165350000Y-107876000D01*
X165330315Y-107943039D01*
X165277511Y-107988794D01*
X165226000Y-108000000D01*
X150274000Y-108000000D01*
X150206961Y-107980315D01*
X150161206Y-107927511D01*
X150150000Y-107876000D01*
X150150000Y-103000000D01*
X144274000Y-103000000D01*
X144206961Y-102980315D01*
X144161206Y-102927511D01*
X144150000Y-102876000D01*
X144150000Y-99624000D01*
X144169685Y-99556961D01*
X144222489Y-99511206D01*
X144274000Y-99500000D01*
X149650000Y-99500000D01*
X149650000Y-96843329D01*
X149666612Y-96781331D01*
X149772743Y-96597507D01*
X149885639Y-96324952D01*
X149961993Y-96039993D01*
X150000500Y-95747506D01*
X150000500Y-95452494D01*
X149961993Y-95160007D01*
X149885639Y-94875048D01*
X149772743Y-94602493D01*
X149666613Y-94418669D01*
X149650000Y-94356669D01*
X149650000Y-83000000D01*
X144274000Y-83000000D01*
X144206961Y-82980315D01*
X144161206Y-82927511D01*
X144150000Y-82876000D01*
X144150000Y-79124000D01*
X144169685Y-79056961D01*
X144222489Y-79011206D01*
X144274000Y-79000000D01*
X155095876Y-79000000D01*
X155162915Y-79019685D01*
G37*
%TD.AperFunction*%
%TD*%
%TA.AperFunction,Conductor*%
%TO.N,GND2*%
G36*
X149087539Y-93019685D02*
G01*
X149133294Y-93072489D01*
X149144500Y-93124000D01*
X149144500Y-94356676D01*
X149157897Y-94458428D01*
X149161725Y-94487503D01*
X149165399Y-94501213D01*
X149178339Y-94549508D01*
X149228831Y-94671408D01*
X149228836Y-94671418D01*
X149314339Y-94819516D01*
X149321509Y-94834054D01*
X149402827Y-95030373D01*
X149408041Y-95045733D01*
X149463038Y-95250990D01*
X149466202Y-95266897D01*
X149493939Y-95477565D01*
X149495000Y-95493751D01*
X149495000Y-95706247D01*
X149493939Y-95722433D01*
X149466202Y-95933101D01*
X149463038Y-95949008D01*
X149408041Y-96154265D01*
X149402827Y-96169625D01*
X149321510Y-96365941D01*
X149314337Y-96380487D01*
X149228835Y-96528582D01*
X149228830Y-96528592D01*
X149178341Y-96650484D01*
X149178337Y-96650497D01*
X149161725Y-96712492D01*
X149161723Y-96712501D01*
X149144500Y-96843328D01*
X149144500Y-97376000D01*
X149124815Y-97443039D01*
X149072011Y-97488794D01*
X149020500Y-97500000D01*
X144150000Y-97500000D01*
X144150000Y-98916204D01*
X144130315Y-98983243D01*
X144077511Y-99028998D01*
X144065159Y-99033858D01*
X144012502Y-99051383D01*
X144012496Y-99051386D01*
X143891462Y-99129171D01*
X143891451Y-99129179D01*
X143838659Y-99174923D01*
X143744433Y-99283664D01*
X143744430Y-99283668D01*
X143684664Y-99414534D01*
X143684662Y-99414541D01*
X143664977Y-99481580D01*
X143664976Y-99481584D01*
X143645099Y-99619838D01*
X143644500Y-99624001D01*
X143644500Y-100227620D01*
X143635061Y-100275073D01*
X143614364Y-100325038D01*
X143614361Y-100325048D01*
X143538008Y-100610004D01*
X143538006Y-100610015D01*
X143499500Y-100902486D01*
X143499500Y-101197513D01*
X143522245Y-101370273D01*
X143538007Y-101489993D01*
X143562458Y-101581245D01*
X143614360Y-101774950D01*
X143635061Y-101824925D01*
X143644500Y-101872378D01*
X143644500Y-102876000D01*
X143644501Y-102876009D01*
X143656052Y-102983450D01*
X143656054Y-102983462D01*
X143667260Y-103034972D01*
X143701383Y-103137497D01*
X143701386Y-103137503D01*
X143779171Y-103258537D01*
X143779179Y-103258548D01*
X143824923Y-103311340D01*
X143824926Y-103311343D01*
X143824930Y-103311347D01*
X143933664Y-103405567D01*
X143933667Y-103405568D01*
X143933668Y-103405569D01*
X144064542Y-103465339D01*
X144068685Y-103466884D01*
X144067969Y-103468803D01*
X144119702Y-103502040D01*
X144148735Y-103565592D01*
X144150000Y-103583256D01*
X144150000Y-104228925D01*
X144130315Y-104295964D01*
X144083412Y-104338833D01*
X143946595Y-104410300D01*
X143946593Y-104410302D01*
X143788890Y-104538890D01*
X143660304Y-104696590D01*
X143566089Y-104876954D01*
X143510114Y-105072583D01*
X143510113Y-105072586D01*
X143499500Y-105191966D01*
X143499500Y-107808028D01*
X143499501Y-107808034D01*
X143510113Y-107927415D01*
X143566089Y-108123045D01*
X143566090Y-108123048D01*
X143566091Y-108123049D01*
X143660302Y-108303407D01*
X143660304Y-108303409D01*
X143788890Y-108461109D01*
X143843332Y-108505500D01*
X143946593Y-108589698D01*
X144083412Y-108661166D01*
X144133719Y-108709652D01*
X144150000Y-108771074D01*
X144150000Y-113000000D01*
X149526000Y-113000000D01*
X149593039Y-113019685D01*
X149638794Y-113072489D01*
X149650000Y-113124000D01*
X149650000Y-117376000D01*
X149630315Y-117443039D01*
X149577511Y-117488794D01*
X149526000Y-117500000D01*
X131774000Y-117500000D01*
X131706961Y-117480315D01*
X131661206Y-117427511D01*
X131650000Y-117376000D01*
X131650000Y-103541856D01*
X131669685Y-103474817D01*
X131675366Y-103466707D01*
X135142416Y-98916204D01*
X139612780Y-93048850D01*
X139669067Y-93007455D01*
X139711414Y-93000000D01*
X149020500Y-93000000D01*
X149087539Y-93019685D01*
G37*
%TD.AperFunction*%
%TD*%
%TA.AperFunction,Conductor*%
%TO.N,GND*%
G36*
X119044990Y-43520185D02*
G01*
X119090745Y-43572989D01*
X119101950Y-43624113D01*
X119149999Y-58999998D01*
X119149999Y-58999999D01*
X119150000Y-59000000D01*
X126995975Y-64363071D01*
X127040211Y-64417152D01*
X127050000Y-64465440D01*
X127050000Y-114976000D01*
X127030315Y-115043039D01*
X126977511Y-115088794D01*
X126926000Y-115100000D01*
X122849999Y-115100000D01*
X119650001Y-119599997D01*
X119650000Y-119600001D01*
X119650000Y-142375500D01*
X119630315Y-142442539D01*
X119577511Y-142488294D01*
X119526000Y-142499500D01*
X108654067Y-142499500D01*
X108645957Y-142499235D01*
X108397116Y-142482925D01*
X108381035Y-142480807D01*
X108140464Y-142432954D01*
X108124797Y-142428756D01*
X107892520Y-142349909D01*
X107877534Y-142343702D01*
X107657539Y-142235212D01*
X107643492Y-142227102D01*
X107439539Y-142090825D01*
X107426671Y-142080951D01*
X107242250Y-141919218D01*
X107230781Y-141907749D01*
X107069048Y-141723328D01*
X107059174Y-141710460D01*
X106922897Y-141506507D01*
X106914787Y-141492460D01*
X106808855Y-141277652D01*
X106806294Y-141272458D01*
X106800090Y-141257479D01*
X106721243Y-141025202D01*
X106717045Y-141009535D01*
X106709186Y-140970026D01*
X106669190Y-140768953D01*
X106667075Y-140752895D01*
X106650765Y-140504043D01*
X106650500Y-140495933D01*
X106650500Y-133002135D01*
X115999500Y-133002135D01*
X115999500Y-137697870D01*
X115999501Y-137697876D01*
X116005908Y-137757483D01*
X116056202Y-137892328D01*
X116056206Y-137892335D01*
X116142452Y-138007544D01*
X116142455Y-138007547D01*
X116257664Y-138093793D01*
X116257671Y-138093797D01*
X116392517Y-138144091D01*
X116392516Y-138144091D01*
X116399444Y-138144835D01*
X116452127Y-138150500D01*
X118547872Y-138150499D01*
X118607483Y-138144091D01*
X118742331Y-138093796D01*
X118857546Y-138007546D01*
X118943796Y-137892331D01*
X118994091Y-137757483D01*
X119000500Y-137697873D01*
X119000499Y-133002128D01*
X118994091Y-132942517D01*
X118943796Y-132807669D01*
X118943795Y-132807668D01*
X118943793Y-132807664D01*
X118857547Y-132692455D01*
X118857544Y-132692452D01*
X118742335Y-132606206D01*
X118742328Y-132606202D01*
X118607482Y-132555908D01*
X118607483Y-132555908D01*
X118547883Y-132549501D01*
X118547881Y-132549500D01*
X118547873Y-132549500D01*
X118547864Y-132549500D01*
X116452129Y-132549500D01*
X116452123Y-132549501D01*
X116392516Y-132555908D01*
X116257671Y-132606202D01*
X116257664Y-132606206D01*
X116142455Y-132692452D01*
X116142452Y-132692455D01*
X116056206Y-132807664D01*
X116056202Y-132807671D01*
X116005908Y-132942517D01*
X115999501Y-133002116D01*
X115999501Y-133002123D01*
X115999500Y-133002135D01*
X106650500Y-133002135D01*
X106650500Y-122821173D01*
X113924500Y-122821173D01*
X113924500Y-124221191D01*
X113924501Y-124221208D01*
X113935000Y-124323986D01*
X113935001Y-124323989D01*
X113990185Y-124490521D01*
X113990186Y-124490524D01*
X114082288Y-124639846D01*
X114206344Y-124763902D01*
X114355666Y-124856004D01*
X114522203Y-124911189D01*
X114624991Y-124921690D01*
X115550008Y-124921689D01*
X115550016Y-124921688D01*
X115550019Y-124921688D01*
X115606302Y-124915938D01*
X115652797Y-124911189D01*
X115819334Y-124856004D01*
X115968656Y-124763902D01*
X116092712Y-124639846D01*
X116184814Y-124490524D01*
X116239999Y-124323987D01*
X116250500Y-124221199D01*
X116250499Y-123711054D01*
X116267114Y-123649051D01*
X116278329Y-123629627D01*
X116278333Y-123629619D01*
X116358707Y-123435590D01*
X116413072Y-123232726D01*
X116439383Y-123032946D01*
X116445302Y-123008118D01*
X116457760Y-122972584D01*
X116458435Y-122970712D01*
X116496986Y-122866537D01*
X116497819Y-122864351D01*
X116535751Y-122767541D01*
X116536727Y-122765125D01*
X116545423Y-122744234D01*
X116573865Y-122675907D01*
X116574972Y-122673333D01*
X116611179Y-122591789D01*
X116612483Y-122588953D01*
X116647520Y-122515295D01*
X116649127Y-122512042D01*
X116658769Y-122493216D01*
X116682652Y-122446592D01*
X116684553Y-122443027D01*
X116716275Y-122385858D01*
X116718589Y-122381866D01*
X116747965Y-122333328D01*
X116750786Y-122328886D01*
X116780480Y-122284283D01*
X116780541Y-122284190D01*
X116780606Y-122284093D01*
X116782634Y-122281021D01*
X116782637Y-122281017D01*
X116786587Y-122272555D01*
X116799677Y-122250701D01*
X116808796Y-122238521D01*
X116832175Y-122175838D01*
X116835993Y-122166730D01*
X116843503Y-122150645D01*
X116845464Y-122144168D01*
X116846406Y-122140257D01*
X116850778Y-122125959D01*
X116858561Y-122105093D01*
X116859091Y-122103673D01*
X116865500Y-122044063D01*
X116865499Y-120098318D01*
X116859091Y-120038707D01*
X116858702Y-120037665D01*
X116808797Y-119903861D01*
X116808793Y-119903854D01*
X116722547Y-119788645D01*
X116722544Y-119788642D01*
X116607335Y-119702396D01*
X116607328Y-119702392D01*
X116472482Y-119652098D01*
X116472483Y-119652098D01*
X116412883Y-119645691D01*
X116412881Y-119645690D01*
X116412873Y-119645690D01*
X116412864Y-119645690D01*
X114467129Y-119645690D01*
X114467123Y-119645691D01*
X114407516Y-119652098D01*
X114272671Y-119702392D01*
X114272664Y-119702396D01*
X114157455Y-119788642D01*
X114157452Y-119788645D01*
X114071206Y-119903854D01*
X114071202Y-119903861D01*
X114020908Y-120038707D01*
X114015176Y-120092031D01*
X114014501Y-120098313D01*
X114014500Y-120098325D01*
X114014500Y-122044060D01*
X114014501Y-122044066D01*
X114020908Y-122103669D01*
X114020908Y-122103671D01*
X114020909Y-122103673D01*
X114028325Y-122123558D01*
X114030942Y-122130574D01*
X114034863Y-122143071D01*
X114035147Y-122144173D01*
X114038144Y-122155852D01*
X114045696Y-122171584D01*
X114050083Y-122181894D01*
X114071204Y-122238521D01*
X114071205Y-122238522D01*
X114071204Y-122238522D01*
X114082395Y-122253470D01*
X114094942Y-122274173D01*
X114095012Y-122274319D01*
X114106245Y-122343280D01*
X114084435Y-122395373D01*
X114086080Y-122396388D01*
X114082290Y-122402531D01*
X114082288Y-122402534D01*
X114037387Y-122475330D01*
X113990187Y-122551853D01*
X113990185Y-122551858D01*
X113969319Y-122614828D01*
X113935001Y-122718393D01*
X113935001Y-122718394D01*
X113935000Y-122718394D01*
X113924500Y-122821173D01*
X106650500Y-122821173D01*
X106650500Y-114552135D01*
X114149500Y-114552135D01*
X114149500Y-116247870D01*
X114149501Y-116247876D01*
X114155908Y-116307483D01*
X114206202Y-116442328D01*
X114206206Y-116442335D01*
X114292452Y-116557544D01*
X114292455Y-116557547D01*
X114407664Y-116643793D01*
X114407671Y-116643797D01*
X114542517Y-116694091D01*
X114542516Y-116694091D01*
X114549444Y-116694835D01*
X114602127Y-116700500D01*
X116297872Y-116700499D01*
X116357483Y-116694091D01*
X116492331Y-116643796D01*
X116607546Y-116557546D01*
X116693796Y-116442331D01*
X116744091Y-116307483D01*
X116750500Y-116247873D01*
X116750499Y-114552128D01*
X116744091Y-114492517D01*
X116693796Y-114357669D01*
X116693795Y-114357668D01*
X116693793Y-114357664D01*
X116607547Y-114242455D01*
X116607544Y-114242452D01*
X116492335Y-114156206D01*
X116492328Y-114156202D01*
X116357482Y-114105908D01*
X116357483Y-114105908D01*
X116297883Y-114099501D01*
X116297881Y-114099500D01*
X116297873Y-114099500D01*
X116297864Y-114099500D01*
X114602129Y-114099500D01*
X114602123Y-114099501D01*
X114542516Y-114105908D01*
X114407671Y-114156202D01*
X114407664Y-114156206D01*
X114292455Y-114242452D01*
X114292452Y-114242455D01*
X114206206Y-114357664D01*
X114206202Y-114357671D01*
X114155908Y-114492517D01*
X114149501Y-114552116D01*
X114149501Y-114552123D01*
X114149500Y-114552135D01*
X106650500Y-114552135D01*
X106650500Y-98479999D01*
X110794341Y-98479999D01*
X110794341Y-98480000D01*
X110814936Y-98715403D01*
X110814938Y-98715413D01*
X110876094Y-98943655D01*
X110876096Y-98943659D01*
X110876097Y-98943663D01*
X110975965Y-99157830D01*
X110975967Y-99157834D01*
X111084281Y-99312521D01*
X111111505Y-99351401D01*
X111278599Y-99518495D01*
X111375384Y-99586265D01*
X111472165Y-99654032D01*
X111472167Y-99654033D01*
X111472170Y-99654035D01*
X111686337Y-99753903D01*
X111914592Y-99815063D01*
X112102918Y-99831539D01*
X112149999Y-99835659D01*
X112150000Y-99835659D01*
X112150001Y-99835659D01*
X112189234Y-99832226D01*
X112385408Y-99815063D01*
X112613663Y-99753903D01*
X112827830Y-99654035D01*
X113021401Y-99518495D01*
X113188495Y-99351401D01*
X113324035Y-99157830D01*
X113423903Y-98943663D01*
X113485063Y-98715408D01*
X113505659Y-98480000D01*
X113485063Y-98244592D01*
X113423903Y-98016337D01*
X113324035Y-97802171D01*
X113188495Y-97608599D01*
X113188494Y-97608597D01*
X113021402Y-97441506D01*
X113021395Y-97441501D01*
X112827834Y-97305967D01*
X112827830Y-97305965D01*
X112827828Y-97305964D01*
X112613663Y-97206097D01*
X112613659Y-97206096D01*
X112613655Y-97206094D01*
X112385413Y-97144938D01*
X112385403Y-97144936D01*
X112150001Y-97124341D01*
X112149999Y-97124341D01*
X111914596Y-97144936D01*
X111914586Y-97144938D01*
X111686344Y-97206094D01*
X111686335Y-97206098D01*
X111472171Y-97305964D01*
X111472169Y-97305965D01*
X111278597Y-97441505D01*
X111111505Y-97608597D01*
X110975965Y-97802169D01*
X110975964Y-97802171D01*
X110876098Y-98016335D01*
X110876094Y-98016344D01*
X110814938Y-98244586D01*
X110814936Y-98244596D01*
X110794341Y-98479999D01*
X106650500Y-98479999D01*
X106650500Y-93399999D01*
X110794341Y-93399999D01*
X110794341Y-93400000D01*
X110814936Y-93635403D01*
X110814938Y-93635413D01*
X110876094Y-93863655D01*
X110876096Y-93863659D01*
X110876097Y-93863663D01*
X110975965Y-94077830D01*
X110975967Y-94077834D01*
X111084281Y-94232521D01*
X111111505Y-94271401D01*
X111278599Y-94438495D01*
X111375384Y-94506265D01*
X111472165Y-94574032D01*
X111472167Y-94574033D01*
X111472170Y-94574035D01*
X111686337Y-94673903D01*
X111914592Y-94735063D01*
X112102918Y-94751539D01*
X112149999Y-94755659D01*
X112150000Y-94755659D01*
X112150001Y-94755659D01*
X112189234Y-94752226D01*
X112385408Y-94735063D01*
X112613663Y-94673903D01*
X112827830Y-94574035D01*
X113021401Y-94438495D01*
X113188495Y-94271401D01*
X113324035Y-94077830D01*
X113423903Y-93863663D01*
X113485063Y-93635408D01*
X113505659Y-93400000D01*
X113485063Y-93164592D01*
X113423903Y-92936337D01*
X113324035Y-92722171D01*
X113188495Y-92528599D01*
X113188494Y-92528597D01*
X113021402Y-92361506D01*
X113021395Y-92361501D01*
X112827834Y-92225967D01*
X112827830Y-92225965D01*
X112827828Y-92225964D01*
X112613663Y-92126097D01*
X112613659Y-92126096D01*
X112613655Y-92126094D01*
X112385413Y-92064938D01*
X112385403Y-92064936D01*
X112150001Y-92044341D01*
X112149999Y-92044341D01*
X111914596Y-92064936D01*
X111914586Y-92064938D01*
X111686344Y-92126094D01*
X111686335Y-92126098D01*
X111472171Y-92225964D01*
X111472169Y-92225965D01*
X111278597Y-92361505D01*
X111111505Y-92528597D01*
X110975965Y-92722169D01*
X110975964Y-92722171D01*
X110876098Y-92936335D01*
X110876094Y-92936344D01*
X110814938Y-93164586D01*
X110814936Y-93164596D01*
X110794341Y-93399999D01*
X106650500Y-93399999D01*
X106650500Y-85779999D01*
X110794341Y-85779999D01*
X110794341Y-85780000D01*
X110814936Y-86015403D01*
X110814938Y-86015413D01*
X110876094Y-86243655D01*
X110876096Y-86243659D01*
X110876097Y-86243663D01*
X110975965Y-86457830D01*
X110975967Y-86457834D01*
X111111501Y-86651395D01*
X111111506Y-86651402D01*
X111278597Y-86818493D01*
X111278603Y-86818498D01*
X111464158Y-86948425D01*
X111507783Y-87003002D01*
X111514977Y-87072500D01*
X111483454Y-87134855D01*
X111464158Y-87151575D01*
X111278597Y-87281505D01*
X111111505Y-87448597D01*
X110975965Y-87642169D01*
X110975964Y-87642171D01*
X110876098Y-87856335D01*
X110876094Y-87856344D01*
X110814938Y-88084586D01*
X110814936Y-88084596D01*
X110794341Y-88319999D01*
X110794341Y-88320000D01*
X110814936Y-88555403D01*
X110814938Y-88555413D01*
X110876094Y-88783655D01*
X110876096Y-88783659D01*
X110876097Y-88783663D01*
X110975965Y-88997830D01*
X110975967Y-88997834D01*
X111084281Y-89152521D01*
X111111505Y-89191401D01*
X111278599Y-89358495D01*
X111375384Y-89426265D01*
X111472165Y-89494032D01*
X111472167Y-89494033D01*
X111472170Y-89494035D01*
X111686337Y-89593903D01*
X111914592Y-89655063D01*
X112102918Y-89671539D01*
X112149999Y-89675659D01*
X112150000Y-89675659D01*
X112150001Y-89675659D01*
X112189234Y-89672226D01*
X112385408Y-89655063D01*
X112613663Y-89593903D01*
X112827830Y-89494035D01*
X113021401Y-89358495D01*
X113188495Y-89191401D01*
X113324035Y-88997830D01*
X113423903Y-88783663D01*
X113485063Y-88555408D01*
X113505659Y-88320000D01*
X113485063Y-88084592D01*
X113423903Y-87856337D01*
X113324035Y-87642171D01*
X113188495Y-87448599D01*
X113188494Y-87448597D01*
X113021402Y-87281506D01*
X113021396Y-87281501D01*
X112835842Y-87151575D01*
X112792217Y-87096998D01*
X112785023Y-87027500D01*
X112816546Y-86965145D01*
X112835842Y-86948425D01*
X112858026Y-86932891D01*
X113021401Y-86818495D01*
X113188495Y-86651401D01*
X113324035Y-86457830D01*
X113423903Y-86243663D01*
X113485063Y-86015408D01*
X113505659Y-85780000D01*
X113485063Y-85544592D01*
X113423903Y-85316337D01*
X113324035Y-85102171D01*
X113188495Y-84908599D01*
X113188494Y-84908597D01*
X113021402Y-84741506D01*
X113021395Y-84741501D01*
X112827834Y-84605967D01*
X112827830Y-84605965D01*
X112827828Y-84605964D01*
X112613663Y-84506097D01*
X112613659Y-84506096D01*
X112613655Y-84506094D01*
X112385413Y-84444938D01*
X112385403Y-84444936D01*
X112150001Y-84424341D01*
X112149999Y-84424341D01*
X111914596Y-84444936D01*
X111914586Y-84444938D01*
X111686344Y-84506094D01*
X111686335Y-84506098D01*
X111472171Y-84605964D01*
X111472169Y-84605965D01*
X111278597Y-84741505D01*
X111111505Y-84908597D01*
X110975965Y-85102169D01*
X110975964Y-85102171D01*
X110876098Y-85316335D01*
X110876094Y-85316344D01*
X110814938Y-85544586D01*
X110814936Y-85544596D01*
X110794341Y-85779999D01*
X106650500Y-85779999D01*
X106650500Y-80699999D01*
X110794341Y-80699999D01*
X110794341Y-80700000D01*
X110814936Y-80935403D01*
X110814938Y-80935413D01*
X110876094Y-81163655D01*
X110876096Y-81163659D01*
X110876097Y-81163663D01*
X110975965Y-81377830D01*
X110975967Y-81377834D01*
X111084281Y-81532521D01*
X111111505Y-81571401D01*
X111278599Y-81738495D01*
X111375384Y-81806265D01*
X111472165Y-81874032D01*
X111472167Y-81874033D01*
X111472170Y-81874035D01*
X111686337Y-81973903D01*
X111914592Y-82035063D01*
X112102918Y-82051539D01*
X112149999Y-82055659D01*
X112150000Y-82055659D01*
X112150001Y-82055659D01*
X112189234Y-82052226D01*
X112385408Y-82035063D01*
X112613663Y-81973903D01*
X112827830Y-81874035D01*
X113021401Y-81738495D01*
X113188495Y-81571401D01*
X113324035Y-81377830D01*
X113423903Y-81163663D01*
X113485063Y-80935408D01*
X113505659Y-80700000D01*
X113485063Y-80464592D01*
X113423903Y-80236337D01*
X113324035Y-80022171D01*
X113188495Y-79828599D01*
X113188494Y-79828597D01*
X113021402Y-79661506D01*
X113021395Y-79661501D01*
X112827834Y-79525967D01*
X112827830Y-79525965D01*
X112827828Y-79525964D01*
X112613663Y-79426097D01*
X112613659Y-79426096D01*
X112613655Y-79426094D01*
X112385413Y-79364938D01*
X112385403Y-79364936D01*
X112150001Y-79344341D01*
X112149999Y-79344341D01*
X111914596Y-79364936D01*
X111914586Y-79364938D01*
X111686344Y-79426094D01*
X111686335Y-79426098D01*
X111472171Y-79525964D01*
X111472169Y-79525965D01*
X111278597Y-79661505D01*
X111111505Y-79828597D01*
X110975965Y-80022169D01*
X110975964Y-80022171D01*
X110876098Y-80236335D01*
X110876094Y-80236344D01*
X110814938Y-80464586D01*
X110814936Y-80464596D01*
X110794341Y-80699999D01*
X106650500Y-80699999D01*
X106650500Y-74722135D01*
X110799500Y-74722135D01*
X110799500Y-76517870D01*
X110799501Y-76517876D01*
X110805908Y-76577483D01*
X110856202Y-76712328D01*
X110856206Y-76712335D01*
X110942452Y-76827544D01*
X110942455Y-76827547D01*
X111057664Y-76913793D01*
X111057671Y-76913797D01*
X111192517Y-76964091D01*
X111192516Y-76964091D01*
X111199444Y-76964835D01*
X111252127Y-76970500D01*
X113047872Y-76970499D01*
X113107483Y-76964091D01*
X113242331Y-76913796D01*
X113357546Y-76827546D01*
X113443796Y-76712331D01*
X113494091Y-76577483D01*
X113500500Y-76517873D01*
X113500499Y-74722128D01*
X113494091Y-74662517D01*
X113443796Y-74527669D01*
X113443795Y-74527668D01*
X113443793Y-74527664D01*
X113357547Y-74412455D01*
X113357544Y-74412452D01*
X113242335Y-74326206D01*
X113242328Y-74326202D01*
X113107482Y-74275908D01*
X113107483Y-74275908D01*
X113047883Y-74269501D01*
X113047881Y-74269500D01*
X113047873Y-74269500D01*
X113047864Y-74269500D01*
X111252129Y-74269500D01*
X111252123Y-74269501D01*
X111192516Y-74275908D01*
X111057671Y-74326202D01*
X111057664Y-74326206D01*
X110942455Y-74412452D01*
X110942452Y-74412455D01*
X110856206Y-74527664D01*
X110856202Y-74527671D01*
X110805908Y-74662517D01*
X110799501Y-74722116D01*
X110799501Y-74722123D01*
X110799500Y-74722135D01*
X106650500Y-74722135D01*
X106650500Y-57297879D01*
X113922839Y-57297879D01*
X113923962Y-57409325D01*
X113924500Y-57417319D01*
X113924500Y-58700001D01*
X113924501Y-58700018D01*
X113935000Y-58802796D01*
X113935001Y-58802799D01*
X113990185Y-58969331D01*
X113990187Y-58969336D01*
X114009100Y-58999999D01*
X114082288Y-59118656D01*
X114206344Y-59242712D01*
X114355666Y-59334814D01*
X114522203Y-59389999D01*
X114624991Y-59400500D01*
X115550008Y-59400499D01*
X115550016Y-59400498D01*
X115550019Y-59400498D01*
X115606302Y-59394748D01*
X115652797Y-59389999D01*
X115819334Y-59334814D01*
X115968656Y-59242712D01*
X116092712Y-59118656D01*
X116184814Y-58969334D01*
X116239999Y-58802797D01*
X116250500Y-58700009D01*
X116250499Y-57409186D01*
X116251702Y-57391956D01*
X116252379Y-57387130D01*
X116250700Y-57357674D01*
X116250499Y-57350617D01*
X116250499Y-57299998D01*
X116250498Y-57299991D01*
X116245335Y-57249444D01*
X116258104Y-57180753D01*
X116264509Y-57169599D01*
X116315661Y-57090368D01*
X116317799Y-57087171D01*
X116367634Y-57015122D01*
X116370135Y-57011639D01*
X116404960Y-56964888D01*
X116460794Y-56922884D01*
X116469078Y-56920360D01*
X116472479Y-56919091D01*
X116472483Y-56919091D01*
X116607331Y-56868796D01*
X116722546Y-56782546D01*
X116808796Y-56667331D01*
X116859091Y-56532483D01*
X116865500Y-56472873D01*
X116865499Y-54527128D01*
X116859091Y-54467517D01*
X116855699Y-54458423D01*
X116808797Y-54332671D01*
X116808793Y-54332664D01*
X116722547Y-54217455D01*
X116722544Y-54217452D01*
X116607335Y-54131206D01*
X116607328Y-54131202D01*
X116472482Y-54080908D01*
X116472483Y-54080908D01*
X116412883Y-54074501D01*
X116412881Y-54074500D01*
X116412873Y-54074500D01*
X116412864Y-54074500D01*
X114467129Y-54074500D01*
X114467123Y-54074501D01*
X114407516Y-54080908D01*
X114272671Y-54131202D01*
X114272664Y-54131206D01*
X114157455Y-54217452D01*
X114157452Y-54217455D01*
X114071206Y-54332664D01*
X114071202Y-54332671D01*
X114020908Y-54467517D01*
X114014522Y-54526923D01*
X114014501Y-54527123D01*
X114014500Y-54527135D01*
X114014500Y-56447627D01*
X114014446Y-56451301D01*
X114013368Y-56487665D01*
X114013368Y-56487673D01*
X114019601Y-56542530D01*
X114019738Y-56543787D01*
X114026404Y-56608319D01*
X114026508Y-56609372D01*
X114032508Y-56672744D01*
X114031282Y-56705355D01*
X114024473Y-56745130D01*
X114024380Y-56745669D01*
X114008636Y-56835260D01*
X114008535Y-56835822D01*
X113992846Y-56922750D01*
X113992738Y-56923345D01*
X113976977Y-57008298D01*
X113976859Y-57008920D01*
X113961282Y-57090555D01*
X113961154Y-57091220D01*
X113949604Y-57150006D01*
X113945637Y-57165100D01*
X113935002Y-57197196D01*
X113935000Y-57197204D01*
X113929389Y-57252125D01*
X113928681Y-57257767D01*
X113923071Y-57295475D01*
X113922839Y-57297879D01*
X106650500Y-57297879D01*
X106650500Y-46878711D01*
X108299500Y-46878711D01*
X108299500Y-47121288D01*
X108331161Y-47361785D01*
X108393947Y-47596104D01*
X108486773Y-47820205D01*
X108486776Y-47820212D01*
X108608064Y-48030289D01*
X108608066Y-48030292D01*
X108608067Y-48030293D01*
X108755733Y-48222736D01*
X108755739Y-48222743D01*
X108927256Y-48394260D01*
X108927262Y-48394265D01*
X109119711Y-48541936D01*
X109329788Y-48663224D01*
X109553900Y-48756054D01*
X109788211Y-48818838D01*
X109968586Y-48842584D01*
X110028711Y-48850500D01*
X110028712Y-48850500D01*
X110271289Y-48850500D01*
X110319388Y-48844167D01*
X110511789Y-48818838D01*
X110746100Y-48756054D01*
X110970212Y-48663224D01*
X111180289Y-48541936D01*
X111372738Y-48394265D01*
X111544265Y-48222738D01*
X111691936Y-48030289D01*
X111813224Y-47820212D01*
X111906054Y-47596100D01*
X111968838Y-47361789D01*
X112000500Y-47121288D01*
X112000500Y-46878712D01*
X111968838Y-46638211D01*
X111906054Y-46403900D01*
X111813224Y-46179788D01*
X111691936Y-45969711D01*
X111544265Y-45777262D01*
X111544260Y-45777256D01*
X111372743Y-45605739D01*
X111372736Y-45605733D01*
X111180293Y-45458067D01*
X111180292Y-45458066D01*
X111180289Y-45458064D01*
X110970212Y-45336776D01*
X110970205Y-45336773D01*
X110746104Y-45243947D01*
X110511785Y-45181161D01*
X110271289Y-45149500D01*
X110271288Y-45149500D01*
X110028712Y-45149500D01*
X110028711Y-45149500D01*
X109788214Y-45181161D01*
X109553895Y-45243947D01*
X109329794Y-45336773D01*
X109329785Y-45336777D01*
X109119706Y-45458067D01*
X108927263Y-45605733D01*
X108927256Y-45605739D01*
X108755739Y-45777256D01*
X108755733Y-45777263D01*
X108608067Y-45969706D01*
X108486777Y-46179785D01*
X108486773Y-46179794D01*
X108393947Y-46403895D01*
X108331161Y-46638214D01*
X108299500Y-46878711D01*
X106650500Y-46878711D01*
X106650500Y-45504066D01*
X106650765Y-45495956D01*
X106653248Y-45458067D01*
X106667075Y-45247102D01*
X106669190Y-45231048D01*
X106717045Y-44990462D01*
X106721243Y-44974797D01*
X106744337Y-44906762D01*
X106800093Y-44742512D01*
X106806291Y-44727547D01*
X106914790Y-44507533D01*
X106922893Y-44493498D01*
X107059182Y-44289527D01*
X107069039Y-44276681D01*
X107230786Y-44092244D01*
X107242244Y-44080786D01*
X107426681Y-43919039D01*
X107439527Y-43909182D01*
X107643498Y-43772893D01*
X107657533Y-43764790D01*
X107877547Y-43656291D01*
X107892512Y-43650093D01*
X108119653Y-43572989D01*
X108124797Y-43571243D01*
X108140464Y-43567045D01*
X108381048Y-43519190D01*
X108397102Y-43517075D01*
X108645957Y-43500765D01*
X108654067Y-43500500D01*
X118977951Y-43500500D01*
X119044990Y-43520185D01*
G37*
%TD.AperFunction*%
%TD*%
%TA.AperFunction,Conductor*%
%TO.N,GND1*%
G36*
X149593039Y-53019685D02*
G01*
X149638794Y-53072489D01*
X149650000Y-53124000D01*
X149650000Y-57376000D01*
X149630315Y-57443039D01*
X149577511Y-57488794D01*
X149526000Y-57500000D01*
X144150000Y-57500000D01*
X144150000Y-60313799D01*
X144140561Y-60361252D01*
X144088845Y-60486103D01*
X144088842Y-60486113D01*
X144029453Y-60707759D01*
X144029451Y-60707770D01*
X143999500Y-60935258D01*
X143999500Y-61164741D01*
X144024446Y-61354215D01*
X144029452Y-61392238D01*
X144088842Y-61613887D01*
X144140561Y-61738748D01*
X144150000Y-61786199D01*
X144150000Y-64841102D01*
X144130315Y-64908141D01*
X144125267Y-64915413D01*
X144056203Y-65007669D01*
X144056202Y-65007671D01*
X144005908Y-65142517D01*
X143999501Y-65202116D01*
X143999500Y-65202135D01*
X143999500Y-67797870D01*
X143999501Y-67797876D01*
X144005908Y-67857483D01*
X144056202Y-67992328D01*
X144056204Y-67992331D01*
X144125266Y-68084586D01*
X144149684Y-68150050D01*
X144150000Y-68158897D01*
X144150000Y-73000000D01*
X149526000Y-73000000D01*
X149593039Y-73019685D01*
X149638794Y-73072489D01*
X149650000Y-73124000D01*
X149650000Y-77376000D01*
X149630315Y-77443039D01*
X149577511Y-77488794D01*
X149526000Y-77500000D01*
X131774000Y-77500000D01*
X131706961Y-77480315D01*
X131661206Y-77427511D01*
X131650000Y-77376000D01*
X131650000Y-63541856D01*
X131669685Y-63474817D01*
X131675366Y-63466707D01*
X134077582Y-60313799D01*
X139612780Y-53048850D01*
X139669067Y-53007455D01*
X139711414Y-53000000D01*
X149526000Y-53000000D01*
X149593039Y-53019685D01*
G37*
%TD.AperFunction*%
%TD*%
%TA.AperFunction,Conductor*%
%TO.N,ISO_12V_2*%
G36*
X127296049Y-120721601D02*
G01*
X127984715Y-121006050D01*
X128137840Y-121069298D01*
X128141652Y-121071845D01*
X128241709Y-121172055D01*
X128710035Y-121641097D01*
X128785081Y-121716257D01*
X128788502Y-121724533D01*
X128785069Y-121732803D01*
X128784345Y-121733468D01*
X128645654Y-121850424D01*
X128644108Y-121851526D01*
X128495590Y-121940174D01*
X128494257Y-121940858D01*
X128348426Y-122004243D01*
X128347613Y-122004561D01*
X128208110Y-122053184D01*
X128208056Y-122053203D01*
X128078932Y-122097508D01*
X128078929Y-122097509D01*
X127964564Y-122147913D01*
X127868823Y-122215021D01*
X127795617Y-122309411D01*
X127795617Y-122309412D01*
X127748837Y-122441681D01*
X127735610Y-122586947D01*
X127733446Y-122610719D01*
X127733349Y-122611780D01*
X127729186Y-122619708D01*
X127721697Y-122622419D01*
X126744310Y-122622419D01*
X126736037Y-122618992D01*
X126732610Y-122610719D01*
X126732612Y-122610492D01*
X126737609Y-122353075D01*
X126737637Y-122352467D01*
X126753424Y-122131771D01*
X126753514Y-122130936D01*
X126764725Y-122053203D01*
X126780017Y-121947165D01*
X126780210Y-121946152D01*
X126817603Y-121787709D01*
X126817886Y-121786714D01*
X126866411Y-121641902D01*
X126866715Y-121641097D01*
X126926662Y-121498291D01*
X126926862Y-121497841D01*
X126998555Y-121345400D01*
X126998604Y-121345298D01*
X127082131Y-121172030D01*
X127177684Y-120966461D01*
X127280844Y-120727773D01*
X127287272Y-120721540D01*
X127296049Y-120721601D01*
G37*
%TD.AperFunction*%
%TD*%
%TA.AperFunction,Conductor*%
%TO.N,ISO_12V_2*%
G36*
X127710525Y-119528638D02*
G01*
X127713973Y-119535804D01*
X127731458Y-119707067D01*
X127780406Y-119839468D01*
X127780408Y-119839472D01*
X127855805Y-119933223D01*
X127855806Y-119933223D01*
X127855808Y-119933226D01*
X127913145Y-119971834D01*
X127953724Y-119999160D01*
X127953726Y-119999160D01*
X127953728Y-119999162D01*
X128070238Y-120048111D01*
X128201326Y-120090877D01*
X128201396Y-120090937D01*
X128201408Y-120090904D01*
X128342886Y-120138229D01*
X128343716Y-120138543D01*
X128491304Y-120201044D01*
X128492670Y-120201733D01*
X128642735Y-120290154D01*
X128644309Y-120291267D01*
X128784313Y-120408914D01*
X128788442Y-120416859D01*
X128785743Y-120425397D01*
X128785066Y-120426137D01*
X128141660Y-121070534D01*
X128137847Y-121073081D01*
X127296035Y-121420783D01*
X127287080Y-121420774D01*
X127280835Y-121414626D01*
X127177816Y-121177214D01*
X127081698Y-120973066D01*
X126996944Y-120801196D01*
X126996916Y-120801139D01*
X126923551Y-120650310D01*
X126923361Y-120649900D01*
X126861276Y-120508648D01*
X126860970Y-120507877D01*
X126809987Y-120364667D01*
X126809683Y-120363673D01*
X126769585Y-120206831D01*
X126769371Y-120205805D01*
X126768651Y-120201341D01*
X126739995Y-120023604D01*
X126739890Y-120022745D01*
X126737874Y-119999160D01*
X126721151Y-119803569D01*
X126721116Y-119802978D01*
X126713304Y-119546961D01*
X126716477Y-119538588D01*
X126724642Y-119534910D01*
X126724805Y-119534907D01*
X127702221Y-119525293D01*
X127710525Y-119528638D01*
G37*
%TD.AperFunction*%
%TD*%
%TA.AperFunction,Conductor*%
%TO.N,ISO_12V_1*%
G36*
X127296034Y-55150405D02*
G01*
X128137848Y-55498108D01*
X128141661Y-55500655D01*
X128785066Y-56145052D01*
X128788486Y-56153328D01*
X128785053Y-56161599D01*
X128784314Y-56162276D01*
X128644310Y-56279938D01*
X128642723Y-56281060D01*
X128492690Y-56369498D01*
X128491314Y-56370192D01*
X128343779Y-56432712D01*
X128342929Y-56433034D01*
X128201503Y-56480389D01*
X128201420Y-56480416D01*
X128070367Y-56523216D01*
X128070362Y-56523218D01*
X127953899Y-56572194D01*
X127953890Y-56572198D01*
X127855987Y-56638164D01*
X127780570Y-56731953D01*
X127731572Y-56864384D01*
X127731572Y-56864387D01*
X127714001Y-57035674D01*
X127709748Y-57043554D01*
X127702240Y-57046179D01*
X126724909Y-57036020D01*
X126716672Y-57032508D01*
X126713332Y-57024199D01*
X126713337Y-57023958D01*
X126721278Y-56767986D01*
X126721310Y-56767418D01*
X126740132Y-56548225D01*
X126740239Y-56547366D01*
X126769647Y-56365193D01*
X126769855Y-56364199D01*
X126809952Y-56207371D01*
X126810257Y-56206370D01*
X126861214Y-56063167D01*
X126861509Y-56062424D01*
X126923560Y-55921159D01*
X126923716Y-55920820D01*
X126997076Y-55769906D01*
X127081772Y-55598062D01*
X127177845Y-55393937D01*
X127280836Y-55156561D01*
X127287271Y-55150338D01*
X127296034Y-55150405D01*
G37*
%TD.AperFunction*%
%TD*%
%TA.AperFunction,Conductor*%
%TO.N,ISO_12V_1*%
G36*
X127505702Y-53921282D02*
G01*
X127510863Y-53927459D01*
X127578007Y-54114417D01*
X127666050Y-54254346D01*
X127769698Y-54349852D01*
X127769702Y-54349854D01*
X127769703Y-54349855D01*
X127887322Y-54413702D01*
X127887327Y-54413703D01*
X127887330Y-54413705D01*
X128017242Y-54458632D01*
X128017254Y-54458635D01*
X128017259Y-54458637D01*
X128157756Y-54497380D01*
X128157952Y-54497436D01*
X128306965Y-54542613D01*
X128308028Y-54542993D01*
X128463715Y-54607155D01*
X128465238Y-54607916D01*
X128468631Y-54609934D01*
X128626407Y-54703780D01*
X128627996Y-54704915D01*
X128784406Y-54837717D01*
X128788494Y-54845684D01*
X128785752Y-54854209D01*
X128785114Y-54854901D01*
X128141911Y-55499308D01*
X128138096Y-55501857D01*
X127296020Y-55849600D01*
X127287065Y-55849591D01*
X127280828Y-55843459D01*
X127185647Y-55624904D01*
X127095963Y-55439003D01*
X127014693Y-55285196D01*
X126940168Y-55152398D01*
X126870777Y-55029627D01*
X126870642Y-55029379D01*
X126804798Y-54905712D01*
X126804574Y-54905266D01*
X126740531Y-54769524D01*
X126740274Y-54768937D01*
X126676287Y-54609917D01*
X126676074Y-54609340D01*
X126610452Y-54415887D01*
X126610290Y-54415371D01*
X126544600Y-54187588D01*
X126545600Y-54178689D01*
X126552600Y-54173104D01*
X126552693Y-54173078D01*
X127496825Y-53920113D01*
X127505702Y-53921282D01*
G37*
%TD.AperFunction*%
%TD*%
%TA.AperFunction,Conductor*%
%TO.N,Net-(Q3-G)*%
G36*
X146753928Y-106510523D02*
G01*
X146755285Y-106513108D01*
X147214463Y-107738737D01*
X147214157Y-107747687D01*
X147207612Y-107753798D01*
X147207308Y-107753907D01*
X147078075Y-107798296D01*
X146937444Y-107857853D01*
X146937436Y-107857857D01*
X146796816Y-107928660D01*
X146656229Y-108010693D01*
X146656216Y-108010701D01*
X146515600Y-108104001D01*
X146515580Y-108104015D01*
X146374979Y-108208555D01*
X146234343Y-108324370D01*
X146093740Y-108451408D01*
X145953121Y-108589712D01*
X145953118Y-108589715D01*
X145938897Y-108604840D01*
X145815965Y-108735582D01*
X145807801Y-108739261D01*
X145807441Y-108739267D01*
X145321495Y-108739267D01*
X145313222Y-108735840D01*
X145310188Y-108730573D01*
X145276753Y-108604821D01*
X145241030Y-108478350D01*
X145241016Y-108478302D01*
X145205274Y-108359653D01*
X145169532Y-108248893D01*
X145133790Y-108146022D01*
X145133786Y-108146010D01*
X145098051Y-108051047D01*
X145081490Y-108010693D01*
X145062306Y-107963947D01*
X145054269Y-107946137D01*
X145026571Y-107884755D01*
X145013088Y-107857853D01*
X144990822Y-107813426D01*
X144960300Y-107759263D01*
X144959224Y-107750373D01*
X144963802Y-107743920D01*
X146737641Y-106507613D01*
X146746386Y-106505695D01*
X146753928Y-106510523D01*
G37*
%TD.AperFunction*%
%TD*%
%TA.AperFunction,Conductor*%
%TO.N,Net-(Q1-G)*%
G36*
X146753701Y-66510614D02*
G01*
X146755033Y-66513259D01*
X147187319Y-67737864D01*
X147186841Y-67746806D01*
X147180181Y-67752792D01*
X147179116Y-67753112D01*
X147151887Y-67759899D01*
X147053692Y-67784374D01*
X147053685Y-67784376D01*
X147053682Y-67784377D01*
X146915785Y-67829998D01*
X146915774Y-67830001D01*
X146777876Y-67886871D01*
X146639970Y-67954994D01*
X146639930Y-67955015D01*
X146502075Y-68034360D01*
X146502028Y-68034389D01*
X146364150Y-68124994D01*
X146364140Y-68125000D01*
X146226232Y-68226872D01*
X146088331Y-68339990D01*
X145950404Y-68464380D01*
X145815915Y-68596642D01*
X145807711Y-68600000D01*
X145320742Y-68600000D01*
X145312469Y-68596573D01*
X145309725Y-68592239D01*
X145270669Y-68483013D01*
X145254393Y-68440262D01*
X145228849Y-68373160D01*
X145187024Y-68270398D01*
X145145199Y-68174740D01*
X145103374Y-68086188D01*
X145061549Y-68004740D01*
X145019724Y-67930397D01*
X144977899Y-67863160D01*
X144936074Y-67803027D01*
X144936073Y-67803025D01*
X144936070Y-67803021D01*
X144902057Y-67759899D01*
X144899624Y-67751281D01*
X144903997Y-67743467D01*
X144904689Y-67742961D01*
X146737461Y-66507452D01*
X146746236Y-66505670D01*
X146753701Y-66510614D01*
G37*
%TD.AperFunction*%
%TD*%
%TA.AperFunction,Conductor*%
%TO.N,Net-(Q1-G)*%
G36*
X145461726Y-67557403D02*
G01*
X145890771Y-67775990D01*
X145896587Y-67782799D01*
X145896908Y-67783998D01*
X145909378Y-67843062D01*
X145922981Y-67904120D01*
X145928323Y-67926776D01*
X145936604Y-67961891D01*
X145950220Y-68016262D01*
X145960091Y-68053231D01*
X145963837Y-68067257D01*
X145977460Y-68114902D01*
X145991065Y-68159111D01*
X146004686Y-68199995D01*
X146018300Y-68237483D01*
X146028487Y-68263010D01*
X146028370Y-68271964D01*
X146024335Y-68276928D01*
X145569606Y-68595593D01*
X145560864Y-68597534D01*
X145555135Y-68594771D01*
X145136571Y-68224172D01*
X145132649Y-68216122D01*
X145134402Y-68209217D01*
X145161269Y-68166192D01*
X145178898Y-68136106D01*
X145193369Y-68111414D01*
X145225483Y-68053234D01*
X145225485Y-68053231D01*
X145257593Y-67991687D01*
X145289702Y-67926769D01*
X145321810Y-67858476D01*
X145353918Y-67786807D01*
X145386026Y-67711764D01*
X145418134Y-67633346D01*
X145445531Y-67563554D01*
X145451743Y-67557107D01*
X145460696Y-67556940D01*
X145461726Y-67557403D01*
G37*
%TD.AperFunction*%
%TD*%
%TA.AperFunction,Conductor*%
%TO.N,/Line*%
G36*
X146762722Y-61052055D02*
G01*
X148926983Y-61412014D01*
X148934580Y-61416751D01*
X148936679Y-61422164D01*
X148947858Y-61515495D01*
X148960084Y-61611793D01*
X148972321Y-61702399D01*
X148984547Y-61787128D01*
X148996767Y-61866058D01*
X149008998Y-61939271D01*
X149021225Y-62006678D01*
X149033451Y-62068303D01*
X149045674Y-62124134D01*
X149057250Y-62171538D01*
X149057291Y-62176918D01*
X148838896Y-63133747D01*
X148833714Y-63141050D01*
X148824885Y-63142550D01*
X148821672Y-63141294D01*
X148627453Y-63029994D01*
X148419495Y-62918324D01*
X148211564Y-62814165D01*
X148096311Y-62760590D01*
X148003614Y-62717500D01*
X147795673Y-62628338D01*
X147795668Y-62628336D01*
X147587732Y-62546674D01*
X147379783Y-62472510D01*
X147171850Y-62405850D01*
X146963919Y-62346691D01*
X146764793Y-62297219D01*
X146757590Y-62291898D01*
X146755914Y-62285929D01*
X146755013Y-62124152D01*
X146749103Y-61063661D01*
X146752484Y-61055370D01*
X146760738Y-61051897D01*
X146762722Y-61052055D01*
G37*
%TD.AperFunction*%
%TD*%
%TA.AperFunction,Conductor*%
%TO.N,GND2*%
G36*
X124552603Y-119628411D02*
G01*
X124560356Y-119632888D01*
X124562674Y-119641537D01*
X124562644Y-119641752D01*
X124525844Y-119886140D01*
X124525747Y-119886690D01*
X124484127Y-120095062D01*
X124483963Y-120095771D01*
X124438249Y-120268020D01*
X124438002Y-120268829D01*
X124387189Y-120416344D01*
X124386898Y-120417104D01*
X124329875Y-120551492D01*
X124329632Y-120552026D01*
X124265314Y-120684708D01*
X124265207Y-120684924D01*
X124236474Y-120741208D01*
X124192501Y-120827349D01*
X124110486Y-120990664D01*
X124110475Y-120990686D01*
X124018191Y-121186144D01*
X123919161Y-121414621D01*
X123912727Y-121420849D01*
X123903960Y-121420782D01*
X123062031Y-121073073D01*
X123058217Y-121070525D01*
X122414901Y-120426106D01*
X122411481Y-120417830D01*
X122414915Y-120409560D01*
X122415608Y-120408922D01*
X122562806Y-120284358D01*
X122564357Y-120283251D01*
X122718875Y-120191173D01*
X122720293Y-120190456D01*
X122806087Y-120154095D01*
X122870721Y-120126703D01*
X122871623Y-120126364D01*
X123015576Y-120079290D01*
X123058352Y-120065961D01*
X123149932Y-120037427D01*
X123149936Y-120037425D01*
X123149950Y-120037421D01*
X123271483Y-119989219D01*
X123377365Y-119923002D01*
X123464782Y-119827086D01*
X123530924Y-119689789D01*
X123570663Y-119509900D01*
X123575793Y-119502563D01*
X123583612Y-119500826D01*
X124552603Y-119628411D01*
G37*
%TD.AperFunction*%
%TD*%
%TA.AperFunction,Conductor*%
%TO.N,GND2*%
G36*
X124094552Y-118508924D02*
G01*
X124095800Y-118510428D01*
X124665481Y-119327130D01*
X124667404Y-119335876D01*
X124666930Y-119337683D01*
X124641293Y-119411052D01*
X124641294Y-119411053D01*
X124641276Y-119411105D01*
X124613649Y-119492612D01*
X124586022Y-119576555D01*
X124586007Y-119576602D01*
X124558381Y-119662981D01*
X124530755Y-119751797D01*
X124503128Y-119843052D01*
X124475523Y-119936666D01*
X124475524Y-119936667D01*
X124475513Y-119936705D01*
X124447886Y-120032837D01*
X124447876Y-120032874D01*
X124420249Y-120131441D01*
X124396133Y-120219611D01*
X124390645Y-120226687D01*
X124381761Y-120227809D01*
X124380371Y-120227333D01*
X123475564Y-119852543D01*
X123469232Y-119846211D01*
X123468358Y-119842366D01*
X123464380Y-119768781D01*
X123460004Y-119690278D01*
X123455629Y-119614212D01*
X123451253Y-119540583D01*
X123446878Y-119469392D01*
X123442502Y-119400639D01*
X123438126Y-119334323D01*
X123437970Y-119332037D01*
X123433750Y-119270428D01*
X123433750Y-119270427D01*
X123429376Y-119209020D01*
X123425401Y-119155411D01*
X123428207Y-119146907D01*
X123428861Y-119146208D01*
X124078007Y-118508773D01*
X124086310Y-118505422D01*
X124094552Y-118508924D01*
G37*
%TD.AperFunction*%
%TD*%
%TA.AperFunction,Conductor*%
%TO.N,GND1*%
G36*
X123912915Y-55150416D02*
G01*
X123919161Y-55156568D01*
X123991890Y-55324363D01*
X124018189Y-55385039D01*
X124110485Y-55580523D01*
X124192500Y-55743837D01*
X124260827Y-55877683D01*
X124265206Y-55886260D01*
X124265313Y-55886476D01*
X124329639Y-56019174D01*
X124329881Y-56019708D01*
X124386892Y-56154065D01*
X124387184Y-56154825D01*
X124438006Y-56302366D01*
X124438252Y-56303175D01*
X124483960Y-56475394D01*
X124484125Y-56476103D01*
X124525750Y-56684489D01*
X124525847Y-56685039D01*
X124562649Y-56929428D01*
X124560492Y-56938119D01*
X124552821Y-56942740D01*
X124552606Y-56942770D01*
X123583620Y-57070364D01*
X123574971Y-57068046D01*
X123570668Y-57061288D01*
X123530928Y-56881401D01*
X123464785Y-56744102D01*
X123464783Y-56744099D01*
X123377370Y-56648190D01*
X123377368Y-56648188D01*
X123377367Y-56648187D01*
X123271485Y-56581970D01*
X123271483Y-56581969D01*
X123149942Y-56533764D01*
X123015707Y-56491939D01*
X123015552Y-56491890D01*
X122871643Y-56444831D01*
X122870721Y-56444485D01*
X122806026Y-56417068D01*
X122720293Y-56380734D01*
X122718869Y-56380012D01*
X122564367Y-56287943D01*
X122562798Y-56286823D01*
X122415623Y-56162280D01*
X122411521Y-56154320D01*
X122414250Y-56145791D01*
X122414893Y-56145090D01*
X123058219Y-55500662D01*
X123062028Y-55498117D01*
X123903961Y-55150407D01*
X123912915Y-55150416D01*
G37*
%TD.AperFunction*%
%TD*%
%TA.AperFunction,Conductor*%
%TO.N,GND1*%
G36*
X124336825Y-56224719D02*
G01*
X124337891Y-56227179D01*
X124365513Y-56318429D01*
X124397409Y-56421359D01*
X124429305Y-56521852D01*
X124429318Y-56521891D01*
X124461187Y-56619866D01*
X124461201Y-56619907D01*
X124492278Y-56713071D01*
X124493112Y-56715569D01*
X124494415Y-56719377D01*
X124524992Y-56808706D01*
X124543011Y-56859968D01*
X124556893Y-56899462D01*
X124572399Y-56942392D01*
X124588784Y-56987754D01*
X124620680Y-57073621D01*
X124640117Y-57124462D01*
X124650414Y-57151398D01*
X124650167Y-57160350D01*
X124649209Y-57162082D01*
X124095848Y-57989135D01*
X124088399Y-57994106D01*
X124079618Y-57992353D01*
X124077928Y-57990978D01*
X123428906Y-57353835D01*
X123425402Y-57345594D01*
X123425439Y-57344560D01*
X123429259Y-57297275D01*
X123429261Y-57297254D01*
X123433521Y-57242095D01*
X123435524Y-57214998D01*
X123437779Y-57184514D01*
X123442039Y-57124478D01*
X123446299Y-57062004D01*
X123450559Y-56997092D01*
X123454819Y-56929743D01*
X123459079Y-56859956D01*
X123463339Y-56787732D01*
X123467239Y-56719376D01*
X123471132Y-56711313D01*
X123473070Y-56709912D01*
X124320844Y-56220436D01*
X124329721Y-56219268D01*
X124336825Y-56224719D01*
G37*
%TD.AperFunction*%
%TD*%
%TA.AperFunction,Conductor*%
%TO.N,Net-(Q3-G)*%
G36*
X145804700Y-108257261D02*
G01*
X145812335Y-108261940D01*
X145813769Y-108264563D01*
X145833387Y-108314827D01*
X145855448Y-108367976D01*
X145877506Y-108417739D01*
X145899556Y-108464114D01*
X145921624Y-108507147D01*
X145943688Y-108546800D01*
X145965739Y-108583054D01*
X145987794Y-108615941D01*
X146009856Y-108645464D01*
X146023670Y-108661835D01*
X146026386Y-108670368D01*
X146022273Y-108678322D01*
X146021447Y-108678959D01*
X145569064Y-108996272D01*
X145560323Y-108998217D01*
X145555623Y-108996269D01*
X145280678Y-108803288D01*
X145102388Y-108678147D01*
X145097586Y-108670591D01*
X145099348Y-108662123D01*
X145115519Y-108637650D01*
X145137959Y-108600312D01*
X145160400Y-108559599D01*
X145182840Y-108515511D01*
X145205281Y-108468048D01*
X145227721Y-108417210D01*
X145250161Y-108362997D01*
X145272602Y-108305409D01*
X145295042Y-108244446D01*
X145314263Y-108189339D01*
X145320222Y-108182658D01*
X145327139Y-108181638D01*
X145804700Y-108257261D01*
G37*
%TD.AperFunction*%
%TD*%
%TA.AperFunction,Conductor*%
%TO.N,GND1*%
G36*
X146808116Y-71306816D02*
G01*
X147445451Y-71920619D01*
X147449033Y-71928826D01*
X147448834Y-71931205D01*
X147435005Y-72004845D01*
X147435000Y-72004875D01*
X147421327Y-72079732D01*
X147419995Y-72087027D01*
X147419994Y-72087026D01*
X147404995Y-72171401D01*
X147390002Y-72257973D01*
X147390003Y-72257974D01*
X147375003Y-72346850D01*
X147375004Y-72346851D01*
X147375000Y-72346875D01*
X147360000Y-72438000D01*
X147352500Y-72484687D01*
X147345003Y-72531353D01*
X147345000Y-72531375D01*
X147330000Y-72627000D01*
X147329997Y-72627020D01*
X147315002Y-72724854D01*
X147315003Y-72724855D01*
X147301493Y-72815033D01*
X147296878Y-72822708D01*
X147289922Y-72825000D01*
X146310078Y-72825000D01*
X146301805Y-72821573D01*
X146298507Y-72815033D01*
X146284997Y-72724855D01*
X146284997Y-72724854D01*
X146270003Y-72627020D01*
X146270000Y-72627000D01*
X146255000Y-72531375D01*
X146239999Y-72438000D01*
X146225000Y-72346875D01*
X146210000Y-72258000D01*
X146209996Y-72257975D01*
X146209996Y-72257974D01*
X146195005Y-72171401D01*
X146180005Y-72087026D01*
X146180005Y-72087027D01*
X146178672Y-72079732D01*
X146165000Y-72004875D01*
X146151165Y-71931204D01*
X146153006Y-71922442D01*
X146154543Y-71920623D01*
X146791884Y-71306815D01*
X146800220Y-71303545D01*
X146808116Y-71306816D01*
G37*
%TD.AperFunction*%
%TD*%
%TA.AperFunction,Conductor*%
%TO.N,Net-(C22-Pad1)*%
G36*
X147002140Y-110752728D02*
G01*
X147060524Y-110775125D01*
X147126021Y-110798000D01*
X147191518Y-110818625D01*
X147257016Y-110837000D01*
X147322513Y-110853125D01*
X147388010Y-110867000D01*
X147453508Y-110878625D01*
X147519005Y-110888000D01*
X147577059Y-110894315D01*
X147584483Y-110895123D01*
X147584484Y-110895123D01*
X147584502Y-110895125D01*
X147639169Y-110899193D01*
X147647164Y-110903225D01*
X147650000Y-110910861D01*
X147650000Y-111889138D01*
X147646573Y-111897411D01*
X147639169Y-111900806D01*
X147584480Y-111904876D01*
X147519019Y-111911998D01*
X147453508Y-111921375D01*
X147388009Y-111933000D01*
X147322517Y-111946874D01*
X147257003Y-111963003D01*
X147191528Y-111981372D01*
X147126026Y-112001998D01*
X147060512Y-112024879D01*
X147002142Y-112047270D01*
X146993191Y-112047033D01*
X146989654Y-112044594D01*
X146357196Y-111408246D01*
X146353795Y-111399964D01*
X146357196Y-111391753D01*
X146989655Y-110755404D01*
X146997916Y-110751953D01*
X147002140Y-110752728D01*
G37*
%TD.AperFunction*%
%TD*%
%TA.AperFunction,Conductor*%
%TO.N,Net-(C22-Pad1)*%
G36*
X150179230Y-110740488D02*
G01*
X150182987Y-110743014D01*
X150339622Y-110900000D01*
X150830254Y-111391736D01*
X150833672Y-111400013D01*
X150830254Y-111408264D01*
X150182989Y-112056984D01*
X150174720Y-112060420D01*
X150170275Y-112059548D01*
X150110980Y-112035278D01*
X150044500Y-112010503D01*
X149977995Y-111988157D01*
X149911475Y-111968244D01*
X149868078Y-111956845D01*
X149844993Y-111950781D01*
X149778494Y-111935750D01*
X149711995Y-111923156D01*
X149664043Y-111915832D01*
X149645492Y-111912999D01*
X149578989Y-111905280D01*
X149523274Y-111900855D01*
X149515298Y-111896784D01*
X149512500Y-111889192D01*
X149512500Y-110910807D01*
X149515927Y-110902534D01*
X149523273Y-110899144D01*
X149578998Y-110894718D01*
X149645497Y-110886999D01*
X149711995Y-110876843D01*
X149778494Y-110864249D01*
X149844993Y-110849218D01*
X149911491Y-110831750D01*
X149977990Y-110811843D01*
X150044488Y-110789500D01*
X150063390Y-110782455D01*
X150110980Y-110764721D01*
X150124474Y-110759197D01*
X150170276Y-110740451D01*
X150179230Y-110740488D01*
G37*
%TD.AperFunction*%
%TD*%
%TA.AperFunction,Conductor*%
%TO.N,Net-(C19-Pad1)*%
G36*
X146706808Y-90552966D02*
G01*
X146710345Y-90555405D01*
X147342802Y-91191752D01*
X147346204Y-91200036D01*
X147342802Y-91208248D01*
X146710345Y-91844594D01*
X146702083Y-91848046D01*
X146697857Y-91847270D01*
X146639486Y-91824879D01*
X146573972Y-91801998D01*
X146561361Y-91798027D01*
X146508481Y-91781375D01*
X146496029Y-91777881D01*
X146442995Y-91763003D01*
X146442983Y-91763000D01*
X146377486Y-91746875D01*
X146311989Y-91733000D01*
X146246491Y-91721375D01*
X146180994Y-91712000D01*
X146180989Y-91711999D01*
X146180979Y-91711998D01*
X146115518Y-91704876D01*
X146060831Y-91700806D01*
X146052836Y-91696774D01*
X146050000Y-91689138D01*
X146050000Y-90710861D01*
X146053427Y-90702588D01*
X146060830Y-90699193D01*
X146115497Y-90695125D01*
X146180994Y-90688000D01*
X146246491Y-90678625D01*
X146311989Y-90667000D01*
X146377486Y-90653125D01*
X146442983Y-90637000D01*
X146508481Y-90618625D01*
X146573978Y-90598000D01*
X146639475Y-90575125D01*
X146697858Y-90552729D01*
X146706808Y-90552966D01*
G37*
%TD.AperFunction*%
%TD*%
%TA.AperFunction,Conductor*%
%TO.N,Net-(C19-Pad1)*%
G36*
X143306747Y-90539512D02*
G01*
X143391250Y-90564718D01*
X143482500Y-90589500D01*
X143545084Y-90604824D01*
X143573745Y-90611842D01*
X143573750Y-90611843D01*
X143665000Y-90631750D01*
X143756250Y-90649218D01*
X143847499Y-90664249D01*
X143938749Y-90676843D01*
X144029999Y-90686999D01*
X144121249Y-90694718D01*
X144201478Y-90699362D01*
X144209537Y-90703260D01*
X144212500Y-90711041D01*
X144212500Y-91688957D01*
X144209073Y-91697230D01*
X144201476Y-91700637D01*
X144121252Y-91705280D01*
X144030005Y-91712999D01*
X143938754Y-91723155D01*
X143847488Y-91735751D01*
X143756252Y-91750780D01*
X143665007Y-91768247D01*
X143573745Y-91788156D01*
X143482502Y-91810498D01*
X143391256Y-91835279D01*
X143306750Y-91860486D01*
X143297843Y-91859567D01*
X143295061Y-91857474D01*
X143273253Y-91835281D01*
X142657056Y-91208198D01*
X142653702Y-91199898D01*
X142657056Y-91191801D01*
X143295063Y-90542524D01*
X143303304Y-90539025D01*
X143306747Y-90539512D01*
G37*
%TD.AperFunction*%
%TD*%
%TA.AperFunction,Conductor*%
%TO.N,Net-(C20-Pad1)*%
G36*
X151948772Y-75415927D02*
G01*
X151951950Y-75421798D01*
X151966250Y-75489967D01*
X151982500Y-75564997D01*
X151982509Y-75565036D01*
X151998740Y-75637547D01*
X152014989Y-75707699D01*
X152015000Y-75707744D01*
X152031250Y-75775461D01*
X152047499Y-75840741D01*
X152063749Y-75903583D01*
X152079999Y-75963988D01*
X152090584Y-76001749D01*
X152096256Y-76021982D01*
X152110549Y-76070822D01*
X152109584Y-76079725D01*
X152107584Y-76082390D01*
X151458264Y-76730254D01*
X151449987Y-76733672D01*
X151441736Y-76730254D01*
X150792415Y-76082390D01*
X150788979Y-76074121D01*
X150789450Y-76070822D01*
X150803742Y-76021982D01*
X150803750Y-76021956D01*
X150820000Y-75963988D01*
X150836250Y-75903583D01*
X150852500Y-75840741D01*
X150868750Y-75775461D01*
X150884999Y-75707744D01*
X150885010Y-75707699D01*
X150901259Y-75637547D01*
X150917490Y-75565036D01*
X150917499Y-75564997D01*
X150933749Y-75489967D01*
X150948049Y-75421797D01*
X150953102Y-75414405D01*
X150959500Y-75412500D01*
X151940499Y-75412500D01*
X151948772Y-75415927D01*
G37*
%TD.AperFunction*%
%TD*%
%TA.AperFunction,Conductor*%
%TO.N,Net-(C20-Pad1)*%
G36*
X150550298Y-71042669D02*
G01*
X150555306Y-71046762D01*
X150633712Y-71160005D01*
X150717454Y-71278703D01*
X150717485Y-71278746D01*
X150801228Y-71395195D01*
X150884971Y-71509394D01*
X150968714Y-71621344D01*
X151052456Y-71731043D01*
X151136199Y-71838492D01*
X151219942Y-71943691D01*
X151303685Y-72046640D01*
X151346789Y-72098472D01*
X151378881Y-72137063D01*
X151381536Y-72145615D01*
X151377366Y-72153540D01*
X151376110Y-72154451D01*
X150548017Y-72674774D01*
X150539188Y-72676274D01*
X150534158Y-72673733D01*
X150470360Y-72618804D01*
X150428343Y-72583972D01*
X150400025Y-72560496D01*
X150329686Y-72504434D01*
X150259347Y-72450622D01*
X150259343Y-72450619D01*
X150259322Y-72450603D01*
X150189005Y-72399057D01*
X150118673Y-72349750D01*
X150048359Y-72302705D01*
X150048356Y-72302703D01*
X150048329Y-72302685D01*
X149977990Y-72257873D01*
X149907651Y-72215311D01*
X149843683Y-72178651D01*
X149838210Y-72171565D01*
X149837831Y-72167678D01*
X149898949Y-71306465D01*
X149902952Y-71298458D01*
X149906273Y-71296433D01*
X150541344Y-71042558D01*
X150550298Y-71042669D01*
G37*
%TD.AperFunction*%
%TD*%
%TA.AperFunction,Conductor*%
%TO.N,+12V*%
G36*
X115448272Y-121078468D02*
G01*
X116358230Y-121989413D01*
X116361652Y-121997687D01*
X116359691Y-122004164D01*
X116322499Y-122060033D01*
X116280011Y-122130235D01*
X116279999Y-122130257D01*
X116238196Y-122205596D01*
X116237486Y-122206875D01*
X116195009Y-122289799D01*
X116152485Y-122379196D01*
X116109989Y-122474905D01*
X116067510Y-122576951D01*
X116024998Y-122685451D01*
X115982486Y-122800328D01*
X115942752Y-122913663D01*
X115936781Y-122920336D01*
X115931662Y-122921492D01*
X114948254Y-122917375D01*
X114939995Y-122913913D01*
X114937267Y-122909560D01*
X114897504Y-122796538D01*
X114855004Y-122682110D01*
X114812504Y-122574058D01*
X114812502Y-122574053D01*
X114770007Y-122472389D01*
X114770003Y-122472380D01*
X114727503Y-122377078D01*
X114727500Y-122377072D01*
X114727493Y-122377056D01*
X114685001Y-122288145D01*
X114642502Y-122205596D01*
X114600007Y-122129429D01*
X114557507Y-122059625D01*
X114520351Y-122004173D01*
X114518593Y-121995392D01*
X114521792Y-121989392D01*
X115431728Y-121078475D01*
X115439997Y-121075046D01*
X115448272Y-121078468D01*
G37*
%TD.AperFunction*%
%TD*%
%TA.AperFunction,Conductor*%
%TO.N,+12V*%
G36*
X115935027Y-121962117D02*
G01*
X115938454Y-121970390D01*
X115938365Y-121971834D01*
X115921000Y-122111446D01*
X115920999Y-122111457D01*
X115920998Y-122111456D01*
X115902000Y-122266628D01*
X115902001Y-122266629D01*
X115882999Y-122424282D01*
X115864000Y-122584330D01*
X115864001Y-122584331D01*
X115844999Y-122746858D01*
X115825998Y-122911802D01*
X115806998Y-123079184D01*
X115787998Y-123249002D01*
X115768999Y-123421239D01*
X115769000Y-123421240D01*
X115751268Y-123584283D01*
X115746967Y-123592137D01*
X115738372Y-123594649D01*
X115738342Y-123594646D01*
X115093591Y-123522868D01*
X115085748Y-123518547D01*
X115084589Y-123516795D01*
X114940109Y-123249002D01*
X114611648Y-122640200D01*
X114610737Y-122631293D01*
X114611847Y-122628740D01*
X114641673Y-122577808D01*
X114674820Y-122518767D01*
X114707968Y-122457289D01*
X114741115Y-122393373D01*
X114774263Y-122327019D01*
X114807410Y-122258228D01*
X114840557Y-122187000D01*
X114873705Y-122113334D01*
X114906852Y-122037231D01*
X114936982Y-121965841D01*
X114943356Y-121959551D01*
X114947761Y-121958690D01*
X115926754Y-121958690D01*
X115935027Y-121962117D01*
G37*
%TD.AperFunction*%
%TD*%
%TA.AperFunction,Conductor*%
%TO.N,+12V*%
G36*
X115447450Y-55508097D02*
G01*
X115448200Y-55508922D01*
X116198610Y-56416930D01*
X116201239Y-56425490D01*
X116197997Y-56432521D01*
X116143516Y-56488796D01*
X116143499Y-56488814D01*
X116081713Y-56559010D01*
X116019949Y-56635555D01*
X115958165Y-56718500D01*
X115896385Y-56807816D01*
X115834628Y-56903473D01*
X115834611Y-56903500D01*
X115775231Y-57001599D01*
X115772836Y-57005557D01*
X115711049Y-57114010D01*
X115649287Y-57228793D01*
X115649277Y-57228812D01*
X115621081Y-57284124D01*
X115590755Y-57343614D01*
X115583944Y-57349428D01*
X115580331Y-57350000D01*
X114598521Y-57350000D01*
X114590248Y-57346573D01*
X114586842Y-57338999D01*
X114580250Y-57228831D01*
X114580248Y-57228793D01*
X114572999Y-57114000D01*
X114565749Y-57005562D01*
X114558499Y-56903500D01*
X114551250Y-56807812D01*
X114544000Y-56718499D01*
X114536750Y-56635562D01*
X114529500Y-56558999D01*
X114522250Y-56488812D01*
X114515636Y-56430600D01*
X114518107Y-56421995D01*
X114518977Y-56421018D01*
X115430904Y-55508105D01*
X115439175Y-55504675D01*
X115447450Y-55508097D01*
G37*
%TD.AperFunction*%
%TD*%
%TA.AperFunction,Conductor*%
%TO.N,+12V*%
G36*
X115585786Y-56440927D02*
G01*
X115589067Y-56447362D01*
X115603750Y-56539718D01*
X115620000Y-56639500D01*
X115620004Y-56639523D01*
X115636246Y-56736820D01*
X115652495Y-56831725D01*
X115668745Y-56924192D01*
X115668750Y-56924218D01*
X115684999Y-57014249D01*
X115701249Y-57101843D01*
X115717499Y-57186999D01*
X115733749Y-57269718D01*
X115733756Y-57269751D01*
X115733755Y-57269751D01*
X115748741Y-57343781D01*
X115747024Y-57352569D01*
X115745474Y-57354447D01*
X115095700Y-57992942D01*
X115087398Y-57996297D01*
X115079300Y-57992942D01*
X114830450Y-57748412D01*
X114429524Y-57354446D01*
X114426025Y-57346204D01*
X114426257Y-57343788D01*
X114441250Y-57269718D01*
X114457500Y-57186999D01*
X114473750Y-57101843D01*
X114490000Y-57014249D01*
X114506250Y-56924218D01*
X114506255Y-56924192D01*
X114522504Y-56831725D01*
X114538753Y-56736820D01*
X114554995Y-56639523D01*
X114554999Y-56639500D01*
X114571249Y-56539718D01*
X114585932Y-56447363D01*
X114590616Y-56439730D01*
X114597487Y-56437500D01*
X115577513Y-56437500D01*
X115585786Y-56440927D01*
G37*
%TD.AperFunction*%
%TD*%
%TA.AperFunction,Conductor*%
%TO.N,GND1*%
G36*
X151102156Y-53677932D02*
G01*
X151104937Y-53680024D01*
X151173052Y-53749342D01*
X151742942Y-54329300D01*
X151746297Y-54337602D01*
X151742942Y-54345700D01*
X151104938Y-54994974D01*
X151096695Y-54998474D01*
X151093249Y-54997986D01*
X151008742Y-54972779D01*
X150917496Y-54947998D01*
X150826253Y-54925656D01*
X150734991Y-54905747D01*
X150643747Y-54888280D01*
X150552510Y-54873251D01*
X150461244Y-54860655D01*
X150369993Y-54850499D01*
X150278746Y-54842780D01*
X150198524Y-54838138D01*
X150190463Y-54834239D01*
X150187500Y-54826458D01*
X150187500Y-53848541D01*
X150190927Y-53840268D01*
X150198521Y-53836862D01*
X150278750Y-53832218D01*
X150370000Y-53824499D01*
X150461250Y-53814343D01*
X150552500Y-53801749D01*
X150643750Y-53786718D01*
X150734999Y-53769250D01*
X150826249Y-53749343D01*
X150917499Y-53727000D01*
X151008749Y-53702218D01*
X151093250Y-53677013D01*
X151102156Y-53677932D01*
G37*
%TD.AperFunction*%
%TD*%
%TA.AperFunction,Conductor*%
%TO.N,GND1*%
G36*
X142999291Y-79128427D02*
G01*
X143002320Y-79133675D01*
X143020692Y-79202348D01*
X143041384Y-79276322D01*
X143041388Y-79276335D01*
X143062089Y-79346964D01*
X143082765Y-79414137D01*
X143103454Y-79477978D01*
X143124156Y-79538479D01*
X143144846Y-79595572D01*
X143165531Y-79649278D01*
X143186229Y-79699641D01*
X143203171Y-79738100D01*
X143203370Y-79747053D01*
X143199473Y-79752185D01*
X142757009Y-80083255D01*
X142748332Y-80085468D01*
X142742991Y-80083255D01*
X142300526Y-79752185D01*
X142295954Y-79744485D01*
X142296827Y-79738103D01*
X142313771Y-79699639D01*
X142334463Y-79649290D01*
X142355155Y-79595566D01*
X142375847Y-79538467D01*
X142396539Y-79477994D01*
X142417231Y-79414145D01*
X142437923Y-79346921D01*
X142458615Y-79276322D01*
X142479307Y-79202348D01*
X142481156Y-79195436D01*
X142497680Y-79133676D01*
X142503128Y-79126570D01*
X142508982Y-79125000D01*
X142991018Y-79125000D01*
X142999291Y-79128427D01*
G37*
%TD.AperFunction*%
%TD*%
%TA.AperFunction,Conductor*%
%TO.N,GND1*%
G36*
X123779184Y-53917883D02*
G01*
X124659702Y-54341924D01*
X124665668Y-54348601D01*
X124665166Y-54357542D01*
X124665121Y-54357635D01*
X124569049Y-54552678D01*
X124568947Y-54552879D01*
X124482315Y-54720532D01*
X124482213Y-54720725D01*
X124406821Y-54860180D01*
X124406745Y-54860319D01*
X124339217Y-54981283D01*
X124339200Y-54981312D01*
X124276306Y-55093213D01*
X124276307Y-55093214D01*
X124214627Y-55205844D01*
X124150968Y-55328570D01*
X124081928Y-55471155D01*
X124004255Y-55643063D01*
X123919119Y-55843325D01*
X123912729Y-55849598D01*
X123903886Y-55849562D01*
X123061730Y-55501793D01*
X123057914Y-55499244D01*
X123029882Y-55471155D01*
X122414785Y-54854803D01*
X122411367Y-54846526D01*
X122414802Y-54838256D01*
X122415380Y-54837717D01*
X122575684Y-54698554D01*
X122577098Y-54697503D01*
X122736907Y-54596515D01*
X122738349Y-54595741D01*
X122889728Y-54527768D01*
X122890813Y-54527345D01*
X123034824Y-54479646D01*
X123035105Y-54479559D01*
X123172277Y-54439588D01*
X123207359Y-54427544D01*
X123302820Y-54394773D01*
X123302821Y-54394772D01*
X123302825Y-54394771D01*
X123427206Y-54332435D01*
X123546022Y-54239864D01*
X123659876Y-54104343D01*
X123763959Y-53922609D01*
X123771044Y-53917134D01*
X123779184Y-53917883D01*
G37*
%TD.AperFunction*%
%TD*%
%TA.AperFunction,Conductor*%
%TO.N,GND1*%
G36*
X125220242Y-49899984D02*
G01*
X125228509Y-49903421D01*
X125231926Y-49911699D01*
X125231918Y-49912129D01*
X125223999Y-50120107D01*
X125223914Y-50121131D01*
X125201250Y-50300258D01*
X125201060Y-50301348D01*
X125167687Y-50450232D01*
X125167431Y-50451184D01*
X125126864Y-50580137D01*
X125126672Y-50580696D01*
X125082380Y-50700000D01*
X125037993Y-50819553D01*
X125037976Y-50819604D01*
X124997180Y-50949284D01*
X124997179Y-50949286D01*
X124963577Y-51099196D01*
X124940781Y-51279373D01*
X124940780Y-51279381D01*
X124932809Y-51488745D01*
X124929069Y-51496882D01*
X124921117Y-51500000D01*
X123943643Y-51500000D01*
X123935370Y-51496573D01*
X123931951Y-51488745D01*
X123923980Y-51279388D01*
X123901180Y-51099184D01*
X123867580Y-50949286D01*
X123826780Y-50819592D01*
X123782380Y-50700000D01*
X123738087Y-50580696D01*
X123737895Y-50580137D01*
X123697328Y-50451184D01*
X123697072Y-50450232D01*
X123663699Y-50301348D01*
X123663510Y-50300269D01*
X123640843Y-50121112D01*
X123640761Y-50120125D01*
X123632841Y-49912126D01*
X123635951Y-49903732D01*
X123644088Y-49899992D01*
X123644470Y-49899984D01*
X124432380Y-49899000D01*
X125220242Y-49899984D01*
G37*
%TD.AperFunction*%
%TD*%
%TA.AperFunction,Conductor*%
%TO.N,GND1*%
G36*
X124750326Y-57729154D02*
G01*
X124755388Y-57733203D01*
X124832010Y-57841552D01*
X124913951Y-57954983D01*
X124913979Y-57955021D01*
X124913987Y-57955032D01*
X124995981Y-58066100D01*
X125077974Y-58174731D01*
X125077996Y-58174760D01*
X125078013Y-58174782D01*
X125159958Y-58280912D01*
X125241971Y-58384692D01*
X125323976Y-58486025D01*
X125405934Y-58584863D01*
X125487930Y-58681309D01*
X125562753Y-58767093D01*
X125565609Y-58775581D01*
X125562209Y-58783057D01*
X124870468Y-59474798D01*
X124862195Y-59478225D01*
X124854607Y-59475430D01*
X124781630Y-59413245D01*
X124781619Y-59413236D01*
X124781605Y-59413224D01*
X124700380Y-59346449D01*
X124619155Y-59282112D01*
X124537931Y-59220212D01*
X124456706Y-59160749D01*
X124375481Y-59103724D01*
X124294257Y-59049137D01*
X124294234Y-59049122D01*
X124213047Y-58996995D01*
X124131802Y-58947272D01*
X124056671Y-58903543D01*
X124051244Y-58896420D01*
X124050865Y-58892967D01*
X124086492Y-58006778D01*
X124090249Y-57998650D01*
X124093720Y-57996434D01*
X124741374Y-57729143D01*
X124750326Y-57729154D01*
G37*
%TD.AperFunction*%
%TD*%
%TA.AperFunction,Conductor*%
%TO.N,GND2*%
G36*
X142999291Y-119328427D02*
G01*
X143002320Y-119333675D01*
X143020692Y-119402348D01*
X143041384Y-119476322D01*
X143041388Y-119476335D01*
X143062089Y-119546964D01*
X143082765Y-119614137D01*
X143103454Y-119677978D01*
X143124156Y-119738479D01*
X143144846Y-119795572D01*
X143165531Y-119849278D01*
X143186229Y-119899641D01*
X143203171Y-119938100D01*
X143203370Y-119947053D01*
X143199473Y-119952185D01*
X142757009Y-120283255D01*
X142748332Y-120285468D01*
X142742991Y-120283255D01*
X142300526Y-119952185D01*
X142295954Y-119944485D01*
X142296827Y-119938103D01*
X142313771Y-119899639D01*
X142334463Y-119849290D01*
X142355155Y-119795566D01*
X142375847Y-119738467D01*
X142396539Y-119677994D01*
X142417231Y-119614145D01*
X142437923Y-119546921D01*
X142458615Y-119476322D01*
X142479307Y-119402348D01*
X142481156Y-119395436D01*
X142497680Y-119333676D01*
X142503128Y-119326570D01*
X142508982Y-119325000D01*
X142991018Y-119325000D01*
X142999291Y-119328427D01*
G37*
%TD.AperFunction*%
%TD*%
%TA.AperFunction,Conductor*%
%TO.N,GND2*%
G36*
X123912815Y-120721647D02*
G01*
X123919104Y-120727900D01*
X123992651Y-120902037D01*
X124059834Y-121052985D01*
X124059845Y-121053009D01*
X124119715Y-121178172D01*
X124175804Y-121285558D01*
X124175811Y-121285570D01*
X124231652Y-121383196D01*
X124290815Y-121479146D01*
X124356789Y-121581368D01*
X124433204Y-121698029D01*
X124433228Y-121698066D01*
X124523469Y-121836963D01*
X124523530Y-121837057D01*
X124625016Y-121996591D01*
X124626565Y-122005411D01*
X124621424Y-122012743D01*
X124621369Y-122012778D01*
X123794117Y-122532558D01*
X123785288Y-122534058D01*
X123778244Y-122529269D01*
X123689687Y-122400169D01*
X123600726Y-122295926D01*
X123514408Y-122219436D01*
X123485412Y-122201066D01*
X123427428Y-122164330D01*
X123427424Y-122164328D01*
X123427421Y-122164326D01*
X123427420Y-122164326D01*
X123381936Y-122144274D01*
X123336449Y-122124221D01*
X123284483Y-122107579D01*
X123238193Y-122092755D01*
X123238180Y-122092751D01*
X123238163Y-122092746D01*
X123129363Y-122063557D01*
X123129335Y-122063535D01*
X123129332Y-122063549D01*
X123006753Y-122030286D01*
X123006324Y-122030160D01*
X122866886Y-121986537D01*
X122866244Y-121986316D01*
X122717302Y-121930042D01*
X122710774Y-121923912D01*
X122710492Y-121914962D01*
X122710600Y-121914687D01*
X123057612Y-121074834D01*
X123063938Y-121068498D01*
X123903861Y-120721638D01*
X123912815Y-120721647D01*
G37*
%TD.AperFunction*%
%TD*%
%TA.AperFunction,Conductor*%
%TO.N,GND2*%
G36*
X124749553Y-117154401D02*
G01*
X124749641Y-117154510D01*
X124910641Y-117356398D01*
X125359796Y-117919621D01*
X125362275Y-117928225D01*
X125359633Y-117934410D01*
X125304165Y-118000895D01*
X125242618Y-118077104D01*
X125181002Y-118155838D01*
X125119466Y-118236907D01*
X125057883Y-118320472D01*
X124996298Y-118406478D01*
X124934706Y-118494937D01*
X124873109Y-118585838D01*
X124811611Y-118679026D01*
X124811612Y-118679027D01*
X124811574Y-118679085D01*
X124785303Y-118719933D01*
X124755283Y-118766613D01*
X124747925Y-118771717D01*
X124740972Y-118771096D01*
X124093648Y-118503487D01*
X124087312Y-118497160D01*
X124086427Y-118493133D01*
X124051985Y-117607543D01*
X124055088Y-117599145D01*
X124058441Y-117596627D01*
X124120748Y-117565494D01*
X124189805Y-117528550D01*
X124189820Y-117528541D01*
X124189832Y-117528535D01*
X124211792Y-117516011D01*
X124258862Y-117489169D01*
X124327918Y-117447351D01*
X124396975Y-117403095D01*
X124466032Y-117356401D01*
X124535088Y-117307270D01*
X124604145Y-117255702D01*
X124673202Y-117201696D01*
X124733092Y-117152745D01*
X124741664Y-117150164D01*
X124749553Y-117154401D01*
G37*
%TD.AperFunction*%
%TD*%
%TA.AperFunction,Conductor*%
%TO.N,GND2*%
G36*
X125229390Y-129424617D02*
G01*
X125232809Y-129432445D01*
X125240780Y-129641807D01*
X125240781Y-129641815D01*
X125263577Y-129821992D01*
X125297179Y-129971902D01*
X125297180Y-129971904D01*
X125337976Y-130101584D01*
X125337993Y-130101635D01*
X125382380Y-130221190D01*
X125426671Y-130340490D01*
X125426864Y-130341051D01*
X125467431Y-130470004D01*
X125467687Y-130470956D01*
X125501060Y-130619840D01*
X125501250Y-130620930D01*
X125523914Y-130800057D01*
X125523999Y-130801081D01*
X125531918Y-131009060D01*
X125528808Y-131017457D01*
X125520671Y-131021197D01*
X125520241Y-131021205D01*
X124732395Y-131022189D01*
X124732365Y-131022189D01*
X123944518Y-131021205D01*
X123936250Y-131017768D01*
X123932833Y-131009490D01*
X123932840Y-131009104D01*
X123940761Y-130801062D01*
X123940843Y-130800078D01*
X123963511Y-130620916D01*
X123963696Y-130619853D01*
X123997074Y-130470946D01*
X123997328Y-130470004D01*
X124037895Y-130341051D01*
X124038088Y-130340490D01*
X124082380Y-130221190D01*
X124126766Y-130101635D01*
X124126766Y-130101632D01*
X124126780Y-130101597D01*
X124167580Y-129971903D01*
X124201180Y-129822005D01*
X124223980Y-129641801D01*
X124231951Y-129432443D01*
X124235691Y-129424308D01*
X124243643Y-129421190D01*
X125221117Y-129421190D01*
X125229390Y-129424617D01*
G37*
%TD.AperFunction*%
%TD*%
%TA.AperFunction,Conductor*%
%TO.N,/Line*%
G36*
X151127162Y-62102954D02*
G01*
X151129845Y-62105031D01*
X151743183Y-62741884D01*
X151746454Y-62750220D01*
X151743183Y-62758116D01*
X151129845Y-63394968D01*
X151121638Y-63398550D01*
X151118272Y-63398121D01*
X151034984Y-63374870D01*
X150945009Y-63352002D01*
X150855025Y-63331379D01*
X150764995Y-63312999D01*
X150674973Y-63296870D01*
X150585030Y-63283004D01*
X150585005Y-63283000D01*
X150585000Y-63283000D01*
X150495000Y-63271375D01*
X150494981Y-63271373D01*
X150405020Y-63262002D01*
X150405016Y-63262001D01*
X150405000Y-63262000D01*
X150315000Y-63254875D01*
X150314995Y-63254874D01*
X150314986Y-63254874D01*
X150236067Y-63250599D01*
X150227991Y-63246729D01*
X150225000Y-63238916D01*
X150225000Y-62261083D01*
X150228427Y-62252810D01*
X150236065Y-62249400D01*
X150315000Y-62245125D01*
X150405000Y-62238000D01*
X150495000Y-62228624D01*
X150584999Y-62217000D01*
X150675000Y-62203125D01*
X150765000Y-62187000D01*
X150855000Y-62168625D01*
X150945000Y-62148000D01*
X151035000Y-62125125D01*
X151118272Y-62101878D01*
X151127162Y-62102954D01*
G37*
%TD.AperFunction*%
%TD*%
%TA.AperFunction,Conductor*%
%TO.N,Net-(Q2-G)*%
G36*
X143977152Y-84469732D02*
G01*
X144236659Y-84595130D01*
X144503648Y-84712893D01*
X144770637Y-84819406D01*
X145037626Y-84914670D01*
X145304615Y-84998683D01*
X145304636Y-84998688D01*
X145304637Y-84998689D01*
X145380345Y-85019322D01*
X145571604Y-85071446D01*
X145838593Y-85132960D01*
X146105582Y-85183223D01*
X146372571Y-85222236D01*
X146629971Y-85249002D01*
X146637844Y-85253266D01*
X146640414Y-85259603D01*
X146749450Y-86486573D01*
X146746769Y-86495117D01*
X146738832Y-86499263D01*
X146736592Y-86499247D01*
X144506686Y-86268616D01*
X144498810Y-86264356D01*
X144497231Y-86261802D01*
X144411611Y-86072474D01*
X144323223Y-85888273D01*
X144234835Y-85715323D01*
X144192382Y-85637659D01*
X144146454Y-85553635D01*
X144123961Y-85515349D01*
X144058058Y-85403172D01*
X143969670Y-85263972D01*
X143940839Y-85222236D01*
X143881287Y-85136029D01*
X143792894Y-85019322D01*
X143771749Y-84994095D01*
X143704505Y-84913870D01*
X143665658Y-84872468D01*
X143623872Y-84827934D01*
X143620710Y-84819556D01*
X143624130Y-84811656D01*
X143963792Y-84471994D01*
X143972064Y-84468568D01*
X143977152Y-84469732D01*
G37*
%TD.AperFunction*%
%TD*%
%TA.AperFunction,Conductor*%
%TO.N,Net-(Q2-G)*%
G36*
X142756995Y-81916744D02*
G01*
X143198491Y-82247079D01*
X143203063Y-82254779D01*
X143201535Y-82262432D01*
X143186233Y-82288133D01*
X143165528Y-82326290D01*
X143144837Y-82367792D01*
X143124141Y-82412683D01*
X143103449Y-82460941D01*
X143082755Y-82512571D01*
X143062065Y-82567572D01*
X143041361Y-82625982D01*
X143020675Y-82687722D01*
X143002531Y-82744828D01*
X142996760Y-82751675D01*
X142991538Y-82752984D01*
X142508729Y-82759512D01*
X142500410Y-82756197D01*
X142497411Y-82751325D01*
X142479328Y-82693818D01*
X142458634Y-82631381D01*
X142437939Y-82572319D01*
X142417245Y-82516632D01*
X142396551Y-82464321D01*
X142375856Y-82415384D01*
X142369657Y-82401735D01*
X142355159Y-82369814D01*
X142334468Y-82327638D01*
X142334467Y-82327635D01*
X142313773Y-82288823D01*
X142313378Y-82288147D01*
X142298361Y-82262432D01*
X142298342Y-82262400D01*
X142297130Y-82253529D01*
X142301434Y-82247134D01*
X142742979Y-81916744D01*
X142751655Y-81914532D01*
X142756995Y-81916744D01*
G37*
%TD.AperFunction*%
%TD*%
%TA.AperFunction,Conductor*%
%TO.N,Net-(Q4-G)*%
G36*
X142757007Y-122116743D02*
G01*
X143199473Y-122447814D01*
X143204045Y-122455514D01*
X143203171Y-122461899D01*
X143186229Y-122500357D01*
X143165531Y-122550720D01*
X143144846Y-122604426D01*
X143124156Y-122661519D01*
X143103454Y-122722021D01*
X143082765Y-122785861D01*
X143062099Y-122853002D01*
X143062076Y-122853078D01*
X143043970Y-122914851D01*
X143041388Y-122923663D01*
X143020692Y-122997652D01*
X143002321Y-123066324D01*
X142996872Y-123073430D01*
X142991018Y-123075000D01*
X142508982Y-123075000D01*
X142500709Y-123071573D01*
X142497680Y-123066324D01*
X142479324Y-122997715D01*
X142479307Y-122997651D01*
X142458615Y-122923677D01*
X142437923Y-122853078D01*
X142417231Y-122785854D01*
X142396539Y-122722006D01*
X142375847Y-122661532D01*
X142355155Y-122604433D01*
X142334463Y-122550709D01*
X142313771Y-122500360D01*
X142296827Y-122461897D01*
X142296629Y-122452946D01*
X142300524Y-122447815D01*
X142742991Y-122116743D01*
X142751668Y-122114531D01*
X142757007Y-122116743D01*
G37*
%TD.AperFunction*%
%TD*%
%TA.AperFunction,Conductor*%
%TO.N,Net-(Q4-G)*%
G36*
X143976472Y-124968307D02*
G01*
X144215017Y-125045130D01*
X144460364Y-125112893D01*
X144460373Y-125112895D01*
X144460380Y-125112897D01*
X144653879Y-125157467D01*
X144705711Y-125169406D01*
X144951058Y-125214670D01*
X145196405Y-125248683D01*
X145196425Y-125248684D01*
X145196434Y-125248686D01*
X145246521Y-125253332D01*
X145441752Y-125271446D01*
X145687099Y-125282960D01*
X145932446Y-125283223D01*
X146177793Y-125272236D01*
X146413276Y-125250894D01*
X146421825Y-125253560D01*
X146425650Y-125259582D01*
X146746982Y-126486486D01*
X146745763Y-126495357D01*
X146738628Y-126500768D01*
X146736013Y-126501145D01*
X144507446Y-126567609D01*
X144499074Y-126564430D01*
X144496648Y-126561178D01*
X144411609Y-126392387D01*
X144323223Y-126228199D01*
X144234835Y-126075258D01*
X144146446Y-125933567D01*
X144058058Y-125803126D01*
X143969670Y-125683934D01*
X143881281Y-125575993D01*
X143792893Y-125479302D01*
X143792884Y-125479292D01*
X143704506Y-125393862D01*
X143704505Y-125393861D01*
X143625892Y-125327875D01*
X143621760Y-125319934D01*
X143624454Y-125311394D01*
X143625131Y-125310655D01*
X143964615Y-124971171D01*
X143972887Y-124967745D01*
X143976472Y-124968307D01*
G37*
%TD.AperFunction*%
%TD*%
%TA.AperFunction,Conductor*%
%TO.N,Net-(C21-Pad1)*%
G36*
X152248666Y-58353427D02*
G01*
X152251869Y-58359424D01*
X152264993Y-58425589D01*
X152279992Y-58498958D01*
X152294992Y-58570078D01*
X152310007Y-58639026D01*
X152324990Y-58705569D01*
X152340011Y-58770029D01*
X152355003Y-58832120D01*
X152369457Y-58889809D01*
X152370000Y-58891977D01*
X152385000Y-58949599D01*
X152385006Y-58949622D01*
X152398222Y-58998408D01*
X152397077Y-59007289D01*
X152395177Y-59009765D01*
X151758248Y-59642802D01*
X151749964Y-59646204D01*
X151741752Y-59642802D01*
X151104822Y-59009765D01*
X151101370Y-59001503D01*
X151101775Y-58998416D01*
X151115000Y-58949599D01*
X151130000Y-58891977D01*
X151145000Y-58832105D01*
X151159999Y-58769983D01*
X151175000Y-58705611D01*
X151175010Y-58705569D01*
X151189991Y-58639026D01*
X151190000Y-58638988D01*
X151205000Y-58570116D01*
X151220000Y-58498994D01*
X151220008Y-58498958D01*
X151235007Y-58425589D01*
X151248131Y-58359424D01*
X151253102Y-58351975D01*
X151259607Y-58350000D01*
X152240393Y-58350000D01*
X152248666Y-58353427D01*
G37*
%TD.AperFunction*%
%TD*%
%TA.AperFunction,Conductor*%
%TO.N,Net-(C21-Pad1)*%
G36*
X151758264Y-57469745D02*
G01*
X152407584Y-58117608D01*
X152411020Y-58125877D01*
X152410549Y-58129176D01*
X152396267Y-58177978D01*
X152396250Y-58178037D01*
X152396249Y-58178042D01*
X152379999Y-58236010D01*
X152379986Y-58236057D01*
X152379983Y-58236069D01*
X152363748Y-58296416D01*
X152347511Y-58359204D01*
X152347512Y-58359205D01*
X152347499Y-58359257D01*
X152331250Y-58424537D01*
X152319538Y-58473342D01*
X152314989Y-58492300D01*
X152298740Y-58562452D01*
X152282508Y-58634962D01*
X152282500Y-58635002D01*
X152266250Y-58710032D01*
X152266242Y-58710070D01*
X152251950Y-58778202D01*
X152246897Y-58785595D01*
X152240499Y-58787500D01*
X151259500Y-58787500D01*
X151251227Y-58784073D01*
X151248049Y-58778202D01*
X151233757Y-58710070D01*
X151233749Y-58710032D01*
X151217499Y-58635002D01*
X151216334Y-58629799D01*
X151201259Y-58562452D01*
X151185010Y-58492300D01*
X151180445Y-58473278D01*
X151168750Y-58424537D01*
X151152500Y-58359257D01*
X151152487Y-58359205D01*
X151152487Y-58359204D01*
X151136250Y-58296416D01*
X151120016Y-58236069D01*
X151120012Y-58236057D01*
X151120000Y-58236010D01*
X151103750Y-58178042D01*
X151103748Y-58178037D01*
X151103732Y-58177978D01*
X151089450Y-58129176D01*
X151090415Y-58120273D01*
X151092411Y-58117612D01*
X151741736Y-57469744D01*
X151750013Y-57466327D01*
X151758264Y-57469745D01*
G37*
%TD.AperFunction*%
%TD*%
%TA.AperFunction,Conductor*%
%TO.N,ISO_12V_1*%
G36*
X126888124Y-56282913D02*
G01*
X127793045Y-56657730D01*
X127799377Y-56664061D01*
X127800216Y-56667440D01*
X127807097Y-56740336D01*
X127814641Y-56817823D01*
X127822186Y-56892873D01*
X127829730Y-56965485D01*
X127837274Y-57035660D01*
X127840665Y-57066101D01*
X127844822Y-57103420D01*
X127845230Y-57106948D01*
X127852363Y-57168695D01*
X127859908Y-57231558D01*
X127867451Y-57291981D01*
X127874248Y-57344222D01*
X127871917Y-57352869D01*
X127870844Y-57354080D01*
X127221751Y-57991463D01*
X127213447Y-57994815D01*
X127205205Y-57991313D01*
X127204124Y-57990042D01*
X126617648Y-57191741D01*
X126615512Y-57183045D01*
X126615953Y-57181188D01*
X126640245Y-57106948D01*
X126641366Y-57103420D01*
X126666419Y-57024520D01*
X126684624Y-56965485D01*
X126692562Y-56939746D01*
X126718720Y-56852488D01*
X126744879Y-56762793D01*
X126744891Y-56762753D01*
X126771027Y-56670699D01*
X126771929Y-56667440D01*
X126797196Y-56576091D01*
X126823355Y-56479083D01*
X126849513Y-56379638D01*
X126849522Y-56379605D01*
X126872319Y-56290814D01*
X126877695Y-56283653D01*
X126886561Y-56282392D01*
X126888124Y-56282913D01*
G37*
%TD.AperFunction*%
%TD*%
%TA.AperFunction,Conductor*%
%TO.N,ISO_12V_1*%
G36*
X126940648Y-49907278D02*
G01*
X126940658Y-49907288D01*
X127726413Y-50694026D01*
X127729835Y-50702301D01*
X127728591Y-50707544D01*
X127702375Y-50759758D01*
X127672374Y-50824012D01*
X127642385Y-50892735D01*
X127612391Y-50965969D01*
X127582376Y-51043758D01*
X127552366Y-51126036D01*
X127522392Y-51212710D01*
X127492378Y-51304004D01*
X127462378Y-51399756D01*
X127434878Y-51491654D01*
X127429223Y-51498598D01*
X127423669Y-51500000D01*
X126441091Y-51500000D01*
X126432818Y-51496573D01*
X126429882Y-51491654D01*
X126402380Y-51399749D01*
X126372380Y-51303999D01*
X126342380Y-51212749D01*
X126312380Y-51125999D01*
X126282380Y-51043750D01*
X126252380Y-50966000D01*
X126252379Y-50965998D01*
X126252368Y-50965969D01*
X126222374Y-50892735D01*
X126192385Y-50824012D01*
X126192380Y-50824000D01*
X126162380Y-50759750D01*
X126136168Y-50707544D01*
X126135518Y-50698613D01*
X126138345Y-50694027D01*
X126924102Y-49907287D01*
X126932373Y-49903856D01*
X126940648Y-49907278D01*
G37*
%TD.AperFunction*%
%TD*%
%TA.AperFunction,Conductor*%
%TO.N,ISO_12V_2*%
G36*
X127220472Y-118507369D02*
G01*
X127221385Y-118508177D01*
X127870394Y-119145477D01*
X127873896Y-119153719D01*
X127873629Y-119156309D01*
X127863136Y-119204598D01*
X127863126Y-119204649D01*
X127854480Y-119246214D01*
X127851243Y-119261782D01*
X127839371Y-119321303D01*
X127827498Y-119383260D01*
X127815639Y-119447580D01*
X127815640Y-119447581D01*
X127815633Y-119447619D01*
X127803760Y-119514456D01*
X127791886Y-119583730D01*
X127780013Y-119655441D01*
X127768140Y-119729590D01*
X127768136Y-119729619D01*
X127757274Y-119799678D01*
X127752620Y-119807328D01*
X127750190Y-119808694D01*
X126845104Y-120183633D01*
X126836149Y-120183634D01*
X126829817Y-120177302D01*
X126829240Y-120175516D01*
X126808313Y-120086986D01*
X126784215Y-119987485D01*
X126760118Y-119890422D01*
X126743962Y-119826984D01*
X126736011Y-119795761D01*
X126711913Y-119703571D01*
X126687815Y-119613819D01*
X126663717Y-119526504D01*
X126660306Y-119514490D01*
X126639632Y-119441671D01*
X126615535Y-119359233D01*
X126604097Y-119321259D01*
X126593190Y-119285049D01*
X126594085Y-119276142D01*
X126595230Y-119274401D01*
X127204032Y-118509239D01*
X127211864Y-118504900D01*
X127220472Y-118507369D01*
G37*
%TD.AperFunction*%
%TD*%
%TA.AperFunction,Conductor*%
%TO.N,ISO_12V_2*%
G36*
X127731942Y-129424617D02*
G01*
X127734877Y-129429534D01*
X127762380Y-129521440D01*
X127786628Y-129598831D01*
X127792378Y-129617184D01*
X127822392Y-129708478D01*
X127852366Y-129795152D01*
X127882376Y-129877431D01*
X127912391Y-129955219D01*
X127942385Y-130028453D01*
X127972374Y-130097176D01*
X128002375Y-130161430D01*
X128028591Y-130213645D01*
X128029241Y-130222576D01*
X128026413Y-130227163D01*
X127240658Y-131013901D01*
X127232387Y-131017333D01*
X127224112Y-131013911D01*
X127224102Y-131013901D01*
X126438346Y-130227163D01*
X126434924Y-130218888D01*
X126436168Y-130213645D01*
X126462380Y-130161439D01*
X126492380Y-130097189D01*
X126522380Y-130028439D01*
X126552380Y-129955189D01*
X126582380Y-129877440D01*
X126612380Y-129795190D01*
X126642380Y-129708440D01*
X126672380Y-129617190D01*
X126702380Y-129521440D01*
X126729882Y-129429535D01*
X126735537Y-129422592D01*
X126741091Y-129421190D01*
X127723669Y-129421190D01*
X127731942Y-129424617D01*
G37*
%TD.AperFunction*%
%TD*%
M02*
